%TF.GenerationSoftware,KiCad,Pcbnew,10.0.6*%
%TF.CreationDate,2026-09-05T00:08:37-07:00*%
%TF.ProjectId,ESP_32_IEM_RIG_RX_VER_1.0,4553505f-3332-45f4-9945-4d5f5249475f,0.0.0*%
%TF.SameCoordinates,Original*%
%TF.FileFunction,Paste,Top*%
%TF.FilePolarity,Positive*%
%FSLAX46Y46*%
G04 Gerber Fmt 4.6, Leading zero omitted, Abs format (unit mm)*
G04 Created by KiCad (PCBNEW 10.0.6) date 2026-09-05 00:08:37*
%MOMM*%
%LPD*%
G01*
G04 APERTURE LIST*
G04 Aperture macros list*
%AMRoundRect*
0 Rectangle with rounded corners*
0 $1 Rounding radius*
0 $2 $3 $4 $5 $6 $7 $8 $9 X,Y pos of 4 corners*
0 Add a 4 corners polygon primitive as box body*
4,1,4,$2,$3,$4,$5,$6,$7,$8,$9,$2,$3,0*
0 Add four circle primitives for the rounded corners*
1,1,$1+$1,$2,$3*
1,1,$1+$1,$4,$5*
1,1,$1+$1,$6,$7*
1,1,$1+$1,$8,$9*
0 Add four rect primitives between the rounded corners*
20,1,$1+$1,$2,$3,$4,$5,0*
20,1,$1+$1,$4,$5,$6,$7,0*
20,1,$1+$1,$6,$7,$8,$9,0*
20,1,$1+$1,$8,$9,$2,$3,0*%
G04 Aperture macros list end*
%ADD10C,0.010000*%
%ADD11RoundRect,0.250000X-0.475000X0.337500X-0.475000X-0.337500X0.475000X-0.337500X0.475000X0.337500X0*%
%ADD12RoundRect,0.250000X0.350000X0.450000X-0.350000X0.450000X-0.350000X-0.450000X0.350000X-0.450000X0*%
%ADD13RoundRect,0.247500X-0.247500X0.247500X-0.247500X-0.247500X0.247500X-0.247500X0.247500X0.247500X0*%
%ADD14RoundRect,0.075000X-0.075000X0.362500X-0.075000X-0.362500X0.075000X-0.362500X0.075000X0.362500X0*%
%ADD15RoundRect,0.075000X-0.362500X0.075000X-0.362500X-0.075000X0.362500X-0.075000X0.362500X0.075000X0*%
%ADD16RoundRect,0.250000X-0.450000X0.350000X-0.450000X-0.350000X0.450000X-0.350000X0.450000X0.350000X0*%
%ADD17RoundRect,0.250000X-0.350000X-0.450000X0.350000X-0.450000X0.350000X0.450000X-0.350000X0.450000X0*%
%ADD18RoundRect,0.175000X0.325000X-0.175000X0.325000X0.175000X-0.325000X0.175000X-0.325000X-0.175000X0*%
%ADD19RoundRect,0.150000X0.150000X-0.200000X0.150000X0.200000X-0.150000X0.200000X-0.150000X-0.200000X0*%
%ADD20RoundRect,0.250000X-0.337500X-0.475000X0.337500X-0.475000X0.337500X0.475000X-0.337500X0.475000X0*%
%ADD21RoundRect,0.250000X0.337500X0.475000X-0.337500X0.475000X-0.337500X-0.475000X0.337500X-0.475000X0*%
%ADD22RoundRect,0.250000X0.450000X-0.350000X0.450000X0.350000X-0.450000X0.350000X-0.450000X-0.350000X0*%
%ADD23RoundRect,0.250000X0.475000X-0.337500X0.475000X0.337500X-0.475000X0.337500X-0.475000X-0.337500X0*%
%ADD24R,2.200000X2.800000*%
%ADD25R,2.800000X2.800000*%
%ADD26RoundRect,0.150000X-0.587500X-0.150000X0.587500X-0.150000X0.587500X0.150000X-0.587500X0.150000X0*%
%ADD27RoundRect,0.150000X-0.500000X0.150000X-0.500000X-0.150000X0.500000X-0.150000X0.500000X0.150000X0*%
%ADD28RoundRect,0.175000X-0.175000X0.350000X-0.175000X-0.350000X0.175000X-0.350000X0.175000X0.350000X0*%
%ADD29R,0.900000X1.500000*%
%ADD30R,1.500000X0.900000*%
%ADD31R,0.900000X0.900000*%
%ADD32RoundRect,0.033750X-0.386250X-0.101250X0.386250X-0.101250X0.386250X0.101250X-0.386250X0.101250X0*%
%ADD33RoundRect,0.033750X-0.101250X-0.386250X0.101250X-0.386250X0.101250X0.386250X-0.101250X0.386250X0*%
%ADD34RoundRect,0.150000X0.150000X0.425000X-0.150000X0.425000X-0.150000X-0.425000X0.150000X-0.425000X0*%
%ADD35RoundRect,0.075000X0.075000X0.500000X-0.075000X0.500000X-0.075000X-0.500000X0.075000X-0.500000X0*%
%ADD36O,1.000000X2.100000*%
%ADD37O,1.000000X1.800000*%
%ADD38RoundRect,0.250001X-0.944999X0.507499X-0.944999X-0.507499X0.944999X-0.507499X0.944999X0.507499X0*%
%ADD39R,0.950000X2.150000*%
%ADD40R,3.250000X2.150000*%
%ADD41RoundRect,0.100000X0.637500X0.100000X-0.637500X0.100000X-0.637500X-0.100000X0.637500X-0.100000X0*%
%ADD42RoundRect,0.150000X-0.150000X-0.500000X0.150000X-0.500000X0.150000X0.500000X-0.150000X0.500000X0*%
%ADD43RoundRect,0.175000X-0.350000X-0.175000X0.350000X-0.175000X0.350000X0.175000X-0.350000X0.175000X0*%
G04 APERTURE END LIST*
D10*
%TO.C,U3*%
X135840000Y-74675000D02*
X136540000Y-74675000D01*
X136540000Y-75375000D01*
X135840000Y-75375000D01*
X135840000Y-74675000D01*
G36*
X136540000Y-75375000D02*
G01*
X135840000Y-75375000D01*
X135840000Y-74675000D01*
X136540000Y-74675000D01*
X136540000Y-75375000D01*
G37*
%TD*%
D11*
%TO.C,C30*%
X61900000Y-65975000D03*
X61900000Y-68050000D03*
%TD*%
D12*
%TO.C,R9*%
X123900000Y-70000000D03*
X121900000Y-70000000D03*
%TD*%
D13*
%TO.C,U5*%
X73120000Y-83390000D03*
X71900000Y-83390000D03*
X73120000Y-84610000D03*
X71900000Y-84610000D03*
D14*
X73760000Y-82062500D03*
X73260000Y-82062500D03*
X72760000Y-82062500D03*
X72260000Y-82062500D03*
X71760000Y-82062500D03*
X71260000Y-82062500D03*
D15*
X70572500Y-82750000D03*
X70572500Y-83250000D03*
X70572500Y-83750000D03*
X70572500Y-84250000D03*
X70572500Y-84750000D03*
X70572500Y-85250000D03*
D14*
X71260000Y-85937500D03*
X71760000Y-85937500D03*
X72260000Y-85937500D03*
X72760000Y-85937500D03*
X73260000Y-85937500D03*
X73760000Y-85937500D03*
D15*
X74447500Y-85250000D03*
X74447500Y-84750000D03*
X74447500Y-84250000D03*
X74447500Y-83750000D03*
X74447500Y-83250000D03*
X74447500Y-82750000D03*
%TD*%
D16*
%TO.C,R26*%
X67072500Y-86937500D03*
X67072500Y-88937500D03*
%TD*%
D17*
%TO.C,R8*%
X66400000Y-75250000D03*
X68400000Y-75250000D03*
%TD*%
D18*
%TO.C,D1*%
X71700000Y-49250000D03*
D19*
X73400000Y-49250000D03*
X73400000Y-47250000D03*
X71500000Y-47250000D03*
%TD*%
D11*
%TO.C,C6*%
X134940000Y-78015000D03*
X134940000Y-80090000D03*
%TD*%
D20*
%TO.C,C2*%
X113612500Y-68000000D03*
X115687500Y-68000000D03*
%TD*%
D21*
%TO.C,C28*%
X137187500Y-71750000D03*
X135112500Y-71750000D03*
%TD*%
D20*
%TO.C,C15*%
X110287500Y-87825000D03*
X112362500Y-87825000D03*
%TD*%
D16*
%TO.C,R32*%
X117900000Y-90250000D03*
X117900000Y-92250000D03*
%TD*%
D21*
%TO.C,C25*%
X68437500Y-82250000D03*
X66362500Y-82250000D03*
%TD*%
%TO.C,C27*%
X71225000Y-78000000D03*
X69150000Y-78000000D03*
%TD*%
D11*
%TO.C,C9*%
X138400000Y-78000000D03*
X138400000Y-80075000D03*
%TD*%
D22*
%TO.C,R24*%
X66150000Y-45750000D03*
X66150000Y-43750000D03*
%TD*%
D11*
%TO.C,C22*%
X59900000Y-65975000D03*
X59900000Y-68050000D03*
%TD*%
D23*
%TO.C,C10*%
X139400000Y-74250000D03*
X139400000Y-72175000D03*
%TD*%
D24*
%TO.C,J1*%
X139750000Y-68700000D03*
X141750000Y-61300000D03*
D25*
X132350000Y-61300000D03*
%TD*%
D21*
%TO.C,C17*%
X100825000Y-88450000D03*
X98750000Y-88450000D03*
%TD*%
D26*
%TO.C,Q1*%
X78237500Y-80410000D03*
X78237500Y-82310000D03*
X80112500Y-81360000D03*
%TD*%
D11*
%TO.C,C7*%
X132900000Y-75962500D03*
X132900000Y-78037500D03*
%TD*%
D27*
%TO.C,SW2*%
X61150000Y-86250000D03*
X61150000Y-89250000D03*
X61150000Y-90750000D03*
D28*
X60300000Y-84825000D03*
X58100000Y-84825000D03*
X60300000Y-92175000D03*
X58100000Y-92175000D03*
%TD*%
D27*
%TO.C,SW4*%
X61100000Y-40750000D03*
X61100000Y-43750000D03*
X61100000Y-45250000D03*
D28*
X60250000Y-39325000D03*
X58050000Y-39325000D03*
X60250000Y-46675000D03*
X58050000Y-46675000D03*
%TD*%
D29*
%TO.C,U2*%
X86100000Y-55500000D03*
X84830000Y-55500000D03*
X83560000Y-55500000D03*
X82290000Y-55500000D03*
X81020000Y-55500000D03*
X79750000Y-55500000D03*
X78480000Y-55500000D03*
X77210000Y-55500000D03*
X75940000Y-55500000D03*
X74670000Y-55500000D03*
X73400000Y-55500000D03*
X72130000Y-55500000D03*
X70860000Y-55500000D03*
X69590000Y-55500000D03*
D30*
X68495000Y-58535000D03*
X68495000Y-59805000D03*
X68495000Y-61075000D03*
X68495000Y-62345000D03*
X68495000Y-63615000D03*
X68495000Y-64885000D03*
X68495000Y-66155000D03*
X68495000Y-67425000D03*
X68495000Y-68695000D03*
X68495000Y-69965000D03*
D29*
X69590000Y-73000000D03*
X70860000Y-73000000D03*
X72130000Y-73000000D03*
X73400000Y-73000000D03*
X74670000Y-73000000D03*
X75940000Y-73000000D03*
X77210000Y-73000000D03*
X78480000Y-73000000D03*
X79750000Y-73000000D03*
X81020000Y-73000000D03*
X82290000Y-73000000D03*
X83560000Y-73000000D03*
X84830000Y-73000000D03*
X86100000Y-73000000D03*
D31*
X79935000Y-61350000D03*
X78535000Y-61350000D03*
X77135000Y-61350000D03*
X79935000Y-62750000D03*
X78535000Y-62750000D03*
X77135000Y-62750000D03*
X79935000Y-64150000D03*
X78535000Y-64150000D03*
X77135000Y-64150000D03*
%TD*%
D32*
%TO.C,U3*%
X134755000Y-74275000D03*
X134755000Y-74775000D03*
X134755000Y-75275000D03*
X134755000Y-75775000D03*
D33*
X135440000Y-76460000D03*
X135940000Y-76460000D03*
X136440000Y-76460000D03*
X136940000Y-76460000D03*
D32*
X137625000Y-75775000D03*
X137625000Y-75275000D03*
X137625000Y-74775000D03*
X137625000Y-74275000D03*
D33*
X136940000Y-73590000D03*
X136440000Y-73590000D03*
X135940000Y-73590000D03*
X135440000Y-73590000D03*
%TD*%
D16*
%TO.C,R27*%
X69072500Y-86937500D03*
X69072500Y-88937500D03*
%TD*%
D21*
%TO.C,C26*%
X71225000Y-80000000D03*
X69150000Y-80000000D03*
%TD*%
D34*
%TO.C,J6*%
X75850000Y-45430000D03*
X75050000Y-45430000D03*
D35*
X73900000Y-45430000D03*
X72900000Y-45430000D03*
X72400000Y-45430000D03*
X71400000Y-45430000D03*
D34*
X70250000Y-45430000D03*
X69450000Y-45430000D03*
X69450000Y-45430000D03*
X70250000Y-45430000D03*
D35*
X70900000Y-45430000D03*
X71900000Y-45430000D03*
X73400000Y-45430000D03*
X74400000Y-45430000D03*
D34*
X75050000Y-45430000D03*
X75850000Y-45430000D03*
D36*
X76970000Y-44855000D03*
D37*
X76970000Y-40675000D03*
D36*
X68330000Y-44855000D03*
D37*
X68330000Y-40675000D03*
%TD*%
D17*
%TO.C,R30*%
X79900000Y-78000000D03*
X81900000Y-78000000D03*
%TD*%
D23*
%TO.C,C19*%
X108537500Y-81575000D03*
X108537500Y-79500000D03*
%TD*%
D16*
%TO.C,R11*%
X76112500Y-86110000D03*
X76112500Y-88110000D03*
%TD*%
D17*
%TO.C,R3*%
X121900000Y-68000000D03*
X123900000Y-68000000D03*
%TD*%
D20*
%TO.C,C8*%
X131152500Y-74000000D03*
X133227500Y-74000000D03*
%TD*%
D17*
%TO.C,R16*%
X110412500Y-85325000D03*
X112412500Y-85325000D03*
%TD*%
D22*
%TO.C,R31*%
X102650000Y-81500000D03*
X102650000Y-79500000D03*
%TD*%
D23*
%TO.C,C12*%
X106537500Y-81575000D03*
X106537500Y-79500000D03*
%TD*%
D20*
%TO.C,C1*%
X113575000Y-63250000D03*
X115650000Y-63250000D03*
%TD*%
D38*
%TO.C,C23*%
X64650000Y-65995000D03*
X64650000Y-69250000D03*
%TD*%
D20*
%TO.C,C3*%
X113575000Y-70000000D03*
X115650000Y-70000000D03*
%TD*%
%TO.C,C20*%
X114625000Y-85250000D03*
X116700000Y-85250000D03*
%TD*%
%TO.C,C4*%
X113575000Y-76500000D03*
X115650000Y-76500000D03*
%TD*%
D26*
%TO.C,Q2*%
X78237500Y-86160000D03*
X78237500Y-88060000D03*
X80112500Y-87110000D03*
%TD*%
D39*
%TO.C,U4*%
X59600000Y-63625000D03*
X61900000Y-63625000D03*
X64200000Y-63625000D03*
D40*
X61900000Y-57825000D03*
%TD*%
D20*
%TO.C,C13*%
X106412500Y-90700000D03*
X108487500Y-90700000D03*
%TD*%
D17*
%TO.C,R1*%
X121900000Y-63250000D03*
X123900000Y-63250000D03*
%TD*%
%TO.C,R5*%
X117400000Y-68000000D03*
X119400000Y-68000000D03*
%TD*%
D20*
%TO.C,C16*%
X100125000Y-90450000D03*
X102200000Y-90450000D03*
%TD*%
D17*
%TO.C,R10*%
X121900000Y-76500000D03*
X123900000Y-76500000D03*
%TD*%
%TO.C,R17*%
X110412500Y-83325000D03*
X112412500Y-83325000D03*
%TD*%
D20*
%TO.C,C14*%
X110287500Y-89825000D03*
X112362500Y-89825000D03*
%TD*%
D17*
%TO.C,R2*%
X117400000Y-76500000D03*
X119400000Y-76500000D03*
%TD*%
D21*
%TO.C,C31*%
X77975000Y-78000000D03*
X75900000Y-78000000D03*
%TD*%
D17*
%TO.C,R6*%
X117400000Y-70000000D03*
X119400000Y-70000000D03*
%TD*%
D20*
%TO.C,C21*%
X114575000Y-83250000D03*
X116650000Y-83250000D03*
%TD*%
D23*
%TO.C,C5*%
X82400000Y-53575000D03*
X82400000Y-51500000D03*
%TD*%
D22*
%TO.C,R7*%
X76112500Y-82235000D03*
X76112500Y-80235000D03*
%TD*%
D41*
%TO.C,U1*%
X108400000Y-89000000D03*
X108400000Y-88350000D03*
X108400000Y-87700000D03*
X108400000Y-87050000D03*
X108400000Y-86400000D03*
X108400000Y-85750000D03*
X108400000Y-85100000D03*
X108400000Y-84450000D03*
X108400000Y-83800000D03*
X108400000Y-83150000D03*
X102675000Y-83150000D03*
X102675000Y-83800000D03*
X102675000Y-84450000D03*
X102675000Y-85100000D03*
X102675000Y-85750000D03*
X102675000Y-86400000D03*
X102675000Y-87050000D03*
X102675000Y-87700000D03*
X102675000Y-88350000D03*
X102675000Y-89000000D03*
%TD*%
D17*
%TO.C,R4*%
X117400000Y-63250000D03*
X119400000Y-63250000D03*
%TD*%
D42*
%TO.C,SW3*%
X121650000Y-89300000D03*
X124650000Y-89300000D03*
X126150000Y-89300000D03*
D43*
X120225000Y-90150000D03*
X120225000Y-92350000D03*
X127575000Y-90150000D03*
X127575000Y-92350000D03*
%TD*%
D22*
%TO.C,R25*%
X65072500Y-88937500D03*
X65072500Y-86937500D03*
%TD*%
%TO.C,R23*%
X79150000Y-45750000D03*
X79150000Y-43750000D03*
%TD*%
%TO.C,R22*%
X128400000Y-84000000D03*
X128400000Y-82000000D03*
%TD*%
D23*
%TO.C,C11*%
X84400000Y-53575000D03*
X84400000Y-51500000D03*
%TD*%
D21*
%TO.C,C24*%
X68437500Y-84250000D03*
X66362500Y-84250000D03*
%TD*%
M02*
