M48
; DRILL file KiCad 10.0.5 date 2026-08-30T15:46:17
; FORMAT={-:-/ absolute / inch / decimal}
; #@! TF.CreationDate,2026-08-30T15:46:17-07:00
; #@! TF.GenerationSoftware,Kicad,Pcbnew,10.0.5
; #@! TF.FileFunction,Plated,1,2,PTH
FMAT,2
INCH
; #@! TA.AperFunction,Plated,PTH,ComponentDrill
T1C0.0079
; #@! TA.AperFunction,Plated,PTH,ViaDrill
T2C0.0118
; #@! TA.AperFunction,Plated,PTH,ComponentDrill
T3C0.0236
; #@! TA.AperFunction,Plated,PTH,ComponentDrill
T4C0.0394
%
G90
G05
T1
X4.7087Y-4.2093
X4.7087Y-4.2644
X4.7362Y-4.1817
X4.7362Y-4.2368
X4.7362Y-4.2919
X4.7638Y-4.2093
X4.7638Y-4.2644
X4.7913Y-4.1817
X4.7913Y-4.2368
X4.7913Y-4.2919
X4.8189Y-4.2093
X4.8189Y-4.2644
T2
X3.9764Y-4.3012
X3.9764Y-4.6386
X3.9764Y-4.7244
X4.0317Y-4.4488
X4.1929Y-4.4783
X4.2712Y-4.4976
X4.2731Y-4.0059
X4.3061Y-4.4537
X4.3406Y-4.1634
X4.3474Y-4.4547
X4.3898Y-3.8583
X4.4094Y-4.4291
X4.412Y-4.2101
X4.5374Y-3.937
X4.5374Y-4.039
X4.5965Y-4.5768
X4.6407Y-4.8917
X4.7293Y-4.8917
X4.7933Y-1.7323
X4.872Y-2.1654
X5.0098Y-2.4016
X5.0113Y-2.8952
X5.0187Y-4.8917
X5.0187Y-4.9705
X5.0197Y-2.0768
X5.0886Y-1.874
X5.0886Y-4.813
X5.0984Y-2.0571
X5.1083Y-3.937
X5.1594Y-2.1909
X5.1845Y-1.8898
X5.2657Y-2.1654
X5.2657Y-4.4839
X5.266Y-4.4524
X5.2756Y-4.2618
X5.3125Y-4.5232
X5.3272Y-1.9138
X5.3445Y-2.2146
X5.3642Y-3.9823
X5.3642Y-4.0551
X5.3642Y-4.3898
X5.374Y-2.4508
X5.3839Y-3.0906
X5.3937Y-2.9626
X5.3986Y-4.6506
X5.4059Y-1.961
X5.4134Y-2.1004
X5.4429Y-2.0768
X5.4429Y-2.185
X5.4429Y-2.313
X5.47Y-4.1295
X5.4724Y-1.939
X5.4814Y-4.4445
X5.4921Y-4.8622
X5.502Y-3.3858
X5.5217Y-2.2146
X5.5315Y-2.3425
X5.5315Y-3.2032
X5.561Y-1.8504
X5.5684Y-4.7539
X5.5743Y-4.1689
X5.5822Y-4.1295
X5.5883Y-4.3497
X5.5935Y-3.1147
X5.5935Y-3.2328
X5.6013Y-4.2699
X5.6102Y-3.4744
X5.6112Y-2.6959
X5.6297Y-4.3533
X5.6319Y-4.3062
X5.6496Y-4.8298
X5.657Y-4.1689
X5.657Y-4.7807
X5.6988Y-3.2382
X5.7195Y-3.1147
X5.751Y-3.1147
X5.7579Y-2.8248
X5.7707Y-3.2328
X5.7751Y-4.5626
X5.7972Y-2.6476
X5.7972Y-4.872
X5.8071Y-2.4902
X5.8071Y-2.8445
X5.8169Y-1.8799
X5.8169Y-2.1752
X5.8268Y-3.9764
X5.8366Y-3.435
X5.844Y-4.6906
X5.8465Y-3.248
X5.8661Y-3.2087
X5.8809Y-2.9232
X5.9114Y-3.4744
X5.9154Y-3.5827
X5.9154Y-3.9764
X5.9252Y-2.7559
T4
X5.6201Y-1.7421
X5.6201Y-1.8406
X5.6201Y-2.0866
X5.7185Y-1.7421
X5.7185Y-1.8406
X5.8169Y-1.7421
X5.8169Y-1.8406
X5.8169Y-2.0866
T3
G00X3.9104Y-4.2984
M15
G01X3.8789Y-4.2984
M16
G05
G00X3.9104Y-4.6386
M15
G01X3.8789Y-4.6386
M16
G05
G00X4.0809Y-4.2984
M15
G01X4.0376Y-4.2984
M16
G05
G00X4.0809Y-4.6386
M15
G01X4.0376Y-4.6386
M16
G05
M30
