%TF.GenerationSoftware,KiCad,Pcbnew,10.0.6*%
%TF.CreationDate,2026-09-02T21:57:16-07:00*%
%TF.ProjectId,ESP_32_IEM_RIG_RX_VER_1.0,4553505f-3332-45f4-9945-4d5f5249475f,0.0.0*%
%TF.SameCoordinates,Original*%
%TF.FileFunction,Copper,L2,Bot*%
%TF.FilePolarity,Positive*%
%FSLAX46Y46*%
G04 Gerber Fmt 4.6, Leading zero omitted, Abs format (unit mm)*
G04 Created by KiCad (PCBNEW 10.0.6) date 2026-09-02 21:57:16*
%MOMM*%
%LPD*%
G01*
G04 APERTURE LIST*
%TA.AperFunction,HeatsinkPad*%
%ADD10C,0.600000*%
%TD*%
%TA.AperFunction,ComponentPad*%
%ADD11O,1.000000X2.100000*%
%TD*%
%TA.AperFunction,ComponentPad*%
%ADD12O,1.000000X1.800000*%
%TD*%
%TA.AperFunction,ComponentPad*%
%ADD13R,1.500000X1.500000*%
%TD*%
%TA.AperFunction,ComponentPad*%
%ADD14C,1.500000*%
%TD*%
%TA.AperFunction,ViaPad*%
%ADD15C,0.600000*%
%TD*%
%TA.AperFunction,Conductor*%
%ADD16C,0.500000*%
%TD*%
%TA.AperFunction,Conductor*%
%ADD17C,0.200000*%
%TD*%
G04 APERTURE END LIST*
D10*
%TO.P,U2,39,GND_39*%
%TO.N,GND*%
X79235000Y-61350000D03*
X77835000Y-61350000D03*
X79935000Y-62050000D03*
X78535000Y-62050000D03*
X77135000Y-62050000D03*
X79235000Y-62750000D03*
X77835000Y-62750000D03*
X79935000Y-63450000D03*
X78535000Y-63450000D03*
X77135000Y-63450000D03*
X79235000Y-64150000D03*
X77835000Y-64150000D03*
%TD*%
D11*
%TO.P,J6,SH,SHIELD_SH*%
%TO.N,GND*%
X76970000Y-44855000D03*
D12*
X76970000Y-40675000D03*
D11*
X68330000Y-44855000D03*
D12*
X68330000Y-40675000D03*
%TD*%
D13*
%TO.P,VR1,1,CCW1_1*%
%TO.N,GND*%
X141900000Y-89500000D03*
D14*
%TO.P,VR1,2,WIPER1_2*%
%TO.N,/Amp/POST_POT_IN_L*%
X141900000Y-87000000D03*
%TO.P,VR1,3,CW1_3*%
%TO.N,/DAC/DAC_OUT_L*%
X141900000Y-84500000D03*
%TO.P,VR1,4,CCW2_4*%
%TO.N,GND*%
X139400000Y-89500000D03*
%TO.P,VR1,5,WIPER2_5*%
%TO.N,/Amp/POST_POT_IN_R*%
X139400000Y-87000000D03*
%TO.P,VR1,6,CW2_6*%
%TO.N,/DAC/DAC_OUT_R*%
X139400000Y-84500000D03*
%TO.P,VR1,7,COM_7*%
%TO.N,+3V3*%
X133150000Y-89500000D03*
%TO.P,VR1,8,N.O._8*%
%TO.N,/Amp/SHDN_SIGNAL*%
X133150000Y-84500000D03*
%TD*%
D15*
%TO.N,+5V*%
X64720000Y-85437500D03*
X63472500Y-85250000D03*
%TO.N,GND*%
X116150000Y-92250000D03*
X68330000Y-42750000D03*
X126650000Y-82250000D03*
X104037500Y-83825000D03*
X86150000Y-57000000D03*
X142150000Y-63500000D03*
X133400000Y-80000000D03*
X61900000Y-69225000D03*
X98900000Y-90000000D03*
X103900000Y-86500000D03*
X104037500Y-88325000D03*
X67010000Y-90187500D03*
X125150000Y-69000000D03*
X61900000Y-59625000D03*
X107037500Y-83825000D03*
X66150000Y-42750000D03*
X63900000Y-71000000D03*
X73260000Y-80978280D03*
X112612500Y-69037500D03*
X131150000Y-75500000D03*
X71912132Y-50237868D03*
X61900000Y-61875000D03*
X59900000Y-69225000D03*
X117675000Y-84275000D03*
X68025000Y-78875000D03*
X103650000Y-90250000D03*
X65400000Y-83187500D03*
X86051472Y-51400000D03*
X69900000Y-58500000D03*
X107037500Y-87825000D03*
X138550000Y-71000000D03*
X74650000Y-78000000D03*
X86150000Y-71500000D03*
X138400000Y-89500000D03*
X133900000Y-71250000D03*
X76900000Y-42750000D03*
X136900000Y-80750000D03*
X113900000Y-89250000D03*
X107650000Y-78500000D03*
X102500000Y-77750000D03*
%TO.N,Net-(U3-INR+)*%
X132800000Y-79250000D03*
X136340000Y-79060771D03*
%TO.N,Net-(U5-D+)*%
X73059979Y-75506117D03*
X73000000Y-52174265D03*
%TO.N,Net-(U5-D-)*%
X72260000Y-75500000D03*
X73025000Y-51125000D03*
%TO.N,Net-(U5-VDD)*%
X70260000Y-88437500D03*
X71260000Y-76687500D03*
%TO.N,Net-(Q1-E)*%
X76773235Y-84799265D03*
X81260000Y-80687500D03*
X77693762Y-84022735D03*
X81260000Y-83537500D03*
%TO.N,/ESP Reciever/RXD*%
X75575932Y-84744637D03*
X80260000Y-85437500D03*
%TO.N,/ESP Reciever/TXD*%
X75668820Y-83693918D03*
X80260000Y-83337500D03*
%TO.N,+3V3*%
X104650000Y-90750000D03*
X85000000Y-78000000D03*
X83150000Y-78000000D03*
X79214265Y-53814265D03*
X85150000Y-92000000D03*
X137540000Y-77060504D03*
X118900000Y-89000000D03*
X62400000Y-89000001D03*
X97900000Y-91900000D03*
X130900000Y-89500000D03*
X85150000Y-89750000D03*
X62650000Y-81250000D03*
X95150000Y-92000000D03*
X104787500Y-82250000D03*
X122900000Y-89250000D03*
X133400000Y-69250000D03*
X73650000Y-53750000D03*
X130500000Y-72800000D03*
%TO.N,/Power Management/VBUS_RAW*%
X73150000Y-44155000D03*
X72400000Y-48250000D03*
%TO.N,Net-(U3-OUTR)*%
X139150000Y-83000000D03*
X123900000Y-78250000D03*
X130650000Y-80000000D03*
X127400000Y-80000000D03*
%TO.N,Net-(U3-OUTL)*%
X138150000Y-73435958D03*
X131150000Y-65500000D03*
%TO.N,/ESP Reciever/ESP_EN*%
X83560000Y-57000000D03*
X77900000Y-75750000D03*
%TO.N,/DAC/FLT_SEL*%
X97900000Y-84250000D03*
X100150000Y-81500000D03*
%TO.N,/DAC/BCK*%
X79250000Y-52000000D03*
X88150000Y-53250000D03*
%TO.N,/Amp/SHDN_SIGNAL*%
X129900000Y-82000000D03*
X129900000Y-77500000D03*
%TO.N,/Amp/POST_POT_IN_L*%
X110900000Y-78750000D03*
X114400000Y-88000000D03*
%TO.N,Net-(U1-CAPM)*%
X111900000Y-91125000D03*
X107037500Y-87024997D03*
%TD*%
%TO.N,+5V*%
D16*
X64720000Y-85437500D02*
X64532500Y-85250000D01*
X64532500Y-85250000D02*
X63472500Y-85250000D01*
%TO.N,GND*%
D17*
X68330000Y-42750000D02*
X68330000Y-42570000D01*
%TO.N,Net-(U3-INR+)*%
X136150771Y-79250000D02*
X132800000Y-79250000D01*
X136340000Y-79060771D02*
X136150771Y-79250000D01*
%TO.N,Net-(U5-D+)*%
X73000000Y-52174265D02*
X73000000Y-75446138D01*
X73000000Y-75446138D02*
X73059979Y-75506117D01*
%TO.N,Net-(U5-D-)*%
X72400000Y-75360000D02*
X72260000Y-75500000D01*
X72400000Y-51750000D02*
X72400000Y-75360000D01*
X73025000Y-51125000D02*
X72400000Y-51750000D01*
%TO.N,Net-(U5-VDD)*%
X70260000Y-77187500D02*
X70760000Y-76687500D01*
X70260000Y-88437500D02*
X70260000Y-77187500D01*
X70760000Y-76687500D02*
X71260000Y-76687500D01*
%TO.N,Net-(Q1-E)*%
X77693762Y-84022735D02*
X77684262Y-84013235D01*
X77559265Y-84013235D02*
X76773235Y-84799265D01*
X81260000Y-80687500D02*
X81260000Y-83537500D01*
X77684262Y-84013235D02*
X77559265Y-84013235D01*
%TO.N,/ESP Reciever/RXD*%
X80260000Y-85437500D02*
X76268795Y-85437500D01*
X76268795Y-85437500D02*
X75575932Y-84744637D01*
%TO.N,/ESP Reciever/TXD*%
X80060000Y-83437500D02*
X78258529Y-83437500D01*
X80260000Y-83337500D02*
X80160000Y-83337500D01*
X78258529Y-83437500D02*
X78243764Y-83422735D01*
X80160000Y-83337500D02*
X80060000Y-83437500D01*
X77430468Y-83437500D02*
X75760000Y-83437500D01*
X75668820Y-83528680D02*
X75668820Y-83693918D01*
X75760000Y-83437500D02*
X75668820Y-83528680D01*
X77445233Y-83422735D02*
X77430468Y-83437500D01*
X78243764Y-83422735D02*
X77445233Y-83422735D01*
%TO.N,+3V3*%
D16*
X122900000Y-89250000D02*
X122650000Y-89000000D01*
X130900000Y-89500000D02*
X130208148Y-88808148D01*
X129150000Y-77189339D02*
X129150000Y-87750000D01*
X83150000Y-78000000D02*
X85000000Y-78000000D01*
X130210661Y-76750000D02*
X129589339Y-76750000D01*
X104787500Y-82250000D02*
X104787500Y-90612500D01*
X122900000Y-89250000D02*
X123341852Y-88808148D01*
X79150000Y-53750000D02*
X79214265Y-53814265D01*
X129150000Y-88808148D02*
X129150000Y-87750000D01*
X73650000Y-53750000D02*
X79150000Y-53750000D01*
X95150000Y-92000000D02*
X97800000Y-92000000D01*
X129150000Y-73850000D02*
X129150000Y-77189339D01*
X137540000Y-77060504D02*
X130521165Y-77060504D01*
X104787500Y-90612500D02*
X104650000Y-90750000D01*
X129589339Y-76750000D02*
X129150000Y-77189339D01*
X122650000Y-89000000D02*
X118900000Y-89000000D01*
X129150000Y-70250000D02*
X129150000Y-73850000D01*
X62650000Y-81250000D02*
X62650000Y-88750001D01*
X123341852Y-88808148D02*
X129150000Y-88808148D01*
X130150000Y-69250000D02*
X129150000Y-70250000D01*
X130200000Y-72800000D02*
X129150000Y-73850000D01*
X97800000Y-92000000D02*
X97900000Y-91900000D01*
X130208148Y-88808148D02*
X129150000Y-88808148D01*
X130500000Y-72800000D02*
X130200000Y-72800000D01*
X85150000Y-92000000D02*
X85150000Y-89750000D01*
X62650000Y-88750001D02*
X62400000Y-89000001D01*
X130521165Y-77060504D02*
X130210661Y-76750000D01*
X133400000Y-69250000D02*
X130150000Y-69250000D01*
%TO.N,/Power Management/VBUS_RAW*%
D17*
X72400000Y-44905000D02*
X73150000Y-44155000D01*
X72400000Y-48250000D02*
X72400000Y-44905000D01*
%TO.N,Net-(U3-OUTR)*%
X139150000Y-83000000D02*
X133650000Y-83000000D01*
X125650000Y-80000000D02*
X127400000Y-80000000D01*
X123900000Y-78250000D02*
X125650000Y-80000000D01*
X133650000Y-83000000D02*
X130650000Y-80000000D01*
%TO.N,Net-(U3-OUTL)*%
X137900000Y-73185958D02*
X137900000Y-72500000D01*
X138150000Y-73435958D02*
X137900000Y-73185958D01*
X137900000Y-72500000D02*
X131150000Y-65750000D01*
X131150000Y-65750000D02*
X131150000Y-65500000D01*
%TO.N,/ESP Reciever/ESP_EN*%
X83560000Y-57000000D02*
X83400000Y-57160000D01*
X83400000Y-69000000D02*
X77900000Y-74500000D01*
X77900000Y-74500000D02*
X77900000Y-75750000D01*
X83400000Y-57160000D02*
X83400000Y-69000000D01*
%TO.N,/DAC/FLT_SEL*%
X97900000Y-84250000D02*
X97900000Y-83750000D01*
X97900000Y-83750000D02*
X100150000Y-81500000D01*
%TO.N,/DAC/BCK*%
X79250000Y-52000000D02*
X86900000Y-52000000D01*
X86900000Y-52000000D02*
X88150000Y-53250000D01*
%TO.N,/Amp/SHDN_SIGNAL*%
X129900000Y-82000000D02*
X129900000Y-77500000D01*
%TO.N,/Amp/POST_POT_IN_L*%
X110900000Y-84500000D02*
X110900000Y-78750000D01*
X114400000Y-88000000D02*
X110900000Y-84500000D01*
%TO.N,Net-(U1-CAPM)*%
X105875003Y-87024997D02*
X107037500Y-87024997D01*
X108025000Y-91125000D02*
X105337500Y-88437500D01*
X105337500Y-87562500D02*
X105875003Y-87024997D01*
X105337500Y-88437500D02*
X105337500Y-87562500D01*
X111900000Y-91125000D02*
X108025000Y-91125000D01*
%TD*%
%TA.AperFunction,Conductor*%
%TO.N,GND*%
G36*
X140721445Y-87472985D02*
G01*
X140760484Y-87518038D01*
X140830476Y-87655405D01*
X140946172Y-87814646D01*
X141085354Y-87953828D01*
X141149850Y-88000687D01*
X141184252Y-88025682D01*
X141226917Y-88081013D01*
X141232896Y-88150626D01*
X141200290Y-88212421D01*
X141139451Y-88246778D01*
X141111366Y-88250000D01*
X141102155Y-88250000D01*
X141042627Y-88256401D01*
X141042620Y-88256403D01*
X140907913Y-88306645D01*
X140907906Y-88306649D01*
X140792812Y-88392809D01*
X140792809Y-88392812D01*
X140706649Y-88507906D01*
X140706645Y-88507913D01*
X140656403Y-88642620D01*
X140656401Y-88642627D01*
X140650000Y-88702155D01*
X140650000Y-88712216D01*
X140630315Y-88779255D01*
X140577511Y-88825010D01*
X140508353Y-88834954D01*
X140455465Y-88810801D01*
X140443677Y-88809873D01*
X139882962Y-89370589D01*
X139865925Y-89307007D01*
X139800099Y-89192993D01*
X139707007Y-89099901D01*
X139592993Y-89034075D01*
X139529409Y-89017037D01*
X140090125Y-88456320D01*
X140090125Y-88456319D01*
X140055145Y-88430905D01*
X139917487Y-88360765D01*
X139866691Y-88312790D01*
X139849896Y-88244969D01*
X139872434Y-88178834D01*
X139917485Y-88139796D01*
X140055405Y-88069524D01*
X140214646Y-87953828D01*
X140353828Y-87814646D01*
X140469524Y-87655405D01*
X140539515Y-87518038D01*
X140587489Y-87467243D01*
X140655310Y-87450448D01*
X140721445Y-87472985D01*
G37*
%TD.AperFunction*%
%TA.AperFunction,Conductor*%
G36*
X147092539Y-38770185D02*
G01*
X147138294Y-38822989D01*
X147149500Y-38874500D01*
X147149500Y-92875500D01*
X147129815Y-92942539D01*
X147077011Y-92988294D01*
X147025500Y-92999500D01*
X95452189Y-92999500D01*
X95385150Y-92979815D01*
X95339395Y-92927011D01*
X95329451Y-92857853D01*
X95358476Y-92794297D01*
X95404744Y-92760936D01*
X95407168Y-92759932D01*
X95454604Y-92750500D01*
X97873920Y-92750500D01*
X97971462Y-92731096D01*
X98018913Y-92721658D01*
X98155495Y-92665084D01*
X98162897Y-92660137D01*
X98184327Y-92648682D01*
X98279179Y-92609394D01*
X98410289Y-92521789D01*
X98521789Y-92410289D01*
X98609394Y-92279179D01*
X98669737Y-92133497D01*
X98700500Y-91978842D01*
X98700500Y-91821158D01*
X98700500Y-91821155D01*
X98700499Y-91821153D01*
X98684923Y-91742847D01*
X98669737Y-91666503D01*
X98656808Y-91635289D01*
X98609397Y-91520827D01*
X98609390Y-91520814D01*
X98521789Y-91389711D01*
X98521786Y-91389707D01*
X98410292Y-91278213D01*
X98410288Y-91278210D01*
X98279185Y-91190609D01*
X98279172Y-91190602D01*
X98133501Y-91130264D01*
X98133489Y-91130261D01*
X97978845Y-91099500D01*
X97978842Y-91099500D01*
X97821158Y-91099500D01*
X97821155Y-91099500D01*
X97666510Y-91130261D01*
X97666498Y-91130264D01*
X97520827Y-91190602D01*
X97520820Y-91190606D01*
X97507510Y-91199500D01*
X97463955Y-91228602D01*
X97397279Y-91249480D01*
X97395065Y-91249500D01*
X95454604Y-91249500D01*
X95407155Y-91240062D01*
X95383497Y-91230263D01*
X95383493Y-91230262D01*
X95383488Y-91230260D01*
X95228845Y-91199500D01*
X95228842Y-91199500D01*
X95071158Y-91199500D01*
X95071155Y-91199500D01*
X94916510Y-91230261D01*
X94916498Y-91230264D01*
X94770827Y-91290602D01*
X94770814Y-91290609D01*
X94639711Y-91378210D01*
X94639707Y-91378213D01*
X94528213Y-91489707D01*
X94528210Y-91489711D01*
X94440609Y-91620814D01*
X94440602Y-91620827D01*
X94380264Y-91766498D01*
X94380261Y-91766510D01*
X94349500Y-91921153D01*
X94349500Y-92078846D01*
X94380261Y-92233489D01*
X94380264Y-92233501D01*
X94440602Y-92379172D01*
X94440609Y-92379185D01*
X94528210Y-92510288D01*
X94528213Y-92510292D01*
X94639707Y-92621786D01*
X94639711Y-92621789D01*
X94770814Y-92709390D01*
X94770827Y-92709397D01*
X94895262Y-92760939D01*
X94949666Y-92804779D01*
X94971731Y-92871074D01*
X94954452Y-92938773D01*
X94903315Y-92986384D01*
X94847810Y-92999500D01*
X85452190Y-92999500D01*
X85385151Y-92979815D01*
X85339396Y-92927011D01*
X85329452Y-92857853D01*
X85358477Y-92794297D01*
X85404738Y-92760939D01*
X85529172Y-92709397D01*
X85529172Y-92709396D01*
X85529179Y-92709394D01*
X85660289Y-92621789D01*
X85771789Y-92510289D01*
X85859394Y-92379179D01*
X85919737Y-92233497D01*
X85950500Y-92078842D01*
X85950500Y-91921158D01*
X85950500Y-91921155D01*
X85950499Y-91921153D01*
X85919739Y-91766511D01*
X85919738Y-91766508D01*
X85919737Y-91766503D01*
X85909937Y-91742844D01*
X85900500Y-91695396D01*
X85900500Y-90671153D01*
X103849500Y-90671153D01*
X103849500Y-90828846D01*
X103880261Y-90983489D01*
X103880264Y-90983501D01*
X103940602Y-91129172D01*
X103940609Y-91129185D01*
X104028210Y-91260288D01*
X104028213Y-91260292D01*
X104139707Y-91371786D01*
X104139711Y-91371789D01*
X104270814Y-91459390D01*
X104270827Y-91459397D01*
X104416498Y-91519735D01*
X104416503Y-91519737D01*
X104571153Y-91550499D01*
X104571156Y-91550500D01*
X104571158Y-91550500D01*
X104728844Y-91550500D01*
X104728845Y-91550499D01*
X104883497Y-91519737D01*
X105029179Y-91459394D01*
X105160289Y-91371789D01*
X105271789Y-91260289D01*
X105359394Y-91129179D01*
X105378386Y-91083325D01*
X105389840Y-91061895D01*
X105452584Y-90967995D01*
X105509158Y-90831413D01*
X105525253Y-90750500D01*
X105538000Y-90686420D01*
X105538000Y-89786597D01*
X105557685Y-89719558D01*
X105610489Y-89673803D01*
X105679647Y-89663859D01*
X105743203Y-89692884D01*
X105749681Y-89698916D01*
X107540139Y-91489374D01*
X107540149Y-91489385D01*
X107544479Y-91493715D01*
X107544480Y-91493716D01*
X107656284Y-91605520D01*
X107707845Y-91635288D01*
X107743095Y-91655639D01*
X107743097Y-91655641D01*
X107761923Y-91666510D01*
X107793215Y-91684577D01*
X107945943Y-91725501D01*
X107945946Y-91725501D01*
X108111653Y-91725501D01*
X108111669Y-91725500D01*
X111320234Y-91725500D01*
X111387273Y-91745185D01*
X111389125Y-91746398D01*
X111520814Y-91834390D01*
X111520827Y-91834397D01*
X111666498Y-91894735D01*
X111666503Y-91894737D01*
X111821153Y-91925499D01*
X111821156Y-91925500D01*
X111821158Y-91925500D01*
X111978844Y-91925500D01*
X111978845Y-91925499D01*
X112133497Y-91894737D01*
X112279179Y-91834394D01*
X112410289Y-91746789D01*
X112521789Y-91635289D01*
X112609394Y-91504179D01*
X112615389Y-91489707D01*
X112627946Y-91459390D01*
X112669737Y-91358497D01*
X112678084Y-91316533D01*
X121724499Y-91316533D01*
X121750458Y-91447030D01*
X121750461Y-91447040D01*
X121801376Y-91569961D01*
X121801386Y-91569979D01*
X121875301Y-91680601D01*
X121875307Y-91680609D01*
X121969390Y-91774692D01*
X121969398Y-91774698D01*
X122080020Y-91848613D01*
X122080023Y-91848614D01*
X122080031Y-91848620D01*
X122080037Y-91848622D01*
X122080038Y-91848623D01*
X122191368Y-91894737D01*
X122202964Y-91899540D01*
X122202968Y-91899540D01*
X122202969Y-91899541D01*
X122333466Y-91925500D01*
X122333469Y-91925500D01*
X122466533Y-91925500D01*
X122554325Y-91908035D01*
X122597036Y-91899540D01*
X122719969Y-91848620D01*
X122830606Y-91774695D01*
X122924695Y-91680606D01*
X122998620Y-91569969D01*
X123049540Y-91447036D01*
X123064509Y-91371786D01*
X123075500Y-91316533D01*
X124724499Y-91316533D01*
X124750458Y-91447030D01*
X124750461Y-91447040D01*
X124801376Y-91569961D01*
X124801386Y-91569979D01*
X124875301Y-91680601D01*
X124875307Y-91680609D01*
X124969390Y-91774692D01*
X124969398Y-91774698D01*
X125080020Y-91848613D01*
X125080023Y-91848614D01*
X125080031Y-91848620D01*
X125080037Y-91848622D01*
X125080038Y-91848623D01*
X125191368Y-91894737D01*
X125202964Y-91899540D01*
X125202968Y-91899540D01*
X125202969Y-91899541D01*
X125333466Y-91925500D01*
X125333469Y-91925500D01*
X125466533Y-91925500D01*
X125554325Y-91908035D01*
X125597036Y-91899540D01*
X125719969Y-91848620D01*
X125830606Y-91774695D01*
X125924695Y-91680606D01*
X125998620Y-91569969D01*
X126049540Y-91447036D01*
X126064509Y-91371786D01*
X126075500Y-91316533D01*
X126075500Y-91183466D01*
X126049541Y-91052969D01*
X126049540Y-91052968D01*
X126049540Y-91052964D01*
X125998620Y-90930031D01*
X125972881Y-90891510D01*
X125924698Y-90819398D01*
X125924692Y-90819390D01*
X125830609Y-90725307D01*
X125830601Y-90725301D01*
X125719979Y-90651386D01*
X125719972Y-90651382D01*
X125719969Y-90651380D01*
X125719965Y-90651378D01*
X125719961Y-90651376D01*
X125597040Y-90600461D01*
X125597030Y-90600458D01*
X125466533Y-90574500D01*
X125466531Y-90574500D01*
X125333469Y-90574500D01*
X125333467Y-90574500D01*
X125202969Y-90600458D01*
X125202959Y-90600461D01*
X125080038Y-90651376D01*
X125080020Y-90651386D01*
X124969398Y-90725301D01*
X124969390Y-90725307D01*
X124875307Y-90819390D01*
X124875301Y-90819398D01*
X124801386Y-90930020D01*
X124801376Y-90930038D01*
X124750461Y-91052959D01*
X124750458Y-91052969D01*
X124724500Y-91183466D01*
X124724500Y-91183469D01*
X124724500Y-91316531D01*
X124724500Y-91316533D01*
X124724499Y-91316533D01*
X123075500Y-91316533D01*
X123075500Y-91183466D01*
X123049541Y-91052969D01*
X123049540Y-91052968D01*
X123049540Y-91052964D01*
X122998620Y-90930031D01*
X122972881Y-90891510D01*
X122924698Y-90819398D01*
X122924692Y-90819390D01*
X122830609Y-90725307D01*
X122830601Y-90725301D01*
X122719979Y-90651386D01*
X122719972Y-90651382D01*
X122719969Y-90651380D01*
X122719965Y-90651378D01*
X122719961Y-90651376D01*
X122597040Y-90600461D01*
X122597030Y-90600458D01*
X122466533Y-90574500D01*
X122466531Y-90574500D01*
X122333469Y-90574500D01*
X122333467Y-90574500D01*
X122202969Y-90600458D01*
X122202959Y-90600461D01*
X122080038Y-90651376D01*
X122080020Y-90651386D01*
X121969398Y-90725301D01*
X121969390Y-90725307D01*
X121875307Y-90819390D01*
X121875301Y-90819398D01*
X121801386Y-90930020D01*
X121801376Y-90930038D01*
X121750461Y-91052959D01*
X121750458Y-91052969D01*
X121724500Y-91183466D01*
X121724500Y-91183469D01*
X121724500Y-91316531D01*
X121724500Y-91316533D01*
X121724499Y-91316533D01*
X112678084Y-91316533D01*
X112700500Y-91203842D01*
X112700500Y-91046158D01*
X112700500Y-91046155D01*
X112700499Y-91046153D01*
X112684952Y-90967995D01*
X112669737Y-90891503D01*
X112643782Y-90828842D01*
X112609397Y-90745827D01*
X112609390Y-90745814D01*
X112521789Y-90614711D01*
X112521786Y-90614707D01*
X112410292Y-90503213D01*
X112410288Y-90503210D01*
X112279185Y-90415609D01*
X112279172Y-90415602D01*
X112133501Y-90355264D01*
X112133489Y-90355261D01*
X111978845Y-90324500D01*
X111978842Y-90324500D01*
X111821158Y-90324500D01*
X111821155Y-90324500D01*
X111666510Y-90355261D01*
X111666498Y-90355264D01*
X111520827Y-90415602D01*
X111520814Y-90415609D01*
X111389125Y-90503602D01*
X111322447Y-90524480D01*
X111320234Y-90524500D01*
X108325097Y-90524500D01*
X108258058Y-90504815D01*
X108237416Y-90488181D01*
X106670388Y-88921153D01*
X118099500Y-88921153D01*
X118099500Y-89078846D01*
X118130261Y-89233489D01*
X118130264Y-89233501D01*
X118190602Y-89379172D01*
X118190609Y-89379185D01*
X118278210Y-89510288D01*
X118278213Y-89510292D01*
X118389707Y-89621786D01*
X118389711Y-89621789D01*
X118520814Y-89709390D01*
X118520827Y-89709397D01*
X118618853Y-89750000D01*
X118666503Y-89769737D01*
X118821153Y-89800499D01*
X118821156Y-89800500D01*
X118821158Y-89800500D01*
X118978844Y-89800500D01*
X118978845Y-89800499D01*
X119055152Y-89785320D01*
X119133488Y-89769739D01*
X119133489Y-89769738D01*
X119133497Y-89769737D01*
X119157155Y-89759937D01*
X119204604Y-89750500D01*
X122217060Y-89750500D01*
X122284099Y-89770185D01*
X122304736Y-89786814D01*
X122350658Y-89832736D01*
X122389712Y-89871790D01*
X122520814Y-89959390D01*
X122520827Y-89959397D01*
X122666498Y-90019735D01*
X122666503Y-90019737D01*
X122821153Y-90050499D01*
X122821156Y-90050500D01*
X122821158Y-90050500D01*
X122978844Y-90050500D01*
X122978845Y-90050499D01*
X123133497Y-90019737D01*
X123279179Y-89959394D01*
X123410289Y-89871789D01*
X123521789Y-89760289D01*
X123609394Y-89629179D01*
X123609395Y-89629174D01*
X123612061Y-89624190D01*
X123661026Y-89574348D01*
X123721417Y-89558648D01*
X129076082Y-89558648D01*
X129845918Y-89558648D01*
X129912957Y-89578333D01*
X129933599Y-89594967D01*
X130153927Y-89815295D01*
X130180806Y-89855521D01*
X130190606Y-89879179D01*
X130190607Y-89879181D01*
X130278207Y-90010284D01*
X130278213Y-90010292D01*
X130389707Y-90121786D01*
X130389711Y-90121789D01*
X130520814Y-90209390D01*
X130520827Y-90209397D01*
X130642264Y-90259697D01*
X130666503Y-90269737D01*
X130821153Y-90300499D01*
X130821156Y-90300500D01*
X130821158Y-90300500D01*
X130978844Y-90300500D01*
X130978845Y-90300499D01*
X131133497Y-90269737D01*
X131279179Y-90209394D01*
X131410289Y-90121789D01*
X131521789Y-90010289D01*
X131609394Y-89879179D01*
X131669737Y-89733497D01*
X131674094Y-89711595D01*
X131706478Y-89649684D01*
X131767194Y-89615110D01*
X131836964Y-89618849D01*
X131893636Y-89659715D01*
X131918184Y-89716388D01*
X131930290Y-89792826D01*
X131991117Y-89980029D01*
X132063346Y-90121786D01*
X132080476Y-90155405D01*
X132196172Y-90314646D01*
X132335354Y-90453828D01*
X132494595Y-90569524D01*
X132555307Y-90600458D01*
X132669970Y-90658882D01*
X132669972Y-90658882D01*
X132669975Y-90658884D01*
X132754722Y-90686420D01*
X132857173Y-90719709D01*
X133051578Y-90750500D01*
X133051583Y-90750500D01*
X133248422Y-90750500D01*
X133442826Y-90719709D01*
X133444328Y-90719221D01*
X133630025Y-90658884D01*
X133805405Y-90569524D01*
X133964646Y-90453828D01*
X134103828Y-90314646D01*
X134219524Y-90155405D01*
X134308884Y-89980025D01*
X134369709Y-89792826D01*
X134379107Y-89733489D01*
X134400500Y-89598422D01*
X134400500Y-89401577D01*
X134369709Y-89207173D01*
X134308882Y-89019970D01*
X134258535Y-88921158D01*
X134219524Y-88844595D01*
X134103828Y-88685354D01*
X133964646Y-88546172D01*
X133805405Y-88430476D01*
X133754897Y-88404741D01*
X133630029Y-88341117D01*
X133442826Y-88280290D01*
X133248422Y-88249500D01*
X133248417Y-88249500D01*
X133051583Y-88249500D01*
X133051578Y-88249500D01*
X132857173Y-88280290D01*
X132669970Y-88341117D01*
X132494594Y-88430476D01*
X132413065Y-88489711D01*
X132335354Y-88546172D01*
X132335352Y-88546174D01*
X132335351Y-88546174D01*
X132196174Y-88685351D01*
X132196174Y-88685352D01*
X132196172Y-88685354D01*
X132183953Y-88702172D01*
X132080476Y-88844594D01*
X131991117Y-89019970D01*
X131930290Y-89207173D01*
X131918184Y-89283611D01*
X131888254Y-89346746D01*
X131828943Y-89383677D01*
X131759080Y-89382679D01*
X131700848Y-89344069D01*
X131674094Y-89288405D01*
X131669738Y-89266508D01*
X131669737Y-89266507D01*
X131669737Y-89266503D01*
X131662901Y-89250000D01*
X131609397Y-89120827D01*
X131609390Y-89120814D01*
X131521789Y-88989711D01*
X131521786Y-88989707D01*
X131410292Y-88878213D01*
X131410284Y-88878207D01*
X131279181Y-88790607D01*
X131279179Y-88790606D01*
X131255521Y-88780806D01*
X131215295Y-88753927D01*
X130686569Y-88225200D01*
X130686562Y-88225194D01*
X130612877Y-88175960D01*
X130612877Y-88175961D01*
X130563639Y-88143061D01*
X130427065Y-88086491D01*
X130427055Y-88086488D01*
X130282068Y-88057648D01*
X130282066Y-88057648D01*
X130024500Y-88057648D01*
X129957461Y-88037963D01*
X129911706Y-87985159D01*
X129900500Y-87933648D01*
X129900500Y-82917847D01*
X129920185Y-82850808D01*
X129972989Y-82805053D01*
X130000309Y-82796230D01*
X130016291Y-82793050D01*
X130133497Y-82769737D01*
X130279179Y-82709394D01*
X130410289Y-82621789D01*
X130521789Y-82510289D01*
X130609394Y-82379179D01*
X130669737Y-82233497D01*
X130700500Y-82078842D01*
X130700500Y-81921158D01*
X130700500Y-81921155D01*
X130700499Y-81921153D01*
X130669738Y-81766510D01*
X130669737Y-81766503D01*
X130669735Y-81766498D01*
X130609397Y-81620827D01*
X130609390Y-81620814D01*
X130521398Y-81489125D01*
X130500520Y-81422447D01*
X130500500Y-81420234D01*
X130500500Y-80999097D01*
X130520185Y-80932058D01*
X130572989Y-80886303D01*
X130642147Y-80876359D01*
X130705703Y-80905384D01*
X130712181Y-80911416D01*
X132883068Y-83082304D01*
X132916553Y-83143627D01*
X132911569Y-83213319D01*
X132869697Y-83269252D01*
X132833706Y-83287916D01*
X132669970Y-83341117D01*
X132494594Y-83430476D01*
X132403741Y-83496485D01*
X132335354Y-83546172D01*
X132335352Y-83546174D01*
X132335351Y-83546174D01*
X132196174Y-83685351D01*
X132196174Y-83685352D01*
X132196172Y-83685354D01*
X132172146Y-83718423D01*
X132080476Y-83844594D01*
X131991117Y-84019970D01*
X131930290Y-84207173D01*
X131899500Y-84401577D01*
X131899500Y-84598422D01*
X131930290Y-84792826D01*
X131991117Y-84980029D01*
X132064377Y-85123809D01*
X132080476Y-85155405D01*
X132196172Y-85314646D01*
X132335354Y-85453828D01*
X132494595Y-85569524D01*
X132577455Y-85611743D01*
X132669970Y-85658882D01*
X132669972Y-85658882D01*
X132669975Y-85658884D01*
X132730516Y-85678555D01*
X132857173Y-85719709D01*
X133051578Y-85750500D01*
X133051583Y-85750500D01*
X133248422Y-85750500D01*
X133442826Y-85719709D01*
X133630025Y-85658884D01*
X133805405Y-85569524D01*
X133964646Y-85453828D01*
X134103828Y-85314646D01*
X134219524Y-85155405D01*
X134308884Y-84980025D01*
X134369709Y-84792826D01*
X134374862Y-84760289D01*
X134400500Y-84598422D01*
X134400500Y-84401577D01*
X134369709Y-84207173D01*
X134317921Y-84047788D01*
X134308884Y-84019975D01*
X134308882Y-84019972D01*
X134308882Y-84019970D01*
X134239739Y-83884270D01*
X134219524Y-83844595D01*
X134185223Y-83797384D01*
X134161744Y-83731580D01*
X134177569Y-83663526D01*
X134227674Y-83614831D01*
X134285542Y-83600500D01*
X138264458Y-83600500D01*
X138331497Y-83620185D01*
X138377252Y-83672989D01*
X138387196Y-83742147D01*
X138364776Y-83797386D01*
X138330476Y-83844594D01*
X138241117Y-84019970D01*
X138180290Y-84207173D01*
X138149500Y-84401577D01*
X138149500Y-84598422D01*
X138180290Y-84792826D01*
X138241117Y-84980029D01*
X138314377Y-85123809D01*
X138330476Y-85155405D01*
X138446172Y-85314646D01*
X138585354Y-85453828D01*
X138744595Y-85569524D01*
X138813613Y-85604690D01*
X138881960Y-85639515D01*
X138932756Y-85687490D01*
X138949551Y-85755311D01*
X138927014Y-85821446D01*
X138881960Y-85860485D01*
X138744594Y-85930476D01*
X138653741Y-85996485D01*
X138585354Y-86046172D01*
X138585352Y-86046174D01*
X138585351Y-86046174D01*
X138446174Y-86185351D01*
X138446174Y-86185352D01*
X138446172Y-86185354D01*
X138417733Y-86224497D01*
X138330476Y-86344594D01*
X138241117Y-86519970D01*
X138180290Y-86707173D01*
X138149500Y-86901577D01*
X138149500Y-87098422D01*
X138180290Y-87292826D01*
X138241117Y-87480029D01*
X138312858Y-87620827D01*
X138330476Y-87655405D01*
X138446172Y-87814646D01*
X138585354Y-87953828D01*
X138649850Y-88000687D01*
X138744596Y-88069525D01*
X138882510Y-88139795D01*
X138933307Y-88187769D01*
X138950102Y-88255590D01*
X138927565Y-88321725D01*
X138882511Y-88360765D01*
X138744859Y-88430902D01*
X138709873Y-88456320D01*
X138709872Y-88456320D01*
X139270590Y-89017037D01*
X139207007Y-89034075D01*
X139092993Y-89099901D01*
X138999901Y-89192993D01*
X138934075Y-89307007D01*
X138917037Y-89370590D01*
X138356320Y-88809872D01*
X138356320Y-88809873D01*
X138330902Y-88844859D01*
X138330899Y-88844863D01*
X138241582Y-89020161D01*
X138180778Y-89207294D01*
X138150000Y-89401617D01*
X138150000Y-89598382D01*
X138180778Y-89792705D01*
X138241581Y-89979835D01*
X138330905Y-90155145D01*
X138356319Y-90190125D01*
X138356320Y-90190125D01*
X138917037Y-89629408D01*
X138934075Y-89692993D01*
X138999901Y-89807007D01*
X139092993Y-89900099D01*
X139207007Y-89965925D01*
X139270590Y-89982962D01*
X138709873Y-90543677D01*
X138709873Y-90543678D01*
X138744858Y-90569096D01*
X138920164Y-90658418D01*
X139107294Y-90719221D01*
X139301618Y-90750000D01*
X139498382Y-90750000D01*
X139692705Y-90719221D01*
X139879835Y-90658418D01*
X140055143Y-90569095D01*
X140090125Y-90543678D01*
X140090126Y-90543678D01*
X139529410Y-89982962D01*
X139592993Y-89965925D01*
X139707007Y-89900099D01*
X139800099Y-89807007D01*
X139865925Y-89692993D01*
X139882962Y-89629410D01*
X140443678Y-90190126D01*
X140459410Y-90188887D01*
X140481012Y-90172231D01*
X140550625Y-90166252D01*
X140612420Y-90198858D01*
X140646778Y-90259697D01*
X140650000Y-90287782D01*
X140650000Y-90297844D01*
X140656401Y-90357372D01*
X140656403Y-90357379D01*
X140706645Y-90492086D01*
X140706649Y-90492093D01*
X140792809Y-90607187D01*
X140792812Y-90607190D01*
X140907906Y-90693350D01*
X140907913Y-90693354D01*
X141042620Y-90743596D01*
X141042627Y-90743598D01*
X141102155Y-90749999D01*
X141102172Y-90750000D01*
X141650000Y-90750000D01*
X141650000Y-89933012D01*
X141707007Y-89965925D01*
X141834174Y-90000000D01*
X141965826Y-90000000D01*
X142092993Y-89965925D01*
X142150000Y-89933012D01*
X142150000Y-90750000D01*
X142697828Y-90750000D01*
X142697844Y-90749999D01*
X142757372Y-90743598D01*
X142757379Y-90743596D01*
X142892086Y-90693354D01*
X142892093Y-90693350D01*
X143007187Y-90607190D01*
X143007190Y-90607187D01*
X143093350Y-90492093D01*
X143093354Y-90492086D01*
X143143596Y-90357379D01*
X143143598Y-90357372D01*
X143149999Y-90297844D01*
X143150000Y-90297827D01*
X143150000Y-89750000D01*
X142333012Y-89750000D01*
X142365925Y-89692993D01*
X142400000Y-89565826D01*
X142400000Y-89434174D01*
X142365925Y-89307007D01*
X142333012Y-89250000D01*
X143150000Y-89250000D01*
X143150000Y-88702172D01*
X143149999Y-88702155D01*
X143143598Y-88642627D01*
X143143596Y-88642620D01*
X143093354Y-88507913D01*
X143093350Y-88507906D01*
X143007190Y-88392812D01*
X143007187Y-88392809D01*
X142892093Y-88306649D01*
X142892086Y-88306645D01*
X142757379Y-88256403D01*
X142757372Y-88256401D01*
X142697844Y-88250000D01*
X142688634Y-88250000D01*
X142621595Y-88230315D01*
X142575840Y-88177511D01*
X142565896Y-88108353D01*
X142594921Y-88044797D01*
X142615748Y-88025682D01*
X142650150Y-88000687D01*
X142714646Y-87953828D01*
X142853828Y-87814646D01*
X142969524Y-87655405D01*
X143058884Y-87480025D01*
X143119709Y-87292826D01*
X143129618Y-87230261D01*
X143150500Y-87098422D01*
X143150500Y-86901577D01*
X143119709Y-86707173D01*
X143091487Y-86620317D01*
X143058884Y-86519975D01*
X143058882Y-86519972D01*
X143058882Y-86519970D01*
X142999588Y-86403599D01*
X142969524Y-86344595D01*
X142853828Y-86185354D01*
X142714646Y-86046172D01*
X142555405Y-85930476D01*
X142418038Y-85860484D01*
X142367243Y-85812511D01*
X142350448Y-85744690D01*
X142372985Y-85678555D01*
X142418039Y-85639515D01*
X142555405Y-85569524D01*
X142714646Y-85453828D01*
X142853828Y-85314646D01*
X142969524Y-85155405D01*
X143058884Y-84980025D01*
X143119709Y-84792826D01*
X143124862Y-84760289D01*
X143150500Y-84598422D01*
X143150500Y-84401577D01*
X143119709Y-84207173D01*
X143067921Y-84047788D01*
X143058884Y-84019975D01*
X143058882Y-84019972D01*
X143058882Y-84019970D01*
X142989739Y-83884270D01*
X142969524Y-83844595D01*
X142853828Y-83685354D01*
X142714646Y-83546172D01*
X142555405Y-83430476D01*
X142555401Y-83430474D01*
X142380029Y-83341117D01*
X142192826Y-83280290D01*
X141998422Y-83249500D01*
X141998417Y-83249500D01*
X141801583Y-83249500D01*
X141801578Y-83249500D01*
X141607173Y-83280290D01*
X141419970Y-83341117D01*
X141244594Y-83430476D01*
X141153741Y-83496485D01*
X141085354Y-83546172D01*
X141085352Y-83546174D01*
X141085351Y-83546174D01*
X140946174Y-83685351D01*
X140946174Y-83685352D01*
X140946172Y-83685354D01*
X140922146Y-83718423D01*
X140830476Y-83844594D01*
X140760485Y-83981960D01*
X140712510Y-84032756D01*
X140644689Y-84049551D01*
X140578554Y-84027014D01*
X140539515Y-83981960D01*
X140489739Y-83884270D01*
X140469524Y-83844595D01*
X140353828Y-83685354D01*
X140214646Y-83546172D01*
X140135025Y-83488324D01*
X140055403Y-83430474D01*
X139978139Y-83391107D01*
X139927342Y-83343133D01*
X139910547Y-83275312D01*
X139918477Y-83239478D01*
X139917969Y-83239324D01*
X139919731Y-83233509D01*
X139919737Y-83233497D01*
X139950500Y-83078842D01*
X139950500Y-82921158D01*
X139950500Y-82921155D01*
X139950499Y-82921153D01*
X139933760Y-82837000D01*
X139919737Y-82766503D01*
X139919735Y-82766498D01*
X139859397Y-82620827D01*
X139859390Y-82620814D01*
X139771789Y-82489711D01*
X139771786Y-82489707D01*
X139660292Y-82378213D01*
X139660288Y-82378210D01*
X139529185Y-82290609D01*
X139529172Y-82290602D01*
X139383501Y-82230264D01*
X139383489Y-82230261D01*
X139228845Y-82199500D01*
X139228842Y-82199500D01*
X139071158Y-82199500D01*
X139071155Y-82199500D01*
X138916510Y-82230261D01*
X138916498Y-82230264D01*
X138770827Y-82290602D01*
X138770814Y-82290609D01*
X138639125Y-82378602D01*
X138572447Y-82399480D01*
X138570234Y-82399500D01*
X133950098Y-82399500D01*
X133883059Y-82379815D01*
X133862417Y-82363181D01*
X131484573Y-79985337D01*
X131451088Y-79924014D01*
X131450637Y-79921847D01*
X131449824Y-79917761D01*
X131419737Y-79766503D01*
X131419735Y-79766498D01*
X131359397Y-79620827D01*
X131359390Y-79620814D01*
X131271789Y-79489711D01*
X131271786Y-79489707D01*
X131160292Y-79378213D01*
X131160288Y-79378210D01*
X131029185Y-79290609D01*
X131029173Y-79290602D01*
X131002674Y-79279627D01*
X130883501Y-79230264D01*
X130883489Y-79230261D01*
X130728845Y-79199500D01*
X130728842Y-79199500D01*
X130624500Y-79199500D01*
X130557461Y-79179815D01*
X130549955Y-79171153D01*
X131999500Y-79171153D01*
X131999500Y-79328846D01*
X132030261Y-79483489D01*
X132030264Y-79483501D01*
X132090602Y-79629172D01*
X132090609Y-79629185D01*
X132178210Y-79760288D01*
X132178213Y-79760292D01*
X132289707Y-79871786D01*
X132289711Y-79871789D01*
X132420814Y-79959390D01*
X132420827Y-79959397D01*
X132483453Y-79985337D01*
X132566503Y-80019737D01*
X132721153Y-80050499D01*
X132721156Y-80050500D01*
X132721158Y-80050500D01*
X132878844Y-80050500D01*
X132878845Y-80050499D01*
X133033497Y-80019737D01*
X133179179Y-79959394D01*
X133235372Y-79921847D01*
X133310875Y-79871398D01*
X133377553Y-79850520D01*
X133379766Y-79850500D01*
X136064102Y-79850500D01*
X136064118Y-79850501D01*
X136071714Y-79850501D01*
X136194802Y-79850501D01*
X136218993Y-79852883D01*
X136239521Y-79856967D01*
X136261157Y-79861271D01*
X136261158Y-79861271D01*
X136418844Y-79861271D01*
X136418845Y-79861270D01*
X136573497Y-79830508D01*
X136719179Y-79770165D01*
X136850289Y-79682560D01*
X136961789Y-79571060D01*
X137049394Y-79439950D01*
X137109737Y-79294268D01*
X137140500Y-79139613D01*
X137140500Y-78981929D01*
X137140500Y-78981926D01*
X137140499Y-78981924D01*
X137136017Y-78959390D01*
X137109737Y-78827274D01*
X137109735Y-78827269D01*
X137049397Y-78681598D01*
X137049390Y-78681585D01*
X136961789Y-78550482D01*
X136961786Y-78550478D01*
X136850292Y-78438984D01*
X136850288Y-78438981D01*
X136719185Y-78351380D01*
X136719172Y-78351373D01*
X136573501Y-78291035D01*
X136573489Y-78291032D01*
X136418845Y-78260271D01*
X136418842Y-78260271D01*
X136261158Y-78260271D01*
X136261155Y-78260271D01*
X136106510Y-78291032D01*
X136106498Y-78291035D01*
X135960827Y-78351373D01*
X135960814Y-78351380D01*
X135829711Y-78438981D01*
X135829707Y-78438984D01*
X135718212Y-78550479D01*
X135700235Y-78577385D01*
X135688871Y-78594390D01*
X135635261Y-78639196D01*
X135585770Y-78649500D01*
X133379766Y-78649500D01*
X133312727Y-78629815D01*
X133310875Y-78628602D01*
X133179185Y-78540609D01*
X133179172Y-78540602D01*
X133033501Y-78480264D01*
X133033489Y-78480261D01*
X132878845Y-78449500D01*
X132878842Y-78449500D01*
X132721158Y-78449500D01*
X132721155Y-78449500D01*
X132566510Y-78480261D01*
X132566498Y-78480264D01*
X132420827Y-78540602D01*
X132420814Y-78540609D01*
X132289711Y-78628210D01*
X132289707Y-78628213D01*
X132178213Y-78739707D01*
X132178210Y-78739711D01*
X132090609Y-78870814D01*
X132090602Y-78870827D01*
X132030264Y-79016498D01*
X132030261Y-79016510D01*
X131999500Y-79171153D01*
X130549955Y-79171153D01*
X130511706Y-79127011D01*
X130500500Y-79075500D01*
X130500500Y-78079765D01*
X130520185Y-78012726D01*
X130521398Y-78010874D01*
X130581347Y-77921155D01*
X130609394Y-77879179D01*
X130609396Y-77879172D01*
X130610795Y-77876557D01*
X130611894Y-77875437D01*
X130612779Y-77874114D01*
X130613029Y-77874281D01*
X130659755Y-77826710D01*
X130720157Y-77811004D01*
X137235396Y-77811004D01*
X137282844Y-77820441D01*
X137306503Y-77830241D01*
X137306508Y-77830242D01*
X137306511Y-77830243D01*
X137461153Y-77861003D01*
X137461156Y-77861004D01*
X137461158Y-77861004D01*
X137618844Y-77861004D01*
X137618845Y-77861003D01*
X137773497Y-77830241D01*
X137919179Y-77769898D01*
X138050289Y-77682293D01*
X138161789Y-77570793D01*
X138249394Y-77439683D01*
X138309737Y-77294001D01*
X138340500Y-77139346D01*
X138340500Y-77124038D01*
X142049500Y-77124038D01*
X142049500Y-77375962D01*
X142066020Y-77480263D01*
X142088910Y-77624785D01*
X142166760Y-77864383D01*
X142225805Y-77980263D01*
X142276035Y-78078846D01*
X142281132Y-78088848D01*
X142429201Y-78292649D01*
X142429205Y-78292654D01*
X142607345Y-78470794D01*
X142607350Y-78470798D01*
X142754056Y-78577385D01*
X142811155Y-78618870D01*
X142934254Y-78681592D01*
X143035616Y-78733239D01*
X143035618Y-78733239D01*
X143035621Y-78733241D01*
X143275215Y-78811090D01*
X143524038Y-78850500D01*
X143524039Y-78850500D01*
X143775961Y-78850500D01*
X143775962Y-78850500D01*
X144024785Y-78811090D01*
X144264379Y-78733241D01*
X144488845Y-78618870D01*
X144692656Y-78470793D01*
X144870793Y-78292656D01*
X145018870Y-78088845D01*
X145133241Y-77864379D01*
X145211090Y-77624785D01*
X145250500Y-77375962D01*
X145250500Y-77124038D01*
X145211090Y-76875215D01*
X145133241Y-76635621D01*
X145133239Y-76635618D01*
X145133239Y-76635616D01*
X145089869Y-76550499D01*
X145018870Y-76411155D01*
X144938474Y-76300499D01*
X144870798Y-76207350D01*
X144870794Y-76207345D01*
X144692654Y-76029205D01*
X144692649Y-76029201D01*
X144488848Y-75881132D01*
X144488847Y-75881131D01*
X144488845Y-75881130D01*
X144386224Y-75828842D01*
X144264383Y-75766760D01*
X144024785Y-75688910D01*
X143912685Y-75671155D01*
X143775962Y-75649500D01*
X143524038Y-75649500D01*
X143399626Y-75669205D01*
X143275214Y-75688910D01*
X143035616Y-75766760D01*
X142811151Y-75881132D01*
X142607350Y-76029201D01*
X142607345Y-76029205D01*
X142429205Y-76207345D01*
X142429201Y-76207350D01*
X142281132Y-76411151D01*
X142166760Y-76635616D01*
X142088910Y-76875214D01*
X142088435Y-76878211D01*
X142049500Y-77124038D01*
X138340500Y-77124038D01*
X138340500Y-76981662D01*
X138340500Y-76981659D01*
X138340499Y-76981657D01*
X138309738Y-76827014D01*
X138309737Y-76827007D01*
X138262949Y-76714049D01*
X138249397Y-76681331D01*
X138249390Y-76681318D01*
X138161789Y-76550215D01*
X138161786Y-76550211D01*
X138050292Y-76438717D01*
X138050288Y-76438714D01*
X137919185Y-76351113D01*
X137919172Y-76351106D01*
X137773501Y-76290768D01*
X137773489Y-76290765D01*
X137618845Y-76260004D01*
X137618842Y-76260004D01*
X137461158Y-76260004D01*
X137461155Y-76260004D01*
X137306511Y-76290764D01*
X137306506Y-76290766D01*
X137306504Y-76290766D01*
X137306503Y-76290767D01*
X137282844Y-76300566D01*
X137235396Y-76310004D01*
X130883395Y-76310004D01*
X130816356Y-76290319D01*
X130795718Y-76273689D01*
X130689077Y-76167048D01*
X130689076Y-76167047D01*
X130689075Y-76167046D01*
X130598733Y-76106682D01*
X130598634Y-76106617D01*
X130566156Y-76084916D01*
X130566155Y-76084915D01*
X130566153Y-76084914D01*
X130429578Y-76028343D01*
X130429568Y-76028340D01*
X130284581Y-75999500D01*
X130284579Y-75999500D01*
X130024500Y-75999500D01*
X129957461Y-75979815D01*
X129911706Y-75927011D01*
X129900500Y-75875500D01*
X129900500Y-74212229D01*
X129920185Y-74145190D01*
X129936819Y-74124548D01*
X130424548Y-73636819D01*
X130485871Y-73603334D01*
X130512229Y-73600500D01*
X130578844Y-73600500D01*
X130578845Y-73600499D01*
X130733497Y-73569737D01*
X130879179Y-73509394D01*
X131010289Y-73421789D01*
X131121789Y-73310289D01*
X131209394Y-73179179D01*
X131269737Y-73033497D01*
X131300500Y-72878842D01*
X131300500Y-72721158D01*
X131300500Y-72721155D01*
X131300499Y-72721153D01*
X131269738Y-72566510D01*
X131269737Y-72566503D01*
X131209445Y-72420943D01*
X131209397Y-72420827D01*
X131209390Y-72420814D01*
X131121789Y-72289711D01*
X131121786Y-72289707D01*
X131010292Y-72178213D01*
X131010288Y-72178210D01*
X130879185Y-72090609D01*
X130879172Y-72090602D01*
X130733501Y-72030264D01*
X130733489Y-72030261D01*
X130578845Y-71999500D01*
X130578842Y-71999500D01*
X130421158Y-71999500D01*
X130421155Y-71999500D01*
X130266511Y-72030260D01*
X130266506Y-72030262D01*
X130266504Y-72030262D01*
X130266503Y-72030263D01*
X130242844Y-72040062D01*
X130195396Y-72049500D01*
X130126077Y-72049500D01*
X130048691Y-72064893D01*
X129979099Y-72058666D01*
X129923922Y-72015802D01*
X129900678Y-71949913D01*
X129900500Y-71943276D01*
X129900500Y-70612229D01*
X129920185Y-70545190D01*
X129936819Y-70524548D01*
X130424548Y-70036819D01*
X130485871Y-70003334D01*
X130512229Y-70000500D01*
X133095396Y-70000500D01*
X133142844Y-70009937D01*
X133166503Y-70019737D01*
X133166508Y-70019738D01*
X133166511Y-70019739D01*
X133321153Y-70050499D01*
X133321156Y-70050500D01*
X133321158Y-70050500D01*
X133478844Y-70050500D01*
X133478845Y-70050499D01*
X133633497Y-70019737D01*
X133779179Y-69959394D01*
X133910289Y-69871789D01*
X134021789Y-69760289D01*
X134053709Y-69712516D01*
X134107320Y-69667713D01*
X134176645Y-69659005D01*
X134239673Y-69689159D01*
X134244492Y-69693727D01*
X137263181Y-72712416D01*
X137296666Y-72773739D01*
X137299500Y-72800097D01*
X137299500Y-73099288D01*
X137299499Y-73099306D01*
X137299499Y-73265012D01*
X137299498Y-73265012D01*
X137299499Y-73265015D01*
X137324176Y-73357111D01*
X137342527Y-73425594D01*
X137341832Y-73425779D01*
X137349500Y-73464322D01*
X137349500Y-73514804D01*
X137380261Y-73669447D01*
X137380264Y-73669459D01*
X137440602Y-73815130D01*
X137440609Y-73815143D01*
X137528210Y-73946246D01*
X137528213Y-73946250D01*
X137639707Y-74057744D01*
X137639711Y-74057747D01*
X137770814Y-74145348D01*
X137770827Y-74145355D01*
X137916015Y-74205493D01*
X137916503Y-74205695D01*
X138071153Y-74236457D01*
X138071156Y-74236458D01*
X138071158Y-74236458D01*
X138228844Y-74236458D01*
X138228845Y-74236457D01*
X138383497Y-74205695D01*
X138529179Y-74145352D01*
X138660289Y-74057747D01*
X138771789Y-73946247D01*
X138859394Y-73815137D01*
X138919737Y-73669455D01*
X138950500Y-73514800D01*
X138950500Y-73357116D01*
X138950500Y-73357113D01*
X138950499Y-73357111D01*
X138919738Y-73202468D01*
X138919737Y-73202461D01*
X138910093Y-73179179D01*
X138859397Y-73056785D01*
X138859390Y-73056772D01*
X138771789Y-72925669D01*
X138771786Y-72925665D01*
X138660289Y-72814168D01*
X138555609Y-72744224D01*
X138510804Y-72690612D01*
X138500500Y-72641122D01*
X138500500Y-72589060D01*
X138500501Y-72589047D01*
X138500501Y-72420944D01*
X138500466Y-72420814D01*
X138459577Y-72268216D01*
X138459573Y-72268209D01*
X138380524Y-72131290D01*
X138380518Y-72131282D01*
X135328291Y-69079055D01*
X131977054Y-65727819D01*
X131943570Y-65666497D01*
X131943119Y-65615945D01*
X131950500Y-65578841D01*
X131950500Y-65421155D01*
X131950499Y-65421153D01*
X131919738Y-65266510D01*
X131919737Y-65266503D01*
X131916091Y-65257701D01*
X131859397Y-65120827D01*
X131859390Y-65120814D01*
X131771789Y-64989711D01*
X131771786Y-64989707D01*
X131695468Y-64913389D01*
X132549500Y-64913389D01*
X132549500Y-65086611D01*
X132576598Y-65257701D01*
X132630127Y-65422445D01*
X132708768Y-65576788D01*
X132810586Y-65716928D01*
X132933072Y-65839414D01*
X133073212Y-65941232D01*
X133227555Y-66019873D01*
X133392299Y-66073402D01*
X133563389Y-66100500D01*
X133563390Y-66100500D01*
X133736610Y-66100500D01*
X133736611Y-66100500D01*
X133907701Y-66073402D01*
X134072445Y-66019873D01*
X134226788Y-65941232D01*
X134366928Y-65839414D01*
X134489414Y-65716928D01*
X134591232Y-65576788D01*
X134669873Y-65422445D01*
X134723402Y-65257701D01*
X134750500Y-65086611D01*
X134750500Y-64913389D01*
X139549500Y-64913389D01*
X139549500Y-65086611D01*
X139576598Y-65257701D01*
X139630127Y-65422445D01*
X139708768Y-65576788D01*
X139810586Y-65716928D01*
X139933072Y-65839414D01*
X140073212Y-65941232D01*
X140227555Y-66019873D01*
X140392299Y-66073402D01*
X140563389Y-66100500D01*
X140563390Y-66100500D01*
X140736610Y-66100500D01*
X140736611Y-66100500D01*
X140907701Y-66073402D01*
X141072445Y-66019873D01*
X141226788Y-65941232D01*
X141366928Y-65839414D01*
X141489414Y-65716928D01*
X141591232Y-65576788D01*
X141669873Y-65422445D01*
X141723402Y-65257701D01*
X141750500Y-65086611D01*
X141750500Y-64913389D01*
X141723402Y-64742299D01*
X141669873Y-64577555D01*
X141591232Y-64423212D01*
X141489414Y-64283072D01*
X141366928Y-64160586D01*
X141226788Y-64058768D01*
X141072445Y-63980127D01*
X140907701Y-63926598D01*
X140907699Y-63926597D01*
X140907698Y-63926597D01*
X140776271Y-63905781D01*
X140736611Y-63899500D01*
X140563389Y-63899500D01*
X140523728Y-63905781D01*
X140392302Y-63926597D01*
X140227552Y-63980128D01*
X140073211Y-64058768D01*
X139993256Y-64116859D01*
X139933072Y-64160586D01*
X139933070Y-64160588D01*
X139933069Y-64160588D01*
X139810588Y-64283069D01*
X139810588Y-64283070D01*
X139810586Y-64283072D01*
X139766859Y-64343256D01*
X139708768Y-64423211D01*
X139630128Y-64577552D01*
X139576597Y-64742302D01*
X139568947Y-64790606D01*
X139549500Y-64913389D01*
X134750500Y-64913389D01*
X134723402Y-64742299D01*
X134669873Y-64577555D01*
X134591232Y-64423212D01*
X134489414Y-64283072D01*
X134366928Y-64160586D01*
X134226788Y-64058768D01*
X134072445Y-63980127D01*
X133907701Y-63926598D01*
X133907699Y-63926597D01*
X133907698Y-63926597D01*
X133776271Y-63905781D01*
X133736611Y-63899500D01*
X133563389Y-63899500D01*
X133523728Y-63905781D01*
X133392302Y-63926597D01*
X133227552Y-63980128D01*
X133073211Y-64058768D01*
X132993256Y-64116859D01*
X132933072Y-64160586D01*
X132933070Y-64160588D01*
X132933069Y-64160588D01*
X132810588Y-64283069D01*
X132810588Y-64283070D01*
X132810586Y-64283072D01*
X132766859Y-64343256D01*
X132708768Y-64423211D01*
X132630128Y-64577552D01*
X132576597Y-64742302D01*
X132568947Y-64790606D01*
X132549500Y-64913389D01*
X131695468Y-64913389D01*
X131660292Y-64878213D01*
X131660288Y-64878210D01*
X131529185Y-64790609D01*
X131529172Y-64790602D01*
X131383501Y-64730264D01*
X131383489Y-64730261D01*
X131228845Y-64699500D01*
X131228842Y-64699500D01*
X131071158Y-64699500D01*
X131071155Y-64699500D01*
X130916510Y-64730261D01*
X130916498Y-64730264D01*
X130770827Y-64790602D01*
X130770814Y-64790609D01*
X130639711Y-64878210D01*
X130639707Y-64878213D01*
X130528213Y-64989707D01*
X130528210Y-64989711D01*
X130440609Y-65120814D01*
X130440602Y-65120827D01*
X130380264Y-65266498D01*
X130380261Y-65266510D01*
X130349500Y-65421153D01*
X130349500Y-65578846D01*
X130380261Y-65733489D01*
X130380264Y-65733501D01*
X130440602Y-65879172D01*
X130440609Y-65879185D01*
X130528210Y-66010288D01*
X130528213Y-66010292D01*
X130639707Y-66121786D01*
X130639715Y-66121792D01*
X130728532Y-66181138D01*
X130747323Y-66196559D01*
X130788349Y-66237585D01*
X130788355Y-66237590D01*
X132838584Y-68287819D01*
X132872069Y-68349142D01*
X132867085Y-68418834D01*
X132825213Y-68474767D01*
X132759749Y-68499184D01*
X132750903Y-68499500D01*
X130076076Y-68499500D01*
X130047242Y-68505234D01*
X130047243Y-68505235D01*
X129931093Y-68528339D01*
X129931083Y-68528342D01*
X129851081Y-68561479D01*
X129851082Y-68561480D01*
X129794506Y-68584915D01*
X129794503Y-68584917D01*
X129780549Y-68594240D01*
X129725110Y-68631284D01*
X129725109Y-68631285D01*
X129671586Y-68667046D01*
X129671581Y-68667050D01*
X128567045Y-69771586D01*
X128530381Y-69826462D01*
X128530379Y-69826465D01*
X128484919Y-69894499D01*
X128484912Y-69894511D01*
X128428343Y-70031082D01*
X128428340Y-70031092D01*
X128399500Y-70176079D01*
X128399500Y-79697809D01*
X128379815Y-79764848D01*
X128327011Y-79810603D01*
X128257853Y-79820547D01*
X128194297Y-79791522D01*
X128160939Y-79745261D01*
X128109397Y-79620827D01*
X128109390Y-79620814D01*
X128021789Y-79489711D01*
X128021786Y-79489707D01*
X127910292Y-79378213D01*
X127910288Y-79378210D01*
X127779185Y-79290609D01*
X127779172Y-79290602D01*
X127633501Y-79230264D01*
X127633489Y-79230261D01*
X127478845Y-79199500D01*
X127478842Y-79199500D01*
X127321158Y-79199500D01*
X127321155Y-79199500D01*
X127166510Y-79230261D01*
X127166498Y-79230264D01*
X127020827Y-79290602D01*
X127020814Y-79290609D01*
X126889125Y-79378602D01*
X126822447Y-79399480D01*
X126820234Y-79399500D01*
X125950098Y-79399500D01*
X125883059Y-79379815D01*
X125862417Y-79363181D01*
X124734573Y-78235337D01*
X124701088Y-78174014D01*
X124700637Y-78171847D01*
X124684127Y-78088845D01*
X124669737Y-78016503D01*
X124667163Y-78010289D01*
X124609397Y-77870827D01*
X124609390Y-77870814D01*
X124521789Y-77739711D01*
X124521786Y-77739707D01*
X124410292Y-77628213D01*
X124410288Y-77628210D01*
X124279185Y-77540609D01*
X124279172Y-77540602D01*
X124133501Y-77480264D01*
X124133489Y-77480261D01*
X123978845Y-77449500D01*
X123978842Y-77449500D01*
X123821158Y-77449500D01*
X123821155Y-77449500D01*
X123666510Y-77480261D01*
X123666498Y-77480264D01*
X123520827Y-77540602D01*
X123520814Y-77540609D01*
X123389711Y-77628210D01*
X123389707Y-77628213D01*
X123278213Y-77739707D01*
X123278210Y-77739711D01*
X123190609Y-77870814D01*
X123190602Y-77870827D01*
X123130264Y-78016498D01*
X123130261Y-78016510D01*
X123099500Y-78171153D01*
X123099500Y-78328846D01*
X123130261Y-78483489D01*
X123130264Y-78483501D01*
X123190602Y-78629172D01*
X123190609Y-78629185D01*
X123278210Y-78760288D01*
X123278213Y-78760292D01*
X123389707Y-78871786D01*
X123389711Y-78871789D01*
X123520814Y-78959390D01*
X123520827Y-78959397D01*
X123658683Y-79016498D01*
X123666503Y-79019737D01*
X123731147Y-79032595D01*
X123821849Y-79050638D01*
X123883760Y-79083023D01*
X123885337Y-79084572D01*
X125281284Y-80480520D01*
X125281286Y-80480521D01*
X125281290Y-80480524D01*
X125385350Y-80540602D01*
X125418216Y-80559577D01*
X125570943Y-80600501D01*
X125570945Y-80600501D01*
X125736654Y-80600501D01*
X125736670Y-80600500D01*
X126820234Y-80600500D01*
X126887273Y-80620185D01*
X126889125Y-80621398D01*
X127020814Y-80709390D01*
X127020827Y-80709397D01*
X127158316Y-80766346D01*
X127166503Y-80769737D01*
X127321153Y-80800499D01*
X127321156Y-80800500D01*
X127321158Y-80800500D01*
X127478844Y-80800500D01*
X127478845Y-80800499D01*
X127633497Y-80769737D01*
X127779179Y-80709394D01*
X127910289Y-80621789D01*
X128021789Y-80510289D01*
X128109394Y-80379179D01*
X128160939Y-80254738D01*
X128204779Y-80200334D01*
X128271074Y-80178269D01*
X128338773Y-80195548D01*
X128386384Y-80246685D01*
X128399500Y-80302190D01*
X128399500Y-87933648D01*
X128379815Y-88000687D01*
X128327011Y-88046442D01*
X128275500Y-88057648D01*
X123267932Y-88057648D01*
X123122944Y-88086488D01*
X123122934Y-88086491D01*
X122986363Y-88143060D01*
X122986350Y-88143067D01*
X122901893Y-88199501D01*
X122863434Y-88225198D01*
X122858721Y-88229066D01*
X122857108Y-88227101D01*
X122805490Y-88255249D01*
X122755012Y-88255684D01*
X122723918Y-88249500D01*
X122723917Y-88249500D01*
X119204604Y-88249500D01*
X119157155Y-88240062D01*
X119133497Y-88230263D01*
X119133493Y-88230262D01*
X119133488Y-88230260D01*
X118978845Y-88199500D01*
X118978842Y-88199500D01*
X118821158Y-88199500D01*
X118821155Y-88199500D01*
X118666510Y-88230261D01*
X118666498Y-88230264D01*
X118520827Y-88290602D01*
X118520814Y-88290609D01*
X118389711Y-88378210D01*
X118389707Y-88378213D01*
X118278213Y-88489707D01*
X118278210Y-88489711D01*
X118190609Y-88620814D01*
X118190602Y-88620827D01*
X118130264Y-88766498D01*
X118130261Y-88766510D01*
X118099500Y-88921153D01*
X106670388Y-88921153D01*
X105974319Y-88225084D01*
X105940834Y-88163761D01*
X105938000Y-88137403D01*
X105938000Y-87862597D01*
X105957685Y-87795558D01*
X105974319Y-87774916D01*
X106087419Y-87661816D01*
X106148742Y-87628331D01*
X106175100Y-87625497D01*
X106457734Y-87625497D01*
X106524773Y-87645182D01*
X106526625Y-87646395D01*
X106658314Y-87734387D01*
X106658327Y-87734394D01*
X106803998Y-87794732D01*
X106804003Y-87794734D01*
X106886959Y-87811235D01*
X106958653Y-87825496D01*
X106958656Y-87825497D01*
X106958658Y-87825497D01*
X107116344Y-87825497D01*
X107116345Y-87825496D01*
X107270997Y-87794734D01*
X107416679Y-87734391D01*
X107547789Y-87646786D01*
X107659289Y-87535286D01*
X107746894Y-87404176D01*
X107807237Y-87258494D01*
X107838000Y-87103839D01*
X107838000Y-86946155D01*
X107838000Y-86946152D01*
X107837999Y-86946150D01*
X107807238Y-86791507D01*
X107807237Y-86791500D01*
X107807235Y-86791495D01*
X107746897Y-86645824D01*
X107746890Y-86645811D01*
X107659289Y-86514708D01*
X107659286Y-86514704D01*
X107547792Y-86403210D01*
X107547788Y-86403207D01*
X107416685Y-86315606D01*
X107416672Y-86315599D01*
X107271001Y-86255261D01*
X107270989Y-86255258D01*
X107116345Y-86224497D01*
X107116342Y-86224497D01*
X106958658Y-86224497D01*
X106958655Y-86224497D01*
X106804010Y-86255258D01*
X106803998Y-86255261D01*
X106658327Y-86315599D01*
X106658314Y-86315606D01*
X106526625Y-86403599D01*
X106459947Y-86424477D01*
X106457734Y-86424497D01*
X105961672Y-86424497D01*
X105961656Y-86424496D01*
X105954060Y-86424496D01*
X105795946Y-86424496D01*
X105694092Y-86451787D01*
X105624244Y-86450125D01*
X105566381Y-86410963D01*
X105538877Y-86346734D01*
X105538000Y-86332013D01*
X105538000Y-82554604D01*
X105547439Y-82507151D01*
X105557237Y-82483497D01*
X105588000Y-82328842D01*
X105588000Y-82171158D01*
X105588000Y-82171155D01*
X105587999Y-82171153D01*
X105559764Y-82029207D01*
X105557237Y-82016503D01*
X105501165Y-81881132D01*
X105496897Y-81870827D01*
X105496890Y-81870814D01*
X105409289Y-81739711D01*
X105409286Y-81739707D01*
X105297792Y-81628213D01*
X105297788Y-81628210D01*
X105166685Y-81540609D01*
X105166672Y-81540602D01*
X105021001Y-81480264D01*
X105020989Y-81480261D01*
X104866345Y-81449500D01*
X104866342Y-81449500D01*
X104708658Y-81449500D01*
X104708655Y-81449500D01*
X104554010Y-81480261D01*
X104553998Y-81480264D01*
X104408327Y-81540602D01*
X104408314Y-81540609D01*
X104277211Y-81628210D01*
X104277207Y-81628213D01*
X104165713Y-81739707D01*
X104165710Y-81739711D01*
X104078109Y-81870814D01*
X104078102Y-81870827D01*
X104017764Y-82016498D01*
X104017761Y-82016510D01*
X103987000Y-82171153D01*
X103987000Y-82328846D01*
X104017761Y-82483489D01*
X104017763Y-82483497D01*
X104027561Y-82507151D01*
X104037000Y-82554604D01*
X104037000Y-90188941D01*
X104017315Y-90255980D01*
X104016102Y-90257832D01*
X103940609Y-90370814D01*
X103940602Y-90370827D01*
X103880264Y-90516498D01*
X103880261Y-90516510D01*
X103849500Y-90671153D01*
X85900500Y-90671153D01*
X85900500Y-90054604D01*
X85909939Y-90007151D01*
X85912901Y-90000000D01*
X85919737Y-89983497D01*
X85950500Y-89828842D01*
X85950500Y-89671158D01*
X85950500Y-89671155D01*
X85950499Y-89671153D01*
X85948224Y-89659715D01*
X85919737Y-89516503D01*
X85902673Y-89475307D01*
X85859397Y-89370827D01*
X85859390Y-89370814D01*
X85771789Y-89239711D01*
X85771786Y-89239707D01*
X85660292Y-89128213D01*
X85660288Y-89128210D01*
X85529185Y-89040609D01*
X85529172Y-89040602D01*
X85383501Y-88980264D01*
X85383489Y-88980261D01*
X85228845Y-88949500D01*
X85228842Y-88949500D01*
X85071158Y-88949500D01*
X85071155Y-88949500D01*
X84916510Y-88980261D01*
X84916498Y-88980264D01*
X84770827Y-89040602D01*
X84770814Y-89040609D01*
X84639711Y-89128210D01*
X84639707Y-89128213D01*
X84528213Y-89239707D01*
X84528210Y-89239711D01*
X84440609Y-89370814D01*
X84440602Y-89370827D01*
X84380264Y-89516498D01*
X84380261Y-89516510D01*
X84349500Y-89671153D01*
X84349500Y-89828846D01*
X84380261Y-89983489D01*
X84380263Y-89983497D01*
X84390061Y-90007151D01*
X84399500Y-90054604D01*
X84399500Y-91695396D01*
X84390062Y-91742844D01*
X84388591Y-91746398D01*
X84380262Y-91766506D01*
X84380260Y-91766511D01*
X84349500Y-91921153D01*
X84349500Y-92078846D01*
X84380261Y-92233489D01*
X84380264Y-92233501D01*
X84440602Y-92379172D01*
X84440609Y-92379185D01*
X84528210Y-92510288D01*
X84528213Y-92510292D01*
X84639707Y-92621786D01*
X84639711Y-92621789D01*
X84770814Y-92709390D01*
X84770827Y-92709397D01*
X84895262Y-92760939D01*
X84949666Y-92804779D01*
X84971731Y-92871074D01*
X84954452Y-92938773D01*
X84903315Y-92986384D01*
X84847810Y-92999500D01*
X57774500Y-92999500D01*
X57707461Y-92979815D01*
X57661706Y-92927011D01*
X57650500Y-92875500D01*
X57650500Y-90066533D01*
X58524499Y-90066533D01*
X58550458Y-90197030D01*
X58550461Y-90197040D01*
X58601376Y-90319961D01*
X58601386Y-90319979D01*
X58675301Y-90430601D01*
X58675307Y-90430609D01*
X58769390Y-90524692D01*
X58769398Y-90524698D01*
X58880020Y-90598613D01*
X58880023Y-90598614D01*
X58880031Y-90598620D01*
X58880037Y-90598622D01*
X58880038Y-90598623D01*
X59002959Y-90649538D01*
X59002964Y-90649540D01*
X59002968Y-90649540D01*
X59002969Y-90649541D01*
X59133466Y-90675500D01*
X59133469Y-90675500D01*
X59266533Y-90675500D01*
X59354325Y-90658035D01*
X59397036Y-90649540D01*
X59519969Y-90598620D01*
X59630606Y-90524695D01*
X59724695Y-90430606D01*
X59798620Y-90319969D01*
X59849540Y-90197036D01*
X59875500Y-90066531D01*
X59875500Y-89933469D01*
X59875500Y-89933466D01*
X59849541Y-89802969D01*
X59849540Y-89802968D01*
X59849540Y-89802964D01*
X59849537Y-89802958D01*
X59849536Y-89802953D01*
X59798623Y-89680038D01*
X59798622Y-89680037D01*
X59798620Y-89680031D01*
X59792691Y-89671158D01*
X59724698Y-89569398D01*
X59724692Y-89569390D01*
X59630609Y-89475307D01*
X59630601Y-89475301D01*
X59519979Y-89401386D01*
X59519972Y-89401382D01*
X59519969Y-89401380D01*
X59519965Y-89401378D01*
X59519961Y-89401376D01*
X59397040Y-89350461D01*
X59397030Y-89350458D01*
X59266533Y-89324500D01*
X59266531Y-89324500D01*
X59133469Y-89324500D01*
X59133467Y-89324500D01*
X59002969Y-89350458D01*
X59002959Y-89350461D01*
X58880038Y-89401376D01*
X58880020Y-89401386D01*
X58769398Y-89475301D01*
X58769390Y-89475307D01*
X58675307Y-89569390D01*
X58675301Y-89569398D01*
X58601386Y-89680020D01*
X58601376Y-89680038D01*
X58550464Y-89802953D01*
X58550458Y-89802969D01*
X58524500Y-89933466D01*
X58524500Y-89933469D01*
X58524500Y-90066531D01*
X58524500Y-90066533D01*
X58524499Y-90066533D01*
X57650500Y-90066533D01*
X57650500Y-88921154D01*
X61599500Y-88921154D01*
X61599500Y-89078847D01*
X61630261Y-89233490D01*
X61630264Y-89233502D01*
X61690602Y-89379173D01*
X61690609Y-89379186D01*
X61778210Y-89510289D01*
X61778213Y-89510293D01*
X61889707Y-89621787D01*
X61889711Y-89621790D01*
X62020814Y-89709391D01*
X62020827Y-89709398D01*
X62143691Y-89760289D01*
X62166503Y-89769738D01*
X62321148Y-89800499D01*
X62321153Y-89800500D01*
X62321156Y-89800501D01*
X62321158Y-89800501D01*
X62478844Y-89800501D01*
X62478845Y-89800500D01*
X62633497Y-89769738D01*
X62779179Y-89709395D01*
X62910289Y-89621790D01*
X63021789Y-89510290D01*
X63109394Y-89379180D01*
X63119192Y-89355523D01*
X63146069Y-89315298D01*
X63232951Y-89228417D01*
X63315084Y-89105496D01*
X63371658Y-88968914D01*
X63389700Y-88878213D01*
X63400500Y-88823921D01*
X63400500Y-88358653D01*
X69459500Y-88358653D01*
X69459500Y-88516346D01*
X69490261Y-88670989D01*
X69490264Y-88671001D01*
X69550602Y-88816672D01*
X69550609Y-88816685D01*
X69638210Y-88947788D01*
X69638213Y-88947792D01*
X69749707Y-89059286D01*
X69749711Y-89059289D01*
X69880814Y-89146890D01*
X69880827Y-89146897D01*
X70026348Y-89207173D01*
X70026503Y-89207237D01*
X70158480Y-89233489D01*
X70181153Y-89237999D01*
X70181156Y-89238000D01*
X70181158Y-89238000D01*
X70338844Y-89238000D01*
X70338845Y-89237999D01*
X70493497Y-89207237D01*
X70639179Y-89146894D01*
X70770289Y-89059289D01*
X70881789Y-88947789D01*
X70969394Y-88816679D01*
X71029737Y-88670997D01*
X71060500Y-88516342D01*
X71060500Y-88358658D01*
X71060500Y-88358655D01*
X71060499Y-88358653D01*
X71057011Y-88341116D01*
X71029737Y-88204003D01*
X71018121Y-88175960D01*
X70969397Y-88058327D01*
X70969390Y-88058314D01*
X70881398Y-87926625D01*
X70860520Y-87859947D01*
X70860500Y-87857734D01*
X70860500Y-84665790D01*
X74775432Y-84665790D01*
X74775432Y-84823483D01*
X74806193Y-84978126D01*
X74806196Y-84978138D01*
X74866534Y-85123809D01*
X74866541Y-85123822D01*
X74954142Y-85254925D01*
X74954145Y-85254929D01*
X75065639Y-85366423D01*
X75065643Y-85366426D01*
X75196746Y-85454027D01*
X75196759Y-85454034D01*
X75342430Y-85514372D01*
X75342435Y-85514374D01*
X75407079Y-85527232D01*
X75497781Y-85545275D01*
X75559692Y-85577660D01*
X75561271Y-85579211D01*
X75783934Y-85801874D01*
X75783944Y-85801885D01*
X75788274Y-85806215D01*
X75788275Y-85806216D01*
X75900079Y-85918020D01*
X75951646Y-85947792D01*
X75971739Y-85959392D01*
X75971741Y-85959394D01*
X75971742Y-85959394D01*
X76037010Y-85997077D01*
X76189737Y-86038000D01*
X76189738Y-86038000D01*
X79680234Y-86038000D01*
X79747273Y-86057685D01*
X79749125Y-86058898D01*
X79880814Y-86146890D01*
X79880827Y-86146897D01*
X79973672Y-86185354D01*
X80026503Y-86207237D01*
X80181153Y-86237999D01*
X80181156Y-86238000D01*
X80181158Y-86238000D01*
X80338844Y-86238000D01*
X80338845Y-86237999D01*
X80493497Y-86207237D01*
X80639179Y-86146894D01*
X80770289Y-86059289D01*
X80881789Y-85947789D01*
X80969394Y-85816679D01*
X80971121Y-85812511D01*
X80997013Y-85750000D01*
X81029737Y-85670997D01*
X81060500Y-85516342D01*
X81060500Y-85358658D01*
X81060500Y-85358655D01*
X81060499Y-85358653D01*
X81051746Y-85314648D01*
X81029737Y-85204003D01*
X81009607Y-85155405D01*
X80969397Y-85058327D01*
X80969390Y-85058314D01*
X80881789Y-84927211D01*
X80881786Y-84927207D01*
X80770292Y-84815713D01*
X80770288Y-84815710D01*
X80639185Y-84728109D01*
X80639172Y-84728102D01*
X80493501Y-84667764D01*
X80493489Y-84667761D01*
X80338845Y-84637000D01*
X80338842Y-84637000D01*
X80181158Y-84637000D01*
X80181155Y-84637000D01*
X80026510Y-84667761D01*
X80026498Y-84667764D01*
X79880827Y-84728102D01*
X79880814Y-84728109D01*
X79749125Y-84816102D01*
X79682447Y-84836980D01*
X79680234Y-84837000D01*
X78310938Y-84837000D01*
X78243899Y-84817315D01*
X78198144Y-84764511D01*
X78188200Y-84695353D01*
X78217225Y-84631797D01*
X78223257Y-84625319D01*
X78315548Y-84533027D01*
X78315551Y-84533024D01*
X78403156Y-84401914D01*
X78463499Y-84256232D01*
X78471495Y-84216033D01*
X78487056Y-84137808D01*
X78519441Y-84075897D01*
X78580157Y-84041323D01*
X78608673Y-84038000D01*
X79834684Y-84038000D01*
X79882136Y-84047439D01*
X79982110Y-84088849D01*
X80026503Y-84107237D01*
X80180193Y-84137808D01*
X80181153Y-84137999D01*
X80181156Y-84138000D01*
X80181158Y-84138000D01*
X80338844Y-84138000D01*
X80338845Y-84137999D01*
X80493497Y-84107237D01*
X80561315Y-84079145D01*
X80630782Y-84071677D01*
X80693261Y-84102952D01*
X80696447Y-84106026D01*
X80749707Y-84159286D01*
X80749711Y-84159289D01*
X80880814Y-84246890D01*
X80880827Y-84246897D01*
X80979056Y-84287584D01*
X81026503Y-84307237D01*
X81181153Y-84337999D01*
X81181156Y-84338000D01*
X81181158Y-84338000D01*
X81338844Y-84338000D01*
X81338845Y-84337999D01*
X81493497Y-84307237D01*
X81616649Y-84256226D01*
X81639172Y-84246897D01*
X81639172Y-84246896D01*
X81639179Y-84246894D01*
X81770289Y-84159289D01*
X81881789Y-84047789D01*
X81969394Y-83916679D01*
X82029737Y-83770997D01*
X82060500Y-83616342D01*
X82060500Y-83458658D01*
X82060500Y-83458655D01*
X82060499Y-83458653D01*
X82045109Y-83381282D01*
X82029737Y-83304003D01*
X81969394Y-83158321D01*
X81946487Y-83124038D01*
X89049500Y-83124038D01*
X89049500Y-83375962D01*
X89060636Y-83446270D01*
X89088910Y-83624785D01*
X89166760Y-83864383D01*
X89193410Y-83916685D01*
X89276188Y-84079146D01*
X89281132Y-84088848D01*
X89429201Y-84292649D01*
X89429205Y-84292654D01*
X89607345Y-84470794D01*
X89607350Y-84470798D01*
X89693002Y-84533027D01*
X89811155Y-84618870D01*
X89953556Y-84691427D01*
X90035616Y-84733239D01*
X90035618Y-84733239D01*
X90035621Y-84733241D01*
X90275215Y-84811090D01*
X90524038Y-84850500D01*
X90524039Y-84850500D01*
X90775961Y-84850500D01*
X90775962Y-84850500D01*
X91024785Y-84811090D01*
X91264379Y-84733241D01*
X91488845Y-84618870D01*
X91692656Y-84470793D01*
X91870793Y-84292656D01*
X91938182Y-84199903D01*
X91959070Y-84171153D01*
X97099500Y-84171153D01*
X97099500Y-84328846D01*
X97130261Y-84483489D01*
X97130264Y-84483501D01*
X97190602Y-84629172D01*
X97190609Y-84629185D01*
X97278210Y-84760288D01*
X97278213Y-84760292D01*
X97389707Y-84871786D01*
X97389711Y-84871789D01*
X97520814Y-84959390D01*
X97520827Y-84959397D01*
X97666498Y-85019735D01*
X97666503Y-85019737D01*
X97821153Y-85050499D01*
X97821156Y-85050500D01*
X97821158Y-85050500D01*
X97978844Y-85050500D01*
X97978845Y-85050499D01*
X98133497Y-85019737D01*
X98279179Y-84959394D01*
X98410289Y-84871789D01*
X98521789Y-84760289D01*
X98609394Y-84629179D01*
X98669737Y-84483497D01*
X98700500Y-84328842D01*
X98700500Y-84171158D01*
X98700500Y-84171155D01*
X98700499Y-84171153D01*
X98684331Y-84089871D01*
X98669737Y-84016503D01*
X98646670Y-83960816D01*
X98639201Y-83891349D01*
X98670475Y-83828869D01*
X98673520Y-83825713D01*
X100164664Y-82334571D01*
X100225985Y-82301088D01*
X100228152Y-82300637D01*
X100228841Y-82300500D01*
X100228842Y-82300500D01*
X100383497Y-82269737D01*
X100529179Y-82209394D01*
X100660289Y-82121789D01*
X100771789Y-82010289D01*
X100859394Y-81879179D01*
X100862854Y-81870827D01*
X100905959Y-81766760D01*
X100919737Y-81733497D01*
X100950500Y-81578842D01*
X100950500Y-81421158D01*
X100950500Y-81421155D01*
X100950499Y-81421153D01*
X100932137Y-81328842D01*
X100919737Y-81266503D01*
X100900093Y-81219078D01*
X100859397Y-81120827D01*
X100859390Y-81120814D01*
X100771789Y-80989711D01*
X100771786Y-80989707D01*
X100660292Y-80878213D01*
X100660288Y-80878210D01*
X100529185Y-80790609D01*
X100529172Y-80790602D01*
X100383501Y-80730264D01*
X100383489Y-80730261D01*
X100228845Y-80699500D01*
X100228842Y-80699500D01*
X100071158Y-80699500D01*
X100071155Y-80699500D01*
X99916510Y-80730261D01*
X99916498Y-80730264D01*
X99770827Y-80790602D01*
X99770814Y-80790609D01*
X99639711Y-80878210D01*
X99639707Y-80878213D01*
X99528213Y-80989707D01*
X99528210Y-80989711D01*
X99440609Y-81120814D01*
X99440602Y-81120827D01*
X99380264Y-81266498D01*
X99380261Y-81266508D01*
X99349362Y-81421848D01*
X99316977Y-81483759D01*
X99315426Y-81485337D01*
X97531286Y-83269478D01*
X97419481Y-83381282D01*
X97419475Y-83381290D01*
X97381961Y-83446268D01*
X97381961Y-83446270D01*
X97340423Y-83518214D01*
X97299498Y-83670945D01*
X97298438Y-83679003D01*
X97296980Y-83678811D01*
X97279814Y-83737274D01*
X97278601Y-83739126D01*
X97190609Y-83870814D01*
X97190602Y-83870827D01*
X97130264Y-84016498D01*
X97130261Y-84016510D01*
X97099500Y-84171153D01*
X91959070Y-84171153D01*
X92016447Y-84092181D01*
X92018867Y-84088849D01*
X92018868Y-84088848D01*
X92018870Y-84088845D01*
X92133241Y-83864379D01*
X92211090Y-83624785D01*
X92250500Y-83375962D01*
X92250500Y-83124038D01*
X92211090Y-82875215D01*
X92133241Y-82635621D01*
X92133239Y-82635618D01*
X92133239Y-82635616D01*
X92079393Y-82529939D01*
X92018870Y-82411155D01*
X91996100Y-82379815D01*
X91870798Y-82207350D01*
X91870794Y-82207345D01*
X91692654Y-82029205D01*
X91692649Y-82029201D01*
X91488848Y-81881132D01*
X91488847Y-81881131D01*
X91488845Y-81881130D01*
X91418747Y-81845413D01*
X91264383Y-81766760D01*
X91024785Y-81688910D01*
X90775962Y-81649500D01*
X90524038Y-81649500D01*
X90399626Y-81669205D01*
X90275214Y-81688910D01*
X90035616Y-81766760D01*
X89811151Y-81881132D01*
X89607350Y-82029201D01*
X89607345Y-82029205D01*
X89429205Y-82207345D01*
X89429201Y-82207350D01*
X89281132Y-82411151D01*
X89166760Y-82635616D01*
X89088910Y-82875214D01*
X89068208Y-83005922D01*
X89049500Y-83124038D01*
X81946487Y-83124038D01*
X81881789Y-83027211D01*
X81881647Y-83027069D01*
X81879934Y-83024381D01*
X81870574Y-82992059D01*
X81860520Y-82959947D01*
X81860500Y-82957734D01*
X81860500Y-81267265D01*
X81880185Y-81200226D01*
X81881398Y-81198374D01*
X81969390Y-81066685D01*
X81969390Y-81066684D01*
X81969394Y-81066679D01*
X82029737Y-80920997D01*
X82060500Y-80766342D01*
X82060500Y-80608658D01*
X82060500Y-80608655D01*
X82060499Y-80608653D01*
X82046964Y-80540609D01*
X82029737Y-80454003D01*
X81998744Y-80379179D01*
X81969397Y-80308327D01*
X81969390Y-80308314D01*
X81881789Y-80177211D01*
X81881786Y-80177207D01*
X81770292Y-80065713D01*
X81770288Y-80065710D01*
X81639185Y-79978109D01*
X81639172Y-79978102D01*
X81493501Y-79917764D01*
X81493489Y-79917761D01*
X81338845Y-79887000D01*
X81338842Y-79887000D01*
X81181158Y-79887000D01*
X81181155Y-79887000D01*
X81026510Y-79917761D01*
X81026498Y-79917764D01*
X80880827Y-79978102D01*
X80880814Y-79978109D01*
X80749711Y-80065710D01*
X80749707Y-80065713D01*
X80638213Y-80177207D01*
X80638210Y-80177211D01*
X80550609Y-80308314D01*
X80550602Y-80308327D01*
X80490264Y-80453998D01*
X80490261Y-80454010D01*
X80459500Y-80608653D01*
X80459500Y-80766346D01*
X80490261Y-80920989D01*
X80490264Y-80921001D01*
X80550602Y-81066672D01*
X80550609Y-81066685D01*
X80638602Y-81198374D01*
X80659480Y-81265051D01*
X80659500Y-81267265D01*
X80659500Y-82450944D01*
X80639815Y-82517983D01*
X80587011Y-82563738D01*
X80517853Y-82573682D01*
X80499575Y-82568702D01*
X80499324Y-82569531D01*
X80493500Y-82567764D01*
X80493497Y-82567763D01*
X80493492Y-82567762D01*
X80493489Y-82567761D01*
X80338845Y-82537000D01*
X80338842Y-82537000D01*
X80181158Y-82537000D01*
X80181155Y-82537000D01*
X80026510Y-82567761D01*
X80026498Y-82567764D01*
X79880827Y-82628102D01*
X79880814Y-82628109D01*
X79749712Y-82715709D01*
X79707227Y-82758195D01*
X79664739Y-82800682D01*
X79603419Y-82834166D01*
X79577060Y-82837000D01*
X78394254Y-82837000D01*
X78362162Y-82832775D01*
X78322822Y-82822234D01*
X78322821Y-82822234D01*
X78164707Y-82822234D01*
X78157111Y-82822234D01*
X78157095Y-82822235D01*
X77531902Y-82822235D01*
X77531886Y-82822234D01*
X77524290Y-82822234D01*
X77366176Y-82822234D01*
X77366174Y-82822234D01*
X77326835Y-82832775D01*
X77294743Y-82837000D01*
X75846669Y-82837000D01*
X75846653Y-82836999D01*
X75839057Y-82836999D01*
X75680943Y-82836999D01*
X75604579Y-82857461D01*
X75528212Y-82877923D01*
X75528211Y-82877924D01*
X75489113Y-82900498D01*
X75489106Y-82900502D01*
X75472526Y-82910073D01*
X75441005Y-82921939D01*
X75441149Y-82922414D01*
X75435318Y-82924182D01*
X75289647Y-82984520D01*
X75289634Y-82984527D01*
X75158531Y-83072128D01*
X75158527Y-83072131D01*
X75047033Y-83183625D01*
X75047030Y-83183629D01*
X74959429Y-83314732D01*
X74959422Y-83314745D01*
X74899084Y-83460416D01*
X74899081Y-83460428D01*
X74868320Y-83615071D01*
X74868320Y-83772764D01*
X74899081Y-83927407D01*
X74899084Y-83927419D01*
X74959423Y-84073092D01*
X74959425Y-84073095D01*
X74959426Y-84073097D01*
X74965359Y-84081977D01*
X74986239Y-84148652D01*
X74967756Y-84216033D01*
X74957418Y-84229163D01*
X74958004Y-84229644D01*
X74954140Y-84234351D01*
X74866541Y-84365451D01*
X74866534Y-84365464D01*
X74806196Y-84511135D01*
X74806193Y-84511147D01*
X74775432Y-84665790D01*
X70860500Y-84665790D01*
X70860500Y-77921153D01*
X82349500Y-77921153D01*
X82349500Y-78078846D01*
X82380261Y-78233489D01*
X82380264Y-78233501D01*
X82440602Y-78379172D01*
X82440609Y-78379185D01*
X82528210Y-78510288D01*
X82528213Y-78510292D01*
X82639707Y-78621786D01*
X82639711Y-78621789D01*
X82770814Y-78709390D01*
X82770827Y-78709397D01*
X82916498Y-78769735D01*
X82916503Y-78769737D01*
X83071153Y-78800499D01*
X83071156Y-78800500D01*
X83071158Y-78800500D01*
X83228844Y-78800500D01*
X83228845Y-78800499D01*
X83305152Y-78785320D01*
X83383488Y-78769739D01*
X83383489Y-78769738D01*
X83383497Y-78769737D01*
X83407155Y-78759937D01*
X83454604Y-78750500D01*
X84695396Y-78750500D01*
X84742844Y-78759937D01*
X84766503Y-78769737D01*
X84766508Y-78769738D01*
X84766511Y-78769739D01*
X84921153Y-78800499D01*
X84921156Y-78800500D01*
X84921158Y-78800500D01*
X85078844Y-78800500D01*
X85078845Y-78800499D01*
X85233497Y-78769737D01*
X85379179Y-78709394D01*
X85436411Y-78671153D01*
X110099500Y-78671153D01*
X110099500Y-78828846D01*
X110130261Y-78983489D01*
X110130264Y-78983501D01*
X110190602Y-79129172D01*
X110190609Y-79129185D01*
X110278602Y-79260874D01*
X110299480Y-79327551D01*
X110299500Y-79329765D01*
X110299500Y-84413330D01*
X110299499Y-84413348D01*
X110299499Y-84579054D01*
X110299498Y-84579054D01*
X110304688Y-84598422D01*
X110340423Y-84731785D01*
X110340424Y-84731787D01*
X110340423Y-84731787D01*
X110353986Y-84755277D01*
X110353987Y-84755279D01*
X110419475Y-84868709D01*
X110419481Y-84868717D01*
X110538349Y-84987585D01*
X110538355Y-84987590D01*
X113565425Y-88014660D01*
X113598910Y-88075983D01*
X113599361Y-88078149D01*
X113630261Y-88233491D01*
X113630264Y-88233501D01*
X113690602Y-88379172D01*
X113690609Y-88379185D01*
X113778210Y-88510288D01*
X113778213Y-88510292D01*
X113889707Y-88621786D01*
X113889711Y-88621789D01*
X114020814Y-88709390D01*
X114020827Y-88709397D01*
X114166498Y-88769735D01*
X114166503Y-88769737D01*
X114321153Y-88800499D01*
X114321156Y-88800500D01*
X114321158Y-88800500D01*
X114478844Y-88800500D01*
X114478845Y-88800499D01*
X114489179Y-88798443D01*
X114514287Y-88793450D01*
X114514292Y-88793449D01*
X114625297Y-88771368D01*
X114633497Y-88769737D01*
X114779179Y-88709394D01*
X114910289Y-88621789D01*
X115021789Y-88510289D01*
X115109394Y-88379179D01*
X115169737Y-88233497D01*
X115200500Y-88078842D01*
X115200500Y-87921158D01*
X115200500Y-87921155D01*
X115200499Y-87921153D01*
X115187884Y-87857734D01*
X115169737Y-87766503D01*
X115123719Y-87655405D01*
X115109397Y-87620827D01*
X115109390Y-87620814D01*
X115021789Y-87489711D01*
X115021786Y-87489707D01*
X114910292Y-87378213D01*
X114910288Y-87378210D01*
X114779185Y-87290609D01*
X114779172Y-87290602D01*
X114633501Y-87230264D01*
X114633491Y-87230261D01*
X114478149Y-87199361D01*
X114416238Y-87166976D01*
X114414660Y-87165425D01*
X111536819Y-84287584D01*
X111503334Y-84226261D01*
X111500500Y-84199903D01*
X111500500Y-79329765D01*
X111520185Y-79262726D01*
X111521398Y-79260874D01*
X111609390Y-79129185D01*
X111609390Y-79129184D01*
X111609394Y-79129179D01*
X111669737Y-78983497D01*
X111700500Y-78828842D01*
X111700500Y-78671158D01*
X111700500Y-78671155D01*
X111700499Y-78671153D01*
X111690099Y-78618870D01*
X111669737Y-78516503D01*
X111656062Y-78483489D01*
X111609397Y-78370827D01*
X111609390Y-78370814D01*
X111521789Y-78239711D01*
X111521786Y-78239707D01*
X111410292Y-78128213D01*
X111410288Y-78128210D01*
X111279185Y-78040609D01*
X111279172Y-78040602D01*
X111133501Y-77980264D01*
X111133489Y-77980261D01*
X110978845Y-77949500D01*
X110978842Y-77949500D01*
X110821158Y-77949500D01*
X110821155Y-77949500D01*
X110666510Y-77980261D01*
X110666498Y-77980264D01*
X110520827Y-78040602D01*
X110520814Y-78040609D01*
X110389711Y-78128210D01*
X110389707Y-78128213D01*
X110278213Y-78239707D01*
X110278210Y-78239711D01*
X110190609Y-78370814D01*
X110190602Y-78370827D01*
X110130264Y-78516498D01*
X110130261Y-78516510D01*
X110099500Y-78671153D01*
X85436411Y-78671153D01*
X85510289Y-78621789D01*
X85513211Y-78618867D01*
X85554694Y-78577385D01*
X85621786Y-78510292D01*
X85621789Y-78510289D01*
X85709394Y-78379179D01*
X85712854Y-78370827D01*
X85745233Y-78292656D01*
X85769737Y-78233497D01*
X85800500Y-78078842D01*
X85800500Y-77921158D01*
X85800500Y-77921155D01*
X85800499Y-77921153D01*
X85791405Y-77875437D01*
X85769737Y-77766503D01*
X85769735Y-77766498D01*
X85709397Y-77620827D01*
X85709390Y-77620814D01*
X85621789Y-77489711D01*
X85621786Y-77489707D01*
X85510292Y-77378213D01*
X85510288Y-77378210D01*
X85379185Y-77290609D01*
X85379172Y-77290602D01*
X85233501Y-77230264D01*
X85233489Y-77230261D01*
X85078845Y-77199500D01*
X85078842Y-77199500D01*
X84921158Y-77199500D01*
X84921155Y-77199500D01*
X84766511Y-77230260D01*
X84766506Y-77230262D01*
X84766504Y-77230262D01*
X84766503Y-77230263D01*
X84742844Y-77240062D01*
X84695396Y-77249500D01*
X83454604Y-77249500D01*
X83407155Y-77240062D01*
X83383497Y-77230263D01*
X83383493Y-77230262D01*
X83383488Y-77230260D01*
X83228845Y-77199500D01*
X83228842Y-77199500D01*
X83071158Y-77199500D01*
X83071155Y-77199500D01*
X82916510Y-77230261D01*
X82916498Y-77230264D01*
X82770827Y-77290602D01*
X82770814Y-77290609D01*
X82639711Y-77378210D01*
X82639707Y-77378213D01*
X82528213Y-77489707D01*
X82528210Y-77489711D01*
X82440609Y-77620814D01*
X82440602Y-77620827D01*
X82380264Y-77766498D01*
X82380261Y-77766510D01*
X82349500Y-77921153D01*
X70860500Y-77921153D01*
X70860500Y-77574055D01*
X70880185Y-77507016D01*
X70932989Y-77461261D01*
X71002147Y-77451317D01*
X71020411Y-77456340D01*
X71020676Y-77455469D01*
X71026492Y-77457232D01*
X71026503Y-77457237D01*
X71142252Y-77480261D01*
X71181153Y-77487999D01*
X71181156Y-77488000D01*
X71181158Y-77488000D01*
X71338844Y-77488000D01*
X71338845Y-77487999D01*
X71493497Y-77457237D01*
X71639179Y-77396894D01*
X71770289Y-77309289D01*
X71881789Y-77197789D01*
X71969394Y-77066679D01*
X72029737Y-76920997D01*
X72060500Y-76766342D01*
X72060500Y-76608658D01*
X72060500Y-76608655D01*
X72060499Y-76608653D01*
X72028549Y-76448028D01*
X72030434Y-76447652D01*
X72029889Y-76386697D01*
X72067137Y-76327584D01*
X72130430Y-76297992D01*
X72173370Y-76298951D01*
X72181155Y-76300500D01*
X72181158Y-76300500D01*
X72338844Y-76300500D01*
X72338845Y-76300499D01*
X72493497Y-76269737D01*
X72605153Y-76223487D01*
X72674622Y-76216019D01*
X72700057Y-76223488D01*
X72826477Y-76275852D01*
X72826482Y-76275854D01*
X72942598Y-76298951D01*
X72981132Y-76306616D01*
X72981135Y-76306617D01*
X72981137Y-76306617D01*
X73138823Y-76306617D01*
X73138824Y-76306616D01*
X73293476Y-76275854D01*
X73439158Y-76215511D01*
X73570268Y-76127906D01*
X73681768Y-76016406D01*
X73769373Y-75885296D01*
X73829716Y-75739614D01*
X73843333Y-75671158D01*
X73843334Y-75671153D01*
X77099500Y-75671153D01*
X77099500Y-75828846D01*
X77130261Y-75983489D01*
X77130264Y-75983501D01*
X77190602Y-76129172D01*
X77190609Y-76129185D01*
X77278210Y-76260288D01*
X77278213Y-76260292D01*
X77389707Y-76371786D01*
X77389711Y-76371789D01*
X77520814Y-76459390D01*
X77520827Y-76459397D01*
X77666498Y-76519735D01*
X77666503Y-76519737D01*
X77819705Y-76550211D01*
X77821153Y-76550499D01*
X77821156Y-76550500D01*
X77821158Y-76550500D01*
X77978844Y-76550500D01*
X77978845Y-76550499D01*
X78133497Y-76519737D01*
X78279179Y-76459394D01*
X78410289Y-76371789D01*
X78521789Y-76260289D01*
X78609394Y-76129179D01*
X78618713Y-76106682D01*
X78627729Y-76084914D01*
X78669737Y-75983497D01*
X78700500Y-75828842D01*
X78700500Y-75671158D01*
X78700500Y-75671155D01*
X78700499Y-75671153D01*
X78669738Y-75516510D01*
X78669737Y-75516503D01*
X78630242Y-75421153D01*
X78609397Y-75370827D01*
X78609390Y-75370814D01*
X78521398Y-75239125D01*
X78500520Y-75172447D01*
X78500500Y-75170234D01*
X78500500Y-74800097D01*
X78520185Y-74733058D01*
X78536819Y-74712416D01*
X81184342Y-72064893D01*
X83880520Y-69368716D01*
X83959577Y-69231784D01*
X84000501Y-69079057D01*
X84000501Y-68920942D01*
X84000501Y-68913347D01*
X84000500Y-68913329D01*
X84000500Y-57734699D01*
X84020185Y-57667660D01*
X84055609Y-57631597D01*
X84070289Y-57621789D01*
X84181789Y-57510289D01*
X84269394Y-57379179D01*
X84329737Y-57233497D01*
X84360500Y-57078842D01*
X84360500Y-56921158D01*
X84360500Y-56921155D01*
X84360499Y-56921153D01*
X84329738Y-56766510D01*
X84329737Y-56766503D01*
X84329735Y-56766498D01*
X84269397Y-56620827D01*
X84269390Y-56620814D01*
X84181789Y-56489711D01*
X84181786Y-56489707D01*
X84070292Y-56378213D01*
X84070288Y-56378210D01*
X83939185Y-56290609D01*
X83939172Y-56290602D01*
X83793501Y-56230264D01*
X83793489Y-56230261D01*
X83638845Y-56199500D01*
X83638842Y-56199500D01*
X83481158Y-56199500D01*
X83481155Y-56199500D01*
X83326510Y-56230261D01*
X83326498Y-56230264D01*
X83180827Y-56290602D01*
X83180814Y-56290609D01*
X83049711Y-56378210D01*
X83049707Y-56378213D01*
X82938213Y-56489707D01*
X82938210Y-56489711D01*
X82850609Y-56620814D01*
X82850602Y-56620827D01*
X82790264Y-56766498D01*
X82790261Y-56766510D01*
X82759500Y-56921153D01*
X82759500Y-57078846D01*
X82790261Y-57233489D01*
X82792031Y-57239324D01*
X82791356Y-57239528D01*
X82799500Y-57280461D01*
X82799500Y-68699902D01*
X82779815Y-68766941D01*
X82763181Y-68787583D01*
X77419481Y-74131282D01*
X77419475Y-74131290D01*
X77376635Y-74205493D01*
X77376635Y-74205494D01*
X77340423Y-74268215D01*
X77299499Y-74420943D01*
X77299499Y-74420945D01*
X77299499Y-74589046D01*
X77299500Y-74589059D01*
X77299500Y-75170234D01*
X77279815Y-75237273D01*
X77278602Y-75239125D01*
X77190609Y-75370814D01*
X77190602Y-75370827D01*
X77130264Y-75516498D01*
X77130261Y-75516510D01*
X77099500Y-75671153D01*
X73843334Y-75671153D01*
X73849357Y-75640875D01*
X73849357Y-75640874D01*
X73860479Y-75584961D01*
X73860479Y-75427272D01*
X73860478Y-75427270D01*
X73849251Y-75370827D01*
X73829716Y-75272620D01*
X73807267Y-75218422D01*
X73769376Y-75126944D01*
X73769369Y-75126931D01*
X73681768Y-74995828D01*
X73681765Y-74995824D01*
X73636819Y-74950878D01*
X73603334Y-74889555D01*
X73600500Y-74863197D01*
X73600500Y-54674500D01*
X73620185Y-54607461D01*
X73672989Y-54561706D01*
X73724500Y-54550500D01*
X73728844Y-54550500D01*
X73728845Y-54550499D01*
X73805152Y-54535320D01*
X73883488Y-54519739D01*
X73883489Y-54519738D01*
X73883497Y-54519737D01*
X73907155Y-54509937D01*
X73954604Y-54500500D01*
X78762811Y-54500500D01*
X78829850Y-54520185D01*
X78831684Y-54521386D01*
X78835086Y-54523659D01*
X78980768Y-54584002D01*
X79098704Y-54607461D01*
X79135418Y-54614764D01*
X79135421Y-54614765D01*
X79135423Y-54614765D01*
X79293109Y-54614765D01*
X79293110Y-54614764D01*
X79447762Y-54584002D01*
X79593444Y-54523659D01*
X79724554Y-54436054D01*
X79836054Y-54324554D01*
X79923659Y-54193444D01*
X79984002Y-54047762D01*
X80014765Y-53893107D01*
X80014765Y-53735423D01*
X80014765Y-53735420D01*
X80014764Y-53735418D01*
X79993633Y-53629185D01*
X79984002Y-53580768D01*
X79943713Y-53483501D01*
X79923662Y-53435092D01*
X79923655Y-53435079D01*
X79836054Y-53303976D01*
X79836051Y-53303972D01*
X79724557Y-53192478D01*
X79724553Y-53192475D01*
X79593450Y-53104874D01*
X79593437Y-53104867D01*
X79447766Y-53044529D01*
X79447756Y-53044526D01*
X79386308Y-53032303D01*
X79324397Y-52999917D01*
X79289823Y-52939201D01*
X79293564Y-52869432D01*
X79334431Y-52812760D01*
X79386309Y-52789069D01*
X79483497Y-52769737D01*
X79629179Y-52709394D01*
X79634493Y-52705843D01*
X79760875Y-52621398D01*
X79827553Y-52600520D01*
X79829766Y-52600500D01*
X86599903Y-52600500D01*
X86666942Y-52620185D01*
X86687584Y-52636819D01*
X87315425Y-53264660D01*
X87348910Y-53325983D01*
X87349361Y-53328149D01*
X87380261Y-53483491D01*
X87380264Y-53483501D01*
X87440602Y-53629172D01*
X87440609Y-53629185D01*
X87528210Y-53760288D01*
X87528213Y-53760292D01*
X87639707Y-53871786D01*
X87639711Y-53871789D01*
X87770814Y-53959390D01*
X87770827Y-53959397D01*
X87916498Y-54019735D01*
X87916503Y-54019737D01*
X88071153Y-54050499D01*
X88071156Y-54050500D01*
X88071158Y-54050500D01*
X88228844Y-54050500D01*
X88228845Y-54050499D01*
X88383497Y-54019737D01*
X88529179Y-53959394D01*
X88660289Y-53871789D01*
X88771789Y-53760289D01*
X88859394Y-53629179D01*
X88919737Y-53483497D01*
X88950500Y-53328842D01*
X88950500Y-53171158D01*
X88950500Y-53171155D01*
X88950499Y-53171153D01*
X88937315Y-53104874D01*
X88919737Y-53016503D01*
X88908785Y-52990062D01*
X88859397Y-52870827D01*
X88859390Y-52870814D01*
X88771789Y-52739711D01*
X88771786Y-52739707D01*
X88660292Y-52628213D01*
X88660288Y-52628210D01*
X88529185Y-52540609D01*
X88529172Y-52540602D01*
X88383501Y-52480264D01*
X88383491Y-52480261D01*
X88228149Y-52449361D01*
X88166238Y-52416976D01*
X88164660Y-52415425D01*
X87387590Y-51638355D01*
X87387588Y-51638352D01*
X87268717Y-51519481D01*
X87268709Y-51519475D01*
X87174131Y-51464871D01*
X87174129Y-51464870D01*
X87131790Y-51440425D01*
X87131789Y-51440424D01*
X87119263Y-51437067D01*
X86979057Y-51399499D01*
X86820943Y-51399499D01*
X86813347Y-51399499D01*
X86813331Y-51399500D01*
X79829766Y-51399500D01*
X79762727Y-51379815D01*
X79760875Y-51378602D01*
X79629185Y-51290609D01*
X79629172Y-51290602D01*
X79483501Y-51230264D01*
X79483489Y-51230261D01*
X79328845Y-51199500D01*
X79328842Y-51199500D01*
X79171158Y-51199500D01*
X79171155Y-51199500D01*
X79016510Y-51230261D01*
X79016498Y-51230264D01*
X78870827Y-51290602D01*
X78870814Y-51290609D01*
X78739711Y-51378210D01*
X78739707Y-51378213D01*
X78628213Y-51489707D01*
X78628210Y-51489711D01*
X78540609Y-51620814D01*
X78540602Y-51620827D01*
X78480264Y-51766498D01*
X78480261Y-51766510D01*
X78449500Y-51921153D01*
X78449500Y-52078846D01*
X78480261Y-52233489D01*
X78480264Y-52233501D01*
X78540602Y-52379172D01*
X78540609Y-52379185D01*
X78628210Y-52510288D01*
X78628213Y-52510292D01*
X78739707Y-52621786D01*
X78739711Y-52621789D01*
X78870814Y-52709390D01*
X78870827Y-52709397D01*
X78995262Y-52760939D01*
X79049666Y-52804779D01*
X79071731Y-52871074D01*
X79054452Y-52938773D01*
X79003315Y-52986384D01*
X78947810Y-52999500D01*
X73954604Y-52999500D01*
X73907155Y-52990062D01*
X73883497Y-52980263D01*
X73883493Y-52980262D01*
X73883488Y-52980260D01*
X73728845Y-52949500D01*
X73728842Y-52949500D01*
X73724500Y-52949500D01*
X73657461Y-52929815D01*
X73611706Y-52877011D01*
X73600500Y-52825500D01*
X73600500Y-52754030D01*
X73620185Y-52686991D01*
X73621398Y-52685139D01*
X73653685Y-52636819D01*
X73709394Y-52553444D01*
X73769737Y-52407762D01*
X73800500Y-52253107D01*
X73800500Y-52095423D01*
X73800500Y-52095420D01*
X73800499Y-52095418D01*
X73769738Y-51940775D01*
X73769737Y-51940768D01*
X73727603Y-51839046D01*
X73709397Y-51795092D01*
X73709395Y-51795088D01*
X73709394Y-51795086D01*
X73690300Y-51766510D01*
X73670736Y-51737230D01*
X73649858Y-51670553D01*
X73668342Y-51603173D01*
X73670714Y-51599481D01*
X73724174Y-51519475D01*
X73734389Y-51504187D01*
X73734390Y-51504184D01*
X73734394Y-51504179D01*
X73740389Y-51489707D01*
X73750676Y-51464870D01*
X73794737Y-51358497D01*
X73825500Y-51203842D01*
X73825500Y-51046158D01*
X73825500Y-51046155D01*
X73825499Y-51046153D01*
X73794738Y-50891510D01*
X73794738Y-50891508D01*
X73794737Y-50891503D01*
X73787990Y-50875214D01*
X73734397Y-50745827D01*
X73734390Y-50745814D01*
X73646789Y-50614711D01*
X73646786Y-50614707D01*
X73535292Y-50503213D01*
X73535288Y-50503210D01*
X73404185Y-50415609D01*
X73404172Y-50415602D01*
X73258501Y-50355264D01*
X73258489Y-50355261D01*
X73103845Y-50324500D01*
X73103842Y-50324500D01*
X72946158Y-50324500D01*
X72946155Y-50324500D01*
X72791510Y-50355261D01*
X72791498Y-50355264D01*
X72645827Y-50415602D01*
X72645814Y-50415609D01*
X72514711Y-50503210D01*
X72514707Y-50503213D01*
X72403213Y-50614707D01*
X72403210Y-50614711D01*
X72315609Y-50745814D01*
X72315602Y-50745827D01*
X72255264Y-50891498D01*
X72255261Y-50891508D01*
X72224361Y-51046849D01*
X72191976Y-51108760D01*
X72190426Y-51110338D01*
X72118550Y-51182213D01*
X72031286Y-51269478D01*
X71919481Y-51381282D01*
X71919479Y-51381285D01*
X71908963Y-51399500D01*
X71871222Y-51464871D01*
X71869361Y-51468094D01*
X71869359Y-51468096D01*
X71840425Y-51518209D01*
X71840424Y-51518210D01*
X71824544Y-51577472D01*
X71799499Y-51670943D01*
X71799499Y-51670945D01*
X71799499Y-51839046D01*
X71799500Y-51839059D01*
X71799500Y-74778702D01*
X71779815Y-74845741D01*
X71754166Y-74874555D01*
X71749704Y-74878216D01*
X71638213Y-74989707D01*
X71638210Y-74989711D01*
X71550609Y-75120814D01*
X71550602Y-75120827D01*
X71490264Y-75266498D01*
X71490261Y-75266510D01*
X71459500Y-75421153D01*
X71459500Y-75578846D01*
X71491451Y-75739472D01*
X71489569Y-75739846D01*
X71490103Y-75800825D01*
X71452844Y-75859931D01*
X71389545Y-75889511D01*
X71346636Y-75888550D01*
X71338843Y-75887000D01*
X71338842Y-75887000D01*
X71181158Y-75887000D01*
X71181155Y-75887000D01*
X71026510Y-75917761D01*
X71026498Y-75917764D01*
X70880827Y-75978102D01*
X70880814Y-75978109D01*
X70749127Y-76066101D01*
X70688874Y-76084967D01*
X70689002Y-76085938D01*
X70683432Y-76086671D01*
X70682450Y-76086979D01*
X70680996Y-76086992D01*
X70680945Y-76086998D01*
X70528214Y-76127923D01*
X70528209Y-76127926D01*
X70391290Y-76206975D01*
X70391282Y-76206981D01*
X69884217Y-76714046D01*
X69884214Y-76714048D01*
X69884215Y-76714049D01*
X69779478Y-76818786D01*
X69774735Y-76827002D01*
X69745170Y-76878211D01*
X69700423Y-76955715D01*
X69659499Y-77108443D01*
X69659499Y-77108445D01*
X69659499Y-77276546D01*
X69659500Y-77276559D01*
X69659500Y-87857734D01*
X69639815Y-87924773D01*
X69638602Y-87926625D01*
X69550609Y-88058314D01*
X69550602Y-88058327D01*
X69490264Y-88203998D01*
X69490261Y-88204010D01*
X69459500Y-88358653D01*
X63400500Y-88358653D01*
X63400500Y-86174500D01*
X63420185Y-86107461D01*
X63472989Y-86061706D01*
X63524500Y-86050500D01*
X63551344Y-86050500D01*
X63551345Y-86050499D01*
X63627652Y-86035320D01*
X63705988Y-86019739D01*
X63705989Y-86019738D01*
X63705997Y-86019737D01*
X63729655Y-86009937D01*
X63777104Y-86000500D01*
X64099559Y-86000500D01*
X64166598Y-86020185D01*
X64187240Y-86036819D01*
X64209707Y-86059286D01*
X64209711Y-86059289D01*
X64340814Y-86146890D01*
X64340827Y-86146897D01*
X64433672Y-86185354D01*
X64486503Y-86207237D01*
X64641153Y-86237999D01*
X64641156Y-86238000D01*
X64641158Y-86238000D01*
X64798844Y-86238000D01*
X64798845Y-86237999D01*
X64953497Y-86207237D01*
X65099179Y-86146894D01*
X65230289Y-86059289D01*
X65341789Y-85947789D01*
X65429394Y-85816679D01*
X65431121Y-85812511D01*
X65457013Y-85750000D01*
X65489737Y-85670997D01*
X65520500Y-85516342D01*
X65520500Y-85358658D01*
X65520500Y-85358655D01*
X65520499Y-85358653D01*
X65511746Y-85314648D01*
X65489737Y-85204003D01*
X65469607Y-85155405D01*
X65429397Y-85058327D01*
X65429390Y-85058314D01*
X65341789Y-84927211D01*
X65341786Y-84927207D01*
X65230292Y-84815713D01*
X65230288Y-84815710D01*
X65099185Y-84728109D01*
X65099173Y-84728103D01*
X65075522Y-84718306D01*
X65035296Y-84691427D01*
X65010921Y-84667052D01*
X65010914Y-84667046D01*
X64924819Y-84609520D01*
X64924818Y-84609520D01*
X64888000Y-84584919D01*
X64887988Y-84584912D01*
X64751417Y-84528343D01*
X64751407Y-84528340D01*
X64606420Y-84499500D01*
X64606418Y-84499500D01*
X63777104Y-84499500D01*
X63729655Y-84490062D01*
X63705997Y-84480263D01*
X63705993Y-84480262D01*
X63705988Y-84480260D01*
X63551345Y-84449500D01*
X63551342Y-84449500D01*
X63524500Y-84449500D01*
X63457461Y-84429815D01*
X63411706Y-84377011D01*
X63400500Y-84325500D01*
X63400500Y-81554604D01*
X63409939Y-81507151D01*
X63419737Y-81483497D01*
X63450500Y-81328842D01*
X63450500Y-81171158D01*
X63450500Y-81171155D01*
X63450499Y-81171153D01*
X63429719Y-81066685D01*
X63419737Y-81016503D01*
X63412527Y-80999097D01*
X63359397Y-80870827D01*
X63359390Y-80870814D01*
X63271789Y-80739711D01*
X63271786Y-80739707D01*
X63160292Y-80628213D01*
X63160288Y-80628210D01*
X63029185Y-80540609D01*
X63029172Y-80540602D01*
X62883501Y-80480264D01*
X62883489Y-80480261D01*
X62728845Y-80449500D01*
X62728842Y-80449500D01*
X62571158Y-80449500D01*
X62571155Y-80449500D01*
X62416510Y-80480261D01*
X62416498Y-80480264D01*
X62270827Y-80540602D01*
X62270814Y-80540609D01*
X62139711Y-80628210D01*
X62139707Y-80628213D01*
X62028213Y-80739707D01*
X62028210Y-80739711D01*
X61940609Y-80870814D01*
X61940602Y-80870827D01*
X61880264Y-81016498D01*
X61880261Y-81016510D01*
X61849500Y-81171153D01*
X61849500Y-81328846D01*
X61880261Y-81483489D01*
X61880263Y-81483497D01*
X61890061Y-81507151D01*
X61899500Y-81554604D01*
X61899500Y-88317060D01*
X61879815Y-88384099D01*
X61863181Y-88404741D01*
X61778213Y-88489708D01*
X61778210Y-88489712D01*
X61690609Y-88620815D01*
X61690602Y-88620828D01*
X61630264Y-88766499D01*
X61630261Y-88766511D01*
X61599500Y-88921154D01*
X57650500Y-88921154D01*
X57650500Y-87066533D01*
X58524499Y-87066533D01*
X58550458Y-87197030D01*
X58550461Y-87197040D01*
X58601376Y-87319961D01*
X58601386Y-87319979D01*
X58675301Y-87430601D01*
X58675307Y-87430609D01*
X58769390Y-87524692D01*
X58769398Y-87524698D01*
X58880020Y-87598613D01*
X58880023Y-87598614D01*
X58880031Y-87598620D01*
X58880037Y-87598622D01*
X58880038Y-87598623D01*
X58933629Y-87620821D01*
X59002964Y-87649540D01*
X59002968Y-87649540D01*
X59002969Y-87649541D01*
X59133466Y-87675500D01*
X59133469Y-87675500D01*
X59266533Y-87675500D01*
X59354325Y-87658035D01*
X59397036Y-87649540D01*
X59519969Y-87598620D01*
X59630606Y-87524695D01*
X59724695Y-87430606D01*
X59798620Y-87319969D01*
X59849540Y-87197036D01*
X59868078Y-87103843D01*
X59875500Y-87066533D01*
X59875500Y-86933466D01*
X59849541Y-86802969D01*
X59849540Y-86802968D01*
X59849540Y-86802964D01*
X59844792Y-86791500D01*
X59798623Y-86680038D01*
X59798622Y-86680037D01*
X59798620Y-86680031D01*
X59724695Y-86569394D01*
X59724692Y-86569390D01*
X59630609Y-86475307D01*
X59630601Y-86475301D01*
X59519979Y-86401386D01*
X59519972Y-86401382D01*
X59519969Y-86401380D01*
X59519965Y-86401378D01*
X59519961Y-86401376D01*
X59397040Y-86350461D01*
X59397030Y-86350458D01*
X59266533Y-86324500D01*
X59266531Y-86324500D01*
X59133469Y-86324500D01*
X59133467Y-86324500D01*
X59002969Y-86350458D01*
X59002959Y-86350461D01*
X58880038Y-86401376D01*
X58880020Y-86401386D01*
X58769398Y-86475301D01*
X58769390Y-86475307D01*
X58675307Y-86569390D01*
X58675301Y-86569398D01*
X58601386Y-86680020D01*
X58601376Y-86680038D01*
X58550461Y-86802959D01*
X58550458Y-86802969D01*
X58524500Y-86933466D01*
X58524500Y-86933469D01*
X58524500Y-87066531D01*
X58524500Y-87066533D01*
X58524499Y-87066533D01*
X57650500Y-87066533D01*
X57650500Y-51124038D01*
X62049500Y-51124038D01*
X62049500Y-51375961D01*
X62088910Y-51624785D01*
X62166760Y-51864383D01*
X62245413Y-52018747D01*
X62276035Y-52078846D01*
X62281132Y-52088848D01*
X62429201Y-52292649D01*
X62429205Y-52292654D01*
X62607345Y-52470794D01*
X62607350Y-52470798D01*
X62721112Y-52553450D01*
X62811155Y-52618870D01*
X62944850Y-52686991D01*
X63035616Y-52733239D01*
X63035618Y-52733239D01*
X63035621Y-52733241D01*
X63275215Y-52811090D01*
X63524038Y-52850500D01*
X63524039Y-52850500D01*
X63775961Y-52850500D01*
X63775962Y-52850500D01*
X64024785Y-52811090D01*
X64264379Y-52733241D01*
X64488845Y-52618870D01*
X64692656Y-52470793D01*
X64870793Y-52292656D01*
X65018870Y-52088845D01*
X65133241Y-51864379D01*
X65211090Y-51624785D01*
X65250500Y-51375962D01*
X65250500Y-51124038D01*
X65211090Y-50875215D01*
X65133241Y-50635621D01*
X65133239Y-50635618D01*
X65133239Y-50635616D01*
X65091747Y-50554184D01*
X65018870Y-50411155D01*
X64955912Y-50324500D01*
X64870798Y-50207350D01*
X64870794Y-50207345D01*
X64692654Y-50029205D01*
X64692649Y-50029201D01*
X64488848Y-49881132D01*
X64488847Y-49881131D01*
X64488845Y-49881130D01*
X64418747Y-49845413D01*
X64264383Y-49766760D01*
X64024785Y-49688910D01*
X63775962Y-49649500D01*
X63524038Y-49649500D01*
X63399626Y-49669205D01*
X63275214Y-49688910D01*
X63035616Y-49766760D01*
X62811151Y-49881132D01*
X62607350Y-50029201D01*
X62607345Y-50029205D01*
X62429205Y-50207345D01*
X62429201Y-50207350D01*
X62281132Y-50411151D01*
X62166760Y-50635616D01*
X62088910Y-50875214D01*
X62049500Y-51124038D01*
X57650500Y-51124038D01*
X57650500Y-48171153D01*
X71599500Y-48171153D01*
X71599500Y-48328846D01*
X71630261Y-48483489D01*
X71630264Y-48483501D01*
X71690602Y-48629172D01*
X71690609Y-48629185D01*
X71778210Y-48760288D01*
X71778213Y-48760292D01*
X71889707Y-48871786D01*
X71889711Y-48871789D01*
X72020814Y-48959390D01*
X72020827Y-48959397D01*
X72166498Y-49019735D01*
X72166503Y-49019737D01*
X72321153Y-49050499D01*
X72321156Y-49050500D01*
X72321158Y-49050500D01*
X72478844Y-49050500D01*
X72478845Y-49050499D01*
X72633497Y-49019737D01*
X72779179Y-48959394D01*
X72910289Y-48871789D01*
X73021789Y-48760289D01*
X73109394Y-48629179D01*
X73169737Y-48483497D01*
X73200500Y-48328842D01*
X73200500Y-48171158D01*
X73200500Y-48171155D01*
X73200499Y-48171153D01*
X73174939Y-48042656D01*
X73169737Y-48016503D01*
X73169735Y-48016498D01*
X73109397Y-47870827D01*
X73109390Y-47870814D01*
X73021398Y-47739125D01*
X73000520Y-47672447D01*
X73000500Y-47670234D01*
X73000500Y-46874038D01*
X89049500Y-46874038D01*
X89049500Y-47125961D01*
X89088910Y-47374785D01*
X89166760Y-47614383D01*
X89281132Y-47838848D01*
X89429201Y-48042649D01*
X89429205Y-48042654D01*
X89607345Y-48220794D01*
X89607350Y-48220798D01*
X89785117Y-48349952D01*
X89811155Y-48368870D01*
X89954184Y-48441747D01*
X90035616Y-48483239D01*
X90035618Y-48483239D01*
X90035621Y-48483241D01*
X90275215Y-48561090D01*
X90524038Y-48600500D01*
X90524039Y-48600500D01*
X90775961Y-48600500D01*
X90775962Y-48600500D01*
X91024785Y-48561090D01*
X91264379Y-48483241D01*
X91488845Y-48368870D01*
X91692656Y-48220793D01*
X91870793Y-48042656D01*
X92018870Y-47838845D01*
X92133241Y-47614379D01*
X92211090Y-47374785D01*
X92250500Y-47125962D01*
X92250500Y-46874038D01*
X92211090Y-46625215D01*
X92133241Y-46385621D01*
X92133239Y-46385618D01*
X92133239Y-46385616D01*
X92085127Y-46291192D01*
X92018870Y-46161155D01*
X91932635Y-46042462D01*
X91870798Y-45957350D01*
X91870794Y-45957345D01*
X91692654Y-45779205D01*
X91692649Y-45779201D01*
X91488848Y-45631132D01*
X91488847Y-45631131D01*
X91488845Y-45631130D01*
X91418747Y-45595413D01*
X91264383Y-45516760D01*
X91024785Y-45438910D01*
X90775962Y-45399500D01*
X90524038Y-45399500D01*
X90399626Y-45419205D01*
X90275214Y-45438910D01*
X90035616Y-45516760D01*
X89811151Y-45631132D01*
X89607350Y-45779201D01*
X89607345Y-45779205D01*
X89429205Y-45957345D01*
X89429201Y-45957350D01*
X89281132Y-46161151D01*
X89166760Y-46385616D01*
X89088910Y-46625214D01*
X89049500Y-46874038D01*
X73000500Y-46874038D01*
X73000500Y-45205097D01*
X73020185Y-45138058D01*
X73036813Y-45117421D01*
X73164663Y-44989571D01*
X73225982Y-44956089D01*
X73228150Y-44955638D01*
X73286085Y-44944113D01*
X73383497Y-44924737D01*
X73529179Y-44864394D01*
X73660289Y-44776789D01*
X73771789Y-44665289D01*
X73859394Y-44534179D01*
X73919737Y-44388497D01*
X73941471Y-44279234D01*
X74964500Y-44279234D01*
X74964500Y-44430766D01*
X74984109Y-44503950D01*
X75003719Y-44577136D01*
X75019807Y-44605000D01*
X75079485Y-44708365D01*
X75186635Y-44815515D01*
X75317865Y-44891281D01*
X75464234Y-44930500D01*
X75464236Y-44930500D01*
X75615763Y-44930500D01*
X75615766Y-44930500D01*
X75762135Y-44891281D01*
X75893365Y-44815515D01*
X76000515Y-44708365D01*
X76024397Y-44666999D01*
X76074964Y-44618784D01*
X76131784Y-44605000D01*
X76670000Y-44605000D01*
X76670000Y-45105000D01*
X75970000Y-45105000D01*
X75970000Y-45503495D01*
X76008427Y-45696681D01*
X76008430Y-45696693D01*
X76083807Y-45878671D01*
X76083814Y-45878684D01*
X76193248Y-46042462D01*
X76193251Y-46042466D01*
X76332533Y-46181748D01*
X76332537Y-46181751D01*
X76496315Y-46291185D01*
X76496328Y-46291192D01*
X76678308Y-46366569D01*
X76720000Y-46374862D01*
X76720000Y-45571988D01*
X76729940Y-45589205D01*
X76785795Y-45645060D01*
X76854204Y-45684556D01*
X76930504Y-45705000D01*
X77009496Y-45705000D01*
X77085796Y-45684556D01*
X77154205Y-45645060D01*
X77210060Y-45589205D01*
X77220000Y-45571988D01*
X77220000Y-46374862D01*
X77261690Y-46366569D01*
X77261692Y-46366569D01*
X77443671Y-46291192D01*
X77443684Y-46291185D01*
X77607462Y-46181751D01*
X77607466Y-46181748D01*
X77746748Y-46042466D01*
X77746751Y-46042462D01*
X77856185Y-45878684D01*
X77856192Y-45878671D01*
X77931569Y-45696693D01*
X77931572Y-45696681D01*
X77969999Y-45503495D01*
X77970000Y-45503492D01*
X77970000Y-45105000D01*
X77270000Y-45105000D01*
X77270000Y-44605000D01*
X77970000Y-44605000D01*
X77970000Y-44206508D01*
X77969999Y-44206504D01*
X77931572Y-44013318D01*
X77931569Y-44013306D01*
X77856192Y-43831328D01*
X77856185Y-43831315D01*
X77746751Y-43667537D01*
X77746748Y-43667533D01*
X77607466Y-43528251D01*
X77607462Y-43528248D01*
X77443684Y-43418814D01*
X77443671Y-43418807D01*
X77261691Y-43343429D01*
X77261683Y-43343427D01*
X77220000Y-43335135D01*
X77220000Y-44138011D01*
X77210060Y-44120795D01*
X77154205Y-44064940D01*
X77085796Y-44025444D01*
X77009496Y-44005000D01*
X76930504Y-44005000D01*
X76854204Y-44025444D01*
X76785795Y-44064940D01*
X76729940Y-44120795D01*
X76720000Y-44138011D01*
X76720000Y-43335136D01*
X76719999Y-43335135D01*
X76678316Y-43343427D01*
X76678308Y-43343429D01*
X76496328Y-43418807D01*
X76496315Y-43418814D01*
X76332537Y-43528248D01*
X76332533Y-43528251D01*
X76193251Y-43667533D01*
X76193248Y-43667537D01*
X76083814Y-43831315D01*
X76083809Y-43831324D01*
X76079866Y-43840845D01*
X76036023Y-43895247D01*
X75969728Y-43917310D01*
X75902030Y-43900029D01*
X75896597Y-43896351D01*
X75762136Y-43818719D01*
X75688950Y-43799109D01*
X75615766Y-43779500D01*
X75464234Y-43779500D01*
X75317863Y-43818719D01*
X75186635Y-43894485D01*
X75186632Y-43894487D01*
X75079487Y-44001632D01*
X75079485Y-44001635D01*
X75003719Y-44132863D01*
X74976662Y-44233844D01*
X74964500Y-44279234D01*
X73941471Y-44279234D01*
X73947710Y-44247870D01*
X73947900Y-44246916D01*
X73947900Y-44246915D01*
X73950500Y-44233844D01*
X73950500Y-44076155D01*
X73950499Y-44076153D01*
X73919738Y-43921510D01*
X73919738Y-43921508D01*
X73919737Y-43921503D01*
X73909318Y-43896349D01*
X73859397Y-43775827D01*
X73859390Y-43775814D01*
X73771789Y-43644711D01*
X73771786Y-43644707D01*
X73660292Y-43533213D01*
X73660288Y-43533210D01*
X73529185Y-43445609D01*
X73529172Y-43445602D01*
X73383501Y-43385264D01*
X73383489Y-43385261D01*
X73228845Y-43354500D01*
X73228842Y-43354500D01*
X73071158Y-43354500D01*
X73071155Y-43354500D01*
X72916510Y-43385261D01*
X72916498Y-43385264D01*
X72770827Y-43445602D01*
X72770814Y-43445609D01*
X72639711Y-43533210D01*
X72639707Y-43533213D01*
X72528213Y-43644707D01*
X72528210Y-43644711D01*
X72440609Y-43775814D01*
X72440602Y-43775827D01*
X72380264Y-43921498D01*
X72380261Y-43921508D01*
X72349361Y-44076850D01*
X72316976Y-44138761D01*
X72315425Y-44140339D01*
X71919481Y-44536282D01*
X71919479Y-44536284D01*
X71902902Y-44564997D01*
X71895895Y-44577135D01*
X71840423Y-44673215D01*
X71799499Y-44825943D01*
X71799499Y-44825945D01*
X71799499Y-44994046D01*
X71799500Y-44994059D01*
X71799500Y-47670234D01*
X71779815Y-47737273D01*
X71778602Y-47739125D01*
X71690609Y-47870814D01*
X71690602Y-47870827D01*
X71630264Y-48016498D01*
X71630261Y-48016510D01*
X71599500Y-48171153D01*
X57650500Y-48171153D01*
X57650500Y-44566533D01*
X58474499Y-44566533D01*
X58500458Y-44697030D01*
X58500461Y-44697040D01*
X58551376Y-44819961D01*
X58551386Y-44819979D01*
X58625301Y-44930601D01*
X58625307Y-44930609D01*
X58719390Y-45024692D01*
X58719398Y-45024698D01*
X58830020Y-45098613D01*
X58830023Y-45098614D01*
X58830031Y-45098620D01*
X58952964Y-45149540D01*
X58952968Y-45149540D01*
X58952969Y-45149541D01*
X59083466Y-45175500D01*
X59083469Y-45175500D01*
X59216533Y-45175500D01*
X59325947Y-45153735D01*
X59347036Y-45149540D01*
X59469969Y-45098620D01*
X59580606Y-45024695D01*
X59580609Y-45024692D01*
X59639345Y-44965957D01*
X59674692Y-44930609D01*
X59674695Y-44930606D01*
X59748620Y-44819969D01*
X59799540Y-44697036D01*
X59817848Y-44605000D01*
X59825500Y-44566533D01*
X59825500Y-44433466D01*
X59799541Y-44302969D01*
X59799540Y-44302968D01*
X59799540Y-44302964D01*
X59759585Y-44206504D01*
X67330000Y-44206504D01*
X67330000Y-44605000D01*
X68030000Y-44605000D01*
X68030000Y-45105000D01*
X67330000Y-45105000D01*
X67330000Y-45503495D01*
X67368427Y-45696681D01*
X67368430Y-45696693D01*
X67443807Y-45878671D01*
X67443814Y-45878684D01*
X67553248Y-46042462D01*
X67553251Y-46042466D01*
X67692533Y-46181748D01*
X67692537Y-46181751D01*
X67856315Y-46291185D01*
X67856328Y-46291192D01*
X68038308Y-46366569D01*
X68080000Y-46374862D01*
X68080000Y-45571988D01*
X68089940Y-45589205D01*
X68145795Y-45645060D01*
X68214204Y-45684556D01*
X68290504Y-45705000D01*
X68369496Y-45705000D01*
X68445796Y-45684556D01*
X68514205Y-45645060D01*
X68570060Y-45589205D01*
X68580000Y-45571988D01*
X68580000Y-46374862D01*
X68621690Y-46366569D01*
X68621692Y-46366569D01*
X68803671Y-46291192D01*
X68803684Y-46291185D01*
X68967462Y-46181751D01*
X68967466Y-46181748D01*
X69106748Y-46042466D01*
X69106751Y-46042462D01*
X69216185Y-45878684D01*
X69216192Y-45878671D01*
X69291569Y-45696693D01*
X69291572Y-45696681D01*
X69329999Y-45503495D01*
X69330000Y-45503492D01*
X69330000Y-45105000D01*
X68630000Y-45105000D01*
X68630000Y-44605000D01*
X69168216Y-44605000D01*
X69235255Y-44624685D01*
X69275602Y-44666999D01*
X69299485Y-44708365D01*
X69406635Y-44815515D01*
X69537865Y-44891281D01*
X69684234Y-44930500D01*
X69684236Y-44930500D01*
X69835764Y-44930500D01*
X69835766Y-44930500D01*
X69982135Y-44891281D01*
X70113365Y-44815515D01*
X70220515Y-44708365D01*
X70296281Y-44577135D01*
X70335500Y-44430766D01*
X70335500Y-44279234D01*
X70296281Y-44132865D01*
X70220515Y-44001635D01*
X70113365Y-43894485D01*
X70037108Y-43850458D01*
X69982136Y-43818719D01*
X69908950Y-43799109D01*
X69835766Y-43779500D01*
X69684234Y-43779500D01*
X69537863Y-43818719D01*
X69446428Y-43871510D01*
X69406635Y-43894485D01*
X69406633Y-43894486D01*
X69399597Y-43898549D01*
X69398327Y-43896349D01*
X69344995Y-43916960D01*
X69276552Y-43902914D01*
X69226568Y-43854094D01*
X69220131Y-43840838D01*
X69216192Y-43831328D01*
X69216185Y-43831315D01*
X69106751Y-43667537D01*
X69106748Y-43667533D01*
X68967466Y-43528251D01*
X68967462Y-43528248D01*
X68803684Y-43418814D01*
X68803671Y-43418807D01*
X68621691Y-43343429D01*
X68621683Y-43343427D01*
X68580000Y-43335135D01*
X68580000Y-44138011D01*
X68570060Y-44120795D01*
X68514205Y-44064940D01*
X68445796Y-44025444D01*
X68369496Y-44005000D01*
X68290504Y-44005000D01*
X68214204Y-44025444D01*
X68145795Y-44064940D01*
X68089940Y-44120795D01*
X68080000Y-44138011D01*
X68080000Y-43335136D01*
X68079999Y-43335135D01*
X68038316Y-43343427D01*
X68038308Y-43343429D01*
X67856328Y-43418807D01*
X67856315Y-43418814D01*
X67692537Y-43528248D01*
X67692533Y-43528251D01*
X67553251Y-43667533D01*
X67553248Y-43667537D01*
X67443814Y-43831315D01*
X67443807Y-43831328D01*
X67368430Y-44013306D01*
X67368427Y-44013318D01*
X67330000Y-44206504D01*
X59759585Y-44206504D01*
X59748620Y-44180031D01*
X59721044Y-44138761D01*
X59674698Y-44069398D01*
X59674692Y-44069390D01*
X59580609Y-43975307D01*
X59580601Y-43975301D01*
X59469979Y-43901386D01*
X59469972Y-43901382D01*
X59469969Y-43901380D01*
X59469965Y-43901378D01*
X59469961Y-43901376D01*
X59347040Y-43850461D01*
X59347030Y-43850458D01*
X59216533Y-43824500D01*
X59216531Y-43824500D01*
X59083469Y-43824500D01*
X59083467Y-43824500D01*
X58952969Y-43850458D01*
X58952959Y-43850461D01*
X58830038Y-43901376D01*
X58830020Y-43901386D01*
X58719398Y-43975301D01*
X58719390Y-43975307D01*
X58625307Y-44069390D01*
X58625301Y-44069398D01*
X58551386Y-44180020D01*
X58551376Y-44180038D01*
X58500461Y-44302959D01*
X58500458Y-44302969D01*
X58474500Y-44433466D01*
X58474500Y-44433469D01*
X58474500Y-44566531D01*
X58474500Y-44566533D01*
X58474499Y-44566533D01*
X57650500Y-44566533D01*
X57650500Y-41566533D01*
X58474499Y-41566533D01*
X58500458Y-41697030D01*
X58500461Y-41697040D01*
X58551376Y-41819961D01*
X58551386Y-41819979D01*
X58625301Y-41930601D01*
X58625307Y-41930609D01*
X58719390Y-42024692D01*
X58719398Y-42024698D01*
X58830020Y-42098613D01*
X58830023Y-42098614D01*
X58830031Y-42098620D01*
X58952964Y-42149540D01*
X58952968Y-42149540D01*
X58952969Y-42149541D01*
X59083466Y-42175500D01*
X59083469Y-42175500D01*
X59216533Y-42175500D01*
X59304325Y-42158035D01*
X59347036Y-42149540D01*
X59469969Y-42098620D01*
X59580606Y-42024695D01*
X59674695Y-41930606D01*
X59748620Y-41819969D01*
X59799540Y-41697036D01*
X59825500Y-41566531D01*
X59825500Y-41433469D01*
X59825500Y-41433466D01*
X59799541Y-41302969D01*
X59799540Y-41302968D01*
X59799540Y-41302964D01*
X59748620Y-41180031D01*
X59674695Y-41069394D01*
X59674692Y-41069390D01*
X59580609Y-40975307D01*
X59580602Y-40975301D01*
X59469979Y-40901386D01*
X59469972Y-40901382D01*
X59469969Y-40901380D01*
X59469965Y-40901378D01*
X59469961Y-40901376D01*
X59347040Y-40850461D01*
X59347030Y-40850458D01*
X59216533Y-40824500D01*
X59216531Y-40824500D01*
X59083469Y-40824500D01*
X59083467Y-40824500D01*
X58952969Y-40850458D01*
X58952959Y-40850461D01*
X58830038Y-40901376D01*
X58830020Y-40901386D01*
X58719398Y-40975301D01*
X58719390Y-40975307D01*
X58625307Y-41069390D01*
X58625301Y-41069398D01*
X58551386Y-41180020D01*
X58551376Y-41180038D01*
X58500461Y-41302959D01*
X58500458Y-41302969D01*
X58474500Y-41433466D01*
X58474500Y-41433469D01*
X58474500Y-41566531D01*
X58474500Y-41566533D01*
X58474499Y-41566533D01*
X57650500Y-41566533D01*
X57650500Y-40176504D01*
X67330000Y-40176504D01*
X67330000Y-40425000D01*
X68030000Y-40425000D01*
X68030000Y-40925000D01*
X67330000Y-40925000D01*
X67330000Y-41173495D01*
X67368427Y-41366681D01*
X67368430Y-41366693D01*
X67443807Y-41548671D01*
X67443814Y-41548684D01*
X67553248Y-41712462D01*
X67553251Y-41712466D01*
X67692533Y-41851748D01*
X67692537Y-41851751D01*
X67856315Y-41961185D01*
X67856328Y-41961192D01*
X68038308Y-42036569D01*
X68080000Y-42044862D01*
X68080000Y-41241988D01*
X68089940Y-41259205D01*
X68145795Y-41315060D01*
X68214204Y-41354556D01*
X68290504Y-41375000D01*
X68369496Y-41375000D01*
X68445796Y-41354556D01*
X68514205Y-41315060D01*
X68570060Y-41259205D01*
X68580000Y-41241988D01*
X68580000Y-42044862D01*
X68621690Y-42036569D01*
X68621692Y-42036569D01*
X68803671Y-41961192D01*
X68803684Y-41961185D01*
X68967462Y-41851751D01*
X68967466Y-41851748D01*
X69106748Y-41712466D01*
X69106751Y-41712462D01*
X69216185Y-41548684D01*
X69216192Y-41548671D01*
X69291569Y-41366693D01*
X69291572Y-41366681D01*
X69329999Y-41173495D01*
X69330000Y-41173492D01*
X69330000Y-40925000D01*
X68630000Y-40925000D01*
X68630000Y-40425000D01*
X69330000Y-40425000D01*
X69330000Y-40176508D01*
X69329999Y-40176504D01*
X75970000Y-40176504D01*
X75970000Y-40425000D01*
X76670000Y-40425000D01*
X76670000Y-40925000D01*
X75970000Y-40925000D01*
X75970000Y-41173495D01*
X76008427Y-41366681D01*
X76008430Y-41366693D01*
X76083807Y-41548671D01*
X76083814Y-41548684D01*
X76193248Y-41712462D01*
X76193251Y-41712466D01*
X76332533Y-41851748D01*
X76332537Y-41851751D01*
X76496315Y-41961185D01*
X76496328Y-41961192D01*
X76678308Y-42036569D01*
X76720000Y-42044862D01*
X76720000Y-41241988D01*
X76729940Y-41259205D01*
X76785795Y-41315060D01*
X76854204Y-41354556D01*
X76930504Y-41375000D01*
X77009496Y-41375000D01*
X77085796Y-41354556D01*
X77154205Y-41315060D01*
X77210060Y-41259205D01*
X77220000Y-41241988D01*
X77220000Y-42044862D01*
X77261690Y-42036569D01*
X77261692Y-42036569D01*
X77443671Y-41961192D01*
X77443684Y-41961185D01*
X77607462Y-41851751D01*
X77607466Y-41851748D01*
X77746748Y-41712466D01*
X77746751Y-41712462D01*
X77856185Y-41548684D01*
X77856192Y-41548671D01*
X77931569Y-41366693D01*
X77931572Y-41366681D01*
X77969999Y-41173495D01*
X77970000Y-41173492D01*
X77970000Y-40925000D01*
X77270000Y-40925000D01*
X77270000Y-40425000D01*
X77970000Y-40425000D01*
X77970000Y-40176508D01*
X77969999Y-40176504D01*
X77931572Y-39983318D01*
X77931569Y-39983306D01*
X77856192Y-39801328D01*
X77856185Y-39801315D01*
X77746751Y-39637537D01*
X77746748Y-39637533D01*
X77607466Y-39498251D01*
X77607462Y-39498248D01*
X77443684Y-39388814D01*
X77443671Y-39388807D01*
X77261691Y-39313429D01*
X77261683Y-39313427D01*
X77220000Y-39305135D01*
X77220000Y-40108011D01*
X77210060Y-40090795D01*
X77154205Y-40034940D01*
X77085796Y-39995444D01*
X77009496Y-39975000D01*
X76930504Y-39975000D01*
X76854204Y-39995444D01*
X76785795Y-40034940D01*
X76729940Y-40090795D01*
X76720000Y-40108011D01*
X76720000Y-39305136D01*
X76719999Y-39305135D01*
X76678316Y-39313427D01*
X76678308Y-39313429D01*
X76496328Y-39388807D01*
X76496315Y-39388814D01*
X76332537Y-39498248D01*
X76332533Y-39498251D01*
X76193251Y-39637533D01*
X76193248Y-39637537D01*
X76083814Y-39801315D01*
X76083807Y-39801328D01*
X76008430Y-39983306D01*
X76008427Y-39983318D01*
X75970000Y-40176504D01*
X69329999Y-40176504D01*
X69291572Y-39983318D01*
X69291569Y-39983306D01*
X69216192Y-39801328D01*
X69216185Y-39801315D01*
X69106751Y-39637537D01*
X69106748Y-39637533D01*
X68967466Y-39498251D01*
X68967462Y-39498248D01*
X68803684Y-39388814D01*
X68803671Y-39388807D01*
X68621691Y-39313429D01*
X68621683Y-39313427D01*
X68580000Y-39305135D01*
X68580000Y-40108011D01*
X68570060Y-40090795D01*
X68514205Y-40034940D01*
X68445796Y-39995444D01*
X68369496Y-39975000D01*
X68290504Y-39975000D01*
X68214204Y-39995444D01*
X68145795Y-40034940D01*
X68089940Y-40090795D01*
X68080000Y-40108011D01*
X68080000Y-39305136D01*
X68079999Y-39305135D01*
X68038316Y-39313427D01*
X68038308Y-39313429D01*
X67856328Y-39388807D01*
X67856315Y-39388814D01*
X67692537Y-39498248D01*
X67692533Y-39498251D01*
X67553251Y-39637533D01*
X67553248Y-39637537D01*
X67443814Y-39801315D01*
X67443807Y-39801328D01*
X67368430Y-39983306D01*
X67368427Y-39983318D01*
X67330000Y-40176504D01*
X57650500Y-40176504D01*
X57650500Y-38874500D01*
X57670185Y-38807461D01*
X57722989Y-38761706D01*
X57774500Y-38750500D01*
X147025500Y-38750500D01*
X147092539Y-38770185D01*
G37*
%TD.AperFunction*%
%TD*%
M02*
