%TF.GenerationSoftware,KiCad,Pcbnew,10.0.5*%
%TF.CreationDate,2026-08-30T15:46:17-07:00*%
%TF.ProjectId,ESP_32_IEM_RIG_RX_VER_1.0,4553505f-3332-45f4-9945-4d5f5249475f,0.0.0*%
%TF.SameCoordinates,Original*%
%TF.FileFunction,Copper,L2,Bot*%
%TF.FilePolarity,Positive*%
%FSLAX46Y46*%
G04 Gerber Fmt 4.6, Leading zero omitted, Abs format (unit mm)*
G04 Created by KiCad (PCBNEW 10.0.5) date 2026-08-30 15:46:17*
%MOMM*%
%LPD*%
G01*
G04 APERTURE LIST*
%TA.AperFunction,HeatsinkPad*%
%ADD10C,0.600000*%
%TD*%
%TA.AperFunction,ComponentPad*%
%ADD11O,2.100000X1.000000*%
%TD*%
%TA.AperFunction,ComponentPad*%
%ADD12O,1.800000X1.000000*%
%TD*%
%TA.AperFunction,ComponentPad*%
%ADD13R,1.500000X1.500000*%
%TD*%
%TA.AperFunction,ComponentPad*%
%ADD14C,1.500000*%
%TD*%
%TA.AperFunction,ViaPad*%
%ADD15C,0.600000*%
%TD*%
%TA.AperFunction,Conductor*%
%ADD16C,0.500000*%
%TD*%
%TA.AperFunction,Conductor*%
%ADD17C,0.200000*%
%TD*%
G04 APERTURE END LIST*
D10*
%TO.P,U2,39,GND_39*%
%TO.N,GND*%
X119600000Y-106915000D03*
X119600000Y-108315000D03*
X120300000Y-106215000D03*
X120300000Y-107615000D03*
X120300000Y-109015000D03*
X121000000Y-106915000D03*
X121000000Y-108315000D03*
X121700000Y-106215000D03*
X121700000Y-107615000D03*
X121700000Y-109015000D03*
X122400000Y-106915000D03*
X122400000Y-108315000D03*
%TD*%
D11*
%TO.P,J6,SH,SHIELD_SH*%
%TO.N,GND*%
X103105000Y-109180000D03*
D12*
X98925000Y-109180000D03*
D11*
X103105000Y-117820000D03*
D12*
X98925000Y-117820000D03*
%TD*%
D13*
%TO.P,VR1,1,CCW1_1*%
%TO.N,GND*%
X147750000Y-44250000D03*
D14*
%TO.P,VR1,2,WIPER1_2*%
%TO.N,/Amp/POST_POT_IN_L*%
X145250000Y-44250000D03*
%TO.P,VR1,3,CW1_3*%
%TO.N,/DAC/DAC_OUT_L*%
X142750000Y-44250000D03*
%TO.P,VR1,4,CCW2_4*%
%TO.N,GND*%
X147750000Y-46750000D03*
%TO.P,VR1,5,WIPER2_5*%
%TO.N,/Amp/POST_POT_IN_R*%
X145250000Y-46750000D03*
%TO.P,VR1,6,CW2_6*%
%TO.N,/DAC/DAC_OUT_R*%
X142750000Y-46750000D03*
%TO.P,VR1,7,COM_7*%
%TO.N,+3V3*%
X147750000Y-53000000D03*
%TO.P,VR1,8,N.O._8*%
%TO.N,/Amp/SHDN_SIGNAL*%
X142750000Y-53000000D03*
%TD*%
D15*
%TO.N,+5V*%
X143687500Y-121430000D03*
X143500000Y-122677500D03*
%TO.N,GND*%
X150500000Y-70000000D03*
X101000000Y-117820000D03*
X140500000Y-59500000D03*
X142075000Y-82112500D03*
X115250000Y-100000000D03*
X121750000Y-44000000D03*
X138250000Y-52750000D03*
X127475000Y-124250000D03*
X148250000Y-87250000D03*
X144750000Y-82250000D03*
X146575000Y-82112500D03*
X148437500Y-119140000D03*
X127250000Y-61000000D03*
X117875000Y-124250000D03*
X142075000Y-79112500D03*
X101000000Y-120000000D03*
X129250000Y-122250000D03*
X139228280Y-112890000D03*
X127287500Y-73537500D03*
X133750000Y-55000000D03*
X108487868Y-114237868D03*
X120125000Y-124250000D03*
X127475000Y-126250000D03*
X142525000Y-68475000D03*
X137125000Y-118125000D03*
X148500000Y-82500000D03*
X108537500Y-101750000D03*
X141437500Y-120750000D03*
X116750000Y-116250000D03*
X146075000Y-79112500D03*
X129250000Y-47600000D03*
X136250000Y-111500000D03*
X129750000Y-100000000D03*
X147750000Y-47750000D03*
X129500000Y-52250000D03*
X101000000Y-109250000D03*
X139000000Y-49250000D03*
X147500000Y-72250000D03*
X136750000Y-78500000D03*
%TO.N,Net-(U3-INR+)*%
X137500000Y-53350000D03*
X137310771Y-49810000D03*
%TO.N,Net-(U5-D+)*%
X133756117Y-113090021D03*
X110424265Y-113150000D03*
%TO.N,Net-(U5-D-)*%
X133750000Y-113890000D03*
X109375000Y-113125000D03*
%TO.N,Net-(U5-VDD)*%
X146687500Y-115890000D03*
X134937500Y-114890000D03*
%TO.N,Net-(Q1-E)*%
X143049265Y-109376765D03*
X138937500Y-104890000D03*
X142272735Y-108456238D03*
X141787500Y-104890000D03*
%TO.N,/ESP Reciever/RXD*%
X142994637Y-110574068D03*
X143687500Y-105890000D03*
%TO.N,/ESP Reciever/TXD*%
X141943918Y-110481180D03*
X141587500Y-105890000D03*
%TO.N,+3V3*%
X149000000Y-81500000D03*
X136250000Y-101150000D03*
X136250000Y-103000000D03*
X112064265Y-106935735D03*
X150250000Y-101000000D03*
X135310504Y-48610000D03*
X147250000Y-67250000D03*
X147250001Y-123750000D03*
X150150000Y-88250000D03*
X147750000Y-55250000D03*
X148000000Y-101000000D03*
X139500000Y-123500000D03*
X150250000Y-91000000D03*
X140500000Y-81362500D03*
X147500000Y-63250000D03*
X127500000Y-52750000D03*
X112000000Y-112500000D03*
X131050000Y-55650000D03*
%TO.N,/Power Management/VBUS_RAW*%
X102405000Y-113000000D03*
X106500000Y-113750000D03*
%TO.N,Net-(U3-OUTR)*%
X141250000Y-47000000D03*
X136500000Y-62250000D03*
X138250000Y-55500000D03*
X138250000Y-58750000D03*
%TO.N,Net-(U3-OUTL)*%
X131685958Y-48000000D03*
X123750000Y-55000000D03*
%TO.N,/ESP Reciever/ESP_EN*%
X115250000Y-102590000D03*
X134000000Y-108250000D03*
%TO.N,/DAC/FLT_SEL*%
X142500000Y-88250000D03*
X139750000Y-86000000D03*
%TO.N,/DAC/BCK*%
X110250000Y-105750000D03*
X111500000Y-98000000D03*
%TO.N,/Amp/SHDN_SIGNAL*%
X140250000Y-56250000D03*
X135750000Y-56250000D03*
%TO.N,/Amp/POST_POT_IN_L*%
X137000000Y-75250000D03*
X146250000Y-71750000D03*
%TO.N,Net-(U1-CAPM)*%
X149375000Y-74250000D03*
X145274997Y-79112500D03*
%TD*%
%TO.N,+5V*%
D16*
X143687500Y-121430000D02*
X143500000Y-121617500D01*
X143500000Y-121617500D02*
X143500000Y-122677500D01*
%TO.N,GND*%
D17*
X101000000Y-117820000D02*
X100820000Y-117820000D01*
%TO.N,Net-(U3-INR+)*%
X137500000Y-49999229D02*
X137500000Y-53350000D01*
X137310771Y-49810000D02*
X137500000Y-49999229D01*
%TO.N,Net-(U5-D+)*%
X110424265Y-113150000D02*
X133696138Y-113150000D01*
X133696138Y-113150000D02*
X133756117Y-113090021D01*
%TO.N,Net-(U5-D-)*%
X133610000Y-113750000D02*
X133750000Y-113890000D01*
X110000000Y-113750000D02*
X133610000Y-113750000D01*
X109375000Y-113125000D02*
X110000000Y-113750000D01*
%TO.N,Net-(U5-VDD)*%
X135437500Y-115890000D02*
X134937500Y-115390000D01*
X146687500Y-115890000D02*
X135437500Y-115890000D01*
X134937500Y-115390000D02*
X134937500Y-114890000D01*
%TO.N,Net-(Q1-E)*%
X142272735Y-108456238D02*
X142263235Y-108465738D01*
X142263235Y-108590735D02*
X143049265Y-109376765D01*
X138937500Y-104890000D02*
X141787500Y-104890000D01*
X142263235Y-108465738D02*
X142263235Y-108590735D01*
%TO.N,/ESP Reciever/RXD*%
X143687500Y-105890000D02*
X143687500Y-109881205D01*
X143687500Y-109881205D02*
X142994637Y-110574068D01*
%TO.N,/ESP Reciever/TXD*%
X141687500Y-106090000D02*
X141687500Y-107891471D01*
X141587500Y-105890000D02*
X141587500Y-105990000D01*
X141687500Y-107891471D02*
X141672735Y-107906236D01*
X141587500Y-105990000D02*
X141687500Y-106090000D01*
X141687500Y-108719532D02*
X141687500Y-110390000D01*
X141778680Y-110481180D02*
X141943918Y-110481180D01*
X141687500Y-110390000D02*
X141778680Y-110481180D01*
X141672735Y-108704767D02*
X141687500Y-108719532D01*
X141672735Y-107906236D02*
X141672735Y-108704767D01*
%TO.N,+3V3*%
D16*
X147500000Y-63250000D02*
X147250000Y-63500000D01*
X147750000Y-55250000D02*
X147058148Y-55941852D01*
X135439339Y-57000000D02*
X146000000Y-57000000D01*
X136250000Y-103000000D02*
X136250000Y-101150000D01*
X135000000Y-55939339D02*
X135000000Y-56560661D01*
X140500000Y-81362500D02*
X148862500Y-81362500D01*
X147500000Y-63250000D02*
X147058148Y-62808148D01*
X112000000Y-107000000D02*
X112064265Y-106935735D01*
X147058148Y-57000000D02*
X146000000Y-57000000D01*
X112000000Y-112500000D02*
X112000000Y-107000000D01*
X150250000Y-91000000D02*
X150250000Y-88350000D01*
X132100000Y-57000000D02*
X135439339Y-57000000D01*
X135310504Y-48610000D02*
X135310504Y-55628835D01*
X148862500Y-81362500D02*
X149000000Y-81500000D01*
X135000000Y-56560661D02*
X135439339Y-57000000D01*
X147250000Y-63500000D02*
X147250000Y-67250000D01*
X128500000Y-57000000D02*
X132100000Y-57000000D01*
X139500000Y-123500000D02*
X147000001Y-123500000D01*
X147058148Y-62808148D02*
X147058148Y-57000000D01*
X127500000Y-56000000D02*
X128500000Y-57000000D01*
X131050000Y-55950000D02*
X132100000Y-57000000D01*
X150250000Y-88350000D02*
X150150000Y-88250000D01*
X147058148Y-55941852D02*
X147058148Y-57000000D01*
X131050000Y-55650000D02*
X131050000Y-55950000D01*
X150250000Y-101000000D02*
X148000000Y-101000000D01*
X147000001Y-123500000D02*
X147250001Y-123750000D01*
X135310504Y-55628835D02*
X135000000Y-55939339D01*
X127500000Y-52750000D02*
X127500000Y-56000000D01*
%TO.N,/Power Management/VBUS_RAW*%
D17*
X103155000Y-113750000D02*
X102405000Y-113000000D01*
X106500000Y-113750000D02*
X103155000Y-113750000D01*
%TO.N,Net-(U3-OUTR)*%
X141250000Y-47000000D02*
X141250000Y-52500000D01*
X138250000Y-60500000D02*
X138250000Y-58750000D01*
X136500000Y-62250000D02*
X138250000Y-60500000D01*
X141250000Y-52500000D02*
X138250000Y-55500000D01*
%TO.N,Net-(U3-OUTL)*%
X131435958Y-48250000D02*
X130750000Y-48250000D01*
X131685958Y-48000000D02*
X131435958Y-48250000D01*
X130750000Y-48250000D02*
X124000000Y-55000000D01*
X124000000Y-55000000D02*
X123750000Y-55000000D01*
%TO.N,/ESP Reciever/ESP_EN*%
X115250000Y-102590000D02*
X115410000Y-102750000D01*
X127250000Y-102750000D02*
X132750000Y-108250000D01*
X132750000Y-108250000D02*
X134000000Y-108250000D01*
X115410000Y-102750000D02*
X127250000Y-102750000D01*
%TO.N,/DAC/FLT_SEL*%
X142500000Y-88250000D02*
X142000000Y-88250000D01*
X142000000Y-88250000D02*
X139750000Y-86000000D01*
%TO.N,/DAC/BCK*%
X110250000Y-99250000D02*
X111500000Y-98000000D01*
X110250000Y-105750000D02*
X110250000Y-99250000D01*
%TO.N,/Amp/SHDN_SIGNAL*%
X140250000Y-56250000D02*
X135750000Y-56250000D01*
%TO.N,/Amp/POST_POT_IN_L*%
X142750000Y-75250000D02*
X137000000Y-75250000D01*
X146250000Y-71750000D02*
X142750000Y-75250000D01*
%TO.N,Net-(U1-CAPM)*%
X145274997Y-80274997D02*
X145274997Y-79112500D01*
X149375000Y-78125000D02*
X146687500Y-80812500D01*
X145812500Y-80812500D02*
X145274997Y-80274997D01*
X146687500Y-80812500D02*
X145812500Y-80812500D01*
X149375000Y-74250000D02*
X149375000Y-78125000D01*
%TD*%
%TA.AperFunction,Conductor*%
%TO.N,GND*%
G36*
X146462420Y-44949709D02*
G01*
X146496778Y-45010548D01*
X146500000Y-45038633D01*
X146500000Y-45047844D01*
X146506401Y-45107372D01*
X146506403Y-45107379D01*
X146556645Y-45242086D01*
X146556649Y-45242093D01*
X146642809Y-45357187D01*
X146642812Y-45357190D01*
X146757906Y-45443350D01*
X146757913Y-45443354D01*
X146892620Y-45493596D01*
X146892627Y-45493598D01*
X146952155Y-45499999D01*
X146952172Y-45500000D01*
X146962214Y-45500000D01*
X147029253Y-45519685D01*
X147075008Y-45572489D01*
X147084952Y-45641647D01*
X147060801Y-45694530D01*
X147059872Y-45706320D01*
X147620590Y-46267037D01*
X147557007Y-46284075D01*
X147442993Y-46349901D01*
X147349901Y-46442993D01*
X147284075Y-46557007D01*
X147267037Y-46620590D01*
X146706320Y-46059872D01*
X146706320Y-46059873D01*
X146680902Y-46094859D01*
X146610765Y-46232511D01*
X146562790Y-46283307D01*
X146494969Y-46300102D01*
X146428834Y-46277564D01*
X146389795Y-46232510D01*
X146319525Y-46094596D01*
X146294296Y-46059872D01*
X146203828Y-45935354D01*
X146064646Y-45796172D01*
X145905405Y-45680476D01*
X145768038Y-45610484D01*
X145717243Y-45562511D01*
X145700448Y-45494690D01*
X145722985Y-45428555D01*
X145768039Y-45389515D01*
X145905405Y-45319524D01*
X146064646Y-45203828D01*
X146203828Y-45064646D01*
X146275683Y-44965745D01*
X146331012Y-44923082D01*
X146400626Y-44917103D01*
X146462420Y-44949709D01*
G37*
%TD.AperFunction*%
%TA.AperFunction,Conductor*%
G36*
X151192539Y-39020185D02*
G01*
X151238294Y-39072989D01*
X151249500Y-39124500D01*
X151249500Y-90697810D01*
X151229815Y-90764849D01*
X151177011Y-90810604D01*
X151107853Y-90820548D01*
X151044297Y-90791523D01*
X151010940Y-90745266D01*
X151009939Y-90742847D01*
X151000500Y-90695396D01*
X151000500Y-88276079D01*
X150971659Y-88131092D01*
X150971658Y-88131091D01*
X150971658Y-88131087D01*
X150915084Y-87994505D01*
X150910134Y-87987097D01*
X150898679Y-87965664D01*
X150859397Y-87870827D01*
X150859390Y-87870814D01*
X150771789Y-87739711D01*
X150771786Y-87739707D01*
X150660292Y-87628213D01*
X150660288Y-87628210D01*
X150529185Y-87540609D01*
X150529172Y-87540602D01*
X150383501Y-87480264D01*
X150383489Y-87480261D01*
X150228845Y-87449500D01*
X150228842Y-87449500D01*
X150071158Y-87449500D01*
X150071155Y-87449500D01*
X149916510Y-87480261D01*
X149916498Y-87480264D01*
X149770827Y-87540602D01*
X149770814Y-87540609D01*
X149639711Y-87628210D01*
X149639707Y-87628213D01*
X149528213Y-87739707D01*
X149528210Y-87739711D01*
X149440609Y-87870814D01*
X149440602Y-87870827D01*
X149380264Y-88016498D01*
X149380261Y-88016510D01*
X149349500Y-88171153D01*
X149349500Y-88328846D01*
X149380261Y-88483489D01*
X149380264Y-88483501D01*
X149440602Y-88629172D01*
X149440606Y-88629179D01*
X149478602Y-88686044D01*
X149499480Y-88752721D01*
X149499500Y-88754935D01*
X149499500Y-90695396D01*
X149490062Y-90742844D01*
X149489060Y-90745266D01*
X149480262Y-90766506D01*
X149480260Y-90766511D01*
X149449500Y-90921153D01*
X149449500Y-91078846D01*
X149480261Y-91233489D01*
X149480264Y-91233501D01*
X149540602Y-91379172D01*
X149540609Y-91379185D01*
X149628210Y-91510288D01*
X149628213Y-91510292D01*
X149739707Y-91621786D01*
X149739711Y-91621789D01*
X149870814Y-91709390D01*
X149870827Y-91709397D01*
X150016498Y-91769735D01*
X150016503Y-91769737D01*
X150171153Y-91800499D01*
X150171156Y-91800500D01*
X150171158Y-91800500D01*
X150328844Y-91800500D01*
X150328845Y-91800499D01*
X150483497Y-91769737D01*
X150629179Y-91709394D01*
X150760289Y-91621789D01*
X150871789Y-91510289D01*
X150959394Y-91379179D01*
X151010939Y-91254738D01*
X151054779Y-91200334D01*
X151121074Y-91178269D01*
X151188773Y-91195548D01*
X151236384Y-91246685D01*
X151249500Y-91302190D01*
X151249500Y-100697809D01*
X151229815Y-100764848D01*
X151177011Y-100810603D01*
X151107853Y-100820547D01*
X151044297Y-100791522D01*
X151010939Y-100745261D01*
X150959397Y-100620827D01*
X150959390Y-100620814D01*
X150871789Y-100489711D01*
X150871786Y-100489707D01*
X150760292Y-100378213D01*
X150760288Y-100378210D01*
X150629185Y-100290609D01*
X150629172Y-100290602D01*
X150483501Y-100230264D01*
X150483489Y-100230261D01*
X150328845Y-100199500D01*
X150328842Y-100199500D01*
X150171158Y-100199500D01*
X150171155Y-100199500D01*
X150016511Y-100230260D01*
X150016506Y-100230262D01*
X150016504Y-100230262D01*
X150016503Y-100230263D01*
X149992844Y-100240062D01*
X149945396Y-100249500D01*
X148304604Y-100249500D01*
X148257155Y-100240062D01*
X148233497Y-100230263D01*
X148233493Y-100230262D01*
X148233488Y-100230260D01*
X148078845Y-100199500D01*
X148078842Y-100199500D01*
X147921158Y-100199500D01*
X147921155Y-100199500D01*
X147766510Y-100230261D01*
X147766498Y-100230264D01*
X147620827Y-100290602D01*
X147620814Y-100290609D01*
X147489711Y-100378210D01*
X147489707Y-100378213D01*
X147378213Y-100489707D01*
X147378210Y-100489711D01*
X147290609Y-100620814D01*
X147290602Y-100620827D01*
X147230264Y-100766498D01*
X147230261Y-100766510D01*
X147199500Y-100921153D01*
X147199500Y-101078846D01*
X147230261Y-101233489D01*
X147230264Y-101233501D01*
X147290602Y-101379172D01*
X147290609Y-101379185D01*
X147378210Y-101510288D01*
X147378213Y-101510292D01*
X147489707Y-101621786D01*
X147489711Y-101621789D01*
X147620814Y-101709390D01*
X147620827Y-101709397D01*
X147720060Y-101750500D01*
X147766503Y-101769737D01*
X147865858Y-101789500D01*
X147921153Y-101800499D01*
X147921156Y-101800500D01*
X147921158Y-101800500D01*
X148078844Y-101800500D01*
X148078845Y-101800499D01*
X148155152Y-101785320D01*
X148233488Y-101769739D01*
X148233489Y-101769738D01*
X148233497Y-101769737D01*
X148257155Y-101759937D01*
X148304604Y-101750500D01*
X149945396Y-101750500D01*
X149992844Y-101759937D01*
X150016503Y-101769737D01*
X150016508Y-101769738D01*
X150016511Y-101769739D01*
X150171153Y-101800499D01*
X150171156Y-101800500D01*
X150171158Y-101800500D01*
X150328844Y-101800500D01*
X150328845Y-101800499D01*
X150483497Y-101769737D01*
X150629179Y-101709394D01*
X150760289Y-101621789D01*
X150871789Y-101510289D01*
X150959394Y-101379179D01*
X151010939Y-101254738D01*
X151054779Y-101200334D01*
X151121074Y-101178269D01*
X151188773Y-101195548D01*
X151236384Y-101246685D01*
X151249500Y-101302190D01*
X151249500Y-128375500D01*
X151229815Y-128442539D01*
X151177011Y-128488294D01*
X151125500Y-128499500D01*
X97124500Y-128499500D01*
X97057461Y-128479815D01*
X97011706Y-128427011D01*
X97000500Y-128375500D01*
X97000500Y-127066533D01*
X99074499Y-127066533D01*
X99100458Y-127197030D01*
X99100461Y-127197040D01*
X99151376Y-127319961D01*
X99151386Y-127319979D01*
X99225301Y-127430601D01*
X99225307Y-127430609D01*
X99319390Y-127524692D01*
X99319398Y-127524698D01*
X99430020Y-127598613D01*
X99430023Y-127598614D01*
X99430031Y-127598620D01*
X99430037Y-127598622D01*
X99430038Y-127598623D01*
X99494926Y-127625500D01*
X99552964Y-127649540D01*
X99552968Y-127649540D01*
X99552969Y-127649541D01*
X99683466Y-127675500D01*
X99683469Y-127675500D01*
X99816533Y-127675500D01*
X99904325Y-127658035D01*
X99947036Y-127649540D01*
X100069969Y-127598620D01*
X100180606Y-127524695D01*
X100274695Y-127430606D01*
X100348620Y-127319969D01*
X100399540Y-127197036D01*
X100425500Y-127066533D01*
X102074499Y-127066533D01*
X102100458Y-127197030D01*
X102100461Y-127197040D01*
X102151376Y-127319961D01*
X102151386Y-127319979D01*
X102225301Y-127430601D01*
X102225307Y-127430609D01*
X102319390Y-127524692D01*
X102319398Y-127524698D01*
X102430020Y-127598613D01*
X102430023Y-127598614D01*
X102430031Y-127598620D01*
X102430037Y-127598622D01*
X102430038Y-127598623D01*
X102494926Y-127625500D01*
X102552964Y-127649540D01*
X102552968Y-127649540D01*
X102552969Y-127649541D01*
X102683466Y-127675500D01*
X102683469Y-127675500D01*
X102816533Y-127675500D01*
X102904325Y-127658035D01*
X102947036Y-127649540D01*
X103069969Y-127598620D01*
X103180606Y-127524695D01*
X103274695Y-127430606D01*
X103348620Y-127319969D01*
X103399540Y-127197036D01*
X103425500Y-127066531D01*
X103425500Y-127016533D01*
X144574499Y-127016533D01*
X144600458Y-127147030D01*
X144600461Y-127147040D01*
X144651376Y-127269961D01*
X144651386Y-127269979D01*
X144725301Y-127380601D01*
X144725307Y-127380609D01*
X144819390Y-127474692D01*
X144819398Y-127474698D01*
X144930020Y-127548613D01*
X144930023Y-127548614D01*
X144930031Y-127548620D01*
X145052964Y-127599540D01*
X145052968Y-127599540D01*
X145052969Y-127599541D01*
X145183466Y-127625500D01*
X145183469Y-127625500D01*
X145316533Y-127625500D01*
X145404325Y-127608035D01*
X145447036Y-127599540D01*
X145569969Y-127548620D01*
X145680606Y-127474695D01*
X145774695Y-127380606D01*
X145848620Y-127269969D01*
X145899540Y-127147036D01*
X145925500Y-127016533D01*
X147574499Y-127016533D01*
X147600458Y-127147030D01*
X147600461Y-127147040D01*
X147651376Y-127269961D01*
X147651386Y-127269979D01*
X147725301Y-127380601D01*
X147725307Y-127380609D01*
X147819390Y-127474692D01*
X147819398Y-127474698D01*
X147930020Y-127548613D01*
X147930023Y-127548614D01*
X147930031Y-127548620D01*
X148052964Y-127599540D01*
X148052968Y-127599540D01*
X148052969Y-127599541D01*
X148183466Y-127625500D01*
X148183469Y-127625500D01*
X148316533Y-127625500D01*
X148404325Y-127608035D01*
X148447036Y-127599540D01*
X148569969Y-127548620D01*
X148680606Y-127474695D01*
X148774695Y-127380606D01*
X148848620Y-127269969D01*
X148899540Y-127147036D01*
X148925500Y-127016531D01*
X148925500Y-126883469D01*
X148925500Y-126883466D01*
X148899541Y-126752969D01*
X148899540Y-126752968D01*
X148899540Y-126752964D01*
X148869333Y-126680038D01*
X148848623Y-126630038D01*
X148848622Y-126630037D01*
X148848620Y-126630031D01*
X148808106Y-126569398D01*
X148774698Y-126519398D01*
X148774692Y-126519390D01*
X148680609Y-126425307D01*
X148680601Y-126425301D01*
X148569979Y-126351386D01*
X148569972Y-126351382D01*
X148569969Y-126351380D01*
X148569965Y-126351378D01*
X148569961Y-126351376D01*
X148447040Y-126300461D01*
X148447030Y-126300458D01*
X148316533Y-126274500D01*
X148316531Y-126274500D01*
X148183469Y-126274500D01*
X148183467Y-126274500D01*
X148052969Y-126300458D01*
X148052959Y-126300461D01*
X147930038Y-126351376D01*
X147930020Y-126351386D01*
X147819398Y-126425301D01*
X147819390Y-126425307D01*
X147725307Y-126519390D01*
X147725301Y-126519398D01*
X147651386Y-126630020D01*
X147651376Y-126630038D01*
X147600461Y-126752959D01*
X147600458Y-126752969D01*
X147574500Y-126883466D01*
X147574500Y-126883469D01*
X147574500Y-127016531D01*
X147574500Y-127016533D01*
X147574499Y-127016533D01*
X145925500Y-127016533D01*
X145925500Y-127016531D01*
X145925500Y-126883469D01*
X145925500Y-126883466D01*
X145899541Y-126752969D01*
X145899540Y-126752968D01*
X145899540Y-126752964D01*
X145869333Y-126680038D01*
X145848623Y-126630038D01*
X145848622Y-126630037D01*
X145848620Y-126630031D01*
X145808106Y-126569398D01*
X145774698Y-126519398D01*
X145774692Y-126519390D01*
X145680609Y-126425307D01*
X145680601Y-126425301D01*
X145569979Y-126351386D01*
X145569972Y-126351382D01*
X145569969Y-126351380D01*
X145569965Y-126351378D01*
X145569961Y-126351376D01*
X145447040Y-126300461D01*
X145447030Y-126300458D01*
X145316533Y-126274500D01*
X145316531Y-126274500D01*
X145183469Y-126274500D01*
X145183467Y-126274500D01*
X145052969Y-126300458D01*
X145052959Y-126300461D01*
X144930038Y-126351376D01*
X144930020Y-126351386D01*
X144819398Y-126425301D01*
X144819390Y-126425307D01*
X144725307Y-126519390D01*
X144725301Y-126519398D01*
X144651386Y-126630020D01*
X144651376Y-126630038D01*
X144600461Y-126752959D01*
X144600458Y-126752969D01*
X144574500Y-126883466D01*
X144574500Y-126883469D01*
X144574500Y-127016531D01*
X144574500Y-127016533D01*
X144574499Y-127016533D01*
X103425500Y-127016533D01*
X103425500Y-126933469D01*
X103425500Y-126933466D01*
X103419155Y-126901569D01*
X103399541Y-126802969D01*
X103399540Y-126802968D01*
X103399540Y-126802964D01*
X103378830Y-126752964D01*
X103348623Y-126680038D01*
X103348622Y-126680037D01*
X103348620Y-126680031D01*
X103315211Y-126630031D01*
X103274698Y-126569398D01*
X103274692Y-126569390D01*
X103180609Y-126475307D01*
X103180601Y-126475301D01*
X103069979Y-126401386D01*
X103069972Y-126401382D01*
X103069969Y-126401380D01*
X103069965Y-126401378D01*
X103069961Y-126401376D01*
X102947040Y-126350461D01*
X102947030Y-126350458D01*
X102816533Y-126324500D01*
X102816531Y-126324500D01*
X102683469Y-126324500D01*
X102683467Y-126324500D01*
X102552969Y-126350458D01*
X102552959Y-126350461D01*
X102430038Y-126401376D01*
X102430020Y-126401386D01*
X102319398Y-126475301D01*
X102319390Y-126475307D01*
X102225307Y-126569390D01*
X102225301Y-126569398D01*
X102151386Y-126680020D01*
X102151376Y-126680038D01*
X102100461Y-126802959D01*
X102100458Y-126802969D01*
X102074500Y-126933466D01*
X102074500Y-126933469D01*
X102074500Y-127066531D01*
X102074500Y-127066533D01*
X102074499Y-127066533D01*
X100425500Y-127066533D01*
X100425500Y-127066531D01*
X100425500Y-126933469D01*
X100425500Y-126933466D01*
X100399541Y-126802969D01*
X100399540Y-126802968D01*
X100399540Y-126802964D01*
X100378830Y-126752964D01*
X100348623Y-126680038D01*
X100348622Y-126680037D01*
X100348620Y-126680031D01*
X100315211Y-126630031D01*
X100274698Y-126569398D01*
X100274692Y-126569390D01*
X100180609Y-126475307D01*
X100180601Y-126475301D01*
X100069979Y-126401386D01*
X100069972Y-126401382D01*
X100069969Y-126401380D01*
X100069965Y-126401378D01*
X100069961Y-126401376D01*
X99947040Y-126350461D01*
X99947030Y-126350458D01*
X99816533Y-126324500D01*
X99816531Y-126324500D01*
X99683469Y-126324500D01*
X99683467Y-126324500D01*
X99552969Y-126350458D01*
X99552959Y-126350461D01*
X99430038Y-126401376D01*
X99430020Y-126401386D01*
X99319398Y-126475301D01*
X99319390Y-126475307D01*
X99225307Y-126569390D01*
X99225301Y-126569398D01*
X99151386Y-126680020D01*
X99151376Y-126680038D01*
X99100461Y-126802959D01*
X99100458Y-126802969D01*
X99074500Y-126933466D01*
X99074500Y-126933469D01*
X99074500Y-127066531D01*
X99074500Y-127066533D01*
X99074499Y-127066533D01*
X97000500Y-127066533D01*
X97000500Y-122374038D01*
X107899500Y-122374038D01*
X107899500Y-122625962D01*
X107923635Y-122778342D01*
X107938910Y-122874785D01*
X108016760Y-123114383D01*
X108131132Y-123338848D01*
X108279201Y-123542649D01*
X108279205Y-123542654D01*
X108457345Y-123720794D01*
X108457350Y-123720798D01*
X108635117Y-123849952D01*
X108661155Y-123868870D01*
X108804184Y-123941747D01*
X108885616Y-123983239D01*
X108885618Y-123983239D01*
X108885621Y-123983241D01*
X109125215Y-124061090D01*
X109374038Y-124100500D01*
X109374039Y-124100500D01*
X109625961Y-124100500D01*
X109625962Y-124100500D01*
X109874785Y-124061090D01*
X110114379Y-123983241D01*
X110338845Y-123868870D01*
X110542656Y-123720793D01*
X110720793Y-123542656D01*
X110739798Y-123516498D01*
X110809070Y-123421153D01*
X138699500Y-123421153D01*
X138699500Y-123578846D01*
X138730261Y-123733489D01*
X138730264Y-123733501D01*
X138790602Y-123879172D01*
X138790609Y-123879185D01*
X138878210Y-124010288D01*
X138878213Y-124010292D01*
X138989707Y-124121786D01*
X138989711Y-124121789D01*
X139120814Y-124209390D01*
X139120827Y-124209397D01*
X139266498Y-124269735D01*
X139266503Y-124269737D01*
X139421153Y-124300499D01*
X139421156Y-124300500D01*
X139421158Y-124300500D01*
X139578844Y-124300500D01*
X139578845Y-124300499D01*
X139655152Y-124285320D01*
X139733488Y-124269739D01*
X139733489Y-124269738D01*
X139733497Y-124269737D01*
X139757155Y-124259937D01*
X139804604Y-124250500D01*
X146567061Y-124250500D01*
X146634100Y-124270185D01*
X146654737Y-124286814D01*
X146739709Y-124371786D01*
X146739713Y-124371790D01*
X146870815Y-124459390D01*
X146870828Y-124459397D01*
X147016499Y-124519735D01*
X147016504Y-124519737D01*
X147171154Y-124550499D01*
X147171157Y-124550500D01*
X147171159Y-124550500D01*
X147328845Y-124550500D01*
X147328846Y-124550499D01*
X147483498Y-124519737D01*
X147629180Y-124459394D01*
X147760290Y-124371789D01*
X147871790Y-124260289D01*
X147959395Y-124129179D01*
X148019738Y-123983497D01*
X148050501Y-123828842D01*
X148050501Y-123671158D01*
X148050501Y-123671155D01*
X148050500Y-123671153D01*
X148024940Y-123542656D01*
X148019738Y-123516503D01*
X147980243Y-123421153D01*
X147959398Y-123370827D01*
X147959391Y-123370814D01*
X147871790Y-123239711D01*
X147871787Y-123239707D01*
X147760293Y-123128213D01*
X147760289Y-123128210D01*
X147629183Y-123040607D01*
X147605525Y-123030808D01*
X147565296Y-123003928D01*
X147478417Y-122917048D01*
X147403878Y-122867244D01*
X147403877Y-122867243D01*
X147355504Y-122834920D01*
X147355489Y-122834912D01*
X147218918Y-122778343D01*
X147218908Y-122778340D01*
X147073921Y-122749500D01*
X147073919Y-122749500D01*
X144424500Y-122749500D01*
X144357461Y-122729815D01*
X144311706Y-122677011D01*
X144300500Y-122625500D01*
X144300500Y-122598655D01*
X144300499Y-122598653D01*
X144269739Y-122444011D01*
X144269738Y-122444008D01*
X144269737Y-122444003D01*
X144259937Y-122420344D01*
X144250500Y-122372896D01*
X144250500Y-122050440D01*
X144270185Y-121983401D01*
X144286815Y-121962762D01*
X144309289Y-121940289D01*
X144396894Y-121809179D01*
X144457237Y-121663497D01*
X144488000Y-121508842D01*
X144488000Y-121351158D01*
X144488000Y-121351155D01*
X144487999Y-121351153D01*
X144473688Y-121279207D01*
X144457237Y-121196503D01*
X144457235Y-121196498D01*
X144396897Y-121050827D01*
X144396890Y-121050814D01*
X144309289Y-120919711D01*
X144309286Y-120919707D01*
X144197792Y-120808213D01*
X144197788Y-120808210D01*
X144066685Y-120720609D01*
X144066672Y-120720602D01*
X143921001Y-120660264D01*
X143920989Y-120660261D01*
X143766345Y-120629500D01*
X143766342Y-120629500D01*
X143608658Y-120629500D01*
X143608655Y-120629500D01*
X143454010Y-120660261D01*
X143453998Y-120660264D01*
X143308327Y-120720602D01*
X143308314Y-120720609D01*
X143177211Y-120808210D01*
X143177207Y-120808213D01*
X143065713Y-120919707D01*
X143065707Y-120919715D01*
X142978107Y-121050818D01*
X142978106Y-121050819D01*
X142968305Y-121074480D01*
X142941429Y-121114702D01*
X142917047Y-121139084D01*
X142878684Y-121196501D01*
X142878683Y-121196503D01*
X142834919Y-121261999D01*
X142834912Y-121262011D01*
X142778343Y-121398582D01*
X142778340Y-121398592D01*
X142749500Y-121543579D01*
X142749500Y-122372896D01*
X142740062Y-122420344D01*
X142730263Y-122444003D01*
X142730262Y-122444006D01*
X142730260Y-122444011D01*
X142699500Y-122598653D01*
X142699500Y-122625500D01*
X142679815Y-122692539D01*
X142627011Y-122738294D01*
X142575500Y-122749500D01*
X139804604Y-122749500D01*
X139757155Y-122740062D01*
X139733497Y-122730263D01*
X139733493Y-122730262D01*
X139733488Y-122730260D01*
X139578845Y-122699500D01*
X139578842Y-122699500D01*
X139421158Y-122699500D01*
X139421155Y-122699500D01*
X139266510Y-122730261D01*
X139266498Y-122730264D01*
X139120827Y-122790602D01*
X139120814Y-122790609D01*
X138989711Y-122878210D01*
X138989707Y-122878213D01*
X138878213Y-122989707D01*
X138878210Y-122989711D01*
X138790609Y-123120814D01*
X138790602Y-123120827D01*
X138730264Y-123266498D01*
X138730261Y-123266510D01*
X138699500Y-123421153D01*
X110809070Y-123421153D01*
X110866447Y-123342181D01*
X110868867Y-123338849D01*
X110868868Y-123338848D01*
X110868870Y-123338845D01*
X110983241Y-123114379D01*
X111061090Y-122874785D01*
X111100500Y-122625962D01*
X111100500Y-122374038D01*
X111061090Y-122125215D01*
X110983241Y-121885621D01*
X110983239Y-121885618D01*
X110983239Y-121885616D01*
X110941747Y-121804184D01*
X110868870Y-121661155D01*
X110849952Y-121635117D01*
X110720798Y-121457350D01*
X110720794Y-121457345D01*
X110542654Y-121279205D01*
X110542649Y-121279201D01*
X110338848Y-121131132D01*
X110338847Y-121131131D01*
X110338845Y-121131130D01*
X110268747Y-121095413D01*
X110114383Y-121016760D01*
X109874785Y-120938910D01*
X109753568Y-120919711D01*
X109625962Y-120899500D01*
X109374038Y-120899500D01*
X109249626Y-120919205D01*
X109125214Y-120938910D01*
X108885616Y-121016760D01*
X108661151Y-121131132D01*
X108457350Y-121279201D01*
X108457345Y-121279205D01*
X108279205Y-121457345D01*
X108279201Y-121457350D01*
X108131132Y-121661151D01*
X108016760Y-121885616D01*
X107984988Y-121983401D01*
X107938910Y-122125215D01*
X107899500Y-122374038D01*
X97000500Y-122374038D01*
X97000500Y-117570000D01*
X97555138Y-117570000D01*
X98358012Y-117570000D01*
X98340795Y-117579940D01*
X98284940Y-117635795D01*
X98245444Y-117704204D01*
X98225000Y-117780504D01*
X98225000Y-117859496D01*
X98245444Y-117935796D01*
X98284940Y-118004205D01*
X98340795Y-118060060D01*
X98358012Y-118070000D01*
X97555138Y-118070000D01*
X97563430Y-118111690D01*
X97563430Y-118111692D01*
X97638807Y-118293671D01*
X97638814Y-118293684D01*
X97748248Y-118457462D01*
X97748251Y-118457466D01*
X97887533Y-118596748D01*
X97887537Y-118596751D01*
X98051315Y-118706185D01*
X98051328Y-118706192D01*
X98233306Y-118781569D01*
X98233318Y-118781572D01*
X98426504Y-118819999D01*
X98426508Y-118820000D01*
X98675000Y-118820000D01*
X98675000Y-118120000D01*
X99175000Y-118120000D01*
X99175000Y-118820000D01*
X99423492Y-118820000D01*
X99423495Y-118819999D01*
X99616681Y-118781572D01*
X99616693Y-118781569D01*
X99798671Y-118706192D01*
X99798684Y-118706185D01*
X99962462Y-118596751D01*
X99962466Y-118596748D01*
X100101748Y-118457466D01*
X100101751Y-118457462D01*
X100211185Y-118293684D01*
X100211192Y-118293671D01*
X100286569Y-118111692D01*
X100286569Y-118111690D01*
X100294862Y-118070000D01*
X99491988Y-118070000D01*
X99509205Y-118060060D01*
X99565060Y-118004205D01*
X99604556Y-117935796D01*
X99625000Y-117859496D01*
X99625000Y-117780504D01*
X99604556Y-117704204D01*
X99565060Y-117635795D01*
X99509205Y-117579940D01*
X99491988Y-117570000D01*
X100294862Y-117570000D01*
X101585138Y-117570000D01*
X102388012Y-117570000D01*
X102370795Y-117579940D01*
X102314940Y-117635795D01*
X102275444Y-117704204D01*
X102255000Y-117780504D01*
X102255000Y-117859496D01*
X102275444Y-117935796D01*
X102314940Y-118004205D01*
X102370795Y-118060060D01*
X102388012Y-118070000D01*
X101585138Y-118070000D01*
X101593430Y-118111690D01*
X101593430Y-118111692D01*
X101668807Y-118293671D01*
X101668814Y-118293684D01*
X101778248Y-118457462D01*
X101778251Y-118457466D01*
X101917533Y-118596748D01*
X101917537Y-118596751D01*
X102081315Y-118706185D01*
X102081328Y-118706192D01*
X102263306Y-118781569D01*
X102263318Y-118781572D01*
X102456504Y-118819999D01*
X102456508Y-118820000D01*
X102855000Y-118820000D01*
X102855000Y-118120000D01*
X103355000Y-118120000D01*
X103355000Y-118820000D01*
X103753492Y-118820000D01*
X103753495Y-118819999D01*
X103946681Y-118781572D01*
X103946693Y-118781569D01*
X104128671Y-118706192D01*
X104128684Y-118706185D01*
X104292462Y-118596751D01*
X104292466Y-118596748D01*
X104431748Y-118457466D01*
X104431751Y-118457462D01*
X104541185Y-118293684D01*
X104541192Y-118293671D01*
X104616569Y-118111692D01*
X104616569Y-118111690D01*
X104624862Y-118070000D01*
X103821988Y-118070000D01*
X103839205Y-118060060D01*
X103895060Y-118004205D01*
X103934556Y-117935796D01*
X103955000Y-117859496D01*
X103955000Y-117780504D01*
X103934556Y-117704204D01*
X103895060Y-117635795D01*
X103839205Y-117579940D01*
X103821988Y-117570000D01*
X104624862Y-117570000D01*
X104616569Y-117528309D01*
X104616569Y-117528307D01*
X104541192Y-117346328D01*
X104541185Y-117346315D01*
X104431751Y-117182537D01*
X104431748Y-117182533D01*
X104292466Y-117043251D01*
X104292462Y-117043248D01*
X104128684Y-116933814D01*
X104128671Y-116933807D01*
X103946693Y-116858430D01*
X103946681Y-116858427D01*
X103753495Y-116820000D01*
X103355000Y-116820000D01*
X103355000Y-117520000D01*
X102855000Y-117520000D01*
X102855000Y-116981784D01*
X102874685Y-116914745D01*
X102917000Y-116874397D01*
X102958365Y-116850515D01*
X103065515Y-116743365D01*
X103066372Y-116741879D01*
X103086721Y-116706637D01*
X103141279Y-116612138D01*
X103141281Y-116612135D01*
X103180500Y-116465766D01*
X103180500Y-116314234D01*
X103141281Y-116167865D01*
X103065515Y-116036635D01*
X102958365Y-115929485D01*
X102856237Y-115870521D01*
X102827136Y-115853719D01*
X102753950Y-115834109D01*
X102680766Y-115814500D01*
X102529234Y-115814500D01*
X102382863Y-115853719D01*
X102251635Y-115929485D01*
X102251632Y-115929487D01*
X102144487Y-116036632D01*
X102144485Y-116036635D01*
X102068719Y-116167863D01*
X102041574Y-116269172D01*
X102029500Y-116314234D01*
X102029500Y-116465766D01*
X102036128Y-116490501D01*
X102068719Y-116612136D01*
X102096201Y-116659735D01*
X102144485Y-116743365D01*
X102144486Y-116743366D01*
X102148549Y-116750403D01*
X102146346Y-116751674D01*
X102166959Y-116804983D01*
X102152923Y-116873428D01*
X102104112Y-116923420D01*
X102090845Y-116929866D01*
X102081324Y-116933809D01*
X102081315Y-116933814D01*
X101917537Y-117043248D01*
X101917533Y-117043251D01*
X101778251Y-117182533D01*
X101778248Y-117182537D01*
X101668814Y-117346315D01*
X101668807Y-117346328D01*
X101593430Y-117528307D01*
X101593430Y-117528309D01*
X101585138Y-117570000D01*
X100294862Y-117570000D01*
X100286569Y-117528309D01*
X100286569Y-117528307D01*
X100211192Y-117346328D01*
X100211185Y-117346315D01*
X100101751Y-117182537D01*
X100101748Y-117182533D01*
X99962466Y-117043251D01*
X99962462Y-117043248D01*
X99798684Y-116933814D01*
X99798671Y-116933807D01*
X99616693Y-116858430D01*
X99616681Y-116858427D01*
X99423495Y-116820000D01*
X99175000Y-116820000D01*
X99175000Y-117520000D01*
X98675000Y-117520000D01*
X98675000Y-116820000D01*
X98426504Y-116820000D01*
X98233318Y-116858427D01*
X98233306Y-116858430D01*
X98051328Y-116933807D01*
X98051315Y-116933814D01*
X97887537Y-117043248D01*
X97887533Y-117043251D01*
X97748251Y-117182533D01*
X97748248Y-117182537D01*
X97638814Y-117346315D01*
X97638807Y-117346328D01*
X97563430Y-117528307D01*
X97563430Y-117528309D01*
X97555138Y-117570000D01*
X97000500Y-117570000D01*
X97000500Y-112921153D01*
X101604500Y-112921153D01*
X101604500Y-113078846D01*
X101635261Y-113233489D01*
X101635264Y-113233501D01*
X101695602Y-113379172D01*
X101695609Y-113379185D01*
X101783210Y-113510288D01*
X101783213Y-113510292D01*
X101894707Y-113621786D01*
X101894711Y-113621789D01*
X102025814Y-113709390D01*
X102025827Y-113709397D01*
X102116101Y-113746789D01*
X102171503Y-113769737D01*
X102236147Y-113782595D01*
X102326849Y-113800638D01*
X102388760Y-113833023D01*
X102390339Y-113834574D01*
X102670139Y-114114374D01*
X102670149Y-114114385D01*
X102674479Y-114118715D01*
X102674480Y-114118716D01*
X102786284Y-114230520D01*
X102853244Y-114269179D01*
X102923215Y-114309577D01*
X103075943Y-114350500D01*
X105920234Y-114350500D01*
X105987273Y-114370185D01*
X105989125Y-114371398D01*
X106120814Y-114459390D01*
X106120827Y-114459397D01*
X106266498Y-114519735D01*
X106266503Y-114519737D01*
X106421153Y-114550499D01*
X106421156Y-114550500D01*
X106421158Y-114550500D01*
X106578844Y-114550500D01*
X106578845Y-114550499D01*
X106733497Y-114519737D01*
X106879179Y-114459394D01*
X107010289Y-114371789D01*
X107121789Y-114260289D01*
X107209394Y-114129179D01*
X107269737Y-113983497D01*
X107300500Y-113828842D01*
X107300500Y-113671158D01*
X107300500Y-113671155D01*
X107300499Y-113671153D01*
X107290679Y-113621786D01*
X107269737Y-113516503D01*
X107269735Y-113516498D01*
X107209397Y-113370827D01*
X107209390Y-113370814D01*
X107121789Y-113239711D01*
X107121786Y-113239707D01*
X107010292Y-113128213D01*
X107010288Y-113128210D01*
X106887482Y-113046153D01*
X108574500Y-113046153D01*
X108574500Y-113203846D01*
X108605261Y-113358489D01*
X108605264Y-113358501D01*
X108665602Y-113504172D01*
X108665609Y-113504185D01*
X108753210Y-113635288D01*
X108753213Y-113635292D01*
X108864707Y-113746786D01*
X108864711Y-113746789D01*
X108995814Y-113834390D01*
X108995827Y-113834397D01*
X109141498Y-113894735D01*
X109141503Y-113894737D01*
X109206147Y-113907595D01*
X109296849Y-113925638D01*
X109358760Y-113958023D01*
X109360339Y-113959574D01*
X109515139Y-114114374D01*
X109515149Y-114114385D01*
X109519479Y-114118715D01*
X109519480Y-114118716D01*
X109631284Y-114230520D01*
X109631286Y-114230521D01*
X109631290Y-114230524D01*
X109768209Y-114309573D01*
X109768216Y-114309577D01*
X109880019Y-114339534D01*
X109920942Y-114350500D01*
X109920943Y-114350500D01*
X133028702Y-114350500D01*
X133095741Y-114370185D01*
X133124555Y-114395834D01*
X133128216Y-114400295D01*
X133239707Y-114511786D01*
X133239711Y-114511789D01*
X133370814Y-114599390D01*
X133370827Y-114599397D01*
X133508683Y-114656498D01*
X133516503Y-114659737D01*
X133671153Y-114690499D01*
X133671156Y-114690500D01*
X133671158Y-114690500D01*
X133828844Y-114690500D01*
X133828845Y-114690499D01*
X133874831Y-114681352D01*
X133989472Y-114658549D01*
X133989847Y-114660436D01*
X134050792Y-114659886D01*
X134109908Y-114697129D01*
X134139506Y-114760420D01*
X134138550Y-114803362D01*
X134137000Y-114811155D01*
X134137000Y-114968846D01*
X134167761Y-115123489D01*
X134167764Y-115123501D01*
X134228102Y-115269172D01*
X134228109Y-115269185D01*
X134316101Y-115400873D01*
X134334967Y-115461124D01*
X134335938Y-115460997D01*
X134336671Y-115466568D01*
X134336979Y-115467550D01*
X134336992Y-115469002D01*
X134336998Y-115469054D01*
X134336999Y-115469057D01*
X134377923Y-115621785D01*
X134397968Y-115656503D01*
X134456980Y-115758716D01*
X134568784Y-115870520D01*
X134568785Y-115870521D01*
X135068784Y-116370520D01*
X135068786Y-116370521D01*
X135068790Y-116370524D01*
X135205709Y-116449573D01*
X135205716Y-116449577D01*
X135358443Y-116490501D01*
X135358445Y-116490501D01*
X135524154Y-116490501D01*
X135524170Y-116490500D01*
X146107734Y-116490500D01*
X146174773Y-116510185D01*
X146176625Y-116511398D01*
X146308314Y-116599390D01*
X146308327Y-116599397D01*
X146453998Y-116659735D01*
X146454003Y-116659737D01*
X146608653Y-116690499D01*
X146608656Y-116690500D01*
X146608658Y-116690500D01*
X146766344Y-116690500D01*
X146766345Y-116690499D01*
X146920997Y-116659737D01*
X147066679Y-116599394D01*
X147197789Y-116511789D01*
X147309289Y-116400289D01*
X147396894Y-116269179D01*
X147457237Y-116123497D01*
X147488000Y-115968842D01*
X147488000Y-115811158D01*
X147488000Y-115811155D01*
X147487999Y-115811153D01*
X147457237Y-115656503D01*
X147457235Y-115656498D01*
X147396897Y-115510827D01*
X147396890Y-115510814D01*
X147309289Y-115379711D01*
X147309286Y-115379707D01*
X147197792Y-115268213D01*
X147197788Y-115268210D01*
X147066685Y-115180609D01*
X147066672Y-115180602D01*
X146921001Y-115120264D01*
X146920989Y-115120261D01*
X146766345Y-115089500D01*
X146766342Y-115089500D01*
X146608658Y-115089500D01*
X146608655Y-115089500D01*
X146454010Y-115120261D01*
X146453998Y-115120264D01*
X146308327Y-115180602D01*
X146308314Y-115180609D01*
X146176625Y-115268602D01*
X146109947Y-115289480D01*
X146107734Y-115289500D01*
X135824055Y-115289500D01*
X135757016Y-115269815D01*
X135711261Y-115217011D01*
X135701317Y-115147853D01*
X135706340Y-115129588D01*
X135705469Y-115129324D01*
X135707231Y-115123509D01*
X135707237Y-115123497D01*
X135738000Y-114968842D01*
X135738000Y-114811158D01*
X135738000Y-114811155D01*
X135737999Y-114811153D01*
X135736449Y-114803362D01*
X135707237Y-114656503D01*
X135683580Y-114599390D01*
X135646897Y-114510827D01*
X135646890Y-114510814D01*
X135559289Y-114379711D01*
X135559286Y-114379707D01*
X135447792Y-114268213D01*
X135447788Y-114268210D01*
X135316685Y-114180609D01*
X135316672Y-114180602D01*
X135171001Y-114120264D01*
X135170989Y-114120261D01*
X135016345Y-114089500D01*
X135016342Y-114089500D01*
X134858658Y-114089500D01*
X134858655Y-114089500D01*
X134698028Y-114121451D01*
X134697654Y-114119571D01*
X134636664Y-114120100D01*
X134577561Y-114082836D01*
X134547987Y-114019534D01*
X134548951Y-113976627D01*
X134550500Y-113968841D01*
X134550500Y-113811155D01*
X134550499Y-113811153D01*
X134537696Y-113746789D01*
X134519737Y-113656503D01*
X134473488Y-113544846D01*
X134466019Y-113475377D01*
X134473488Y-113449941D01*
X134525854Y-113323518D01*
X134556617Y-113168863D01*
X134556617Y-113011179D01*
X134556617Y-113011176D01*
X134556616Y-113011174D01*
X134551477Y-112985339D01*
X134525854Y-112856524D01*
X134525852Y-112856519D01*
X134465514Y-112710848D01*
X134465507Y-112710835D01*
X134377906Y-112579732D01*
X134377903Y-112579728D01*
X134266409Y-112468234D01*
X134266405Y-112468231D01*
X134135302Y-112380630D01*
X134135289Y-112380623D01*
X133989618Y-112320285D01*
X133989606Y-112320282D01*
X133834962Y-112289521D01*
X133834959Y-112289521D01*
X133677275Y-112289521D01*
X133677272Y-112289521D01*
X133522627Y-112320282D01*
X133522615Y-112320285D01*
X133376944Y-112380623D01*
X133376931Y-112380630D01*
X133245828Y-112468231D01*
X133245824Y-112468234D01*
X133200880Y-112513180D01*
X133139557Y-112546666D01*
X133113198Y-112549500D01*
X112924500Y-112549500D01*
X112857461Y-112529815D01*
X112811706Y-112477011D01*
X112800500Y-112425500D01*
X112800500Y-112421155D01*
X112800499Y-112421153D01*
X112769739Y-112266511D01*
X112769738Y-112266508D01*
X112769737Y-112266503D01*
X112759937Y-112242844D01*
X112750500Y-112195396D01*
X112750500Y-107387188D01*
X112770185Y-107320149D01*
X112771403Y-107318290D01*
X112773659Y-107314914D01*
X112834002Y-107169232D01*
X112864765Y-107014577D01*
X112864765Y-106856893D01*
X112864765Y-106856890D01*
X112864764Y-106856888D01*
X112834003Y-106702245D01*
X112834002Y-106702238D01*
X112834000Y-106702233D01*
X112773662Y-106556562D01*
X112773655Y-106556549D01*
X112686054Y-106425446D01*
X112686051Y-106425442D01*
X112574557Y-106313948D01*
X112574553Y-106313945D01*
X112443450Y-106226344D01*
X112443437Y-106226337D01*
X112297766Y-106165999D01*
X112297754Y-106165996D01*
X112143110Y-106135235D01*
X112143107Y-106135235D01*
X111985423Y-106135235D01*
X111985420Y-106135235D01*
X111830775Y-106165996D01*
X111830763Y-106165999D01*
X111685092Y-106226337D01*
X111685079Y-106226344D01*
X111553976Y-106313945D01*
X111553972Y-106313948D01*
X111442478Y-106425442D01*
X111442475Y-106425446D01*
X111354874Y-106556549D01*
X111354867Y-106556562D01*
X111294528Y-106702235D01*
X111294526Y-106702241D01*
X111280986Y-106770312D01*
X111278547Y-106780055D01*
X111249500Y-106926079D01*
X111249500Y-112195396D01*
X111240062Y-112242844D01*
X111230263Y-112266503D01*
X111230262Y-112266506D01*
X111230260Y-112266511D01*
X111199500Y-112421153D01*
X111199500Y-112425500D01*
X111179815Y-112492539D01*
X111127011Y-112538294D01*
X111075500Y-112549500D01*
X111004031Y-112549500D01*
X110936992Y-112529815D01*
X110935140Y-112528602D01*
X110803450Y-112440609D01*
X110803437Y-112440602D01*
X110657766Y-112380264D01*
X110657754Y-112380261D01*
X110503110Y-112349500D01*
X110503107Y-112349500D01*
X110345423Y-112349500D01*
X110345420Y-112349500D01*
X110190775Y-112380261D01*
X110190763Y-112380264D01*
X110045092Y-112440602D01*
X110045076Y-112440611D01*
X109987228Y-112479263D01*
X109920550Y-112500140D01*
X109853170Y-112481654D01*
X109849448Y-112479262D01*
X109754185Y-112415609D01*
X109754172Y-112415602D01*
X109608501Y-112355264D01*
X109608489Y-112355261D01*
X109453845Y-112324500D01*
X109453842Y-112324500D01*
X109296158Y-112324500D01*
X109296155Y-112324500D01*
X109141510Y-112355261D01*
X109141498Y-112355264D01*
X108995827Y-112415602D01*
X108995814Y-112415609D01*
X108864711Y-112503210D01*
X108864707Y-112503213D01*
X108753213Y-112614707D01*
X108753210Y-112614711D01*
X108665609Y-112745814D01*
X108665602Y-112745827D01*
X108605264Y-112891498D01*
X108605261Y-112891510D01*
X108574500Y-113046153D01*
X106887482Y-113046153D01*
X106879185Y-113040609D01*
X106879172Y-113040602D01*
X106733501Y-112980264D01*
X106733489Y-112980261D01*
X106578845Y-112949500D01*
X106578842Y-112949500D01*
X106421158Y-112949500D01*
X106421155Y-112949500D01*
X106266510Y-112980261D01*
X106266498Y-112980264D01*
X106120827Y-113040602D01*
X106120814Y-113040609D01*
X105989125Y-113128602D01*
X105922447Y-113149480D01*
X105920234Y-113149500D01*
X103455097Y-113149500D01*
X103388058Y-113129815D01*
X103367416Y-113113181D01*
X103239574Y-112985339D01*
X103206089Y-112924016D01*
X103205638Y-112921849D01*
X103174738Y-112766510D01*
X103174737Y-112766503D01*
X103166170Y-112745821D01*
X103114397Y-112620827D01*
X103114390Y-112620814D01*
X103026789Y-112489711D01*
X103026786Y-112489707D01*
X102915292Y-112378213D01*
X102915288Y-112378210D01*
X102784185Y-112290609D01*
X102784172Y-112290602D01*
X102638501Y-112230264D01*
X102638489Y-112230261D01*
X102483845Y-112199500D01*
X102483842Y-112199500D01*
X102326158Y-112199500D01*
X102326155Y-112199500D01*
X102171510Y-112230261D01*
X102171498Y-112230264D01*
X102025827Y-112290602D01*
X102025814Y-112290609D01*
X101894711Y-112378210D01*
X101894707Y-112378213D01*
X101783213Y-112489707D01*
X101783210Y-112489711D01*
X101695609Y-112620814D01*
X101695602Y-112620827D01*
X101635264Y-112766498D01*
X101635261Y-112766510D01*
X101604500Y-112921153D01*
X97000500Y-112921153D01*
X97000500Y-108930000D01*
X97555138Y-108930000D01*
X98358012Y-108930000D01*
X98340795Y-108939940D01*
X98284940Y-108995795D01*
X98245444Y-109064204D01*
X98225000Y-109140504D01*
X98225000Y-109219496D01*
X98245444Y-109295796D01*
X98284940Y-109364205D01*
X98340795Y-109420060D01*
X98358012Y-109430000D01*
X97555138Y-109430000D01*
X97563430Y-109471690D01*
X97563430Y-109471692D01*
X97638807Y-109653671D01*
X97638814Y-109653684D01*
X97748248Y-109817462D01*
X97748251Y-109817466D01*
X97887533Y-109956748D01*
X97887537Y-109956751D01*
X98051315Y-110066185D01*
X98051328Y-110066192D01*
X98233306Y-110141569D01*
X98233318Y-110141572D01*
X98426504Y-110179999D01*
X98426508Y-110180000D01*
X98675000Y-110180000D01*
X98675000Y-109480000D01*
X99175000Y-109480000D01*
X99175000Y-110180000D01*
X99423492Y-110180000D01*
X99423495Y-110179999D01*
X99616681Y-110141572D01*
X99616693Y-110141569D01*
X99798671Y-110066192D01*
X99798684Y-110066185D01*
X99962462Y-109956751D01*
X99962466Y-109956748D01*
X100101748Y-109817466D01*
X100101751Y-109817462D01*
X100211185Y-109653684D01*
X100211192Y-109653671D01*
X100286569Y-109471692D01*
X100286569Y-109471690D01*
X100294862Y-109430000D01*
X99491988Y-109430000D01*
X99509205Y-109420060D01*
X99565060Y-109364205D01*
X99604556Y-109295796D01*
X99625000Y-109219496D01*
X99625000Y-109140504D01*
X99604556Y-109064204D01*
X99565060Y-108995795D01*
X99509205Y-108939940D01*
X99491988Y-108930000D01*
X100294862Y-108930000D01*
X101585138Y-108930000D01*
X102388012Y-108930000D01*
X102370795Y-108939940D01*
X102314940Y-108995795D01*
X102275444Y-109064204D01*
X102255000Y-109140504D01*
X102255000Y-109219496D01*
X102275444Y-109295796D01*
X102314940Y-109364205D01*
X102370795Y-109420060D01*
X102388012Y-109430000D01*
X101585138Y-109430000D01*
X101593430Y-109471690D01*
X101593430Y-109471692D01*
X101668807Y-109653671D01*
X101668814Y-109653684D01*
X101778248Y-109817462D01*
X101778251Y-109817466D01*
X101917533Y-109956748D01*
X101917537Y-109956751D01*
X102081315Y-110066185D01*
X102081328Y-110066192D01*
X102090838Y-110070131D01*
X102145243Y-110113970D01*
X102167310Y-110180264D01*
X102150033Y-110247963D01*
X102146350Y-110253405D01*
X102068719Y-110387863D01*
X102029500Y-110534234D01*
X102029500Y-110685765D01*
X102068719Y-110832136D01*
X102106602Y-110897750D01*
X102144485Y-110963365D01*
X102251635Y-111070515D01*
X102382865Y-111146281D01*
X102529234Y-111185500D01*
X102529236Y-111185500D01*
X102680764Y-111185500D01*
X102680766Y-111185500D01*
X102827135Y-111146281D01*
X102958365Y-111070515D01*
X103065515Y-110963365D01*
X103141281Y-110832135D01*
X103180500Y-110685766D01*
X103180500Y-110534234D01*
X103141281Y-110387865D01*
X103065515Y-110256635D01*
X102958365Y-110149485D01*
X102944654Y-110141569D01*
X102916998Y-110125601D01*
X102868784Y-110075033D01*
X102855000Y-110018215D01*
X102855000Y-109480000D01*
X103355000Y-109480000D01*
X103355000Y-110180000D01*
X103753492Y-110180000D01*
X103753495Y-110179999D01*
X103946681Y-110141572D01*
X103946693Y-110141569D01*
X104128671Y-110066192D01*
X104128684Y-110066185D01*
X104292462Y-109956751D01*
X104292466Y-109956748D01*
X104431748Y-109817466D01*
X104431751Y-109817462D01*
X104541185Y-109653684D01*
X104541192Y-109653671D01*
X104616569Y-109471692D01*
X104616569Y-109471690D01*
X104624862Y-109430000D01*
X103821988Y-109430000D01*
X103839205Y-109420060D01*
X103895060Y-109364205D01*
X103934556Y-109295796D01*
X103955000Y-109219496D01*
X103955000Y-109140504D01*
X103934556Y-109064204D01*
X103895060Y-108995795D01*
X103839205Y-108939940D01*
X103821988Y-108930000D01*
X104624862Y-108930000D01*
X104616569Y-108888309D01*
X104616569Y-108888307D01*
X104541192Y-108706328D01*
X104541185Y-108706315D01*
X104431751Y-108542537D01*
X104431748Y-108542533D01*
X104292466Y-108403251D01*
X104292462Y-108403248D01*
X104128684Y-108293814D01*
X104128671Y-108293807D01*
X103946693Y-108218430D01*
X103946681Y-108218427D01*
X103753495Y-108180000D01*
X103355000Y-108180000D01*
X103355000Y-108880000D01*
X102855000Y-108880000D01*
X102855000Y-108180000D01*
X102456504Y-108180000D01*
X102263318Y-108218427D01*
X102263306Y-108218430D01*
X102081328Y-108293807D01*
X102081315Y-108293814D01*
X101917537Y-108403248D01*
X101917533Y-108403251D01*
X101778251Y-108542533D01*
X101778248Y-108542537D01*
X101668814Y-108706315D01*
X101668807Y-108706328D01*
X101593430Y-108888307D01*
X101593430Y-108888309D01*
X101585138Y-108930000D01*
X100294862Y-108930000D01*
X100286569Y-108888309D01*
X100286569Y-108888307D01*
X100211192Y-108706328D01*
X100211185Y-108706315D01*
X100101751Y-108542537D01*
X100101748Y-108542533D01*
X99962466Y-108403251D01*
X99962462Y-108403248D01*
X99798684Y-108293814D01*
X99798671Y-108293807D01*
X99616693Y-108218430D01*
X99616681Y-108218427D01*
X99423495Y-108180000D01*
X99175000Y-108180000D01*
X99175000Y-108880000D01*
X98675000Y-108880000D01*
X98675000Y-108180000D01*
X98426504Y-108180000D01*
X98233318Y-108218427D01*
X98233306Y-108218430D01*
X98051328Y-108293807D01*
X98051315Y-108293814D01*
X97887537Y-108403248D01*
X97887533Y-108403251D01*
X97748251Y-108542533D01*
X97748248Y-108542537D01*
X97638814Y-108706315D01*
X97638807Y-108706328D01*
X97563430Y-108888307D01*
X97563430Y-108888309D01*
X97555138Y-108930000D01*
X97000500Y-108930000D01*
X97000500Y-105671153D01*
X109449500Y-105671153D01*
X109449500Y-105828846D01*
X109480261Y-105983489D01*
X109480264Y-105983501D01*
X109540602Y-106129172D01*
X109540609Y-106129185D01*
X109628210Y-106260288D01*
X109628213Y-106260292D01*
X109739707Y-106371786D01*
X109739711Y-106371789D01*
X109870814Y-106459390D01*
X109870827Y-106459397D01*
X110013104Y-106518329D01*
X110016503Y-106519737D01*
X110151456Y-106546581D01*
X110171153Y-106550499D01*
X110171156Y-106550500D01*
X110171158Y-106550500D01*
X110328844Y-106550500D01*
X110328845Y-106550499D01*
X110483497Y-106519737D01*
X110629179Y-106459394D01*
X110760289Y-106371789D01*
X110871789Y-106260289D01*
X110959394Y-106129179D01*
X111019737Y-105983497D01*
X111050500Y-105828842D01*
X111050500Y-105671158D01*
X111050500Y-105671155D01*
X111050499Y-105671153D01*
X111048228Y-105659735D01*
X111019737Y-105516503D01*
X111017783Y-105511786D01*
X110959397Y-105370827D01*
X110959390Y-105370814D01*
X110871398Y-105239125D01*
X110850520Y-105172447D01*
X110850500Y-105170234D01*
X110850500Y-102511153D01*
X114449500Y-102511153D01*
X114449500Y-102668846D01*
X114480261Y-102823489D01*
X114480264Y-102823501D01*
X114540602Y-102969172D01*
X114540609Y-102969185D01*
X114628210Y-103100288D01*
X114628213Y-103100292D01*
X114739707Y-103211786D01*
X114739711Y-103211789D01*
X114870814Y-103299390D01*
X114870827Y-103299397D01*
X115013857Y-103358641D01*
X115016503Y-103359737D01*
X115171153Y-103390499D01*
X115171156Y-103390500D01*
X115171158Y-103390500D01*
X115328844Y-103390500D01*
X115328845Y-103390499D01*
X115483497Y-103359737D01*
X115483509Y-103359731D01*
X115489324Y-103357969D01*
X115489528Y-103358641D01*
X115530462Y-103350500D01*
X126949903Y-103350500D01*
X127016942Y-103370185D01*
X127037583Y-103386818D01*
X132381284Y-108730520D01*
X132381286Y-108730521D01*
X132381290Y-108730524D01*
X132473610Y-108783824D01*
X132518216Y-108809577D01*
X132670943Y-108850501D01*
X132670945Y-108850501D01*
X132836654Y-108850501D01*
X132836670Y-108850500D01*
X133420234Y-108850500D01*
X133487273Y-108870185D01*
X133489125Y-108871398D01*
X133620814Y-108959390D01*
X133620827Y-108959397D01*
X133708701Y-108995795D01*
X133766503Y-109019737D01*
X133921153Y-109050499D01*
X133921156Y-109050500D01*
X133921158Y-109050500D01*
X134078844Y-109050500D01*
X134078845Y-109050499D01*
X134233497Y-109019737D01*
X134379179Y-108959394D01*
X134510289Y-108871789D01*
X134621789Y-108760289D01*
X134709394Y-108629179D01*
X134769737Y-108483497D01*
X134800500Y-108328842D01*
X134800500Y-108171158D01*
X134800500Y-108171155D01*
X134800499Y-108171153D01*
X134769738Y-108016510D01*
X134769737Y-108016503D01*
X134769735Y-108016498D01*
X134709397Y-107870827D01*
X134709390Y-107870814D01*
X134621789Y-107739711D01*
X134621786Y-107739707D01*
X134510292Y-107628213D01*
X134510288Y-107628210D01*
X134379185Y-107540609D01*
X134379172Y-107540602D01*
X134233501Y-107480264D01*
X134233489Y-107480261D01*
X134078845Y-107449500D01*
X134078842Y-107449500D01*
X133921158Y-107449500D01*
X133921155Y-107449500D01*
X133766510Y-107480261D01*
X133766498Y-107480264D01*
X133620827Y-107540602D01*
X133620814Y-107540609D01*
X133489125Y-107628602D01*
X133422447Y-107649480D01*
X133420234Y-107649500D01*
X133050098Y-107649500D01*
X132983059Y-107629815D01*
X132962417Y-107613181D01*
X131609524Y-106260288D01*
X130160389Y-104811153D01*
X138137000Y-104811153D01*
X138137000Y-104968846D01*
X138167761Y-105123489D01*
X138167764Y-105123501D01*
X138228102Y-105269172D01*
X138228109Y-105269185D01*
X138315710Y-105400288D01*
X138315713Y-105400292D01*
X138427207Y-105511786D01*
X138427211Y-105511789D01*
X138558314Y-105599390D01*
X138558327Y-105599397D01*
X138703998Y-105659735D01*
X138704003Y-105659737D01*
X138858653Y-105690499D01*
X138858656Y-105690500D01*
X138858658Y-105690500D01*
X139016344Y-105690500D01*
X139016345Y-105690499D01*
X139170997Y-105659737D01*
X139316679Y-105599394D01*
X139440724Y-105516510D01*
X139448375Y-105511398D01*
X139515053Y-105490520D01*
X139517266Y-105490500D01*
X140700945Y-105490500D01*
X140767984Y-105510185D01*
X140813739Y-105562989D01*
X140823683Y-105632147D01*
X140818659Y-105650411D01*
X140819531Y-105650676D01*
X140817761Y-105656510D01*
X140787000Y-105811153D01*
X140787000Y-105968846D01*
X140817761Y-106123489D01*
X140817764Y-106123501D01*
X140878102Y-106269172D01*
X140878109Y-106269185D01*
X140965709Y-106400287D01*
X140965710Y-106400288D01*
X140965711Y-106400289D01*
X141050682Y-106485260D01*
X141084166Y-106546581D01*
X141087000Y-106572940D01*
X141087000Y-107755746D01*
X141082775Y-107787838D01*
X141072234Y-107827177D01*
X141072234Y-107995282D01*
X141072235Y-107995295D01*
X141072235Y-108618097D01*
X141072234Y-108618115D01*
X141072234Y-108625710D01*
X141072234Y-108783824D01*
X141079135Y-108809577D01*
X141082775Y-108823162D01*
X141087000Y-108855256D01*
X141087000Y-110303330D01*
X141086999Y-110303348D01*
X141086999Y-110469054D01*
X141086998Y-110469054D01*
X141086999Y-110469057D01*
X141127923Y-110621785D01*
X141128511Y-110622803D01*
X141156292Y-110670921D01*
X141156294Y-110670929D01*
X141156296Y-110670929D01*
X141160073Y-110677472D01*
X141171939Y-110708994D01*
X141172414Y-110708851D01*
X141174182Y-110714681D01*
X141234520Y-110860352D01*
X141234527Y-110860365D01*
X141322128Y-110991468D01*
X141322131Y-110991472D01*
X141433625Y-111102966D01*
X141433629Y-111102969D01*
X141564732Y-111190570D01*
X141564745Y-111190577D01*
X141710416Y-111250915D01*
X141710421Y-111250917D01*
X141865071Y-111281679D01*
X141865074Y-111281680D01*
X141865076Y-111281680D01*
X142022762Y-111281680D01*
X142022763Y-111281679D01*
X142177415Y-111250917D01*
X142323097Y-111190574D01*
X142331974Y-111184642D01*
X142398648Y-111163761D01*
X142466029Y-111182242D01*
X142479131Y-111192608D01*
X142479638Y-111191992D01*
X142484348Y-111195857D01*
X142615451Y-111283458D01*
X142615464Y-111283465D01*
X142761135Y-111343803D01*
X142761140Y-111343805D01*
X142915790Y-111374567D01*
X142915793Y-111374568D01*
X142915795Y-111374568D01*
X143073481Y-111374568D01*
X143073482Y-111374567D01*
X143228134Y-111343805D01*
X143373816Y-111283462D01*
X143504926Y-111195857D01*
X143616426Y-111084357D01*
X143704031Y-110953247D01*
X143764374Y-110807565D01*
X143786726Y-110695193D01*
X143795275Y-110652218D01*
X143827660Y-110590307D01*
X143829162Y-110588777D01*
X144046006Y-110371932D01*
X144046011Y-110371929D01*
X144056214Y-110361725D01*
X144056216Y-110361725D01*
X144168020Y-110249921D01*
X144226006Y-110149485D01*
X144247077Y-110112990D01*
X144288000Y-109960263D01*
X144288000Y-109802148D01*
X144288000Y-106469765D01*
X144307685Y-106402726D01*
X144308898Y-106400874D01*
X144396890Y-106269185D01*
X144396890Y-106269184D01*
X144396894Y-106269179D01*
X144457237Y-106123497D01*
X144488000Y-105968842D01*
X144488000Y-105811158D01*
X144488000Y-105811155D01*
X144487999Y-105811153D01*
X144457880Y-105659735D01*
X144457237Y-105656503D01*
X144454714Y-105650411D01*
X144396897Y-105510827D01*
X144396890Y-105510814D01*
X144309289Y-105379711D01*
X144309286Y-105379707D01*
X144197792Y-105268213D01*
X144197788Y-105268210D01*
X144066685Y-105180609D01*
X144066672Y-105180602D01*
X143921001Y-105120264D01*
X143920989Y-105120261D01*
X143766345Y-105089500D01*
X143766342Y-105089500D01*
X143608658Y-105089500D01*
X143608655Y-105089500D01*
X143454010Y-105120261D01*
X143453998Y-105120264D01*
X143308327Y-105180602D01*
X143308314Y-105180609D01*
X143177211Y-105268210D01*
X143177207Y-105268213D01*
X143065713Y-105379707D01*
X143065710Y-105379711D01*
X142978109Y-105510814D01*
X142978102Y-105510827D01*
X142917764Y-105656498D01*
X142917761Y-105656510D01*
X142887000Y-105811153D01*
X142887000Y-105968846D01*
X142917761Y-106123489D01*
X142917764Y-106123501D01*
X142978102Y-106269172D01*
X142978109Y-106269185D01*
X143066102Y-106400874D01*
X143086980Y-106467551D01*
X143087000Y-106469765D01*
X143087000Y-107839062D01*
X143067315Y-107906101D01*
X143014511Y-107951856D01*
X142945353Y-107961800D01*
X142881797Y-107932775D01*
X142875319Y-107926743D01*
X142783027Y-107834451D01*
X142783023Y-107834448D01*
X142651920Y-107746847D01*
X142651907Y-107746840D01*
X142506236Y-107686502D01*
X142506226Y-107686499D01*
X142387808Y-107662944D01*
X142325897Y-107630559D01*
X142291323Y-107569843D01*
X142288000Y-107541327D01*
X142288000Y-106315316D01*
X142297439Y-106267864D01*
X142339632Y-106165999D01*
X142357237Y-106123497D01*
X142388000Y-105968842D01*
X142388000Y-105811158D01*
X142388000Y-105811155D01*
X142387999Y-105811153D01*
X142357239Y-105656511D01*
X142357236Y-105656501D01*
X142354713Y-105650411D01*
X142329145Y-105588684D01*
X142321677Y-105519216D01*
X142352952Y-105456737D01*
X142356027Y-105453551D01*
X142409286Y-105400292D01*
X142409289Y-105400289D01*
X142496894Y-105269179D01*
X142557237Y-105123497D01*
X142588000Y-104968842D01*
X142588000Y-104811158D01*
X142588000Y-104811155D01*
X142587999Y-104811153D01*
X142557238Y-104656510D01*
X142557237Y-104656503D01*
X142557235Y-104656498D01*
X142496897Y-104510827D01*
X142496890Y-104510814D01*
X142409289Y-104379711D01*
X142409286Y-104379707D01*
X142297792Y-104268213D01*
X142297788Y-104268210D01*
X142166685Y-104180609D01*
X142166672Y-104180602D01*
X142021001Y-104120264D01*
X142020989Y-104120261D01*
X141866345Y-104089500D01*
X141866342Y-104089500D01*
X141708658Y-104089500D01*
X141708655Y-104089500D01*
X141554010Y-104120261D01*
X141553998Y-104120264D01*
X141408327Y-104180602D01*
X141408314Y-104180609D01*
X141276625Y-104268602D01*
X141209947Y-104289480D01*
X141207734Y-104289500D01*
X139517266Y-104289500D01*
X139450227Y-104269815D01*
X139448375Y-104268602D01*
X139316685Y-104180609D01*
X139316672Y-104180602D01*
X139171001Y-104120264D01*
X139170989Y-104120261D01*
X139016345Y-104089500D01*
X139016342Y-104089500D01*
X138858658Y-104089500D01*
X138858655Y-104089500D01*
X138704010Y-104120261D01*
X138703998Y-104120264D01*
X138558327Y-104180602D01*
X138558314Y-104180609D01*
X138427211Y-104268210D01*
X138427207Y-104268213D01*
X138315713Y-104379707D01*
X138315710Y-104379711D01*
X138228109Y-104510814D01*
X138228102Y-104510827D01*
X138167764Y-104656498D01*
X138167761Y-104656510D01*
X138137000Y-104811153D01*
X130160389Y-104811153D01*
X127737589Y-102388354D01*
X127737588Y-102388352D01*
X127618717Y-102269481D01*
X127618709Y-102269475D01*
X127517116Y-102210821D01*
X127517113Y-102210820D01*
X127481786Y-102190423D01*
X127481787Y-102190423D01*
X127420693Y-102174053D01*
X127329057Y-102149499D01*
X127170943Y-102149499D01*
X127163347Y-102149499D01*
X127163331Y-102149500D01*
X115984700Y-102149500D01*
X115917661Y-102129815D01*
X115881597Y-102094390D01*
X115871787Y-102079708D01*
X115760292Y-101968213D01*
X115760288Y-101968210D01*
X115629185Y-101880609D01*
X115629172Y-101880602D01*
X115483501Y-101820264D01*
X115483489Y-101820261D01*
X115328845Y-101789500D01*
X115328842Y-101789500D01*
X115171158Y-101789500D01*
X115171155Y-101789500D01*
X115016510Y-101820261D01*
X115016498Y-101820264D01*
X114870827Y-101880602D01*
X114870814Y-101880609D01*
X114739711Y-101968210D01*
X114739707Y-101968213D01*
X114628213Y-102079707D01*
X114628210Y-102079711D01*
X114540609Y-102210814D01*
X114540602Y-102210827D01*
X114480264Y-102356498D01*
X114480261Y-102356510D01*
X114449500Y-102511153D01*
X110850500Y-102511153D01*
X110850500Y-101071153D01*
X135449500Y-101071153D01*
X135449500Y-101228846D01*
X135480261Y-101383489D01*
X135480263Y-101383497D01*
X135490061Y-101407151D01*
X135499500Y-101454604D01*
X135499500Y-102695396D01*
X135490062Y-102742844D01*
X135480263Y-102766503D01*
X135480262Y-102766506D01*
X135480260Y-102766511D01*
X135449500Y-102921153D01*
X135449500Y-103078846D01*
X135480261Y-103233489D01*
X135480264Y-103233501D01*
X135540602Y-103379172D01*
X135540609Y-103379185D01*
X135628210Y-103510288D01*
X135628213Y-103510292D01*
X135739707Y-103621786D01*
X135739711Y-103621789D01*
X135870814Y-103709390D01*
X135870827Y-103709397D01*
X136016498Y-103769735D01*
X136016503Y-103769737D01*
X136171153Y-103800499D01*
X136171156Y-103800500D01*
X136171158Y-103800500D01*
X136328844Y-103800500D01*
X136328845Y-103800499D01*
X136483497Y-103769737D01*
X136629179Y-103709394D01*
X136760289Y-103621789D01*
X136871789Y-103510289D01*
X136959394Y-103379179D01*
X137019737Y-103233497D01*
X137050500Y-103078842D01*
X137050500Y-102921158D01*
X137050500Y-102921155D01*
X137050499Y-102921153D01*
X137019739Y-102766511D01*
X137019738Y-102766508D01*
X137019737Y-102766503D01*
X137009937Y-102742844D01*
X137000500Y-102695396D01*
X137000500Y-101454604D01*
X137009939Y-101407151D01*
X137019737Y-101383497D01*
X137050500Y-101228842D01*
X137050500Y-101071158D01*
X137050500Y-101071155D01*
X137050499Y-101071153D01*
X137019738Y-100916510D01*
X137019737Y-100916503D01*
X136979991Y-100820547D01*
X136959397Y-100770827D01*
X136959390Y-100770814D01*
X136871789Y-100639711D01*
X136871786Y-100639707D01*
X136760292Y-100528213D01*
X136760288Y-100528210D01*
X136629185Y-100440609D01*
X136629172Y-100440602D01*
X136483501Y-100380264D01*
X136483489Y-100380261D01*
X136328845Y-100349500D01*
X136328842Y-100349500D01*
X136171158Y-100349500D01*
X136171155Y-100349500D01*
X136016510Y-100380261D01*
X136016498Y-100380264D01*
X135870827Y-100440602D01*
X135870814Y-100440609D01*
X135739711Y-100528210D01*
X135739707Y-100528213D01*
X135628213Y-100639707D01*
X135628210Y-100639711D01*
X135540609Y-100770814D01*
X135540602Y-100770827D01*
X135480264Y-100916498D01*
X135480261Y-100916510D01*
X135449500Y-101071153D01*
X110850500Y-101071153D01*
X110850500Y-99550097D01*
X110870185Y-99483058D01*
X110886819Y-99462416D01*
X111178292Y-99170943D01*
X111514662Y-98834572D01*
X111575983Y-98801089D01*
X111578150Y-98800638D01*
X111636085Y-98789113D01*
X111733497Y-98769737D01*
X111879179Y-98709394D01*
X112010289Y-98621789D01*
X112121789Y-98510289D01*
X112209394Y-98379179D01*
X112269737Y-98233497D01*
X112300500Y-98078842D01*
X112300500Y-97921158D01*
X112300500Y-97921155D01*
X112300499Y-97921153D01*
X112269738Y-97766510D01*
X112269738Y-97766508D01*
X112269737Y-97766503D01*
X112269735Y-97766498D01*
X112209397Y-97620827D01*
X112209390Y-97620814D01*
X112121789Y-97489711D01*
X112121786Y-97489707D01*
X112010292Y-97378213D01*
X112010288Y-97378210D01*
X111879185Y-97290609D01*
X111879172Y-97290602D01*
X111733501Y-97230264D01*
X111733489Y-97230261D01*
X111578845Y-97199500D01*
X111578842Y-97199500D01*
X111421158Y-97199500D01*
X111421155Y-97199500D01*
X111266510Y-97230261D01*
X111266498Y-97230264D01*
X111120827Y-97290602D01*
X111120814Y-97290609D01*
X110989711Y-97378210D01*
X110989707Y-97378213D01*
X110878213Y-97489707D01*
X110878210Y-97489711D01*
X110790609Y-97620814D01*
X110790602Y-97620827D01*
X110730264Y-97766498D01*
X110730261Y-97766508D01*
X110699361Y-97921850D01*
X110666976Y-97983761D01*
X110665425Y-97985339D01*
X109769481Y-98881282D01*
X109769479Y-98881285D01*
X109719361Y-98968094D01*
X109719359Y-98968096D01*
X109690425Y-99018209D01*
X109690424Y-99018210D01*
X109690423Y-99018215D01*
X109649499Y-99170943D01*
X109649499Y-99170945D01*
X109649499Y-99339046D01*
X109649500Y-99339059D01*
X109649500Y-105170234D01*
X109629815Y-105237273D01*
X109628602Y-105239125D01*
X109540609Y-105370814D01*
X109540602Y-105370827D01*
X109480264Y-105516498D01*
X109480261Y-105516510D01*
X109449500Y-105671153D01*
X97000500Y-105671153D01*
X97000500Y-95374038D01*
X103649500Y-95374038D01*
X103649500Y-95625961D01*
X103688910Y-95874785D01*
X103766760Y-96114383D01*
X103881132Y-96338848D01*
X104029201Y-96542649D01*
X104029205Y-96542654D01*
X104207345Y-96720794D01*
X104207350Y-96720798D01*
X104385117Y-96849952D01*
X104411155Y-96868870D01*
X104554184Y-96941747D01*
X104635616Y-96983239D01*
X104635618Y-96983239D01*
X104635621Y-96983241D01*
X104875215Y-97061090D01*
X105124038Y-97100500D01*
X105124039Y-97100500D01*
X105375961Y-97100500D01*
X105375962Y-97100500D01*
X105624785Y-97061090D01*
X105864379Y-96983241D01*
X106088845Y-96868870D01*
X106292656Y-96720793D01*
X106470793Y-96542656D01*
X106618870Y-96338845D01*
X106733241Y-96114379D01*
X106811090Y-95874785D01*
X106850500Y-95625962D01*
X106850500Y-95374038D01*
X139899500Y-95374038D01*
X139899500Y-95625961D01*
X139938910Y-95874785D01*
X140016760Y-96114383D01*
X140131132Y-96338848D01*
X140279201Y-96542649D01*
X140279205Y-96542654D01*
X140457345Y-96720794D01*
X140457350Y-96720798D01*
X140635117Y-96849952D01*
X140661155Y-96868870D01*
X140804184Y-96941747D01*
X140885616Y-96983239D01*
X140885618Y-96983239D01*
X140885621Y-96983241D01*
X141125215Y-97061090D01*
X141374038Y-97100500D01*
X141374039Y-97100500D01*
X141625961Y-97100500D01*
X141625962Y-97100500D01*
X141874785Y-97061090D01*
X142114379Y-96983241D01*
X142338845Y-96868870D01*
X142542656Y-96720793D01*
X142720793Y-96542656D01*
X142868870Y-96338845D01*
X142983241Y-96114379D01*
X143061090Y-95874785D01*
X143100500Y-95625962D01*
X143100500Y-95374038D01*
X143061090Y-95125215D01*
X142983241Y-94885621D01*
X142983239Y-94885618D01*
X142983239Y-94885616D01*
X142941747Y-94804184D01*
X142868870Y-94661155D01*
X142849952Y-94635117D01*
X142720798Y-94457350D01*
X142720794Y-94457345D01*
X142542654Y-94279205D01*
X142542649Y-94279201D01*
X142338848Y-94131132D01*
X142338847Y-94131131D01*
X142338845Y-94131130D01*
X142268747Y-94095413D01*
X142114383Y-94016760D01*
X141874785Y-93938910D01*
X141625962Y-93899500D01*
X141374038Y-93899500D01*
X141249626Y-93919205D01*
X141125214Y-93938910D01*
X140885616Y-94016760D01*
X140661151Y-94131132D01*
X140457350Y-94279201D01*
X140457345Y-94279205D01*
X140279205Y-94457345D01*
X140279201Y-94457350D01*
X140131132Y-94661151D01*
X140016760Y-94885616D01*
X139938910Y-95125214D01*
X139899500Y-95374038D01*
X106850500Y-95374038D01*
X106811090Y-95125215D01*
X106733241Y-94885621D01*
X106733239Y-94885618D01*
X106733239Y-94885616D01*
X106691747Y-94804184D01*
X106618870Y-94661155D01*
X106599952Y-94635117D01*
X106470798Y-94457350D01*
X106470794Y-94457345D01*
X106292654Y-94279205D01*
X106292649Y-94279201D01*
X106088848Y-94131132D01*
X106088847Y-94131131D01*
X106088845Y-94131130D01*
X106018747Y-94095413D01*
X105864383Y-94016760D01*
X105624785Y-93938910D01*
X105375962Y-93899500D01*
X105124038Y-93899500D01*
X104999626Y-93919205D01*
X104875214Y-93938910D01*
X104635616Y-94016760D01*
X104411151Y-94131132D01*
X104207350Y-94279201D01*
X104207345Y-94279205D01*
X104029205Y-94457345D01*
X104029201Y-94457350D01*
X103881132Y-94661151D01*
X103766760Y-94885616D01*
X103688910Y-95125214D01*
X103649500Y-95374038D01*
X97000500Y-95374038D01*
X97000500Y-85921153D01*
X138949500Y-85921153D01*
X138949500Y-86078846D01*
X138980261Y-86233489D01*
X138980264Y-86233501D01*
X139040602Y-86379172D01*
X139040609Y-86379185D01*
X139128210Y-86510288D01*
X139128213Y-86510292D01*
X139239707Y-86621786D01*
X139239711Y-86621789D01*
X139370814Y-86709390D01*
X139370827Y-86709397D01*
X139516498Y-86769735D01*
X139516503Y-86769737D01*
X139581147Y-86782595D01*
X139671849Y-86800638D01*
X139733760Y-86833023D01*
X139735338Y-86834573D01*
X141631284Y-88730520D01*
X141631286Y-88730521D01*
X141631290Y-88730524D01*
X141768209Y-88809573D01*
X141768216Y-88809577D01*
X141920943Y-88850501D01*
X141920945Y-88850501D01*
X141929002Y-88851562D01*
X141928810Y-88853018D01*
X141987275Y-88870186D01*
X141989127Y-88871399D01*
X142120814Y-88959390D01*
X142120827Y-88959397D01*
X142266498Y-89019735D01*
X142266503Y-89019737D01*
X142421153Y-89050499D01*
X142421156Y-89050500D01*
X142421158Y-89050500D01*
X142578844Y-89050500D01*
X142578845Y-89050499D01*
X142733497Y-89019737D01*
X142879179Y-88959394D01*
X143010289Y-88871789D01*
X143121789Y-88760289D01*
X143209394Y-88629179D01*
X143269737Y-88483497D01*
X143300500Y-88328842D01*
X143300500Y-88171158D01*
X143300500Y-88171155D01*
X143300499Y-88171153D01*
X143269738Y-88016510D01*
X143269737Y-88016503D01*
X143269735Y-88016498D01*
X143209397Y-87870827D01*
X143209390Y-87870814D01*
X143121789Y-87739711D01*
X143121786Y-87739707D01*
X143010292Y-87628213D01*
X143010288Y-87628210D01*
X142879185Y-87540609D01*
X142879172Y-87540602D01*
X142733501Y-87480264D01*
X142733489Y-87480261D01*
X142578845Y-87449500D01*
X142578842Y-87449500D01*
X142421158Y-87449500D01*
X142421155Y-87449500D01*
X142266505Y-87480261D01*
X142266497Y-87480264D01*
X142210814Y-87503328D01*
X142141345Y-87510795D01*
X142078866Y-87479519D01*
X142075683Y-87476447D01*
X140584573Y-85985337D01*
X140551088Y-85924014D01*
X140550637Y-85921847D01*
X140519738Y-85766510D01*
X140519737Y-85766503D01*
X140519735Y-85766498D01*
X140459397Y-85620827D01*
X140459390Y-85620814D01*
X140371789Y-85489711D01*
X140371786Y-85489707D01*
X140260292Y-85378213D01*
X140260288Y-85378210D01*
X140129185Y-85290609D01*
X140129172Y-85290602D01*
X139983501Y-85230264D01*
X139983489Y-85230261D01*
X139828845Y-85199500D01*
X139828842Y-85199500D01*
X139671158Y-85199500D01*
X139671155Y-85199500D01*
X139516510Y-85230261D01*
X139516498Y-85230264D01*
X139370827Y-85290602D01*
X139370814Y-85290609D01*
X139239711Y-85378210D01*
X139239707Y-85378213D01*
X139128213Y-85489707D01*
X139128210Y-85489711D01*
X139040609Y-85620814D01*
X139040602Y-85620827D01*
X138980264Y-85766498D01*
X138980261Y-85766510D01*
X138949500Y-85921153D01*
X97000500Y-85921153D01*
X97000500Y-81283653D01*
X139699500Y-81283653D01*
X139699500Y-81441346D01*
X139730261Y-81595989D01*
X139730264Y-81596001D01*
X139790602Y-81741672D01*
X139790609Y-81741685D01*
X139878210Y-81872788D01*
X139878213Y-81872792D01*
X139989707Y-81984286D01*
X139989711Y-81984289D01*
X140120814Y-82071890D01*
X140120827Y-82071897D01*
X140220060Y-82113000D01*
X140266503Y-82132237D01*
X140421153Y-82162999D01*
X140421156Y-82163000D01*
X140421158Y-82163000D01*
X140578844Y-82163000D01*
X140578845Y-82162999D01*
X140655152Y-82147820D01*
X140733488Y-82132239D01*
X140733489Y-82132238D01*
X140733497Y-82132237D01*
X140757155Y-82122437D01*
X140804604Y-82113000D01*
X148438942Y-82113000D01*
X148505981Y-82132685D01*
X148507833Y-82133898D01*
X148620814Y-82209390D01*
X148620827Y-82209397D01*
X148766498Y-82269735D01*
X148766503Y-82269737D01*
X148921153Y-82300499D01*
X148921156Y-82300500D01*
X148921158Y-82300500D01*
X149078844Y-82300500D01*
X149078845Y-82300499D01*
X149233497Y-82269737D01*
X149379179Y-82209394D01*
X149510289Y-82121789D01*
X149621789Y-82010289D01*
X149709394Y-81879179D01*
X149769737Y-81733497D01*
X149800500Y-81578842D01*
X149800500Y-81421158D01*
X149800500Y-81421155D01*
X149800499Y-81421153D01*
X149769738Y-81266510D01*
X149769737Y-81266503D01*
X149712786Y-81129010D01*
X149709397Y-81120827D01*
X149709390Y-81120814D01*
X149621789Y-80989711D01*
X149621786Y-80989707D01*
X149510292Y-80878213D01*
X149510284Y-80878207D01*
X149379181Y-80790607D01*
X149379180Y-80790606D01*
X149333329Y-80771614D01*
X149311895Y-80760157D01*
X149267154Y-80730263D01*
X149217995Y-80697416D01*
X149217988Y-80697412D01*
X149081417Y-80640843D01*
X149081407Y-80640840D01*
X148936420Y-80612000D01*
X148936418Y-80612000D01*
X148036597Y-80612000D01*
X147969558Y-80592315D01*
X147923803Y-80539511D01*
X147913859Y-80470353D01*
X147942884Y-80406797D01*
X147948916Y-80400319D01*
X148374335Y-79974900D01*
X149733506Y-78615727D01*
X149733511Y-78615724D01*
X149743714Y-78605520D01*
X149743716Y-78605520D01*
X149855520Y-78493716D01*
X149873773Y-78462100D01*
X149907833Y-78403107D01*
X149916747Y-78387665D01*
X149934577Y-78356785D01*
X149975501Y-78204057D01*
X149975501Y-78045943D01*
X149975501Y-78038348D01*
X149975500Y-78038330D01*
X149975500Y-74829765D01*
X149995185Y-74762726D01*
X149996398Y-74760874D01*
X150084390Y-74629185D01*
X150084390Y-74629184D01*
X150084394Y-74629179D01*
X150144737Y-74483497D01*
X150175500Y-74328842D01*
X150175500Y-74171158D01*
X150175500Y-74171155D01*
X150175499Y-74171153D01*
X150144738Y-74016510D01*
X150144737Y-74016503D01*
X150144735Y-74016498D01*
X150084397Y-73870827D01*
X150084390Y-73870814D01*
X149996789Y-73739711D01*
X149996786Y-73739707D01*
X149885292Y-73628213D01*
X149885288Y-73628210D01*
X149754185Y-73540609D01*
X149754172Y-73540602D01*
X149608501Y-73480264D01*
X149608489Y-73480261D01*
X149453845Y-73449500D01*
X149453842Y-73449500D01*
X149296158Y-73449500D01*
X149296155Y-73449500D01*
X149141510Y-73480261D01*
X149141498Y-73480264D01*
X148995827Y-73540602D01*
X148995814Y-73540609D01*
X148864711Y-73628210D01*
X148864707Y-73628213D01*
X148753213Y-73739707D01*
X148753210Y-73739711D01*
X148665609Y-73870814D01*
X148665602Y-73870827D01*
X148605264Y-74016498D01*
X148605261Y-74016510D01*
X148574500Y-74171153D01*
X148574500Y-74328846D01*
X148605261Y-74483489D01*
X148605264Y-74483501D01*
X148665602Y-74629172D01*
X148665609Y-74629185D01*
X148753602Y-74760874D01*
X148774480Y-74827551D01*
X148774500Y-74829765D01*
X148774500Y-77824903D01*
X148754815Y-77891942D01*
X148738181Y-77912584D01*
X146475084Y-80175681D01*
X146413761Y-80209166D01*
X146387403Y-80212000D01*
X146112597Y-80212000D01*
X146045558Y-80192315D01*
X146024916Y-80175681D01*
X145911816Y-80062581D01*
X145878331Y-80001258D01*
X145875497Y-79974900D01*
X145875497Y-79692265D01*
X145895182Y-79625226D01*
X145896395Y-79623374D01*
X145984387Y-79491685D01*
X145984387Y-79491684D01*
X145984391Y-79491679D01*
X146044734Y-79345997D01*
X146075497Y-79191342D01*
X146075497Y-79033658D01*
X146075497Y-79033655D01*
X146075496Y-79033653D01*
X146044735Y-78879010D01*
X146044734Y-78879003D01*
X146044732Y-78878998D01*
X145984394Y-78733327D01*
X145984387Y-78733314D01*
X145896786Y-78602211D01*
X145896783Y-78602207D01*
X145785289Y-78490713D01*
X145785285Y-78490710D01*
X145654182Y-78403109D01*
X145654169Y-78403102D01*
X145508498Y-78342764D01*
X145508486Y-78342761D01*
X145353842Y-78312000D01*
X145353839Y-78312000D01*
X145196155Y-78312000D01*
X145196152Y-78312000D01*
X145041507Y-78342761D01*
X145041495Y-78342764D01*
X144895824Y-78403102D01*
X144895811Y-78403109D01*
X144764708Y-78490710D01*
X144764704Y-78490713D01*
X144653210Y-78602207D01*
X144653207Y-78602211D01*
X144565606Y-78733314D01*
X144565599Y-78733327D01*
X144505261Y-78878998D01*
X144505258Y-78879010D01*
X144474497Y-79033653D01*
X144474497Y-79191346D01*
X144505258Y-79345989D01*
X144505261Y-79346001D01*
X144565599Y-79491672D01*
X144565606Y-79491685D01*
X144653599Y-79623374D01*
X144674477Y-79690051D01*
X144674497Y-79692265D01*
X144674497Y-80188327D01*
X144674496Y-80188345D01*
X144674496Y-80354051D01*
X144674495Y-80354051D01*
X144701788Y-80455906D01*
X144700125Y-80525756D01*
X144660963Y-80583619D01*
X144596734Y-80611123D01*
X144582013Y-80612000D01*
X140804604Y-80612000D01*
X140757155Y-80602562D01*
X140733497Y-80592763D01*
X140733493Y-80592762D01*
X140733488Y-80592760D01*
X140578845Y-80562000D01*
X140578842Y-80562000D01*
X140421158Y-80562000D01*
X140421155Y-80562000D01*
X140266510Y-80592761D01*
X140266498Y-80592764D01*
X140120827Y-80653102D01*
X140120814Y-80653109D01*
X139989711Y-80740710D01*
X139989707Y-80740713D01*
X139878213Y-80852207D01*
X139878210Y-80852211D01*
X139790609Y-80983314D01*
X139790602Y-80983327D01*
X139730264Y-81128998D01*
X139730261Y-81129010D01*
X139699500Y-81283653D01*
X97000500Y-81283653D01*
X97000500Y-75171153D01*
X136199500Y-75171153D01*
X136199500Y-75328846D01*
X136230261Y-75483489D01*
X136230264Y-75483501D01*
X136290602Y-75629172D01*
X136290609Y-75629185D01*
X136378210Y-75760288D01*
X136378213Y-75760292D01*
X136489707Y-75871786D01*
X136489711Y-75871789D01*
X136620814Y-75959390D01*
X136620827Y-75959397D01*
X136766498Y-76019735D01*
X136766503Y-76019737D01*
X136921153Y-76050499D01*
X136921156Y-76050500D01*
X136921158Y-76050500D01*
X137078844Y-76050500D01*
X137078845Y-76050499D01*
X137233497Y-76019737D01*
X137379179Y-75959394D01*
X137379185Y-75959390D01*
X137510875Y-75871398D01*
X137577553Y-75850520D01*
X137579766Y-75850500D01*
X142663331Y-75850500D01*
X142663347Y-75850501D01*
X142670943Y-75850501D01*
X142829054Y-75850501D01*
X142829057Y-75850501D01*
X142981785Y-75809577D01*
X143031904Y-75780639D01*
X143118716Y-75730520D01*
X143230520Y-75618716D01*
X143230520Y-75618714D01*
X143240728Y-75608507D01*
X143240729Y-75608504D01*
X146264662Y-72584572D01*
X146325983Y-72551089D01*
X146328150Y-72550638D01*
X146386085Y-72539113D01*
X146483497Y-72519737D01*
X146629179Y-72459394D01*
X146760289Y-72371789D01*
X146871789Y-72260289D01*
X146959394Y-72129179D01*
X147019737Y-71983497D01*
X147050500Y-71828842D01*
X147050500Y-71671158D01*
X147050500Y-71671155D01*
X147050499Y-71671153D01*
X147019738Y-71516510D01*
X147019738Y-71516508D01*
X147019737Y-71516503D01*
X147019735Y-71516498D01*
X146959397Y-71370827D01*
X146959390Y-71370814D01*
X146871789Y-71239711D01*
X146871786Y-71239707D01*
X146760292Y-71128213D01*
X146760288Y-71128210D01*
X146629185Y-71040609D01*
X146629172Y-71040602D01*
X146483501Y-70980264D01*
X146483489Y-70980261D01*
X146328845Y-70949500D01*
X146328842Y-70949500D01*
X146171158Y-70949500D01*
X146171155Y-70949500D01*
X146016510Y-70980261D01*
X146016498Y-70980264D01*
X145870827Y-71040602D01*
X145870814Y-71040609D01*
X145739711Y-71128210D01*
X145739707Y-71128213D01*
X145628213Y-71239707D01*
X145628210Y-71239711D01*
X145540609Y-71370814D01*
X145540602Y-71370827D01*
X145480264Y-71516498D01*
X145480261Y-71516508D01*
X145449361Y-71671850D01*
X145416976Y-71733761D01*
X145415425Y-71735339D01*
X142537584Y-74613181D01*
X142476261Y-74646666D01*
X142449903Y-74649500D01*
X137579766Y-74649500D01*
X137512727Y-74629815D01*
X137510875Y-74628602D01*
X137379185Y-74540609D01*
X137379172Y-74540602D01*
X137233501Y-74480264D01*
X137233489Y-74480261D01*
X137078845Y-74449500D01*
X137078842Y-74449500D01*
X136921158Y-74449500D01*
X136921155Y-74449500D01*
X136766510Y-74480261D01*
X136766498Y-74480264D01*
X136620827Y-74540602D01*
X136620814Y-74540609D01*
X136489711Y-74628210D01*
X136489707Y-74628213D01*
X136378213Y-74739707D01*
X136378210Y-74739711D01*
X136290609Y-74870814D01*
X136290602Y-74870827D01*
X136230264Y-75016498D01*
X136230261Y-75016510D01*
X136199500Y-75171153D01*
X97000500Y-75171153D01*
X97000500Y-54921153D01*
X122949500Y-54921153D01*
X122949500Y-55078846D01*
X122980261Y-55233489D01*
X122980264Y-55233501D01*
X123040602Y-55379172D01*
X123040609Y-55379185D01*
X123128210Y-55510288D01*
X123128213Y-55510292D01*
X123239707Y-55621786D01*
X123239711Y-55621789D01*
X123370814Y-55709390D01*
X123370827Y-55709397D01*
X123516498Y-55769735D01*
X123516503Y-55769737D01*
X123671153Y-55800499D01*
X123671156Y-55800500D01*
X123671158Y-55800500D01*
X123828844Y-55800500D01*
X123828845Y-55800499D01*
X123983497Y-55769737D01*
X124129179Y-55709394D01*
X124260289Y-55621789D01*
X124371789Y-55510289D01*
X124415883Y-55444297D01*
X124431138Y-55421467D01*
X124446561Y-55402674D01*
X124490722Y-55358514D01*
X124490729Y-55358504D01*
X126537820Y-53311413D01*
X126599142Y-53277930D01*
X126668834Y-53282914D01*
X126724767Y-53324786D01*
X126749184Y-53390250D01*
X126749500Y-53399096D01*
X126749500Y-56073918D01*
X126749500Y-56073920D01*
X126749499Y-56073920D01*
X126778340Y-56218907D01*
X126778343Y-56218917D01*
X126834914Y-56355492D01*
X126867812Y-56404727D01*
X126867813Y-56404730D01*
X126917046Y-56478414D01*
X126917052Y-56478421D01*
X127917049Y-57478416D01*
X128021584Y-57582951D01*
X128021587Y-57582953D01*
X128021588Y-57582954D01*
X128144503Y-57665083D01*
X128144506Y-57665085D01*
X128201079Y-57688518D01*
X128201080Y-57688518D01*
X128281088Y-57721659D01*
X128397241Y-57744763D01*
X128416468Y-57748587D01*
X128426081Y-57750500D01*
X128426082Y-57750500D01*
X128426083Y-57750500D01*
X128573918Y-57750500D01*
X132026082Y-57750500D01*
X132173917Y-57750500D01*
X135365421Y-57750500D01*
X135513256Y-57750500D01*
X137947810Y-57750500D01*
X138014849Y-57770185D01*
X138060604Y-57822989D01*
X138070548Y-57892147D01*
X138041523Y-57955703D01*
X137995262Y-57989061D01*
X137870827Y-58040602D01*
X137870814Y-58040609D01*
X137739711Y-58128210D01*
X137739707Y-58128213D01*
X137628213Y-58239707D01*
X137628210Y-58239711D01*
X137540609Y-58370814D01*
X137540602Y-58370827D01*
X137480264Y-58516498D01*
X137480261Y-58516510D01*
X137449500Y-58671153D01*
X137449500Y-58828846D01*
X137480261Y-58983489D01*
X137480264Y-58983501D01*
X137540602Y-59129172D01*
X137540609Y-59129185D01*
X137628602Y-59260874D01*
X137649480Y-59327551D01*
X137649500Y-59329765D01*
X137649500Y-60199902D01*
X137629815Y-60266941D01*
X137613181Y-60287583D01*
X136485339Y-61415425D01*
X136424016Y-61448910D01*
X136421850Y-61449361D01*
X136266508Y-61480261D01*
X136266498Y-61480264D01*
X136120827Y-61540602D01*
X136120814Y-61540609D01*
X135989711Y-61628210D01*
X135989707Y-61628213D01*
X135878213Y-61739707D01*
X135878210Y-61739711D01*
X135790609Y-61870814D01*
X135790602Y-61870827D01*
X135730264Y-62016498D01*
X135730261Y-62016510D01*
X135699500Y-62171153D01*
X135699500Y-62328846D01*
X135730261Y-62483489D01*
X135730264Y-62483501D01*
X135790602Y-62629172D01*
X135790609Y-62629185D01*
X135878210Y-62760288D01*
X135878213Y-62760292D01*
X135989707Y-62871786D01*
X135989711Y-62871789D01*
X136120814Y-62959390D01*
X136120827Y-62959397D01*
X136258683Y-63016498D01*
X136266503Y-63019737D01*
X136421153Y-63050499D01*
X136421156Y-63050500D01*
X136421158Y-63050500D01*
X136578844Y-63050500D01*
X136578845Y-63050499D01*
X136733497Y-63019737D01*
X136879179Y-62959394D01*
X137010289Y-62871789D01*
X137121789Y-62760289D01*
X137209394Y-62629179D01*
X137269737Y-62483497D01*
X137289113Y-62386085D01*
X137300638Y-62328150D01*
X137333023Y-62266239D01*
X137334517Y-62264717D01*
X138730520Y-60868716D01*
X138809577Y-60731784D01*
X138850501Y-60579057D01*
X138850501Y-60420942D01*
X138850501Y-60413347D01*
X138850500Y-60413329D01*
X138850500Y-59329765D01*
X138870185Y-59262726D01*
X138871398Y-59260874D01*
X138959390Y-59129185D01*
X138959390Y-59129184D01*
X138959394Y-59129179D01*
X139019737Y-58983497D01*
X139050500Y-58828842D01*
X139050500Y-58671158D01*
X139050500Y-58671155D01*
X139050499Y-58671153D01*
X139019738Y-58516510D01*
X139019737Y-58516503D01*
X139019735Y-58516498D01*
X138959397Y-58370827D01*
X138959390Y-58370814D01*
X138871789Y-58239711D01*
X138871786Y-58239707D01*
X138760292Y-58128213D01*
X138760288Y-58128210D01*
X138629185Y-58040609D01*
X138629172Y-58040602D01*
X138504738Y-57989061D01*
X138450334Y-57945221D01*
X138428269Y-57878926D01*
X138445548Y-57811227D01*
X138496685Y-57763616D01*
X138552190Y-57750500D01*
X145926082Y-57750500D01*
X146183648Y-57750500D01*
X146250687Y-57770185D01*
X146296442Y-57822989D01*
X146307648Y-57874500D01*
X146307648Y-62882066D01*
X146307648Y-62882068D01*
X146307647Y-62882068D01*
X146336488Y-63027055D01*
X146336491Y-63027065D01*
X146393062Y-63163640D01*
X146425960Y-63212875D01*
X146425961Y-63212878D01*
X146475194Y-63286562D01*
X146479065Y-63291279D01*
X146477089Y-63292899D01*
X146505233Y-63344440D01*
X146505685Y-63394988D01*
X146499500Y-63426083D01*
X146499500Y-66945396D01*
X146490062Y-66992844D01*
X146480263Y-67016503D01*
X146480262Y-67016506D01*
X146480260Y-67016511D01*
X146449500Y-67171153D01*
X146449500Y-67328846D01*
X146480261Y-67483489D01*
X146480264Y-67483501D01*
X146540602Y-67629172D01*
X146540609Y-67629185D01*
X146628210Y-67760288D01*
X146628213Y-67760292D01*
X146739707Y-67871786D01*
X146739711Y-67871789D01*
X146870814Y-67959390D01*
X146870827Y-67959397D01*
X147016498Y-68019735D01*
X147016503Y-68019737D01*
X147171153Y-68050499D01*
X147171156Y-68050500D01*
X147171158Y-68050500D01*
X147328844Y-68050500D01*
X147328845Y-68050499D01*
X147483497Y-68019737D01*
X147629179Y-67959394D01*
X147760289Y-67871789D01*
X147871789Y-67760289D01*
X147959394Y-67629179D01*
X148019737Y-67483497D01*
X148050500Y-67328842D01*
X148050500Y-67171158D01*
X148050500Y-67171155D01*
X148050499Y-67171153D01*
X148019739Y-67016511D01*
X148019738Y-67016508D01*
X148019737Y-67016503D01*
X148009937Y-66992844D01*
X148000500Y-66945396D01*
X148000500Y-63932940D01*
X148020185Y-63865901D01*
X148036814Y-63845263D01*
X148065544Y-63816533D01*
X148824499Y-63816533D01*
X148850458Y-63947030D01*
X148850461Y-63947040D01*
X148901376Y-64069961D01*
X148901386Y-64069979D01*
X148975301Y-64180601D01*
X148975307Y-64180609D01*
X149069390Y-64274692D01*
X149069398Y-64274698D01*
X149180020Y-64348613D01*
X149180023Y-64348614D01*
X149180031Y-64348620D01*
X149302964Y-64399540D01*
X149302968Y-64399540D01*
X149302969Y-64399541D01*
X149433466Y-64425500D01*
X149433469Y-64425500D01*
X149566533Y-64425500D01*
X149654325Y-64408035D01*
X149697036Y-64399540D01*
X149819969Y-64348620D01*
X149930606Y-64274695D01*
X150024695Y-64180606D01*
X150098620Y-64069969D01*
X150149540Y-63947036D01*
X150164508Y-63871789D01*
X150175500Y-63816533D01*
X150175500Y-63683466D01*
X150149541Y-63552969D01*
X150149540Y-63552968D01*
X150149540Y-63552964D01*
X150098620Y-63430031D01*
X150095981Y-63426082D01*
X150024698Y-63319398D01*
X150024692Y-63319390D01*
X149930609Y-63225307D01*
X149930601Y-63225301D01*
X149819979Y-63151386D01*
X149819972Y-63151382D01*
X149819969Y-63151380D01*
X149819965Y-63151378D01*
X149819961Y-63151376D01*
X149697040Y-63100461D01*
X149697030Y-63100458D01*
X149566533Y-63074500D01*
X149566531Y-63074500D01*
X149433469Y-63074500D01*
X149433467Y-63074500D01*
X149302969Y-63100458D01*
X149302959Y-63100461D01*
X149180038Y-63151376D01*
X149180020Y-63151386D01*
X149069398Y-63225301D01*
X149069390Y-63225307D01*
X148975307Y-63319390D01*
X148975301Y-63319398D01*
X148901386Y-63430020D01*
X148901376Y-63430038D01*
X148850461Y-63552959D01*
X148850458Y-63552969D01*
X148824500Y-63683466D01*
X148824500Y-63683469D01*
X148824500Y-63816531D01*
X148824500Y-63816533D01*
X148824499Y-63816533D01*
X148065544Y-63816533D01*
X148121789Y-63760289D01*
X148209394Y-63629179D01*
X148269737Y-63483497D01*
X148300500Y-63328842D01*
X148300500Y-63171158D01*
X148300500Y-63171155D01*
X148300499Y-63171153D01*
X148269738Y-63016510D01*
X148269737Y-63016503D01*
X148209794Y-62871786D01*
X148209397Y-62870827D01*
X148209390Y-62870814D01*
X148121789Y-62739711D01*
X148121786Y-62739707D01*
X148010292Y-62628213D01*
X148010288Y-62628210D01*
X147879180Y-62540606D01*
X147874194Y-62537941D01*
X147824350Y-62488978D01*
X147808648Y-62428583D01*
X147808648Y-60816533D01*
X148824499Y-60816533D01*
X148850458Y-60947030D01*
X148850461Y-60947040D01*
X148901376Y-61069961D01*
X148901386Y-61069979D01*
X148975301Y-61180601D01*
X148975307Y-61180609D01*
X149069390Y-61274692D01*
X149069398Y-61274698D01*
X149180020Y-61348613D01*
X149180023Y-61348614D01*
X149180031Y-61348620D01*
X149302964Y-61399540D01*
X149302968Y-61399540D01*
X149302969Y-61399541D01*
X149433466Y-61425500D01*
X149433469Y-61425500D01*
X149566533Y-61425500D01*
X149654325Y-61408035D01*
X149697036Y-61399540D01*
X149819969Y-61348620D01*
X149930606Y-61274695D01*
X150024695Y-61180606D01*
X150098620Y-61069969D01*
X150149540Y-60947036D01*
X150165119Y-60868717D01*
X150175500Y-60816533D01*
X150175500Y-60683466D01*
X150149541Y-60552969D01*
X150149540Y-60552968D01*
X150149540Y-60552964D01*
X150098620Y-60430031D01*
X150092544Y-60420938D01*
X150024698Y-60319398D01*
X150024692Y-60319390D01*
X149930609Y-60225307D01*
X149930601Y-60225301D01*
X149819979Y-60151386D01*
X149819972Y-60151382D01*
X149819969Y-60151380D01*
X149819965Y-60151378D01*
X149819961Y-60151376D01*
X149697040Y-60100461D01*
X149697030Y-60100458D01*
X149566533Y-60074500D01*
X149566531Y-60074500D01*
X149433469Y-60074500D01*
X149433467Y-60074500D01*
X149302969Y-60100458D01*
X149302959Y-60100461D01*
X149180038Y-60151376D01*
X149180020Y-60151386D01*
X149069398Y-60225301D01*
X149069390Y-60225307D01*
X148975307Y-60319390D01*
X148975301Y-60319398D01*
X148901386Y-60430020D01*
X148901376Y-60430038D01*
X148850461Y-60552959D01*
X148850458Y-60552969D01*
X148824500Y-60683466D01*
X148824500Y-60683469D01*
X148824500Y-60816531D01*
X148824500Y-60816533D01*
X148824499Y-60816533D01*
X147808648Y-60816533D01*
X147808648Y-56304081D01*
X147828333Y-56237042D01*
X147844967Y-56216400D01*
X147935867Y-56125500D01*
X148065297Y-55996069D01*
X148105522Y-55969192D01*
X148129179Y-55959394D01*
X148260289Y-55871789D01*
X148371789Y-55760289D01*
X148459394Y-55629179D01*
X148519737Y-55483497D01*
X148550500Y-55328842D01*
X148550500Y-55171158D01*
X148550500Y-55171155D01*
X148550499Y-55171153D01*
X148522066Y-55028211D01*
X148519737Y-55016503D01*
X148519735Y-55016498D01*
X148459397Y-54870827D01*
X148459390Y-54870814D01*
X148371789Y-54739711D01*
X148371786Y-54739707D01*
X148260292Y-54628213D01*
X148260288Y-54628210D01*
X148129185Y-54540609D01*
X148129172Y-54540602D01*
X147983501Y-54480264D01*
X147983495Y-54480262D01*
X147961591Y-54475905D01*
X147899681Y-54443518D01*
X147865109Y-54382801D01*
X147868851Y-54313031D01*
X147909719Y-54256361D01*
X147966384Y-54231816D01*
X148042826Y-54219709D01*
X148230025Y-54158884D01*
X148405405Y-54069524D01*
X148564646Y-53953828D01*
X148703828Y-53814646D01*
X148819524Y-53655405D01*
X148908884Y-53480025D01*
X148969709Y-53292826D01*
X148973142Y-53271153D01*
X149000500Y-53098422D01*
X149000500Y-52901577D01*
X148969709Y-52707173D01*
X148908882Y-52519970D01*
X148854576Y-52413389D01*
X148819524Y-52344595D01*
X148703828Y-52185354D01*
X148564646Y-52046172D01*
X148405405Y-51930476D01*
X148389404Y-51922323D01*
X148230029Y-51841117D01*
X148042826Y-51780290D01*
X147848422Y-51749500D01*
X147848417Y-51749500D01*
X147651583Y-51749500D01*
X147651578Y-51749500D01*
X147457173Y-51780290D01*
X147269970Y-51841117D01*
X147094594Y-51930476D01*
X147036852Y-51972429D01*
X146935354Y-52046172D01*
X146935352Y-52046174D01*
X146935351Y-52046174D01*
X146796174Y-52185351D01*
X146796174Y-52185352D01*
X146796172Y-52185354D01*
X146756682Y-52239707D01*
X146680476Y-52344594D01*
X146591117Y-52519970D01*
X146530290Y-52707173D01*
X146499500Y-52901577D01*
X146499500Y-53098422D01*
X146530290Y-53292826D01*
X146591117Y-53480029D01*
X146680476Y-53655405D01*
X146796172Y-53814646D01*
X146935354Y-53953828D01*
X147094595Y-54069524D01*
X147177455Y-54111743D01*
X147269970Y-54158882D01*
X147269972Y-54158882D01*
X147269975Y-54158884D01*
X147370317Y-54191487D01*
X147457173Y-54219709D01*
X147498967Y-54226328D01*
X147533610Y-54231815D01*
X147596745Y-54261744D01*
X147633677Y-54321055D01*
X147632679Y-54390917D01*
X147594070Y-54449150D01*
X147538409Y-54475904D01*
X147516512Y-54480260D01*
X147516498Y-54480264D01*
X147370827Y-54540602D01*
X147370814Y-54540609D01*
X147239711Y-54628210D01*
X147239707Y-54628213D01*
X147128213Y-54739707D01*
X147128207Y-54739715D01*
X147040607Y-54870818D01*
X147040606Y-54870819D01*
X147030805Y-54894480D01*
X147003927Y-54934703D01*
X146475198Y-55463433D01*
X146475195Y-55463437D01*
X146447239Y-55505275D01*
X146447240Y-55505276D01*
X146393062Y-55586360D01*
X146336491Y-55722934D01*
X146336488Y-55722944D01*
X146307648Y-55867931D01*
X146307648Y-56125500D01*
X146287963Y-56192539D01*
X146235159Y-56238294D01*
X146183648Y-56249500D01*
X141167848Y-56249500D01*
X141100809Y-56229815D01*
X141055054Y-56177011D01*
X141046231Y-56149692D01*
X141019738Y-56016508D01*
X141019737Y-56016507D01*
X141019737Y-56016503D01*
X140994098Y-55954604D01*
X140959397Y-55870827D01*
X140959390Y-55870814D01*
X140871789Y-55739711D01*
X140871786Y-55739707D01*
X140760292Y-55628213D01*
X140760288Y-55628210D01*
X140629185Y-55540609D01*
X140629172Y-55540602D01*
X140483501Y-55480264D01*
X140483489Y-55480261D01*
X140328845Y-55449500D01*
X140328842Y-55449500D01*
X140171158Y-55449500D01*
X140171155Y-55449500D01*
X140016510Y-55480261D01*
X140016498Y-55480264D01*
X139870827Y-55540602D01*
X139870814Y-55540609D01*
X139739125Y-55628602D01*
X139672447Y-55649480D01*
X139670234Y-55649500D01*
X139249097Y-55649500D01*
X139182058Y-55629815D01*
X139136303Y-55577011D01*
X139126359Y-55507853D01*
X139155384Y-55444297D01*
X139161416Y-55437819D01*
X140221025Y-54378210D01*
X141332306Y-53266928D01*
X141393627Y-53233445D01*
X141463319Y-53238429D01*
X141519252Y-53280301D01*
X141537915Y-53316292D01*
X141591116Y-53480025D01*
X141680476Y-53655405D01*
X141796172Y-53814646D01*
X141935354Y-53953828D01*
X142094595Y-54069524D01*
X142177455Y-54111743D01*
X142269970Y-54158882D01*
X142269972Y-54158882D01*
X142269975Y-54158884D01*
X142370317Y-54191487D01*
X142457173Y-54219709D01*
X142651578Y-54250500D01*
X142651583Y-54250500D01*
X142848422Y-54250500D01*
X143042826Y-54219709D01*
X143083697Y-54206429D01*
X143230025Y-54158884D01*
X143405405Y-54069524D01*
X143564646Y-53953828D01*
X143703828Y-53814646D01*
X143819524Y-53655405D01*
X143908884Y-53480025D01*
X143969709Y-53292826D01*
X143973142Y-53271153D01*
X144000500Y-53098422D01*
X144000500Y-52901577D01*
X143969709Y-52707173D01*
X143908882Y-52519970D01*
X143854576Y-52413389D01*
X143819524Y-52344595D01*
X143703828Y-52185354D01*
X143564646Y-52046172D01*
X143405405Y-51930476D01*
X143389404Y-51922323D01*
X143230029Y-51841117D01*
X143042826Y-51780290D01*
X142848422Y-51749500D01*
X142848417Y-51749500D01*
X142651583Y-51749500D01*
X142651578Y-51749500D01*
X142457173Y-51780290D01*
X142269970Y-51841117D01*
X142094590Y-51930478D01*
X142047385Y-51964775D01*
X141981578Y-51988255D01*
X141913525Y-51972429D01*
X141864830Y-51922323D01*
X141850500Y-51864457D01*
X141850500Y-47885542D01*
X141870185Y-47818503D01*
X141922989Y-47772748D01*
X141992147Y-47762804D01*
X142047384Y-47785223D01*
X142094595Y-47819524D01*
X142135294Y-47840261D01*
X142269970Y-47908882D01*
X142269972Y-47908882D01*
X142269975Y-47908884D01*
X142370317Y-47941487D01*
X142457173Y-47969709D01*
X142651578Y-48000500D01*
X142651583Y-48000500D01*
X142848422Y-48000500D01*
X143042826Y-47969709D01*
X143044328Y-47969221D01*
X143230025Y-47908884D01*
X143405405Y-47819524D01*
X143564646Y-47703828D01*
X143703828Y-47564646D01*
X143819524Y-47405405D01*
X143889515Y-47268038D01*
X143937489Y-47217243D01*
X144005310Y-47200448D01*
X144071445Y-47222985D01*
X144110484Y-47268038D01*
X144180476Y-47405405D01*
X144296172Y-47564646D01*
X144435354Y-47703828D01*
X144594595Y-47819524D01*
X144635294Y-47840261D01*
X144769970Y-47908882D01*
X144769972Y-47908882D01*
X144769975Y-47908884D01*
X144870317Y-47941487D01*
X144957173Y-47969709D01*
X145151578Y-48000500D01*
X145151583Y-48000500D01*
X145348422Y-48000500D01*
X145542826Y-47969709D01*
X145544328Y-47969221D01*
X145730025Y-47908884D01*
X145905405Y-47819524D01*
X146064646Y-47703828D01*
X146203828Y-47564646D01*
X146319524Y-47405405D01*
X146389796Y-47267486D01*
X146437769Y-47216692D01*
X146505589Y-47199896D01*
X146571725Y-47222433D01*
X146610765Y-47267487D01*
X146680905Y-47405145D01*
X146706319Y-47440125D01*
X146706320Y-47440125D01*
X147267037Y-46879408D01*
X147284075Y-46942993D01*
X147349901Y-47057007D01*
X147442993Y-47150099D01*
X147557007Y-47215925D01*
X147620590Y-47232962D01*
X147059873Y-47793677D01*
X147059873Y-47793678D01*
X147094858Y-47819096D01*
X147270164Y-47908418D01*
X147457294Y-47969221D01*
X147651618Y-48000000D01*
X147848382Y-48000000D01*
X148042705Y-47969221D01*
X148229835Y-47908418D01*
X148405143Y-47819095D01*
X148440125Y-47793678D01*
X148440126Y-47793678D01*
X147879410Y-47232962D01*
X147942993Y-47215925D01*
X148057007Y-47150099D01*
X148150099Y-47057007D01*
X148215925Y-46942993D01*
X148232962Y-46879409D01*
X148793678Y-47440126D01*
X148793678Y-47440125D01*
X148819095Y-47405143D01*
X148908418Y-47229835D01*
X148969221Y-47042705D01*
X149000000Y-46848382D01*
X149000000Y-46651617D01*
X148969221Y-46457294D01*
X148908418Y-46270164D01*
X148819096Y-46094858D01*
X148793678Y-46059873D01*
X148793677Y-46059873D01*
X148232962Y-46620589D01*
X148215925Y-46557007D01*
X148150099Y-46442993D01*
X148057007Y-46349901D01*
X147942993Y-46284075D01*
X147879409Y-46267037D01*
X148440125Y-45706320D01*
X148438887Y-45690586D01*
X148422234Y-45668991D01*
X148416253Y-45599378D01*
X148448858Y-45537582D01*
X148509696Y-45503223D01*
X148537784Y-45500000D01*
X148547828Y-45500000D01*
X148547844Y-45499999D01*
X148607372Y-45493598D01*
X148607379Y-45493596D01*
X148742086Y-45443354D01*
X148742093Y-45443350D01*
X148857187Y-45357190D01*
X148857190Y-45357187D01*
X148943350Y-45242093D01*
X148943354Y-45242086D01*
X148993596Y-45107379D01*
X148993598Y-45107372D01*
X148999999Y-45047844D01*
X149000000Y-45047827D01*
X149000000Y-44500000D01*
X148183012Y-44500000D01*
X148215925Y-44442993D01*
X148250000Y-44315826D01*
X148250000Y-44184174D01*
X148215925Y-44057007D01*
X148183012Y-44000000D01*
X149000000Y-44000000D01*
X149000000Y-43452172D01*
X148999999Y-43452155D01*
X148993598Y-43392627D01*
X148993596Y-43392620D01*
X148943354Y-43257913D01*
X148943350Y-43257906D01*
X148857190Y-43142812D01*
X148857187Y-43142809D01*
X148742093Y-43056649D01*
X148742086Y-43056645D01*
X148607379Y-43006403D01*
X148607372Y-43006401D01*
X148547844Y-43000000D01*
X148000000Y-43000000D01*
X148000000Y-43816988D01*
X147942993Y-43784075D01*
X147815826Y-43750000D01*
X147684174Y-43750000D01*
X147557007Y-43784075D01*
X147500000Y-43816988D01*
X147500000Y-43000000D01*
X146952155Y-43000000D01*
X146892627Y-43006401D01*
X146892620Y-43006403D01*
X146757913Y-43056645D01*
X146757906Y-43056649D01*
X146642812Y-43142809D01*
X146642809Y-43142812D01*
X146556649Y-43257906D01*
X146556645Y-43257913D01*
X146506403Y-43392620D01*
X146506401Y-43392627D01*
X146500000Y-43452155D01*
X146500000Y-43461366D01*
X146480315Y-43528405D01*
X146427511Y-43574160D01*
X146358353Y-43584104D01*
X146294797Y-43555079D01*
X146275682Y-43534252D01*
X146216047Y-43452172D01*
X146203828Y-43435354D01*
X146064646Y-43296172D01*
X145905405Y-43180476D01*
X145730029Y-43091117D01*
X145542826Y-43030290D01*
X145348422Y-42999500D01*
X145348417Y-42999500D01*
X145151583Y-42999500D01*
X145151578Y-42999500D01*
X144957173Y-43030290D01*
X144769970Y-43091117D01*
X144594594Y-43180476D01*
X144503741Y-43246485D01*
X144435354Y-43296172D01*
X144435352Y-43296174D01*
X144435351Y-43296174D01*
X144296174Y-43435351D01*
X144296174Y-43435352D01*
X144296172Y-43435354D01*
X144283953Y-43452172D01*
X144180476Y-43594594D01*
X144110485Y-43731960D01*
X144062510Y-43782756D01*
X143994689Y-43799551D01*
X143928554Y-43777014D01*
X143889515Y-43731960D01*
X143819523Y-43594594D01*
X143703828Y-43435354D01*
X143564646Y-43296172D01*
X143405405Y-43180476D01*
X143230029Y-43091117D01*
X143042826Y-43030290D01*
X142848422Y-42999500D01*
X142848417Y-42999500D01*
X142651583Y-42999500D01*
X142651578Y-42999500D01*
X142457173Y-43030290D01*
X142269970Y-43091117D01*
X142094594Y-43180476D01*
X142003741Y-43246485D01*
X141935354Y-43296172D01*
X141935352Y-43296174D01*
X141935351Y-43296174D01*
X141796174Y-43435351D01*
X141796174Y-43435352D01*
X141796172Y-43435354D01*
X141783953Y-43452172D01*
X141680476Y-43594594D01*
X141591117Y-43769970D01*
X141530290Y-43957173D01*
X141499500Y-44151577D01*
X141499500Y-44348422D01*
X141530290Y-44542826D01*
X141591117Y-44730029D01*
X141680476Y-44905405D01*
X141796172Y-45064646D01*
X141935354Y-45203828D01*
X142094595Y-45319524D01*
X142163613Y-45354690D01*
X142231960Y-45389515D01*
X142282756Y-45437490D01*
X142299551Y-45505311D01*
X142277014Y-45571446D01*
X142231960Y-45610485D01*
X142094594Y-45680476D01*
X142003741Y-45746485D01*
X141935354Y-45796172D01*
X141935352Y-45796174D01*
X141935351Y-45796174D01*
X141796174Y-45935351D01*
X141796174Y-45935352D01*
X141796172Y-45935354D01*
X141738324Y-46014974D01*
X141680474Y-46094597D01*
X141641105Y-46171862D01*
X141593130Y-46222658D01*
X141525309Y-46239452D01*
X141489473Y-46231523D01*
X141489320Y-46232030D01*
X141483488Y-46230260D01*
X141328845Y-46199500D01*
X141328842Y-46199500D01*
X141171158Y-46199500D01*
X141171155Y-46199500D01*
X141016510Y-46230261D01*
X141016498Y-46230264D01*
X140870827Y-46290602D01*
X140870814Y-46290609D01*
X140739711Y-46378210D01*
X140739707Y-46378213D01*
X140628213Y-46489707D01*
X140628210Y-46489711D01*
X140540609Y-46620814D01*
X140540602Y-46620827D01*
X140480264Y-46766498D01*
X140480261Y-46766510D01*
X140449500Y-46921153D01*
X140449500Y-47078846D01*
X140480261Y-47233489D01*
X140480264Y-47233501D01*
X140540602Y-47379172D01*
X140540609Y-47379185D01*
X140628602Y-47510874D01*
X140649480Y-47577551D01*
X140649500Y-47579765D01*
X140649500Y-52199902D01*
X140629815Y-52266941D01*
X140613181Y-52287583D01*
X138235339Y-54665425D01*
X138174016Y-54698910D01*
X138171850Y-54699361D01*
X138016508Y-54730261D01*
X138016498Y-54730264D01*
X137870827Y-54790602D01*
X137870814Y-54790609D01*
X137739711Y-54878210D01*
X137739707Y-54878213D01*
X137628213Y-54989707D01*
X137628210Y-54989711D01*
X137540609Y-55120814D01*
X137540602Y-55120827D01*
X137480264Y-55266498D01*
X137480261Y-55266510D01*
X137449500Y-55421153D01*
X137449500Y-55525500D01*
X137429815Y-55592539D01*
X137377011Y-55638294D01*
X137325500Y-55649500D01*
X136329766Y-55649500D01*
X136262727Y-55629815D01*
X136260875Y-55628602D01*
X136129176Y-55540603D01*
X136126547Y-55539198D01*
X136125428Y-55538099D01*
X136124114Y-55537221D01*
X136124280Y-55536971D01*
X136076704Y-55490234D01*
X136061004Y-55429842D01*
X136061004Y-49731153D01*
X136510271Y-49731153D01*
X136510271Y-49888846D01*
X136541032Y-50043489D01*
X136541035Y-50043501D01*
X136601373Y-50189172D01*
X136601380Y-50189185D01*
X136688981Y-50320288D01*
X136688984Y-50320292D01*
X136800476Y-50431784D01*
X136800479Y-50431786D01*
X136800482Y-50431789D01*
X136844392Y-50461128D01*
X136889195Y-50514738D01*
X136899500Y-50564229D01*
X136899500Y-52770234D01*
X136879815Y-52837273D01*
X136878602Y-52839125D01*
X136790609Y-52970814D01*
X136790602Y-52970827D01*
X136730264Y-53116498D01*
X136730261Y-53116510D01*
X136699500Y-53271153D01*
X136699500Y-53428846D01*
X136730261Y-53583489D01*
X136730264Y-53583501D01*
X136790602Y-53729172D01*
X136790609Y-53729185D01*
X136878210Y-53860288D01*
X136878213Y-53860292D01*
X136989707Y-53971786D01*
X136989711Y-53971789D01*
X137120814Y-54059390D01*
X137120827Y-54059397D01*
X137266498Y-54119735D01*
X137266503Y-54119737D01*
X137421153Y-54150499D01*
X137421156Y-54150500D01*
X137421158Y-54150500D01*
X137578844Y-54150500D01*
X137578845Y-54150499D01*
X137733497Y-54119737D01*
X137879179Y-54059394D01*
X138010289Y-53971789D01*
X138121789Y-53860289D01*
X138209394Y-53729179D01*
X138269737Y-53583497D01*
X138300500Y-53428842D01*
X138300500Y-53271158D01*
X138300500Y-53271155D01*
X138300499Y-53271153D01*
X138269738Y-53116510D01*
X138269737Y-53116503D01*
X138244098Y-53054604D01*
X138209397Y-52970827D01*
X138209390Y-52970814D01*
X138121398Y-52839125D01*
X138100520Y-52772447D01*
X138100500Y-52770234D01*
X138100500Y-49955202D01*
X138102883Y-49931009D01*
X138111271Y-49888843D01*
X138111271Y-49731155D01*
X138111270Y-49731153D01*
X138080509Y-49576510D01*
X138080508Y-49576503D01*
X138080506Y-49576498D01*
X138020168Y-49430827D01*
X138020161Y-49430814D01*
X137932560Y-49299711D01*
X137932557Y-49299707D01*
X137821063Y-49188213D01*
X137821059Y-49188210D01*
X137689956Y-49100609D01*
X137689943Y-49100602D01*
X137544272Y-49040264D01*
X137544260Y-49040261D01*
X137389616Y-49009500D01*
X137389613Y-49009500D01*
X137231929Y-49009500D01*
X137231926Y-49009500D01*
X137077281Y-49040261D01*
X137077269Y-49040264D01*
X136931598Y-49100602D01*
X136931585Y-49100609D01*
X136800482Y-49188210D01*
X136800478Y-49188213D01*
X136688984Y-49299707D01*
X136688981Y-49299711D01*
X136601380Y-49430814D01*
X136601373Y-49430827D01*
X136541035Y-49576498D01*
X136541032Y-49576510D01*
X136510271Y-49731153D01*
X136061004Y-49731153D01*
X136061004Y-48914604D01*
X136070443Y-48867151D01*
X136076166Y-48853334D01*
X136080241Y-48843497D01*
X136111004Y-48688842D01*
X136111004Y-48531158D01*
X136111004Y-48531155D01*
X136111003Y-48531153D01*
X136080242Y-48376510D01*
X136080241Y-48376503D01*
X136080239Y-48376498D01*
X136019901Y-48230827D01*
X136019894Y-48230814D01*
X135932293Y-48099711D01*
X135932290Y-48099707D01*
X135820796Y-47988213D01*
X135820792Y-47988210D01*
X135689689Y-47900609D01*
X135689676Y-47900602D01*
X135544005Y-47840264D01*
X135543993Y-47840261D01*
X135389349Y-47809500D01*
X135389346Y-47809500D01*
X135231662Y-47809500D01*
X135231659Y-47809500D01*
X135077014Y-47840261D01*
X135077002Y-47840264D01*
X134931331Y-47900602D01*
X134931318Y-47900609D01*
X134800215Y-47988210D01*
X134800211Y-47988213D01*
X134688717Y-48099707D01*
X134688714Y-48099711D01*
X134601113Y-48230814D01*
X134601106Y-48230827D01*
X134540768Y-48376498D01*
X134540765Y-48376510D01*
X134510004Y-48531153D01*
X134510004Y-48688846D01*
X134540765Y-48843489D01*
X134540767Y-48843497D01*
X134550565Y-48867151D01*
X134560004Y-48914604D01*
X134560004Y-55266605D01*
X134540319Y-55333644D01*
X134523685Y-55354286D01*
X134417047Y-55460923D01*
X134417045Y-55460925D01*
X134387414Y-55505275D01*
X134376517Y-55521584D01*
X134366236Y-55536971D01*
X134334916Y-55583843D01*
X134334912Y-55583850D01*
X134278343Y-55720421D01*
X134278340Y-55720431D01*
X134249500Y-55865418D01*
X134249500Y-56125500D01*
X134229815Y-56192539D01*
X134177011Y-56238294D01*
X134125500Y-56249500D01*
X132462229Y-56249500D01*
X132395190Y-56229815D01*
X132374548Y-56213181D01*
X131886819Y-55725451D01*
X131853334Y-55664128D01*
X131850500Y-55637770D01*
X131850500Y-55571155D01*
X131850499Y-55571153D01*
X131829073Y-55463437D01*
X131819737Y-55416503D01*
X131814009Y-55402674D01*
X131759397Y-55270827D01*
X131759390Y-55270814D01*
X131671789Y-55139711D01*
X131671786Y-55139707D01*
X131560292Y-55028213D01*
X131560288Y-55028210D01*
X131429185Y-54940609D01*
X131429172Y-54940602D01*
X131283501Y-54880264D01*
X131283489Y-54880261D01*
X131128845Y-54849500D01*
X131128842Y-54849500D01*
X130971158Y-54849500D01*
X130971155Y-54849500D01*
X130816510Y-54880261D01*
X130816498Y-54880264D01*
X130670827Y-54940602D01*
X130670814Y-54940609D01*
X130539711Y-55028210D01*
X130539707Y-55028213D01*
X130428213Y-55139707D01*
X130428210Y-55139711D01*
X130340609Y-55270814D01*
X130340602Y-55270827D01*
X130280264Y-55416498D01*
X130280261Y-55416510D01*
X130249500Y-55571153D01*
X130249500Y-55728846D01*
X130280261Y-55883489D01*
X130280263Y-55883497D01*
X130290061Y-55907151D01*
X130299500Y-55954604D01*
X130299500Y-56023918D01*
X130299500Y-56023920D01*
X130299499Y-56023920D01*
X130314894Y-56101308D01*
X130308667Y-56170899D01*
X130265805Y-56226077D01*
X130199915Y-56249322D01*
X130193277Y-56249500D01*
X128862229Y-56249500D01*
X128795190Y-56229815D01*
X128774548Y-56213181D01*
X128286819Y-55725451D01*
X128253334Y-55664128D01*
X128250500Y-55637770D01*
X128250500Y-53054604D01*
X128259939Y-53007151D01*
X128269737Y-52983497D01*
X128300500Y-52828842D01*
X128300500Y-52671158D01*
X128300500Y-52671155D01*
X128300499Y-52671153D01*
X128283682Y-52586610D01*
X128269737Y-52516503D01*
X128227026Y-52413389D01*
X128209397Y-52370827D01*
X128209390Y-52370814D01*
X128121789Y-52239711D01*
X128121786Y-52239707D01*
X128010292Y-52128213D01*
X128010284Y-52128207D01*
X127962517Y-52096290D01*
X127917711Y-52042678D01*
X127909004Y-51973353D01*
X127939158Y-51910326D01*
X127943706Y-51905527D01*
X130962417Y-48886819D01*
X131023740Y-48853334D01*
X131050098Y-48850500D01*
X131349289Y-48850500D01*
X131349305Y-48850501D01*
X131356901Y-48850501D01*
X131515012Y-48850501D01*
X131515015Y-48850501D01*
X131667743Y-48809577D01*
X131667744Y-48809575D01*
X131675593Y-48807473D01*
X131675778Y-48808165D01*
X131714322Y-48800500D01*
X131764802Y-48800500D01*
X131764803Y-48800499D01*
X131919455Y-48769737D01*
X132065137Y-48709394D01*
X132196247Y-48621789D01*
X132307747Y-48510289D01*
X132395352Y-48379179D01*
X132396461Y-48376503D01*
X132455693Y-48233501D01*
X132455695Y-48233497D01*
X132486458Y-48078842D01*
X132486458Y-47921158D01*
X132486458Y-47921155D01*
X132486457Y-47921153D01*
X132455695Y-47766503D01*
X132454163Y-47762804D01*
X132395355Y-47620827D01*
X132395348Y-47620814D01*
X132307747Y-47489711D01*
X132307744Y-47489707D01*
X132196250Y-47378213D01*
X132196246Y-47378210D01*
X132065143Y-47290609D01*
X132065130Y-47290602D01*
X131919459Y-47230264D01*
X131919447Y-47230261D01*
X131764803Y-47199500D01*
X131764800Y-47199500D01*
X131607116Y-47199500D01*
X131607113Y-47199500D01*
X131452468Y-47230261D01*
X131452456Y-47230264D01*
X131306785Y-47290602D01*
X131306772Y-47290609D01*
X131175669Y-47378210D01*
X131175665Y-47378213D01*
X131064168Y-47489710D01*
X130994224Y-47594391D01*
X130940612Y-47639196D01*
X130891122Y-47649500D01*
X130836670Y-47649500D01*
X130836654Y-47649499D01*
X130829058Y-47649499D01*
X130670943Y-47649499D01*
X130594579Y-47669961D01*
X130518214Y-47690423D01*
X130518209Y-47690426D01*
X130381290Y-47769475D01*
X130381282Y-47769481D01*
X123977819Y-54172944D01*
X123916496Y-54206429D01*
X123865947Y-54206880D01*
X123828846Y-54199500D01*
X123828842Y-54199500D01*
X123671158Y-54199500D01*
X123671155Y-54199500D01*
X123516510Y-54230261D01*
X123516498Y-54230264D01*
X123370827Y-54290602D01*
X123370814Y-54290609D01*
X123239711Y-54378210D01*
X123239707Y-54378213D01*
X123128213Y-54489707D01*
X123128210Y-54489711D01*
X123040609Y-54620814D01*
X123040602Y-54620827D01*
X122980264Y-54766498D01*
X122980261Y-54766510D01*
X122949500Y-54921153D01*
X97000500Y-54921153D01*
X97000500Y-52413389D01*
X122149500Y-52413389D01*
X122149500Y-52586611D01*
X122176598Y-52757701D01*
X122230127Y-52922445D01*
X122308768Y-53076788D01*
X122410586Y-53216928D01*
X122533072Y-53339414D01*
X122673212Y-53441232D01*
X122827555Y-53519873D01*
X122992299Y-53573402D01*
X123163389Y-53600500D01*
X123163390Y-53600500D01*
X123336610Y-53600500D01*
X123336611Y-53600500D01*
X123507701Y-53573402D01*
X123672445Y-53519873D01*
X123826788Y-53441232D01*
X123966928Y-53339414D01*
X124089414Y-53216928D01*
X124191232Y-53076788D01*
X124269873Y-52922445D01*
X124323402Y-52757701D01*
X124350500Y-52586611D01*
X124350500Y-52413389D01*
X124323402Y-52242299D01*
X124269873Y-52077555D01*
X124191232Y-51923212D01*
X124089414Y-51783072D01*
X123966928Y-51660586D01*
X123826788Y-51558768D01*
X123672445Y-51480127D01*
X123507701Y-51426598D01*
X123507699Y-51426597D01*
X123507698Y-51426597D01*
X123376271Y-51405781D01*
X123336611Y-51399500D01*
X123163389Y-51399500D01*
X123123728Y-51405781D01*
X122992302Y-51426597D01*
X122827552Y-51480128D01*
X122673211Y-51558768D01*
X122593256Y-51616859D01*
X122533072Y-51660586D01*
X122533070Y-51660588D01*
X122533069Y-51660588D01*
X122410588Y-51783069D01*
X122410588Y-51783070D01*
X122410586Y-51783072D01*
X122368414Y-51841116D01*
X122308768Y-51923211D01*
X122230128Y-52077552D01*
X122176597Y-52242302D01*
X122160396Y-52344594D01*
X122149500Y-52413389D01*
X97000500Y-52413389D01*
X97000500Y-45413389D01*
X122149500Y-45413389D01*
X122149500Y-45586611D01*
X122176598Y-45757701D01*
X122230127Y-45922445D01*
X122308768Y-46076788D01*
X122410586Y-46216928D01*
X122533072Y-46339414D01*
X122673212Y-46441232D01*
X122827555Y-46519873D01*
X122992299Y-46573402D01*
X123163389Y-46600500D01*
X123163390Y-46600500D01*
X123336610Y-46600500D01*
X123336611Y-46600500D01*
X123507701Y-46573402D01*
X123672445Y-46519873D01*
X123826788Y-46441232D01*
X123966928Y-46339414D01*
X124089414Y-46216928D01*
X124191232Y-46076788D01*
X124269873Y-45922445D01*
X124323402Y-45757701D01*
X124350500Y-45586611D01*
X124350500Y-45413389D01*
X124323402Y-45242299D01*
X124269873Y-45077555D01*
X124191232Y-44923212D01*
X124089414Y-44783072D01*
X123966928Y-44660586D01*
X123826788Y-44558768D01*
X123672445Y-44480127D01*
X123507701Y-44426598D01*
X123507699Y-44426597D01*
X123507698Y-44426597D01*
X123376271Y-44405781D01*
X123336611Y-44399500D01*
X123163389Y-44399500D01*
X123123728Y-44405781D01*
X122992302Y-44426597D01*
X122827552Y-44480128D01*
X122673211Y-44558768D01*
X122593256Y-44616859D01*
X122533072Y-44660586D01*
X122533070Y-44660588D01*
X122533069Y-44660588D01*
X122410588Y-44783069D01*
X122410588Y-44783070D01*
X122410586Y-44783072D01*
X122366859Y-44843256D01*
X122308768Y-44923211D01*
X122230128Y-45077552D01*
X122176597Y-45242302D01*
X122158401Y-45357190D01*
X122149500Y-45413389D01*
X97000500Y-45413389D01*
X97000500Y-42374038D01*
X133899500Y-42374038D01*
X133899500Y-42625961D01*
X133938910Y-42874785D01*
X134016760Y-43114383D01*
X134131132Y-43338848D01*
X134279201Y-43542649D01*
X134279205Y-43542654D01*
X134457345Y-43720794D01*
X134457350Y-43720798D01*
X134542629Y-43782756D01*
X134661155Y-43868870D01*
X134804184Y-43941747D01*
X134885616Y-43983239D01*
X134885618Y-43983239D01*
X134885621Y-43983241D01*
X135125215Y-44061090D01*
X135374038Y-44100500D01*
X135374039Y-44100500D01*
X135625961Y-44100500D01*
X135625962Y-44100500D01*
X135874785Y-44061090D01*
X136114379Y-43983241D01*
X136338845Y-43868870D01*
X136542656Y-43720793D01*
X136720793Y-43542656D01*
X136868870Y-43338845D01*
X136983241Y-43114379D01*
X137061090Y-42874785D01*
X137100500Y-42625962D01*
X137100500Y-42374038D01*
X137061090Y-42125215D01*
X136983241Y-41885621D01*
X136983239Y-41885618D01*
X136983239Y-41885616D01*
X136941747Y-41804184D01*
X136868870Y-41661155D01*
X136849952Y-41635117D01*
X136720798Y-41457350D01*
X136720794Y-41457345D01*
X136542654Y-41279205D01*
X136542649Y-41279201D01*
X136338848Y-41131132D01*
X136338847Y-41131131D01*
X136338845Y-41131130D01*
X136268747Y-41095413D01*
X136114383Y-41016760D01*
X135874785Y-40938910D01*
X135625962Y-40899500D01*
X135374038Y-40899500D01*
X135249626Y-40919205D01*
X135125214Y-40938910D01*
X134885616Y-41016760D01*
X134661151Y-41131132D01*
X134457350Y-41279201D01*
X134457345Y-41279205D01*
X134279205Y-41457345D01*
X134279201Y-41457350D01*
X134131132Y-41661151D01*
X134016760Y-41885616D01*
X133938910Y-42125214D01*
X133899500Y-42374038D01*
X97000500Y-42374038D01*
X97000500Y-39124500D01*
X97020185Y-39057461D01*
X97072989Y-39011706D01*
X97124500Y-39000500D01*
X151125500Y-39000500D01*
X151192539Y-39020185D01*
G37*
%TD.AperFunction*%
%TD*%
M02*
