%TF.GenerationSoftware,KiCad,Pcbnew,10.0.5*%
%TF.CreationDate,2026-08-30T15:46:17-07:00*%
%TF.ProjectId,ESP_32_IEM_RIG_RX_VER_1.0,4553505f-3332-45f4-9945-4d5f5249475f,0.0.0*%
%TF.SameCoordinates,Original*%
%TF.FileFunction,Soldermask,Top*%
%TF.FilePolarity,Negative*%
%FSLAX46Y46*%
G04 Gerber Fmt 4.6, Leading zero omitted, Abs format (unit mm)*
G04 Created by KiCad (PCBNEW 10.0.5) date 2026-08-30 15:46:17*
%MOMM*%
%LPD*%
G01*
G04 APERTURE LIST*
G04 Aperture macros list*
%AMRoundRect*
0 Rectangle with rounded corners*
0 $1 Rounding radius*
0 $2 $3 $4 $5 $6 $7 $8 $9 X,Y pos of 4 corners*
0 Add a 4 corners polygon primitive as box body*
4,1,4,$2,$3,$4,$5,$6,$7,$8,$9,$2,$3,0*
0 Add four circle primitives for the rounded corners*
1,1,$1+$1,$2,$3*
1,1,$1+$1,$4,$5*
1,1,$1+$1,$6,$7*
1,1,$1+$1,$8,$9*
0 Add four rect primitives between the rounded corners*
20,1,$1+$1,$2,$3,$4,$5,0*
20,1,$1+$1,$4,$5,$6,$7,0*
20,1,$1+$1,$6,$7,$8,$9,0*
20,1,$1+$1,$8,$9,$2,$3,0*%
G04 Aperture macros list end*
%ADD10RoundRect,0.250000X-0.337500X-0.475000X0.337500X-0.475000X0.337500X0.475000X-0.337500X0.475000X0*%
%ADD11RoundRect,0.250000X-0.450000X0.350000X-0.450000X-0.350000X0.450000X-0.350000X0.450000X0.350000X0*%
%ADD12RoundRect,0.075000X-0.362500X-0.075000X0.362500X-0.075000X0.362500X0.075000X-0.362500X0.075000X0*%
%ADD13RoundRect,0.075000X-0.075000X-0.362500X0.075000X-0.362500X0.075000X0.362500X-0.075000X0.362500X0*%
%ADD14R,2.450000X2.450000*%
%ADD15RoundRect,0.250000X-0.350000X-0.450000X0.350000X-0.450000X0.350000X0.450000X-0.350000X0.450000X0*%
%ADD16RoundRect,0.250000X0.450000X-0.350000X0.450000X0.350000X-0.450000X0.350000X-0.450000X-0.350000X0*%
%ADD17RoundRect,0.175000X0.175000X0.325000X-0.175000X0.325000X-0.175000X-0.325000X0.175000X-0.325000X0*%
%ADD18RoundRect,0.150000X0.200000X0.150000X-0.200000X0.150000X-0.200000X-0.150000X0.200000X-0.150000X0*%
%ADD19RoundRect,0.250000X0.475000X-0.337500X0.475000X0.337500X-0.475000X0.337500X-0.475000X-0.337500X0*%
%ADD20RoundRect,0.250000X-0.475000X0.337500X-0.475000X-0.337500X0.475000X-0.337500X0.475000X0.337500X0*%
%ADD21RoundRect,0.250000X0.350000X0.450000X-0.350000X0.450000X-0.350000X-0.450000X0.350000X-0.450000X0*%
%ADD22RoundRect,0.250000X0.337500X0.475000X-0.337500X0.475000X-0.337500X-0.475000X0.337500X-0.475000X0*%
%ADD23R,2.800000X2.200000*%
%ADD24R,2.800000X2.800000*%
%ADD25RoundRect,0.150000X0.150000X-0.587500X0.150000X0.587500X-0.150000X0.587500X-0.150000X-0.587500X0*%
%ADD26RoundRect,0.150000X-0.150000X-0.500000X0.150000X-0.500000X0.150000X0.500000X-0.150000X0.500000X0*%
%ADD27RoundRect,0.175000X-0.350000X-0.175000X0.350000X-0.175000X0.350000X0.175000X-0.350000X0.175000X0*%
%ADD28R,1.500000X0.900000*%
%ADD29R,0.900000X1.500000*%
%ADD30C,0.600000*%
%ADD31R,3.800000X3.800000*%
%ADD32RoundRect,0.135750X0.101250X-0.386250X0.101250X0.386250X-0.101250X0.386250X-0.101250X-0.386250X0*%
%ADD33RoundRect,0.135750X0.386250X-0.101250X0.386250X0.101250X-0.386250X0.101250X-0.386250X-0.101250X0*%
%ADD34RoundRect,0.102000X0.550000X-0.550000X0.550000X0.550000X-0.550000X0.550000X-0.550000X-0.550000X0*%
%ADD35RoundRect,0.150000X-0.425000X0.150000X-0.425000X-0.150000X0.425000X-0.150000X0.425000X0.150000X0*%
%ADD36RoundRect,0.075000X-0.500000X0.075000X-0.500000X-0.075000X0.500000X-0.075000X0.500000X0.075000X0*%
%ADD37O,2.100000X1.000000*%
%ADD38O,1.800000X1.000000*%
%ADD39R,1.500000X1.500000*%
%ADD40C,1.500000*%
%ADD41RoundRect,0.250001X-0.507499X-0.944999X0.507499X-0.944999X0.507499X0.944999X-0.507499X0.944999X0*%
%ADD42RoundRect,0.102000X1.075000X0.475000X-1.075000X0.475000X-1.075000X-0.475000X1.075000X-0.475000X0*%
%ADD43RoundRect,0.102000X1.075000X1.625000X-1.075000X1.625000X-1.075000X-1.625000X1.075000X-1.625000X0*%
%ADD44RoundRect,0.100000X-0.100000X0.637500X-0.100000X-0.637500X0.100000X-0.637500X0.100000X0.637500X0*%
%ADD45RoundRect,0.150000X0.500000X-0.150000X0.500000X0.150000X-0.500000X0.150000X-0.500000X-0.150000X0*%
%ADD46RoundRect,0.175000X0.175000X-0.350000X0.175000X0.350000X-0.175000X0.350000X-0.175000X-0.350000X0*%
G04 APERTURE END LIST*
D10*
%TO.C,C30*%
X124225000Y-124250000D03*
X126300000Y-124250000D03*
%TD*%
D11*
%TO.C,R9*%
X128250000Y-62250000D03*
X128250000Y-64250000D03*
%TD*%
D12*
%TO.C,U5*%
X140312500Y-112390000D03*
X140312500Y-112890000D03*
X140312500Y-113390000D03*
X140312500Y-113890000D03*
X140312500Y-114390000D03*
X140312500Y-114890000D03*
D13*
X141000000Y-115577500D03*
X141500000Y-115577500D03*
X142000000Y-115577500D03*
X142500000Y-115577500D03*
X143000000Y-115577500D03*
X143500000Y-115577500D03*
D12*
X144187500Y-114890000D03*
X144187500Y-114390000D03*
X144187500Y-113890000D03*
X144187500Y-113390000D03*
X144187500Y-112890000D03*
X144187500Y-112390000D03*
D13*
X143500000Y-111702500D03*
X143000000Y-111702500D03*
X142500000Y-111702500D03*
X142000000Y-111702500D03*
X141500000Y-111702500D03*
X141000000Y-111702500D03*
D14*
X142250000Y-113640000D03*
%TD*%
D15*
%TO.C,R26*%
X145187500Y-119077500D03*
X147187500Y-119077500D03*
%TD*%
D16*
%TO.C,R8*%
X133500000Y-119750000D03*
X133500000Y-117750000D03*
%TD*%
D17*
%TO.C,D1*%
X107500000Y-114450000D03*
D18*
X107500000Y-112750000D03*
X105500000Y-112750000D03*
X105500000Y-114650000D03*
%TD*%
D10*
%TO.C,C6*%
X136265000Y-51210000D03*
X138340000Y-51210000D03*
%TD*%
D19*
%TO.C,C2*%
X126250000Y-72537500D03*
X126250000Y-70462500D03*
%TD*%
D20*
%TO.C,C28*%
X130000000Y-48962500D03*
X130000000Y-51037500D03*
%TD*%
D19*
%TO.C,C15*%
X146075000Y-75862500D03*
X146075000Y-73787500D03*
%TD*%
D15*
%TO.C,R32*%
X148500000Y-68250000D03*
X150500000Y-68250000D03*
%TD*%
D20*
%TO.C,C25*%
X140500000Y-117712500D03*
X140500000Y-119787500D03*
%TD*%
%TO.C,C27*%
X136250000Y-114925000D03*
X136250000Y-117000000D03*
%TD*%
D10*
%TO.C,C9*%
X136250000Y-47750000D03*
X138325000Y-47750000D03*
%TD*%
D21*
%TO.C,R24*%
X104000000Y-120000000D03*
X102000000Y-120000000D03*
%TD*%
D10*
%TO.C,C22*%
X124225000Y-126250000D03*
X126300000Y-126250000D03*
%TD*%
D22*
%TO.C,C10*%
X132500000Y-46750000D03*
X130425000Y-46750000D03*
%TD*%
D23*
%TO.C,J1*%
X126950000Y-46400000D03*
X119550000Y-44400000D03*
D24*
X119550000Y-53800000D03*
%TD*%
D20*
%TO.C,C17*%
X146700000Y-85325000D03*
X146700000Y-87400000D03*
%TD*%
D25*
%TO.C,Q1*%
X138660000Y-107912500D03*
X140560000Y-107912500D03*
X139610000Y-106037500D03*
%TD*%
D10*
%TO.C,C7*%
X134212500Y-53250000D03*
X136287500Y-53250000D03*
%TD*%
D26*
%TO.C,SW2*%
X144500000Y-125000000D03*
X147500000Y-125000000D03*
X149000000Y-125000000D03*
D27*
X143075000Y-125850000D03*
X143075000Y-128050000D03*
X150425000Y-125850000D03*
X150425000Y-128050000D03*
%TD*%
D26*
%TO.C,SW4*%
X99000000Y-125050000D03*
X102000000Y-125050000D03*
X103500000Y-125050000D03*
D27*
X97575000Y-125900000D03*
X97575000Y-128100000D03*
X104925000Y-125900000D03*
X104925000Y-128100000D03*
%TD*%
D28*
%TO.C,U2*%
X113750000Y-100050000D03*
X113750000Y-101320000D03*
X113750000Y-102590000D03*
X113750000Y-103860000D03*
X113750000Y-105130000D03*
X113750000Y-106400000D03*
X113750000Y-107670000D03*
X113750000Y-108940000D03*
X113750000Y-110210000D03*
X113750000Y-111480000D03*
X113750000Y-112750000D03*
X113750000Y-114020000D03*
X113750000Y-115290000D03*
X113750000Y-116560000D03*
D29*
X116785000Y-117655000D03*
X118055000Y-117655000D03*
X119325000Y-117655000D03*
X120595000Y-117655000D03*
X121865000Y-117655000D03*
X123135000Y-117655000D03*
X124405000Y-117655000D03*
X125675000Y-117655000D03*
X126945000Y-117655000D03*
X128215000Y-117655000D03*
D28*
X131250000Y-116560000D03*
X131250000Y-115290000D03*
X131250000Y-114020000D03*
X131250000Y-112750000D03*
X131250000Y-111480000D03*
X131250000Y-110210000D03*
X131250000Y-108940000D03*
X131250000Y-107670000D03*
X131250000Y-106400000D03*
X131250000Y-105130000D03*
X131250000Y-103860000D03*
X131250000Y-102590000D03*
X131250000Y-101320000D03*
X131250000Y-100050000D03*
D30*
X119600000Y-106915000D03*
X119600000Y-108315000D03*
X120300000Y-106215000D03*
X120300000Y-107615000D03*
X120300000Y-109015000D03*
X121000000Y-106915000D03*
D31*
X121000000Y-107615000D03*
D30*
X121000000Y-108315000D03*
X121700000Y-106215000D03*
X121700000Y-107615000D03*
X121700000Y-109015000D03*
X122400000Y-106915000D03*
X122400000Y-108315000D03*
%TD*%
D32*
%TO.C,U3*%
X132525000Y-51395000D03*
X133025000Y-51395000D03*
X133525000Y-51395000D03*
X134025000Y-51395000D03*
D33*
X134710000Y-50710000D03*
X134710000Y-50210000D03*
X134710000Y-49710000D03*
X134710000Y-49210000D03*
D32*
X134025000Y-48525000D03*
X133525000Y-48525000D03*
X133025000Y-48525000D03*
X132525000Y-48525000D03*
D33*
X131840000Y-49210000D03*
X131840000Y-49710000D03*
X131840000Y-50210000D03*
X131840000Y-50710000D03*
D34*
X133275000Y-49960000D03*
%TD*%
D15*
%TO.C,R27*%
X145187500Y-117077500D03*
X147187500Y-117077500D03*
%TD*%
D20*
%TO.C,C26*%
X138250000Y-114925000D03*
X138250000Y-117000000D03*
%TD*%
D35*
%TO.C,J6*%
X103680000Y-110300000D03*
X103680000Y-111100000D03*
D36*
X103680000Y-112250000D03*
X103680000Y-113250000D03*
X103680000Y-113750000D03*
X103680000Y-114750000D03*
D35*
X103680000Y-115900000D03*
X103680000Y-116700000D03*
X103680000Y-116700000D03*
X103680000Y-115900000D03*
D36*
X103680000Y-115250000D03*
X103680000Y-114250000D03*
X103680000Y-112750000D03*
X103680000Y-111750000D03*
D35*
X103680000Y-111100000D03*
X103680000Y-110300000D03*
D37*
X103105000Y-109180000D03*
D38*
X98925000Y-109180000D03*
D37*
X103105000Y-117820000D03*
D38*
X98925000Y-117820000D03*
%TD*%
D16*
%TO.C,R30*%
X136250000Y-106250000D03*
X136250000Y-104250000D03*
%TD*%
D22*
%TO.C,C19*%
X139825000Y-77612500D03*
X137750000Y-77612500D03*
%TD*%
D15*
%TO.C,R11*%
X144360000Y-110037500D03*
X146360000Y-110037500D03*
%TD*%
D16*
%TO.C,R3*%
X126250000Y-64250000D03*
X126250000Y-62250000D03*
%TD*%
D19*
%TO.C,C8*%
X132250000Y-54997500D03*
X132250000Y-52922500D03*
%TD*%
D16*
%TO.C,R16*%
X143575000Y-75737500D03*
X143575000Y-73737500D03*
%TD*%
D21*
%TO.C,R31*%
X139750000Y-83500000D03*
X137750000Y-83500000D03*
%TD*%
D22*
%TO.C,C12*%
X139825000Y-79612500D03*
X137750000Y-79612500D03*
%TD*%
D39*
%TO.C,VR1*%
X147750000Y-44250000D03*
D40*
X145250000Y-44250000D03*
X142750000Y-44250000D03*
X147750000Y-46750000D03*
X145250000Y-46750000D03*
X142750000Y-46750000D03*
X147750000Y-53000000D03*
X142750000Y-53000000D03*
%TD*%
D19*
%TO.C,C1*%
X121500000Y-72575000D03*
X121500000Y-70500000D03*
%TD*%
D41*
%TO.C,C23*%
X124245000Y-121500000D03*
X127500000Y-121500000D03*
%TD*%
D19*
%TO.C,C3*%
X128250000Y-72575000D03*
X128250000Y-70500000D03*
%TD*%
%TO.C,C20*%
X143500000Y-71525000D03*
X143500000Y-69450000D03*
%TD*%
%TO.C,C4*%
X134750000Y-72575000D03*
X134750000Y-70500000D03*
%TD*%
D25*
%TO.C,Q2*%
X144410000Y-107912500D03*
X146310000Y-107912500D03*
X145360000Y-106037500D03*
%TD*%
D42*
%TO.C,U4*%
X121875000Y-126550000D03*
X121875000Y-124250000D03*
X121875000Y-121950000D03*
D43*
X116075000Y-124250000D03*
%TD*%
D19*
%TO.C,C13*%
X148950000Y-79737500D03*
X148950000Y-77662500D03*
%TD*%
D16*
%TO.C,R1*%
X121500000Y-64250000D03*
X121500000Y-62250000D03*
%TD*%
%TO.C,R5*%
X126250000Y-68750000D03*
X126250000Y-66750000D03*
%TD*%
D19*
%TO.C,C16*%
X148700000Y-86025000D03*
X148700000Y-83950000D03*
%TD*%
D16*
%TO.C,R10*%
X134750000Y-64250000D03*
X134750000Y-62250000D03*
%TD*%
%TO.C,R17*%
X141575000Y-75737500D03*
X141575000Y-73737500D03*
%TD*%
D19*
%TO.C,C14*%
X148075000Y-75862500D03*
X148075000Y-73787500D03*
%TD*%
D16*
%TO.C,R2*%
X134750000Y-68750000D03*
X134750000Y-66750000D03*
%TD*%
D20*
%TO.C,C31*%
X136250000Y-108175000D03*
X136250000Y-110250000D03*
%TD*%
D16*
%TO.C,R6*%
X128250000Y-68750000D03*
X128250000Y-66750000D03*
%TD*%
D19*
%TO.C,C21*%
X141500000Y-71575000D03*
X141500000Y-69500000D03*
%TD*%
D22*
%TO.C,C5*%
X111825000Y-103750000D03*
X109750000Y-103750000D03*
%TD*%
D21*
%TO.C,R7*%
X140485000Y-110037500D03*
X138485000Y-110037500D03*
%TD*%
D44*
%TO.C,U1*%
X147250000Y-77750000D03*
X146600000Y-77750000D03*
X145950000Y-77750000D03*
X145300000Y-77750000D03*
X144650000Y-77750000D03*
X144000000Y-77750000D03*
X143350000Y-77750000D03*
X142700000Y-77750000D03*
X142050000Y-77750000D03*
X141400000Y-77750000D03*
X141400000Y-83475000D03*
X142050000Y-83475000D03*
X142700000Y-83475000D03*
X143350000Y-83475000D03*
X144000000Y-83475000D03*
X144650000Y-83475000D03*
X145300000Y-83475000D03*
X145950000Y-83475000D03*
X146600000Y-83475000D03*
X147250000Y-83475000D03*
%TD*%
D16*
%TO.C,R4*%
X121500000Y-68750000D03*
X121500000Y-66750000D03*
%TD*%
D45*
%TO.C,SW3*%
X147550000Y-64500000D03*
X147550000Y-61500000D03*
X147550000Y-60000000D03*
D46*
X148400000Y-65925000D03*
X150600000Y-65925000D03*
X148400000Y-58575000D03*
X150600000Y-58575000D03*
%TD*%
D21*
%TO.C,R25*%
X147187500Y-121077500D03*
X145187500Y-121077500D03*
%TD*%
%TO.C,R23*%
X104000000Y-107000000D03*
X102000000Y-107000000D03*
%TD*%
%TO.C,R22*%
X142250000Y-57750000D03*
X140250000Y-57750000D03*
%TD*%
D22*
%TO.C,C11*%
X111825000Y-101750000D03*
X109750000Y-101750000D03*
%TD*%
D20*
%TO.C,C24*%
X142500000Y-117712500D03*
X142500000Y-119787500D03*
%TD*%
M02*
