M48
; DRILL file KiCad 10.0.6 date 2026-09-05T00:08:37
; FORMAT={-:-/ absolute / metric / decimal}
; #@! TF.CreationDate,2026-09-05T00:08:37-07:00
; #@! TF.GenerationSoftware,Kicad,Pcbnew,10.0.6
; #@! TF.FileFunction,Plated,1,2,PTH
FMAT,2
METRIC
; #@! TA.AperFunction,Plated,PTH,ComponentDrill
T1C0.200
; #@! TA.AperFunction,Plated,PTH,ViaDrill
T2C0.300
; #@! TA.AperFunction,Plated,PTH,ComponentDrill
T3C0.600
; #@! TA.AperFunction,Plated,PTH,ComponentDrill
T4C1.000
%
G90
G05
T1
X77.135Y-62.05
X77.135Y-63.45
X77.835Y-61.35
X77.835Y-62.75
X77.835Y-64.15
X78.535Y-62.05
X78.535Y-63.45
X79.235Y-61.35
X79.235Y-62.75
X79.235Y-64.15
X79.935Y-62.05
X79.935Y-63.45
T2
X59.9Y-69.225
X61.9Y-59.625
X61.9Y-61.875
X61.9Y-69.225
X62.4Y-89.0
X62.65Y-81.25
X63.472Y-85.25
X63.9Y-71.0
X64.72Y-85.438
X65.4Y-83.188
X66.15Y-42.75
X67.01Y-90.188
X68.025Y-78.875
X68.33Y-42.75
X69.9Y-58.5
X70.26Y-88.438
X71.26Y-76.688
X71.912Y-50.238
X72.26Y-75.5
X72.4Y-48.25
X73.0Y-52.174
X73.025Y-51.125
X73.06Y-75.506
X73.15Y-44.155
X73.26Y-80.978
X73.65Y-53.75
X74.65Y-78.0
X75.576Y-84.745
X75.669Y-83.694
X76.773Y-84.799
X76.9Y-42.75
X77.694Y-84.023
X77.9Y-75.75
X79.214Y-53.814
X79.25Y-52.0
X80.26Y-83.337
X80.26Y-85.438
X81.26Y-80.688
X81.26Y-83.537
X83.15Y-78.0
X83.56Y-57.0
X85.15Y-78.75
X85.15Y-89.75
X85.15Y-92.0
X86.051Y-51.4
X86.15Y-57.0
X86.15Y-71.5
X88.15Y-53.25
X95.15Y-92.0
X97.9Y-84.25
X97.9Y-91.9
X98.9Y-90.0
X100.15Y-81.5
X102.5Y-77.75
X103.65Y-90.25
X103.9Y-86.5
X104.037Y-83.825
X104.037Y-88.325
X104.65Y-90.75
X104.787Y-82.25
X107.037Y-83.825
X107.037Y-87.025
X107.037Y-87.825
X107.65Y-78.5
X110.9Y-78.75
X111.9Y-91.125
X112.612Y-69.037
X113.9Y-89.25
X114.4Y-88.0
X116.15Y-92.25
X117.675Y-84.275
X118.9Y-89.0
X122.9Y-89.25
X123.9Y-78.25
X125.15Y-69.0
X126.65Y-82.25
X127.4Y-80.0
X129.9Y-77.5
X129.9Y-82.0
X130.5Y-72.8
X130.65Y-80.0
X130.9Y-89.5
X131.15Y-65.5
X131.15Y-75.5
X132.8Y-79.25
X133.4Y-69.25
X133.4Y-80.0
X133.9Y-71.25
X136.34Y-79.061
X136.9Y-80.75
X137.54Y-77.061
X138.15Y-73.436
X138.4Y-89.5
X138.55Y-71.0
X139.15Y-83.0
X142.15Y-63.5
T4
X133.15Y-84.5
X133.15Y-89.5
X139.4Y-84.5
X139.4Y-87.0
X139.4Y-89.5
X141.9Y-84.5
X141.9Y-87.0
X141.9Y-89.5
T3
X68.33Y-41.075G85X68.33Y-40.275
G05
X68.33Y-45.405G85X68.33Y-44.305
G05
X76.97Y-41.075G85X76.97Y-40.275
G05
X76.97Y-45.405G85X76.97Y-44.305
G05
M30
