M48
; DRILL file KiCad 10.0.6 date 2026-09-05T00:08:37
; FORMAT={-:-/ absolute / metric / decimal}
; #@! TF.CreationDate,2026-09-05T00:08:37-07:00
; #@! TF.GenerationSoftware,Kicad,Pcbnew,10.0.6
; #@! TF.FileFunction,Plated,1,2,PTH
FMAT,2
METRIC
; #@! TA.AperFunction,Plated,PTH,ComponentDrill
T1C0.200
; #@! TA.AperFunction,Plated,PTH,ViaDrill
T2C0.300
; #@! TA.AperFunction,Plated,PTH,ComponentDrill
T3C0.600
%
G90
G05
T1
X83.392Y-63.035
X83.392Y-64.435
X84.093Y-62.335
X84.093Y-63.735
X84.093Y-65.135
X84.792Y-63.035
X84.792Y-64.435
X85.492Y-62.335
X85.492Y-63.735
X85.492Y-65.135
X86.192Y-63.035
X86.192Y-64.435
T2
X62.752Y-69.235
X64.752Y-69.235
X64.802Y-59.835
X64.802Y-61.335
X68.252Y-70.735
X70.002Y-83.735
X70.002Y-85.985
X74.54Y-81.422
X74.54Y-83.422
X75.252Y-43.235
X75.847Y-75.735
X76.302Y-89.835
X76.502Y-59.58
X77.252Y-77.297
X77.252Y-79.297
X77.752Y-43.985
X80.752Y-85.985
X80.828Y-75.56
X80.903Y-49.635
X81.351Y-52.432
X81.751Y-45.19
X81.752Y-85.985
X81.902Y-49.635
X81.994Y-76.232
X82.395Y-52.627
X82.588Y-75.628
X82.703Y-51.635
X83.502Y-79.485
X83.703Y-58.235
X84.752Y-66.58
X85.06Y-83.777
X85.512Y-82.105
X85.902Y-43.835
X86.203Y-75.936
X86.259Y-82.978
X87.277Y-75.336
X88.252Y-43.235
X88.252Y-81.485
X88.902Y-69.235
X89.002Y-50.485
X89.002Y-75.485
X89.752Y-57.985
X90.502Y-61.035
X90.502Y-69.835
X90.502Y-71.235
X91.002Y-50.485
X92.252Y-58.08
X92.252Y-72.33
X107.902Y-92.635
X109.102Y-89.835
X113.5Y-80.175
X113.5Y-89.25
X115.5Y-80.175
X115.5Y-89.25
X115.537Y-78.55
X116.938Y-88.0
X117.336Y-88.694
X117.5Y-77.0
X119.25Y-83.25
X119.25Y-85.25
X119.5Y-77.0
X121.787Y-85.05
X121.787Y-86.3
X128.812Y-91.644
X129.037Y-82.8
X129.037Y-85.05
X129.037Y-87.05
X129.225Y-78.37
X142.287Y-83.05
T3
X77.432Y-42.31G85X77.432Y-41.51
G05
X77.432Y-46.64G85X77.432Y-45.54
G05
X86.072Y-42.31G85X86.072Y-41.51
G05
X86.072Y-46.64G85X86.072Y-45.54
G05
M30
