%TF.GenerationSoftware,KiCad,Pcbnew,10.0.6*%
%TF.CreationDate,2026-09-02T21:57:15-07:00*%
%TF.ProjectId,ESP_32_IEM_RIG_TX_VER_1.0,4553505f-3332-45f4-9945-4d5f5249475f,1.0.0*%
%TF.SameCoordinates,Original*%
%TF.FileFunction,Copper,L2,Bot*%
%TF.FilePolarity,Positive*%
%FSLAX46Y46*%
G04 Gerber Fmt 4.6, Leading zero omitted, Abs format (unit mm)*
G04 Created by KiCad (PCBNEW 10.0.6) date 2026-09-02 21:57:15*
%MOMM*%
%LPD*%
G01*
G04 APERTURE LIST*
%TA.AperFunction,HeatsinkPad*%
%ADD10C,0.600000*%
%TD*%
%TA.AperFunction,ComponentPad*%
%ADD11O,1.000000X2.100000*%
%TD*%
%TA.AperFunction,ComponentPad*%
%ADD12O,1.000000X1.800000*%
%TD*%
%TA.AperFunction,ViaPad*%
%ADD13C,0.600000*%
%TD*%
%TA.AperFunction,Conductor*%
%ADD14C,0.500000*%
%TD*%
%TA.AperFunction,Conductor*%
%ADD15C,0.200000*%
%TD*%
G04 APERTURE END LIST*
D10*
%TO.P,U2,39,GND_39*%
%TO.N,GND*%
X85492500Y-62335000D03*
X84092500Y-62335000D03*
X86192500Y-63035000D03*
X84792500Y-63035000D03*
X83392500Y-63035000D03*
X85492500Y-63735000D03*
X84092500Y-63735000D03*
X86192500Y-64435000D03*
X84792500Y-64435000D03*
X83392500Y-64435000D03*
X85492500Y-65135000D03*
X84092500Y-65135000D03*
%TD*%
D11*
%TO.P,J6,SH,SHIELD_SH*%
%TO.N,GND*%
X86072500Y-46090000D03*
D12*
X86072500Y-41910000D03*
D11*
X77432500Y-46090000D03*
D12*
X77432500Y-41910000D03*
%TD*%
D13*
%TO.N,+3V3*%
X70002500Y-85985000D03*
X70002500Y-83735000D03*
%TO.N,GND*%
X119250000Y-83250000D03*
X91002500Y-50485000D03*
X85902500Y-43835000D03*
X113500000Y-80175000D03*
X92252500Y-72330000D03*
X77252500Y-79297500D03*
X64802500Y-61335000D03*
X74540000Y-81422500D03*
X129037500Y-82800000D03*
X113500000Y-89250000D03*
X64752500Y-69235000D03*
X76502500Y-59580000D03*
X62752500Y-69235000D03*
X80902500Y-49635000D03*
X128812500Y-91643750D03*
X74540000Y-83422500D03*
X119250000Y-85250000D03*
X92252500Y-58080000D03*
X129037500Y-85050000D03*
X77752500Y-43985000D03*
X142287500Y-83050000D03*
X119500000Y-77000000D03*
X83502500Y-79485000D03*
X77252500Y-77297500D03*
X115500000Y-80175000D03*
X75252500Y-43235000D03*
X129225000Y-78370000D03*
X129037500Y-87050000D03*
X89002500Y-50485000D03*
X64802500Y-59835000D03*
X117500000Y-77000000D03*
X68252500Y-70735000D03*
X76302500Y-89835000D03*
X88252500Y-43235000D03*
X115500000Y-89250000D03*
X84752500Y-66580000D03*
%TO.N,/ESP Transmitter/ESP_EN*%
X89752500Y-57985000D03*
X89002500Y-75485000D03*
%TO.N,+5V*%
X107902500Y-92635000D03*
X109102500Y-89835000D03*
%TO.N,/ADC/SCK*%
X117336176Y-88693586D03*
X75847500Y-75735000D03*
X81752500Y-85985000D03*
X90502500Y-71235000D03*
%TO.N,/ADC/LRCK*%
X83702500Y-58235000D03*
X116937500Y-88000000D03*
X88902500Y-69235000D03*
X90502500Y-69835000D03*
%TO.N,/ADC/BCK*%
X90502500Y-61035000D03*
X121787500Y-86300000D03*
%TO.N,/ADC/DIN*%
X115537500Y-78550000D03*
X121787500Y-85050000D03*
%TO.N,/Power Management/VBUS_RAW*%
X81902500Y-49635000D03*
X81751083Y-45190301D03*
%TO.N,Net-(U5-D-)*%
X82702500Y-51635000D03*
X81350875Y-52431904D03*
X81993551Y-76232017D03*
%TO.N,Net-(U5-D+)*%
X82587921Y-75627968D03*
X82394929Y-52627428D03*
%TO.N,Net-(U5-VDD)*%
X80827500Y-75560000D03*
X80752500Y-85985000D03*
%TO.N,/ESP Transmitter/TXD*%
X87277500Y-75335735D03*
X85511521Y-82104962D03*
%TO.N,/ESP Transmitter/RXD*%
X86203235Y-75935735D03*
X85059533Y-83776807D03*
%TO.N,Net-(Q1-E)*%
X88252500Y-81485000D03*
X86259485Y-82978015D03*
%TD*%
%TO.N,+3V3*%
D14*
X70002500Y-83735000D02*
X70002500Y-85985000D01*
%TO.N,/ESP Transmitter/ESP_EN*%
D15*
X89252500Y-75485000D02*
X89002500Y-75485000D01*
X89752500Y-74985000D02*
X89252500Y-75485000D01*
X89752500Y-57985000D02*
X89752500Y-74985000D01*
%TO.N,+5V*%
D14*
X109102500Y-91435000D02*
X109102500Y-89835000D01*
X107902500Y-92635000D02*
X109102500Y-91435000D01*
%TO.N,/ADC/SCK*%
D15*
X76152500Y-87385000D02*
X76502500Y-87735000D01*
X116831083Y-88693586D02*
X117336176Y-88693586D01*
X79851029Y-87735000D02*
X81601029Y-85985000D01*
X75847500Y-75735000D02*
X76002500Y-75890000D01*
X90502500Y-71235000D02*
X95502500Y-71235000D01*
X112917500Y-88650000D02*
X116787497Y-88650000D01*
X76502500Y-87735000D02*
X79851029Y-87735000D01*
X116787497Y-88650000D02*
X116831083Y-88693586D01*
X76002500Y-75890000D02*
X76002500Y-87235000D01*
X95502500Y-71235000D02*
X112917500Y-88650000D01*
X81601029Y-85985000D02*
X81752500Y-85985000D01*
X76002500Y-87235000D02*
X76152500Y-87385000D01*
%TO.N,/ADC/LRCK*%
X88902500Y-63635000D02*
X83702500Y-58435000D01*
X95122500Y-69835000D02*
X113287500Y-88000000D01*
X113287500Y-88000000D02*
X116937500Y-88000000D01*
X90502500Y-69835000D02*
X95122500Y-69835000D01*
X83702500Y-58435000D02*
X83702500Y-58235000D01*
X88902500Y-69235000D02*
X88902500Y-63635000D01*
%TO.N,/ADC/BCK*%
X120137500Y-84650000D02*
X121787500Y-86300000D01*
X120137500Y-84550000D02*
X120137500Y-84650000D01*
X114017500Y-84550000D02*
X120137500Y-84550000D01*
X90502500Y-61035000D02*
X114017500Y-84550000D01*
%TO.N,/ADC/DIN*%
X120937500Y-78550000D02*
X115537500Y-78550000D01*
X121787500Y-85050000D02*
X121787500Y-79400000D01*
X121787500Y-79400000D02*
X120937500Y-78550000D01*
%TO.N,/Power Management/VBUS_RAW*%
X81752500Y-49485000D02*
X81752500Y-45191718D01*
X81752500Y-45191718D02*
X81751083Y-45190301D01*
X81902500Y-49635000D02*
X81752500Y-49485000D01*
%TO.N,Net-(U5-D-)*%
X81987921Y-53068950D02*
X81350875Y-52431904D01*
X81987921Y-76226387D02*
X81987921Y-53068950D01*
X81993551Y-76232017D02*
X81987921Y-76226387D01*
X82147779Y-51635000D02*
X81350875Y-52431904D01*
X82702500Y-51635000D02*
X82147779Y-51635000D01*
%TO.N,Net-(U5-D+)*%
X82394929Y-52627428D02*
X82387921Y-52634436D01*
X82387921Y-52634436D02*
X82387921Y-75427968D01*
X82387921Y-75427968D02*
X82587921Y-75627968D01*
%TO.N,Net-(U5-VDD)*%
X80752500Y-85985000D02*
X80752500Y-75635000D01*
X80752500Y-75635000D02*
X80827500Y-75560000D01*
%TO.N,/ESP Transmitter/TXD*%
X87277500Y-75335735D02*
X87277500Y-75710000D01*
X85426765Y-77560735D02*
X85426765Y-82020206D01*
X87277500Y-75710000D02*
X85426765Y-77560735D01*
X85426765Y-82020206D02*
X85511521Y-82104962D01*
%TO.N,/ESP Transmitter/RXD*%
X86051765Y-75935735D02*
X84911521Y-77075979D01*
X86203235Y-75935735D02*
X86051765Y-75935735D01*
X84911521Y-83628795D02*
X85059533Y-83776807D01*
X84911521Y-77075979D02*
X84911521Y-83628795D01*
%TO.N,Net-(Q1-E)*%
X88252500Y-81485000D02*
X87009485Y-82728015D01*
X87009485Y-82728015D02*
X86259485Y-82728015D01*
%TD*%
%TA.AperFunction,Conductor*%
%TO.N,GND*%
G36*
X150195039Y-39130185D02*
G01*
X150240794Y-39182989D01*
X150252000Y-39234500D01*
X150252000Y-93235500D01*
X150232315Y-93302539D01*
X150179511Y-93348294D01*
X150128000Y-93359500D01*
X108609441Y-93359500D01*
X108542402Y-93339815D01*
X108496647Y-93287011D01*
X108486703Y-93217853D01*
X108515728Y-93154297D01*
X108521760Y-93147819D01*
X108524286Y-93145292D01*
X108524289Y-93145289D01*
X108524290Y-93145288D01*
X108611894Y-93014179D01*
X108621691Y-92990524D01*
X108648569Y-92950297D01*
X109685451Y-91913416D01*
X109767584Y-91790495D01*
X109824158Y-91653913D01*
X109853000Y-91508918D01*
X109853000Y-91361083D01*
X109853000Y-90139604D01*
X109862439Y-90092151D01*
X109872237Y-90068497D01*
X109903000Y-89913842D01*
X109903000Y-89756158D01*
X109903000Y-89756155D01*
X109902999Y-89756153D01*
X109872238Y-89601510D01*
X109872237Y-89601503D01*
X109827744Y-89494086D01*
X109811897Y-89455827D01*
X109811890Y-89455814D01*
X109724289Y-89324711D01*
X109724286Y-89324707D01*
X109612792Y-89213213D01*
X109612788Y-89213210D01*
X109481685Y-89125609D01*
X109481672Y-89125602D01*
X109336001Y-89065264D01*
X109335989Y-89065261D01*
X109181345Y-89034500D01*
X109181342Y-89034500D01*
X109023658Y-89034500D01*
X109023655Y-89034500D01*
X108869010Y-89065261D01*
X108868998Y-89065264D01*
X108723327Y-89125602D01*
X108723314Y-89125609D01*
X108592211Y-89213210D01*
X108592207Y-89213213D01*
X108480713Y-89324707D01*
X108480710Y-89324711D01*
X108393109Y-89455814D01*
X108393102Y-89455827D01*
X108332764Y-89601498D01*
X108332761Y-89601510D01*
X108302000Y-89756153D01*
X108302000Y-89913846D01*
X108332761Y-90068489D01*
X108332763Y-90068497D01*
X108342561Y-90092151D01*
X108352000Y-90139604D01*
X108352000Y-91072769D01*
X108332315Y-91139808D01*
X108315681Y-91160450D01*
X107587203Y-91888927D01*
X107546980Y-91915805D01*
X107523319Y-91925606D01*
X107523318Y-91925607D01*
X107392215Y-92013207D01*
X107392207Y-92013213D01*
X107280713Y-92124707D01*
X107280710Y-92124711D01*
X107193109Y-92255814D01*
X107193102Y-92255827D01*
X107132764Y-92401498D01*
X107132761Y-92401510D01*
X107102000Y-92556153D01*
X107102000Y-92713846D01*
X107132761Y-92868489D01*
X107132764Y-92868501D01*
X107193102Y-93014172D01*
X107193109Y-93014185D01*
X107280710Y-93145288D01*
X107280713Y-93145292D01*
X107283240Y-93147819D01*
X107284140Y-93149468D01*
X107284576Y-93149999D01*
X107284475Y-93150081D01*
X107316725Y-93209142D01*
X107311741Y-93278834D01*
X107269869Y-93334767D01*
X107204405Y-93359184D01*
X107195559Y-93359500D01*
X60877000Y-93359500D01*
X60809961Y-93339815D01*
X60764206Y-93287011D01*
X60753000Y-93235500D01*
X60753000Y-90309038D01*
X62302000Y-90309038D01*
X62302000Y-90560961D01*
X62341410Y-90809785D01*
X62419260Y-91049383D01*
X62533632Y-91273848D01*
X62681701Y-91477649D01*
X62681705Y-91477654D01*
X62859845Y-91655794D01*
X62859850Y-91655798D01*
X63037617Y-91784952D01*
X63063655Y-91803870D01*
X63206684Y-91876747D01*
X63288116Y-91918239D01*
X63288118Y-91918239D01*
X63288121Y-91918241D01*
X63527715Y-91996090D01*
X63776538Y-92035500D01*
X63776539Y-92035500D01*
X64028461Y-92035500D01*
X64028462Y-92035500D01*
X64277285Y-91996090D01*
X64516879Y-91918241D01*
X64741345Y-91803870D01*
X64945156Y-91655793D01*
X65123293Y-91477656D01*
X65271370Y-91273845D01*
X65385741Y-91049379D01*
X65463590Y-90809785D01*
X65503000Y-90560962D01*
X65503000Y-90309038D01*
X65463590Y-90060215D01*
X65385741Y-89820621D01*
X65385739Y-89820618D01*
X65385739Y-89820616D01*
X65344247Y-89739184D01*
X65271370Y-89596155D01*
X65174863Y-89463324D01*
X65123298Y-89392350D01*
X65123294Y-89392345D01*
X64945154Y-89214205D01*
X64945149Y-89214201D01*
X64741348Y-89066132D01*
X64741347Y-89066131D01*
X64741345Y-89066130D01*
X64639768Y-89014374D01*
X64516883Y-88951760D01*
X64277285Y-88873910D01*
X64028462Y-88834500D01*
X63776538Y-88834500D01*
X63652126Y-88854205D01*
X63527714Y-88873910D01*
X63288116Y-88951760D01*
X63063651Y-89066132D01*
X62859850Y-89214201D01*
X62859845Y-89214205D01*
X62681705Y-89392345D01*
X62681701Y-89392350D01*
X62533632Y-89596151D01*
X62419260Y-89820616D01*
X62341410Y-90060214D01*
X62302000Y-90309038D01*
X60753000Y-90309038D01*
X60753000Y-83656153D01*
X69202000Y-83656153D01*
X69202000Y-83813846D01*
X69232761Y-83968489D01*
X69232763Y-83968497D01*
X69242561Y-83992151D01*
X69252000Y-84039604D01*
X69252000Y-85680396D01*
X69242562Y-85727844D01*
X69232765Y-85751498D01*
X69232762Y-85751506D01*
X69232760Y-85751511D01*
X69202000Y-85906153D01*
X69202000Y-86063846D01*
X69232761Y-86218489D01*
X69232764Y-86218501D01*
X69293102Y-86364172D01*
X69293109Y-86364185D01*
X69380710Y-86495288D01*
X69380713Y-86495292D01*
X69492207Y-86606786D01*
X69492211Y-86606789D01*
X69623314Y-86694390D01*
X69623327Y-86694397D01*
X69768998Y-86754735D01*
X69769003Y-86754737D01*
X69903725Y-86781535D01*
X69923653Y-86785499D01*
X69923656Y-86785500D01*
X69923658Y-86785500D01*
X70081344Y-86785500D01*
X70081345Y-86785499D01*
X70235997Y-86754737D01*
X70381679Y-86694394D01*
X70512789Y-86606789D01*
X70624289Y-86495289D01*
X70711894Y-86364179D01*
X70772237Y-86218497D01*
X70803000Y-86063842D01*
X70803000Y-85906158D01*
X70803000Y-85906155D01*
X70802999Y-85906153D01*
X70772239Y-85751511D01*
X70772238Y-85751508D01*
X70772237Y-85751503D01*
X70762437Y-85727844D01*
X70753000Y-85680396D01*
X70753000Y-84039604D01*
X70762439Y-83992151D01*
X70772237Y-83968497D01*
X70803000Y-83813842D01*
X70803000Y-83656158D01*
X70803000Y-83656155D01*
X70802999Y-83656153D01*
X70780553Y-83543310D01*
X70772237Y-83501503D01*
X70758112Y-83467402D01*
X70711897Y-83355827D01*
X70711890Y-83355814D01*
X70624289Y-83224711D01*
X70624286Y-83224707D01*
X70512792Y-83113213D01*
X70512788Y-83113210D01*
X70381685Y-83025609D01*
X70381672Y-83025602D01*
X70236001Y-82965264D01*
X70235989Y-82965261D01*
X70081345Y-82934500D01*
X70081342Y-82934500D01*
X69923658Y-82934500D01*
X69923655Y-82934500D01*
X69769010Y-82965261D01*
X69768998Y-82965264D01*
X69623327Y-83025602D01*
X69623314Y-83025609D01*
X69492211Y-83113210D01*
X69492207Y-83113213D01*
X69380713Y-83224707D01*
X69380710Y-83224711D01*
X69293109Y-83355814D01*
X69293102Y-83355827D01*
X69232764Y-83501498D01*
X69232761Y-83501510D01*
X69202000Y-83656153D01*
X60753000Y-83656153D01*
X60753000Y-75656153D01*
X75047000Y-75656153D01*
X75047000Y-75813846D01*
X75077761Y-75968489D01*
X75077764Y-75968501D01*
X75138102Y-76114172D01*
X75138109Y-76114185D01*
X75225710Y-76245288D01*
X75225713Y-76245292D01*
X75337205Y-76356784D01*
X75337207Y-76356785D01*
X75337211Y-76356789D01*
X75346889Y-76363255D01*
X75391694Y-76416865D01*
X75402000Y-76466358D01*
X75402000Y-87148330D01*
X75401999Y-87148348D01*
X75401999Y-87314054D01*
X75401998Y-87314054D01*
X75424893Y-87399500D01*
X75442923Y-87466785D01*
X75459053Y-87494723D01*
X75459054Y-87494725D01*
X75459055Y-87494725D01*
X75521979Y-87603714D01*
X75521981Y-87603717D01*
X75640849Y-87722585D01*
X75640855Y-87722590D01*
X75671981Y-87753716D01*
X76133784Y-88215520D01*
X76133786Y-88215521D01*
X76133790Y-88215524D01*
X76270709Y-88294573D01*
X76270716Y-88294577D01*
X76423443Y-88335501D01*
X76423445Y-88335501D01*
X76589154Y-88335501D01*
X76589170Y-88335500D01*
X79764360Y-88335500D01*
X79764376Y-88335501D01*
X79771972Y-88335501D01*
X79930083Y-88335501D01*
X79930086Y-88335501D01*
X80082814Y-88294577D01*
X80132933Y-88265639D01*
X80219745Y-88215520D01*
X80331549Y-88103716D01*
X80331549Y-88103714D01*
X80341757Y-88093507D01*
X80341759Y-88093504D01*
X81613444Y-86821819D01*
X81674767Y-86788334D01*
X81701125Y-86785500D01*
X81831344Y-86785500D01*
X81831345Y-86785499D01*
X81985997Y-86754737D01*
X82131679Y-86694394D01*
X82262789Y-86606789D01*
X82374289Y-86495289D01*
X82461894Y-86364179D01*
X82461895Y-86364176D01*
X82461897Y-86364173D01*
X82484734Y-86309038D01*
X94902000Y-86309038D01*
X94902000Y-86560961D01*
X94941410Y-86809785D01*
X95019260Y-87049383D01*
X95045306Y-87100500D01*
X95111424Y-87230264D01*
X95133632Y-87273848D01*
X95281701Y-87477649D01*
X95281705Y-87477654D01*
X95459845Y-87655794D01*
X95459850Y-87655798D01*
X95612233Y-87766510D01*
X95663655Y-87803870D01*
X95806684Y-87876747D01*
X95888116Y-87918239D01*
X95888118Y-87918239D01*
X95888121Y-87918241D01*
X96127715Y-87996090D01*
X96376538Y-88035500D01*
X96376539Y-88035500D01*
X96628461Y-88035500D01*
X96628462Y-88035500D01*
X96877285Y-87996090D01*
X97116879Y-87918241D01*
X97341345Y-87803870D01*
X97545156Y-87655793D01*
X97723293Y-87477656D01*
X97871370Y-87273845D01*
X97985741Y-87049379D01*
X98063590Y-86809785D01*
X98103000Y-86560962D01*
X98103000Y-86309038D01*
X98063590Y-86060215D01*
X97985741Y-85820621D01*
X97985739Y-85820618D01*
X97985739Y-85820616D01*
X97926860Y-85705060D01*
X97871370Y-85596155D01*
X97813809Y-85516929D01*
X97723298Y-85392350D01*
X97723294Y-85392345D01*
X97545154Y-85214205D01*
X97545149Y-85214201D01*
X97341348Y-85066132D01*
X97341347Y-85066131D01*
X97341345Y-85066130D01*
X97271247Y-85030413D01*
X97116883Y-84951760D01*
X96877285Y-84873910D01*
X96628462Y-84834500D01*
X96376538Y-84834500D01*
X96252126Y-84854205D01*
X96127714Y-84873910D01*
X95888116Y-84951760D01*
X95663651Y-85066132D01*
X95459850Y-85214201D01*
X95459845Y-85214205D01*
X95281705Y-85392345D01*
X95281701Y-85392350D01*
X95133632Y-85596151D01*
X95019260Y-85820616D01*
X94941410Y-86060214D01*
X94902000Y-86309038D01*
X82484734Y-86309038D01*
X82506407Y-86256714D01*
X82522237Y-86218497D01*
X82553000Y-86063842D01*
X82553000Y-85906158D01*
X82553000Y-85906155D01*
X82552999Y-85906153D01*
X82546484Y-85873402D01*
X82522237Y-85751503D01*
X82517982Y-85741231D01*
X82461897Y-85605827D01*
X82461890Y-85605814D01*
X82374289Y-85474711D01*
X82374286Y-85474707D01*
X82262792Y-85363213D01*
X82262788Y-85363210D01*
X82131685Y-85275609D01*
X82131672Y-85275602D01*
X81986001Y-85215264D01*
X81985989Y-85215261D01*
X81831345Y-85184500D01*
X81831342Y-85184500D01*
X81673658Y-85184500D01*
X81673655Y-85184500D01*
X81519010Y-85215261D01*
X81513176Y-85217031D01*
X81512373Y-85214385D01*
X81454556Y-85220396D01*
X81392187Y-85188902D01*
X81356745Y-85128689D01*
X81353000Y-85098444D01*
X81353000Y-76998755D01*
X81372685Y-76931716D01*
X81425489Y-76885961D01*
X81494647Y-76876017D01*
X81545892Y-76895654D01*
X81614363Y-76941406D01*
X81614378Y-76941414D01*
X81760049Y-77001752D01*
X81760054Y-77001754D01*
X81914704Y-77032516D01*
X81914707Y-77032517D01*
X81914709Y-77032517D01*
X82072395Y-77032517D01*
X82072396Y-77032516D01*
X82227048Y-77001754D01*
X82372730Y-76941411D01*
X82503840Y-76853806D01*
X82615340Y-76742306D01*
X82702945Y-76611196D01*
X82763288Y-76465514D01*
X82763289Y-76465505D01*
X82765495Y-76460181D01*
X82809336Y-76405777D01*
X82832603Y-76393071D01*
X82920199Y-76356789D01*
X82967094Y-76337365D01*
X82967097Y-76337363D01*
X82967100Y-76337362D01*
X83098210Y-76249757D01*
X83209710Y-76138257D01*
X83297315Y-76007147D01*
X83302226Y-75995292D01*
X83330077Y-75928052D01*
X83357658Y-75861465D01*
X83388421Y-75706810D01*
X83388421Y-75549126D01*
X83388421Y-75549123D01*
X83388420Y-75549121D01*
X83357658Y-75394471D01*
X83324304Y-75313946D01*
X83297318Y-75248795D01*
X83297311Y-75248782D01*
X83209710Y-75117679D01*
X83209707Y-75117675D01*
X83098213Y-75006181D01*
X83043529Y-74969642D01*
X82998725Y-74916029D01*
X82988421Y-74866540D01*
X82988421Y-58951719D01*
X83008106Y-58884680D01*
X83060910Y-58838925D01*
X83130068Y-58828981D01*
X83186771Y-58853965D01*
X83187146Y-58853405D01*
X83190334Y-58855535D01*
X83191087Y-58855867D01*
X83192209Y-58856788D01*
X83323315Y-58944390D01*
X83323321Y-58944394D01*
X83367687Y-58962770D01*
X83407915Y-58989650D01*
X88265681Y-63847416D01*
X88299166Y-63908739D01*
X88302000Y-63935097D01*
X88302000Y-68655234D01*
X88282315Y-68722273D01*
X88281102Y-68724125D01*
X88193109Y-68855814D01*
X88193102Y-68855827D01*
X88132764Y-69001498D01*
X88132761Y-69001510D01*
X88102000Y-69156153D01*
X88102000Y-69313846D01*
X88132761Y-69468489D01*
X88132764Y-69468501D01*
X88193102Y-69614172D01*
X88193109Y-69614185D01*
X88280710Y-69745288D01*
X88280713Y-69745292D01*
X88392207Y-69856786D01*
X88392211Y-69856789D01*
X88523314Y-69944390D01*
X88523327Y-69944397D01*
X88652999Y-69998108D01*
X88669003Y-70004737D01*
X88801191Y-70031031D01*
X88823653Y-70035499D01*
X88823656Y-70035500D01*
X88823658Y-70035500D01*
X88981342Y-70035500D01*
X89003808Y-70031031D01*
X89073398Y-70037257D01*
X89128576Y-70080119D01*
X89151822Y-70146008D01*
X89152000Y-70152648D01*
X89152000Y-74560500D01*
X89132315Y-74627539D01*
X89079511Y-74673294D01*
X89028000Y-74684500D01*
X88923655Y-74684500D01*
X88769010Y-74715261D01*
X88768998Y-74715264D01*
X88623327Y-74775602D01*
X88623314Y-74775609D01*
X88492211Y-74863210D01*
X88492207Y-74863213D01*
X88380713Y-74974707D01*
X88380710Y-74974711D01*
X88293109Y-75105814D01*
X88293104Y-75105823D01*
X88283913Y-75128013D01*
X88240070Y-75182415D01*
X88173776Y-75204478D01*
X88106077Y-75187197D01*
X88058468Y-75136059D01*
X88047734Y-75104738D01*
X88047237Y-75102239D01*
X88047235Y-75102233D01*
X87986897Y-74956562D01*
X87986890Y-74956549D01*
X87899289Y-74825446D01*
X87899286Y-74825442D01*
X87787792Y-74713948D01*
X87787788Y-74713945D01*
X87656685Y-74626344D01*
X87656672Y-74626337D01*
X87511001Y-74565999D01*
X87510989Y-74565996D01*
X87356345Y-74535235D01*
X87356342Y-74535235D01*
X87198658Y-74535235D01*
X87198655Y-74535235D01*
X87044010Y-74565996D01*
X87043998Y-74565999D01*
X86898327Y-74626337D01*
X86898314Y-74626344D01*
X86767211Y-74713945D01*
X86767207Y-74713948D01*
X86655713Y-74825442D01*
X86655710Y-74825446D01*
X86568109Y-74956549D01*
X86568104Y-74956558D01*
X86516899Y-75080180D01*
X86473058Y-75134583D01*
X86406764Y-75156648D01*
X86378147Y-75154344D01*
X86282080Y-75135235D01*
X86282077Y-75135235D01*
X86124393Y-75135235D01*
X86124390Y-75135235D01*
X85969745Y-75165996D01*
X85969733Y-75165999D01*
X85824062Y-75226337D01*
X85824049Y-75226344D01*
X85692946Y-75313945D01*
X85692942Y-75313948D01*
X85581448Y-75425442D01*
X85581445Y-75425446D01*
X85493844Y-75556549D01*
X85493839Y-75556559D01*
X85441149Y-75683765D01*
X85414269Y-75723993D01*
X84542807Y-76595457D01*
X84431003Y-76707260D01*
X84431001Y-76707262D01*
X84431001Y-76707263D01*
X84385563Y-76785964D01*
X84385562Y-76785964D01*
X84351945Y-76844191D01*
X84351944Y-76844192D01*
X84349369Y-76853803D01*
X84311020Y-76996922D01*
X84311020Y-76996924D01*
X84311020Y-77165025D01*
X84311021Y-77165038D01*
X84311021Y-83467402D01*
X84301582Y-83514855D01*
X84289796Y-83543308D01*
X84289794Y-83543312D01*
X84259033Y-83697960D01*
X84259033Y-83855653D01*
X84289794Y-84010296D01*
X84289797Y-84010308D01*
X84350135Y-84155979D01*
X84350142Y-84155992D01*
X84437743Y-84287095D01*
X84437746Y-84287099D01*
X84549240Y-84398593D01*
X84549244Y-84398596D01*
X84680347Y-84486197D01*
X84680360Y-84486204D01*
X84815795Y-84542302D01*
X84826036Y-84546544D01*
X84980686Y-84577306D01*
X84980689Y-84577307D01*
X84980691Y-84577307D01*
X85138377Y-84577307D01*
X85138378Y-84577306D01*
X85293030Y-84546544D01*
X85438712Y-84486201D01*
X85569822Y-84398596D01*
X85681322Y-84287096D01*
X85768927Y-84155986D01*
X85829270Y-84010304D01*
X85860033Y-83855649D01*
X85860033Y-83855639D01*
X85860359Y-83852332D01*
X85861018Y-83850698D01*
X85861222Y-83849675D01*
X85861416Y-83849713D01*
X85886516Y-83787543D01*
X85943547Y-83747180D01*
X86013347Y-83744059D01*
X86020075Y-83746267D01*
X86020161Y-83745984D01*
X86025977Y-83747747D01*
X86025988Y-83747752D01*
X86180638Y-83778514D01*
X86180641Y-83778515D01*
X86180643Y-83778515D01*
X86338329Y-83778515D01*
X86338330Y-83778514D01*
X86492982Y-83747752D01*
X86638664Y-83687409D01*
X86769774Y-83599804D01*
X86881274Y-83488304D01*
X86951218Y-83383626D01*
X87004830Y-83338820D01*
X87054320Y-83328516D01*
X87088539Y-83328516D01*
X87088542Y-83328516D01*
X87241270Y-83287592D01*
X87241272Y-83287590D01*
X87241274Y-83287590D01*
X87241275Y-83287589D01*
X87294976Y-83256585D01*
X87294977Y-83256584D01*
X87378201Y-83208535D01*
X87490005Y-83096731D01*
X87490005Y-83096729D01*
X87500209Y-83086526D01*
X87500212Y-83086521D01*
X88267165Y-82319570D01*
X88328484Y-82286088D01*
X88330651Y-82285637D01*
X88331340Y-82285500D01*
X88331342Y-82285500D01*
X88485997Y-82254737D01*
X88631679Y-82194394D01*
X88762789Y-82106789D01*
X88874289Y-81995289D01*
X88961894Y-81864179D01*
X89022237Y-81718497D01*
X89053000Y-81563842D01*
X89053000Y-81406158D01*
X89053000Y-81406155D01*
X89052999Y-81406153D01*
X89022238Y-81251510D01*
X89022238Y-81251508D01*
X89022237Y-81251503D01*
X89022235Y-81251498D01*
X88961897Y-81105827D01*
X88961890Y-81105814D01*
X88874289Y-80974711D01*
X88874286Y-80974707D01*
X88762792Y-80863213D01*
X88762788Y-80863210D01*
X88631685Y-80775609D01*
X88631672Y-80775602D01*
X88486001Y-80715264D01*
X88485989Y-80715261D01*
X88331345Y-80684500D01*
X88331342Y-80684500D01*
X88173658Y-80684500D01*
X88173655Y-80684500D01*
X88019010Y-80715261D01*
X88018998Y-80715264D01*
X87873327Y-80775602D01*
X87873314Y-80775609D01*
X87742211Y-80863210D01*
X87742207Y-80863213D01*
X87630713Y-80974707D01*
X87630710Y-80974711D01*
X87543109Y-81105814D01*
X87543102Y-81105827D01*
X87482764Y-81251498D01*
X87482761Y-81251508D01*
X87451862Y-81406848D01*
X87419477Y-81468759D01*
X87417926Y-81470337D01*
X86797069Y-82091196D01*
X86735746Y-82124681D01*
X86709388Y-82127515D01*
X86433954Y-82127515D01*
X86366915Y-82107830D01*
X86321160Y-82055026D01*
X86312337Y-82027706D01*
X86281259Y-81871472D01*
X86281258Y-81871465D01*
X86278237Y-81864172D01*
X86220918Y-81725789D01*
X86220911Y-81725776D01*
X86133310Y-81594673D01*
X86133307Y-81594669D01*
X86063584Y-81524946D01*
X86030099Y-81463623D01*
X86027265Y-81437265D01*
X86027265Y-77860832D01*
X86046950Y-77793793D01*
X86063584Y-77773151D01*
X86839813Y-76996922D01*
X87758020Y-76078716D01*
X87799344Y-76007140D01*
X87837076Y-75941786D01*
X87840756Y-75928052D01*
X87872849Y-75872462D01*
X87899289Y-75846024D01*
X87986894Y-75714914D01*
X87996085Y-75692724D01*
X88039924Y-75638322D01*
X88106218Y-75616256D01*
X88173918Y-75633534D01*
X88221529Y-75684670D01*
X88232263Y-75715985D01*
X88232761Y-75718491D01*
X88232764Y-75718501D01*
X88293102Y-75864172D01*
X88293109Y-75864185D01*
X88380710Y-75995288D01*
X88380713Y-75995292D01*
X88492207Y-76106786D01*
X88492211Y-76106789D01*
X88623314Y-76194390D01*
X88623327Y-76194397D01*
X88756973Y-76249754D01*
X88769003Y-76254737D01*
X88923653Y-76285499D01*
X88923656Y-76285500D01*
X88923658Y-76285500D01*
X89081344Y-76285500D01*
X89081345Y-76285499D01*
X89235997Y-76254737D01*
X89381679Y-76194394D01*
X89512789Y-76106789D01*
X89624289Y-75995289D01*
X89661783Y-75939175D01*
X89683638Y-75906467D01*
X89699061Y-75887674D01*
X89714277Y-75872459D01*
X89733020Y-75853716D01*
X89733020Y-75853715D01*
X89740081Y-75846655D01*
X89740086Y-75846648D01*
X90233020Y-75353716D01*
X90312077Y-75216784D01*
X90353001Y-75064057D01*
X90353001Y-74905942D01*
X90353001Y-74898347D01*
X90353000Y-74898329D01*
X90353000Y-72159500D01*
X90372685Y-72092461D01*
X90425489Y-72046706D01*
X90477000Y-72035500D01*
X90581344Y-72035500D01*
X90581345Y-72035499D01*
X90735997Y-72004737D01*
X90881679Y-71944394D01*
X90881685Y-71944390D01*
X91013375Y-71856398D01*
X91080053Y-71835520D01*
X91082266Y-71835500D01*
X95202403Y-71835500D01*
X95269442Y-71855185D01*
X95290084Y-71871819D01*
X112432639Y-89014374D01*
X112432649Y-89014385D01*
X112436979Y-89018715D01*
X112436980Y-89018716D01*
X112548784Y-89130520D01*
X112548786Y-89130521D01*
X112548787Y-89130522D01*
X112617018Y-89169914D01*
X112617020Y-89169916D01*
X112617021Y-89169916D01*
X112685715Y-89209577D01*
X112838442Y-89250500D01*
X112838443Y-89250500D01*
X116573034Y-89250500D01*
X116605126Y-89254724D01*
X116752026Y-89294087D01*
X116756412Y-89294087D01*
X116759976Y-89295133D01*
X116760086Y-89295148D01*
X116760083Y-89295165D01*
X116823451Y-89313772D01*
X116825303Y-89314985D01*
X116956990Y-89402976D01*
X116957003Y-89402983D01*
X117084567Y-89455821D01*
X117102679Y-89463323D01*
X117257329Y-89494085D01*
X117257332Y-89494086D01*
X117257334Y-89494086D01*
X117415020Y-89494086D01*
X117415021Y-89494085D01*
X117569673Y-89463323D01*
X117715355Y-89402980D01*
X117846465Y-89315375D01*
X117957965Y-89203875D01*
X118045570Y-89072765D01*
X118048318Y-89066132D01*
X118069756Y-89014374D01*
X118105913Y-88927083D01*
X118136676Y-88772428D01*
X118136676Y-88614744D01*
X118136676Y-88614741D01*
X118136675Y-88614739D01*
X118105914Y-88460096D01*
X118105913Y-88460089D01*
X118105911Y-88460084D01*
X118045573Y-88314413D01*
X118045566Y-88314400D01*
X117957965Y-88183297D01*
X117957962Y-88183293D01*
X117846472Y-88071803D01*
X117846468Y-88071800D01*
X117846465Y-88071797D01*
X117815905Y-88051377D01*
X117793108Y-88036144D01*
X117748303Y-87982531D01*
X117738000Y-87933043D01*
X117738000Y-87921155D01*
X117737999Y-87921153D01*
X117707238Y-87766510D01*
X117707237Y-87766503D01*
X117707235Y-87766498D01*
X117646897Y-87620827D01*
X117646890Y-87620814D01*
X117559289Y-87489711D01*
X117559286Y-87489707D01*
X117447792Y-87378213D01*
X117447788Y-87378210D01*
X117316685Y-87290609D01*
X117316672Y-87290602D01*
X117171001Y-87230264D01*
X117170989Y-87230261D01*
X117016345Y-87199500D01*
X117016342Y-87199500D01*
X116858658Y-87199500D01*
X116858655Y-87199500D01*
X116704010Y-87230261D01*
X116703998Y-87230264D01*
X116558327Y-87290602D01*
X116558314Y-87290609D01*
X116426625Y-87378602D01*
X116359947Y-87399480D01*
X116357734Y-87399500D01*
X113587597Y-87399500D01*
X113520558Y-87379815D01*
X113499916Y-87363181D01*
X95610090Y-69473355D01*
X95610088Y-69473352D01*
X95491217Y-69354481D01*
X95491216Y-69354480D01*
X95404404Y-69304360D01*
X95404404Y-69304359D01*
X95404400Y-69304358D01*
X95354285Y-69275423D01*
X95201557Y-69234499D01*
X95043443Y-69234499D01*
X95035847Y-69234499D01*
X95035831Y-69234500D01*
X91082266Y-69234500D01*
X91015227Y-69214815D01*
X91013375Y-69213602D01*
X90881685Y-69125609D01*
X90881672Y-69125602D01*
X90736001Y-69065264D01*
X90735989Y-69065261D01*
X90581345Y-69034500D01*
X90581342Y-69034500D01*
X90477000Y-69034500D01*
X90409961Y-69014815D01*
X90364206Y-68962011D01*
X90353000Y-68910500D01*
X90353000Y-62034097D01*
X90372685Y-61967058D01*
X90425489Y-61921303D01*
X90494647Y-61911359D01*
X90558203Y-61940384D01*
X90564681Y-61946416D01*
X113532639Y-84914374D01*
X113532649Y-84914385D01*
X113536979Y-84918715D01*
X113536980Y-84918716D01*
X113648784Y-85030520D01*
X113710463Y-85066130D01*
X113785715Y-85109577D01*
X113938443Y-85150501D01*
X113938446Y-85150501D01*
X114104153Y-85150501D01*
X114104169Y-85150500D01*
X119737403Y-85150500D01*
X119804442Y-85170185D01*
X119825084Y-85186819D01*
X120952925Y-86314660D01*
X120986410Y-86375983D01*
X120986861Y-86378149D01*
X121017761Y-86533491D01*
X121017764Y-86533501D01*
X121078102Y-86679172D01*
X121078109Y-86679185D01*
X121165710Y-86810288D01*
X121165713Y-86810292D01*
X121277207Y-86921786D01*
X121277211Y-86921789D01*
X121408314Y-87009390D01*
X121408327Y-87009397D01*
X121553998Y-87069735D01*
X121554003Y-87069737D01*
X121697000Y-87098181D01*
X121708653Y-87100499D01*
X121708656Y-87100500D01*
X121708658Y-87100500D01*
X121866344Y-87100500D01*
X121866345Y-87100499D01*
X122020997Y-87069737D01*
X122166679Y-87009394D01*
X122297789Y-86921789D01*
X122409289Y-86810289D01*
X122496894Y-86679179D01*
X122557237Y-86533497D01*
X122588000Y-86378842D01*
X122588000Y-86221158D01*
X122588000Y-86221155D01*
X122587999Y-86221153D01*
X122557238Y-86066510D01*
X122557237Y-86066503D01*
X122557235Y-86066498D01*
X122496897Y-85920827D01*
X122496890Y-85920814D01*
X122409289Y-85789711D01*
X122409286Y-85789707D01*
X122382260Y-85762681D01*
X122348775Y-85701358D01*
X122353759Y-85631666D01*
X122382260Y-85587319D01*
X122409286Y-85560292D01*
X122409289Y-85560289D01*
X122496894Y-85429179D01*
X122557237Y-85283497D01*
X122588000Y-85128842D01*
X122588000Y-84971158D01*
X122588000Y-84971155D01*
X122587999Y-84971153D01*
X122584141Y-84951759D01*
X122557237Y-84816503D01*
X122514526Y-84713389D01*
X135687000Y-84713389D01*
X135687000Y-84886611D01*
X135714098Y-85057701D01*
X135767627Y-85222445D01*
X135846268Y-85376788D01*
X135948086Y-85516928D01*
X136070572Y-85639414D01*
X136210712Y-85741232D01*
X136365055Y-85819873D01*
X136529799Y-85873402D01*
X136700889Y-85900500D01*
X136700890Y-85900500D01*
X136874110Y-85900500D01*
X136874111Y-85900500D01*
X137045201Y-85873402D01*
X137209945Y-85819873D01*
X137364288Y-85741232D01*
X137504428Y-85639414D01*
X137626914Y-85516928D01*
X137728732Y-85376788D01*
X137807373Y-85222445D01*
X137860902Y-85057701D01*
X137888000Y-84886611D01*
X137888000Y-84713389D01*
X142687000Y-84713389D01*
X142687000Y-84886611D01*
X142714098Y-85057701D01*
X142767627Y-85222445D01*
X142846268Y-85376788D01*
X142948086Y-85516928D01*
X143070572Y-85639414D01*
X143210712Y-85741232D01*
X143365055Y-85819873D01*
X143529799Y-85873402D01*
X143700889Y-85900500D01*
X143700890Y-85900500D01*
X143874110Y-85900500D01*
X143874111Y-85900500D01*
X144045201Y-85873402D01*
X144209945Y-85819873D01*
X144364288Y-85741232D01*
X144504428Y-85639414D01*
X144626914Y-85516928D01*
X144728732Y-85376788D01*
X144807373Y-85222445D01*
X144860902Y-85057701D01*
X144888000Y-84886611D01*
X144888000Y-84713389D01*
X144860902Y-84542299D01*
X144807373Y-84377555D01*
X144728732Y-84223212D01*
X144626914Y-84083072D01*
X144504428Y-83960586D01*
X144364288Y-83858768D01*
X144209945Y-83780127D01*
X144045201Y-83726598D01*
X144045199Y-83726597D01*
X144045198Y-83726597D01*
X143913771Y-83705781D01*
X143874111Y-83699500D01*
X143700889Y-83699500D01*
X143661228Y-83705781D01*
X143529802Y-83726597D01*
X143365052Y-83780128D01*
X143210711Y-83858768D01*
X143135819Y-83913181D01*
X143070572Y-83960586D01*
X143070570Y-83960588D01*
X143070569Y-83960588D01*
X142948088Y-84083069D01*
X142948088Y-84083070D01*
X142948086Y-84083072D01*
X142904359Y-84143256D01*
X142846268Y-84223211D01*
X142767628Y-84377552D01*
X142714097Y-84542302D01*
X142703242Y-84610839D01*
X142687000Y-84713389D01*
X137888000Y-84713389D01*
X137860902Y-84542299D01*
X137807373Y-84377555D01*
X137728732Y-84223212D01*
X137626914Y-84083072D01*
X137504428Y-83960586D01*
X137364288Y-83858768D01*
X137209945Y-83780127D01*
X137045201Y-83726598D01*
X137045199Y-83726597D01*
X137045198Y-83726597D01*
X136913771Y-83705781D01*
X136874111Y-83699500D01*
X136700889Y-83699500D01*
X136661228Y-83705781D01*
X136529802Y-83726597D01*
X136365052Y-83780128D01*
X136210711Y-83858768D01*
X136135819Y-83913181D01*
X136070572Y-83960586D01*
X136070570Y-83960588D01*
X136070569Y-83960588D01*
X135948088Y-84083069D01*
X135948088Y-84083070D01*
X135948086Y-84083072D01*
X135904359Y-84143256D01*
X135846268Y-84223211D01*
X135767628Y-84377552D01*
X135714097Y-84542302D01*
X135703242Y-84610839D01*
X135687000Y-84713389D01*
X122514526Y-84713389D01*
X122496894Y-84670821D01*
X122496893Y-84670820D01*
X122496890Y-84670814D01*
X122408898Y-84539125D01*
X122388020Y-84472447D01*
X122388000Y-84470234D01*
X122388000Y-79489060D01*
X122388001Y-79489047D01*
X122388001Y-79320944D01*
X122371509Y-79259397D01*
X122347077Y-79168216D01*
X122284766Y-79060289D01*
X122268024Y-79031290D01*
X122268018Y-79031282D01*
X121425090Y-78188355D01*
X121425088Y-78188352D01*
X121306217Y-78069481D01*
X121306216Y-78069480D01*
X121219404Y-78019360D01*
X121219404Y-78019359D01*
X121219400Y-78019358D01*
X121169285Y-77990423D01*
X121016557Y-77949499D01*
X120858443Y-77949499D01*
X120850847Y-77949499D01*
X120850831Y-77949500D01*
X116117266Y-77949500D01*
X116050227Y-77929815D01*
X116048375Y-77928602D01*
X115916685Y-77840609D01*
X115916672Y-77840602D01*
X115771001Y-77780264D01*
X115770989Y-77780261D01*
X115616345Y-77749500D01*
X115616342Y-77749500D01*
X115458658Y-77749500D01*
X115458655Y-77749500D01*
X115304010Y-77780261D01*
X115303998Y-77780264D01*
X115158327Y-77840602D01*
X115158314Y-77840609D01*
X115027211Y-77928210D01*
X115027207Y-77928213D01*
X114915713Y-78039707D01*
X114915710Y-78039711D01*
X114828109Y-78170814D01*
X114828102Y-78170827D01*
X114767764Y-78316498D01*
X114767761Y-78316510D01*
X114737000Y-78471153D01*
X114737000Y-78628846D01*
X114767761Y-78783489D01*
X114767764Y-78783501D01*
X114828102Y-78929172D01*
X114828109Y-78929185D01*
X114915710Y-79060288D01*
X114915713Y-79060292D01*
X115027207Y-79171786D01*
X115027211Y-79171789D01*
X115158314Y-79259390D01*
X115158327Y-79259397D01*
X115303998Y-79319735D01*
X115304003Y-79319737D01*
X115458653Y-79350499D01*
X115458656Y-79350500D01*
X115458658Y-79350500D01*
X115616344Y-79350500D01*
X115616345Y-79350499D01*
X115770997Y-79319737D01*
X115916679Y-79259394D01*
X115916685Y-79259390D01*
X116048375Y-79171398D01*
X116115053Y-79150520D01*
X116117266Y-79150500D01*
X120637403Y-79150500D01*
X120704442Y-79170185D01*
X120725084Y-79186819D01*
X121150681Y-79612416D01*
X121184166Y-79673739D01*
X121187000Y-79700097D01*
X121187000Y-84470234D01*
X121167315Y-84537273D01*
X121166101Y-84539126D01*
X121133789Y-84587483D01*
X121080177Y-84632287D01*
X121010851Y-84640994D01*
X120947824Y-84610839D01*
X120943007Y-84606272D01*
X120735990Y-84399255D01*
X120703896Y-84343668D01*
X120697077Y-84318216D01*
X120679110Y-84287096D01*
X120618024Y-84181290D01*
X120618018Y-84181282D01*
X120506217Y-84069481D01*
X120506209Y-84069475D01*
X120369290Y-83990426D01*
X120369286Y-83990424D01*
X120369284Y-83990423D01*
X120216557Y-83949500D01*
X120216556Y-83949500D01*
X114317597Y-83949500D01*
X114250558Y-83929815D01*
X114229916Y-83913181D01*
X91337074Y-61020339D01*
X91303589Y-60959016D01*
X91303138Y-60956849D01*
X91272238Y-60801510D01*
X91272237Y-60801503D01*
X91272235Y-60801498D01*
X91211897Y-60655827D01*
X91211890Y-60655814D01*
X91124289Y-60524711D01*
X91124286Y-60524707D01*
X91012792Y-60413213D01*
X91012788Y-60413210D01*
X90881685Y-60325609D01*
X90881672Y-60325602D01*
X90736001Y-60265264D01*
X90735989Y-60265261D01*
X90581345Y-60234500D01*
X90581342Y-60234500D01*
X90477000Y-60234500D01*
X90409961Y-60214815D01*
X90364206Y-60162011D01*
X90353000Y-60110500D01*
X90353000Y-58564765D01*
X90372685Y-58497726D01*
X90373898Y-58495874D01*
X90461890Y-58364185D01*
X90461890Y-58364184D01*
X90461894Y-58364179D01*
X90522237Y-58218497D01*
X90553000Y-58063842D01*
X90553000Y-57906158D01*
X90553000Y-57906155D01*
X90552999Y-57906153D01*
X90522238Y-57751510D01*
X90522237Y-57751503D01*
X90522235Y-57751498D01*
X90461897Y-57605827D01*
X90461890Y-57605814D01*
X90374289Y-57474711D01*
X90374286Y-57474707D01*
X90262792Y-57363213D01*
X90262788Y-57363210D01*
X90131685Y-57275609D01*
X90131672Y-57275602D01*
X89986001Y-57215264D01*
X89985989Y-57215261D01*
X89831345Y-57184500D01*
X89831342Y-57184500D01*
X89673658Y-57184500D01*
X89673655Y-57184500D01*
X89519010Y-57215261D01*
X89518998Y-57215264D01*
X89373327Y-57275602D01*
X89373314Y-57275609D01*
X89242211Y-57363210D01*
X89242207Y-57363213D01*
X89130713Y-57474707D01*
X89130710Y-57474711D01*
X89043109Y-57605814D01*
X89043102Y-57605827D01*
X88982764Y-57751498D01*
X88982761Y-57751510D01*
X88952000Y-57906153D01*
X88952000Y-58063846D01*
X88982761Y-58218489D01*
X88982764Y-58218501D01*
X89043102Y-58364172D01*
X89043109Y-58364185D01*
X89131102Y-58495874D01*
X89151980Y-58562551D01*
X89152000Y-58564765D01*
X89152000Y-62735902D01*
X89132315Y-62802941D01*
X89079511Y-62848696D01*
X89010353Y-62858640D01*
X88946797Y-62829615D01*
X88940319Y-62823583D01*
X84537851Y-58421116D01*
X84504366Y-58359793D01*
X84504015Y-58320065D01*
X84502403Y-58319907D01*
X84503000Y-58313844D01*
X84503000Y-58156155D01*
X84502999Y-58156153D01*
X84472238Y-58001510D01*
X84472237Y-58001503D01*
X84416579Y-57867131D01*
X84411897Y-57855827D01*
X84411890Y-57855814D01*
X84324289Y-57724711D01*
X84324286Y-57724707D01*
X84212792Y-57613213D01*
X84212788Y-57613210D01*
X84081685Y-57525609D01*
X84081672Y-57525602D01*
X83936001Y-57465264D01*
X83935989Y-57465261D01*
X83781345Y-57434500D01*
X83781342Y-57434500D01*
X83623658Y-57434500D01*
X83623655Y-57434500D01*
X83469010Y-57465261D01*
X83468998Y-57465264D01*
X83323327Y-57525602D01*
X83323314Y-57525609D01*
X83192208Y-57613212D01*
X83191078Y-57614140D01*
X83190370Y-57614440D01*
X83187146Y-57616595D01*
X83186737Y-57615983D01*
X83126765Y-57641448D01*
X83057899Y-57629650D01*
X83006343Y-57582494D01*
X82988421Y-57518280D01*
X82988421Y-53216565D01*
X83008106Y-53149526D01*
X83016570Y-53137897D01*
X83016721Y-53137713D01*
X83104319Y-53006613D01*
X83104319Y-53006612D01*
X83104323Y-53006607D01*
X83164666Y-52860925D01*
X83195429Y-52706270D01*
X83195429Y-52548586D01*
X83195429Y-52548583D01*
X83195428Y-52548581D01*
X83163478Y-52387956D01*
X83164819Y-52387689D01*
X83164257Y-52324778D01*
X83201503Y-52265664D01*
X83209076Y-52259835D01*
X83212783Y-52256792D01*
X83212789Y-52256789D01*
X83324289Y-52145289D01*
X83411894Y-52014179D01*
X83472237Y-51868497D01*
X83503000Y-51713842D01*
X83503000Y-51556158D01*
X83503000Y-51556155D01*
X83502999Y-51556153D01*
X83472238Y-51401510D01*
X83472237Y-51401503D01*
X83416228Y-51266284D01*
X83411897Y-51255827D01*
X83411890Y-51255814D01*
X83324289Y-51124711D01*
X83324286Y-51124707D01*
X83212792Y-51013213D01*
X83212788Y-51013210D01*
X83081685Y-50925609D01*
X83081672Y-50925602D01*
X82936001Y-50865264D01*
X82935989Y-50865261D01*
X82781345Y-50834500D01*
X82781342Y-50834500D01*
X82623658Y-50834500D01*
X82623655Y-50834500D01*
X82469010Y-50865261D01*
X82468998Y-50865264D01*
X82323327Y-50925602D01*
X82323314Y-50925609D01*
X82191625Y-51013602D01*
X82124947Y-51034480D01*
X82122734Y-51034500D01*
X82068719Y-51034500D01*
X82027798Y-51045464D01*
X82027798Y-51045465D01*
X81990530Y-51055451D01*
X81915993Y-51075423D01*
X81915988Y-51075426D01*
X81779069Y-51154475D01*
X81779061Y-51154481D01*
X81336214Y-51597329D01*
X81274891Y-51630814D01*
X81272725Y-51631265D01*
X81117383Y-51662165D01*
X81117373Y-51662168D01*
X80971702Y-51722506D01*
X80971689Y-51722513D01*
X80840586Y-51810114D01*
X80840582Y-51810117D01*
X80729088Y-51921611D01*
X80729085Y-51921615D01*
X80641484Y-52052718D01*
X80641477Y-52052731D01*
X80581139Y-52198402D01*
X80581136Y-52198414D01*
X80550375Y-52353057D01*
X80550375Y-52510750D01*
X80581136Y-52665393D01*
X80581139Y-52665405D01*
X80641477Y-52811076D01*
X80641484Y-52811089D01*
X80729085Y-52942192D01*
X80729088Y-52942196D01*
X80840582Y-53053690D01*
X80840586Y-53053693D01*
X80971689Y-53141294D01*
X80971702Y-53141301D01*
X81117373Y-53201639D01*
X81117378Y-53201641D01*
X81182022Y-53214499D01*
X81272724Y-53232542D01*
X81334635Y-53264927D01*
X81336214Y-53266478D01*
X81351102Y-53281366D01*
X81384587Y-53342689D01*
X81387421Y-53369047D01*
X81387421Y-74740332D01*
X81367736Y-74807371D01*
X81314932Y-74853126D01*
X81245774Y-74863070D01*
X81212613Y-74852200D01*
X81212308Y-74852937D01*
X81061001Y-74790264D01*
X81060989Y-74790261D01*
X80906345Y-74759500D01*
X80906342Y-74759500D01*
X80748658Y-74759500D01*
X80748655Y-74759500D01*
X80594010Y-74790261D01*
X80593998Y-74790264D01*
X80448327Y-74850602D01*
X80448314Y-74850609D01*
X80317211Y-74938210D01*
X80317207Y-74938213D01*
X80205713Y-75049707D01*
X80205710Y-75049711D01*
X80118109Y-75180814D01*
X80118102Y-75180827D01*
X80057764Y-75326498D01*
X80057761Y-75326510D01*
X80027000Y-75481153D01*
X80027000Y-75638846D01*
X80057761Y-75793489D01*
X80057764Y-75793501D01*
X80118103Y-75939174D01*
X80118104Y-75939175D01*
X80118106Y-75939179D01*
X80131102Y-75958628D01*
X80151980Y-76025305D01*
X80152000Y-76027519D01*
X80152000Y-85405234D01*
X80132315Y-85472273D01*
X80131102Y-85474125D01*
X80043109Y-85605814D01*
X80043102Y-85605827D01*
X79982764Y-85751498D01*
X79982761Y-85751510D01*
X79952000Y-85906153D01*
X79952000Y-86063846D01*
X79982761Y-86218489D01*
X79982764Y-86218501D01*
X80043102Y-86364172D01*
X80043109Y-86364185D01*
X80118550Y-86477090D01*
X80139428Y-86543768D01*
X80120943Y-86611148D01*
X80103130Y-86633662D01*
X79638611Y-87098182D01*
X79577290Y-87131666D01*
X79550932Y-87134500D01*
X76802598Y-87134500D01*
X76735559Y-87114815D01*
X76714916Y-87098181D01*
X76639318Y-87022582D01*
X76605834Y-86961258D01*
X76603000Y-86934901D01*
X76603000Y-76027533D01*
X76612439Y-75980080D01*
X76617237Y-75968497D01*
X76648000Y-75813842D01*
X76648000Y-75656158D01*
X76648000Y-75656155D01*
X76647999Y-75656153D01*
X76617238Y-75501510D01*
X76617237Y-75501503D01*
X76608808Y-75481153D01*
X76556897Y-75355827D01*
X76556890Y-75355814D01*
X76469289Y-75224711D01*
X76469286Y-75224707D01*
X76357792Y-75113213D01*
X76357788Y-75113210D01*
X76226685Y-75025609D01*
X76226672Y-75025602D01*
X76081001Y-74965264D01*
X76080989Y-74965261D01*
X75926345Y-74934500D01*
X75926342Y-74934500D01*
X75768658Y-74934500D01*
X75768655Y-74934500D01*
X75614010Y-74965261D01*
X75613998Y-74965264D01*
X75468327Y-75025602D01*
X75468314Y-75025609D01*
X75337211Y-75113210D01*
X75337207Y-75113213D01*
X75225713Y-75224707D01*
X75225710Y-75224711D01*
X75138109Y-75355814D01*
X75138102Y-75355827D01*
X75077764Y-75501498D01*
X75077761Y-75501510D01*
X75047000Y-75656153D01*
X60753000Y-75656153D01*
X60753000Y-49309038D01*
X68902000Y-49309038D01*
X68902000Y-49560961D01*
X68941410Y-49809785D01*
X69019260Y-50049383D01*
X69133632Y-50273848D01*
X69281701Y-50477649D01*
X69281705Y-50477654D01*
X69459845Y-50655794D01*
X69459850Y-50655798D01*
X69637617Y-50784952D01*
X69663655Y-50803870D01*
X69784142Y-50865261D01*
X69888116Y-50918239D01*
X69888118Y-50918239D01*
X69888121Y-50918241D01*
X70127715Y-50996090D01*
X70376538Y-51035500D01*
X70376539Y-51035500D01*
X70628461Y-51035500D01*
X70628462Y-51035500D01*
X70877285Y-50996090D01*
X71116879Y-50918241D01*
X71341345Y-50803870D01*
X71545156Y-50655793D01*
X71723293Y-50477656D01*
X71871370Y-50273845D01*
X71985741Y-50049379D01*
X72063590Y-49809785D01*
X72103000Y-49560962D01*
X72103000Y-49309038D01*
X72063590Y-49060215D01*
X71985741Y-48820621D01*
X71985739Y-48820618D01*
X71985739Y-48820616D01*
X71944247Y-48739184D01*
X71871370Y-48596155D01*
X71852452Y-48570117D01*
X71723298Y-48392350D01*
X71723294Y-48392345D01*
X71545154Y-48214205D01*
X71545149Y-48214201D01*
X71341348Y-48066132D01*
X71341347Y-48066131D01*
X71341345Y-48066130D01*
X71271247Y-48030413D01*
X71116883Y-47951760D01*
X70877285Y-47873910D01*
X70628462Y-47834500D01*
X70376538Y-47834500D01*
X70252126Y-47854205D01*
X70127714Y-47873910D01*
X69888116Y-47951760D01*
X69663651Y-48066132D01*
X69459850Y-48214201D01*
X69459845Y-48214205D01*
X69281705Y-48392345D01*
X69281701Y-48392350D01*
X69133632Y-48596151D01*
X69019260Y-48820616D01*
X68941410Y-49060214D01*
X68902000Y-49309038D01*
X60753000Y-49309038D01*
X60753000Y-45001533D01*
X61626999Y-45001533D01*
X61652958Y-45132030D01*
X61652961Y-45132040D01*
X61703876Y-45254961D01*
X61703886Y-45254979D01*
X61777801Y-45365601D01*
X61777807Y-45365609D01*
X61871890Y-45459692D01*
X61871898Y-45459698D01*
X61982520Y-45533613D01*
X61982523Y-45533614D01*
X61982531Y-45533620D01*
X61982537Y-45533622D01*
X61982538Y-45533623D01*
X62069120Y-45569486D01*
X62105464Y-45584540D01*
X62105468Y-45584540D01*
X62105469Y-45584541D01*
X62235966Y-45610500D01*
X62235969Y-45610500D01*
X62369033Y-45610500D01*
X62456825Y-45593035D01*
X62499536Y-45584540D01*
X62622469Y-45533620D01*
X62733106Y-45459695D01*
X62751297Y-45441504D01*
X76432500Y-45441504D01*
X76432500Y-45840000D01*
X77132500Y-45840000D01*
X77132500Y-46340000D01*
X76432500Y-46340000D01*
X76432500Y-46738495D01*
X76470927Y-46931681D01*
X76470930Y-46931693D01*
X76546307Y-47113671D01*
X76546314Y-47113684D01*
X76655748Y-47277462D01*
X76655751Y-47277466D01*
X76795033Y-47416748D01*
X76795037Y-47416751D01*
X76958815Y-47526185D01*
X76958828Y-47526192D01*
X77140808Y-47601569D01*
X77182500Y-47609862D01*
X77182500Y-46806988D01*
X77192440Y-46824205D01*
X77248295Y-46880060D01*
X77316704Y-46919556D01*
X77393004Y-46940000D01*
X77471996Y-46940000D01*
X77548296Y-46919556D01*
X77616705Y-46880060D01*
X77672560Y-46824205D01*
X77682500Y-46806988D01*
X77682500Y-47609862D01*
X77724190Y-47601569D01*
X77724192Y-47601569D01*
X77906171Y-47526192D01*
X77906184Y-47526185D01*
X78069962Y-47416751D01*
X78069966Y-47416748D01*
X78209248Y-47277466D01*
X78209251Y-47277462D01*
X78318685Y-47113684D01*
X78318692Y-47113671D01*
X78394069Y-46931693D01*
X78394072Y-46931681D01*
X78432499Y-46738495D01*
X78432500Y-46738492D01*
X78432500Y-46340000D01*
X77732500Y-46340000D01*
X77732500Y-45840000D01*
X78270716Y-45840000D01*
X78337755Y-45859685D01*
X78378102Y-45901999D01*
X78401985Y-45943365D01*
X78509135Y-46050515D01*
X78640365Y-46126281D01*
X78786734Y-46165500D01*
X78786736Y-46165500D01*
X78938264Y-46165500D01*
X78938266Y-46165500D01*
X79084635Y-46126281D01*
X79215865Y-46050515D01*
X79323015Y-45943365D01*
X79398781Y-45812135D01*
X79438000Y-45665766D01*
X79438000Y-45514234D01*
X79398781Y-45367865D01*
X79397478Y-45365609D01*
X79359564Y-45299940D01*
X79323015Y-45236635D01*
X79215865Y-45129485D01*
X79184635Y-45111454D01*
X80950583Y-45111454D01*
X80950583Y-45269147D01*
X80981344Y-45423790D01*
X80981347Y-45423802D01*
X81041685Y-45569473D01*
X81041692Y-45569486D01*
X81131102Y-45703296D01*
X81151980Y-45769973D01*
X81152000Y-45772187D01*
X81152000Y-49330396D01*
X81142562Y-49377844D01*
X81132763Y-49401503D01*
X81132762Y-49401506D01*
X81132760Y-49401511D01*
X81102001Y-49556150D01*
X81102000Y-49556155D01*
X81102000Y-49713846D01*
X81132761Y-49868489D01*
X81132764Y-49868501D01*
X81193102Y-50014172D01*
X81193109Y-50014185D01*
X81280710Y-50145288D01*
X81280713Y-50145292D01*
X81392207Y-50256786D01*
X81392211Y-50256789D01*
X81523314Y-50344390D01*
X81523327Y-50344397D01*
X81668998Y-50404735D01*
X81669003Y-50404737D01*
X81823653Y-50435499D01*
X81823656Y-50435500D01*
X81823658Y-50435500D01*
X81981344Y-50435500D01*
X81981345Y-50435499D01*
X82135997Y-50404737D01*
X82281679Y-50344394D01*
X82412789Y-50256789D01*
X82524289Y-50145289D01*
X82611894Y-50014179D01*
X82672237Y-49868497D01*
X82703000Y-49713842D01*
X82703000Y-49556158D01*
X82703000Y-49556155D01*
X82702999Y-49556150D01*
X82684508Y-49463195D01*
X82672237Y-49401503D01*
X82633937Y-49309038D01*
X94702000Y-49309038D01*
X94702000Y-49560961D01*
X94741410Y-49809785D01*
X94819260Y-50049383D01*
X94933632Y-50273848D01*
X95081701Y-50477649D01*
X95081705Y-50477654D01*
X95259845Y-50655794D01*
X95259850Y-50655798D01*
X95437617Y-50784952D01*
X95463655Y-50803870D01*
X95584142Y-50865261D01*
X95688116Y-50918239D01*
X95688118Y-50918239D01*
X95688121Y-50918241D01*
X95927715Y-50996090D01*
X96176538Y-51035500D01*
X96176539Y-51035500D01*
X96428461Y-51035500D01*
X96428462Y-51035500D01*
X96677285Y-50996090D01*
X96916879Y-50918241D01*
X97141345Y-50803870D01*
X97345156Y-50655793D01*
X97523293Y-50477656D01*
X97671370Y-50273845D01*
X97785741Y-50049379D01*
X97863590Y-49809785D01*
X97903000Y-49560962D01*
X97903000Y-49309038D01*
X97863590Y-49060215D01*
X97785741Y-48820621D01*
X97785739Y-48820618D01*
X97785739Y-48820616D01*
X97744247Y-48739184D01*
X97671370Y-48596155D01*
X97652452Y-48570117D01*
X97523298Y-48392350D01*
X97523294Y-48392345D01*
X97345154Y-48214205D01*
X97345149Y-48214201D01*
X97141348Y-48066132D01*
X97141347Y-48066131D01*
X97141345Y-48066130D01*
X97071247Y-48030413D01*
X96916883Y-47951760D01*
X96677285Y-47873910D01*
X96428462Y-47834500D01*
X96176538Y-47834500D01*
X96052126Y-47854205D01*
X95927714Y-47873910D01*
X95688116Y-47951760D01*
X95463651Y-48066132D01*
X95259850Y-48214201D01*
X95259845Y-48214205D01*
X95081705Y-48392345D01*
X95081701Y-48392350D01*
X94933632Y-48596151D01*
X94819260Y-48820616D01*
X94741410Y-49060214D01*
X94702000Y-49309038D01*
X82633937Y-49309038D01*
X82611897Y-49255826D01*
X82611890Y-49255814D01*
X82524289Y-49124711D01*
X82524286Y-49124707D01*
X82412792Y-49013213D01*
X82412784Y-49013207D01*
X82408105Y-49010080D01*
X82363302Y-48956466D01*
X82353000Y-48906981D01*
X82353000Y-45767946D01*
X82372685Y-45700907D01*
X82373898Y-45699055D01*
X82460473Y-45569486D01*
X82460473Y-45569485D01*
X82460477Y-45569480D01*
X82475331Y-45533620D01*
X82483361Y-45514234D01*
X84067000Y-45514234D01*
X84067000Y-45665765D01*
X84106219Y-45812136D01*
X84122307Y-45840000D01*
X84181985Y-45943365D01*
X84289135Y-46050515D01*
X84420365Y-46126281D01*
X84566734Y-46165500D01*
X84566736Y-46165500D01*
X84718263Y-46165500D01*
X84718266Y-46165500D01*
X84864635Y-46126281D01*
X84995865Y-46050515D01*
X85103015Y-45943365D01*
X85126897Y-45901999D01*
X85177464Y-45853784D01*
X85234284Y-45840000D01*
X85772500Y-45840000D01*
X85772500Y-46340000D01*
X85072500Y-46340000D01*
X85072500Y-46738495D01*
X85110927Y-46931681D01*
X85110930Y-46931693D01*
X85186307Y-47113671D01*
X85186314Y-47113684D01*
X85295748Y-47277462D01*
X85295751Y-47277466D01*
X85435033Y-47416748D01*
X85435037Y-47416751D01*
X85598815Y-47526185D01*
X85598828Y-47526192D01*
X85780808Y-47601569D01*
X85822500Y-47609862D01*
X85822500Y-46806988D01*
X85832440Y-46824205D01*
X85888295Y-46880060D01*
X85956704Y-46919556D01*
X86033004Y-46940000D01*
X86111996Y-46940000D01*
X86188296Y-46919556D01*
X86256705Y-46880060D01*
X86312560Y-46824205D01*
X86322500Y-46806988D01*
X86322500Y-47609862D01*
X86364190Y-47601569D01*
X86364192Y-47601569D01*
X86546171Y-47526192D01*
X86546184Y-47526185D01*
X86709962Y-47416751D01*
X86709966Y-47416748D01*
X86849248Y-47277466D01*
X86849251Y-47277462D01*
X86958685Y-47113684D01*
X86958692Y-47113671D01*
X87034069Y-46931693D01*
X87034072Y-46931681D01*
X87072499Y-46738495D01*
X87072500Y-46738492D01*
X87072500Y-46340000D01*
X86372500Y-46340000D01*
X86372500Y-45840000D01*
X87072500Y-45840000D01*
X87072500Y-45441508D01*
X87072499Y-45441504D01*
X87034072Y-45248318D01*
X87034069Y-45248306D01*
X86958692Y-45066328D01*
X86958685Y-45066315D01*
X86849251Y-44902537D01*
X86849248Y-44902533D01*
X86709966Y-44763251D01*
X86709962Y-44763248D01*
X86546184Y-44653814D01*
X86546171Y-44653807D01*
X86364191Y-44578429D01*
X86364183Y-44578427D01*
X86322500Y-44570135D01*
X86322500Y-45373011D01*
X86312560Y-45355795D01*
X86256705Y-45299940D01*
X86188296Y-45260444D01*
X86111996Y-45240000D01*
X86033004Y-45240000D01*
X85956704Y-45260444D01*
X85888295Y-45299940D01*
X85832440Y-45355795D01*
X85822500Y-45373011D01*
X85822500Y-44570136D01*
X85822499Y-44570135D01*
X85780816Y-44578427D01*
X85780808Y-44578429D01*
X85598828Y-44653807D01*
X85598815Y-44653814D01*
X85435037Y-44763248D01*
X85435033Y-44763251D01*
X85295751Y-44902533D01*
X85295748Y-44902537D01*
X85186314Y-45066315D01*
X85186309Y-45066324D01*
X85182366Y-45075845D01*
X85138523Y-45130247D01*
X85072228Y-45152310D01*
X85004530Y-45135029D01*
X84999097Y-45131351D01*
X84864636Y-45053719D01*
X84791450Y-45034109D01*
X84718266Y-45014500D01*
X84566734Y-45014500D01*
X84420363Y-45053719D01*
X84289135Y-45129485D01*
X84289132Y-45129487D01*
X84181987Y-45236632D01*
X84181985Y-45236635D01*
X84106219Y-45367863D01*
X84067000Y-45514234D01*
X82483361Y-45514234D01*
X82506382Y-45458655D01*
X82506382Y-45458654D01*
X82513484Y-45441508D01*
X82520820Y-45423798D01*
X82551583Y-45269143D01*
X82551583Y-45111459D01*
X82551583Y-45111456D01*
X82551582Y-45111454D01*
X82540098Y-45053719D01*
X82520820Y-44956804D01*
X82498342Y-44902537D01*
X82460480Y-44811128D01*
X82460473Y-44811115D01*
X82372872Y-44680012D01*
X82372869Y-44680008D01*
X82261375Y-44568514D01*
X82261371Y-44568511D01*
X82130268Y-44480910D01*
X82130255Y-44480903D01*
X81984584Y-44420565D01*
X81984572Y-44420562D01*
X81829928Y-44389801D01*
X81829925Y-44389801D01*
X81672241Y-44389801D01*
X81672238Y-44389801D01*
X81517593Y-44420562D01*
X81517581Y-44420565D01*
X81371910Y-44480903D01*
X81371897Y-44480910D01*
X81240794Y-44568511D01*
X81240790Y-44568514D01*
X81129296Y-44680008D01*
X81129293Y-44680012D01*
X81041692Y-44811115D01*
X81041685Y-44811128D01*
X80981347Y-44956799D01*
X80981344Y-44956811D01*
X80950583Y-45111454D01*
X79184635Y-45111454D01*
X79145906Y-45089094D01*
X79084636Y-45053719D01*
X79011450Y-45034109D01*
X78938266Y-45014500D01*
X78786734Y-45014500D01*
X78640363Y-45053719D01*
X78548928Y-45106510D01*
X78509135Y-45129485D01*
X78509133Y-45129486D01*
X78502097Y-45133549D01*
X78500827Y-45131349D01*
X78447495Y-45151960D01*
X78379052Y-45137914D01*
X78329068Y-45089094D01*
X78322631Y-45075838D01*
X78318692Y-45066328D01*
X78318685Y-45066315D01*
X78209251Y-44902537D01*
X78209248Y-44902533D01*
X78069966Y-44763251D01*
X78069962Y-44763248D01*
X77906184Y-44653814D01*
X77906171Y-44653807D01*
X77724191Y-44578429D01*
X77724183Y-44578427D01*
X77682500Y-44570135D01*
X77682500Y-45373011D01*
X77672560Y-45355795D01*
X77616705Y-45299940D01*
X77548296Y-45260444D01*
X77471996Y-45240000D01*
X77393004Y-45240000D01*
X77316704Y-45260444D01*
X77248295Y-45299940D01*
X77192440Y-45355795D01*
X77182500Y-45373011D01*
X77182500Y-44570136D01*
X77182499Y-44570135D01*
X77140816Y-44578427D01*
X77140808Y-44578429D01*
X76958828Y-44653807D01*
X76958815Y-44653814D01*
X76795037Y-44763248D01*
X76795033Y-44763251D01*
X76655751Y-44902533D01*
X76655748Y-44902537D01*
X76546314Y-45066315D01*
X76546307Y-45066328D01*
X76470930Y-45248306D01*
X76470927Y-45248318D01*
X76432500Y-45441504D01*
X62751297Y-45441504D01*
X62827195Y-45365606D01*
X62901120Y-45254969D01*
X62952040Y-45132036D01*
X62960582Y-45089094D01*
X62978000Y-45001533D01*
X62978000Y-44868466D01*
X62952041Y-44737969D01*
X62952040Y-44737968D01*
X62952040Y-44737964D01*
X62901120Y-44615031D01*
X62876663Y-44578429D01*
X62827198Y-44504398D01*
X62827192Y-44504390D01*
X62733109Y-44410307D01*
X62733101Y-44410301D01*
X62622479Y-44336386D01*
X62622472Y-44336382D01*
X62622469Y-44336380D01*
X62622465Y-44336378D01*
X62622461Y-44336376D01*
X62499540Y-44285461D01*
X62499530Y-44285458D01*
X62369033Y-44259500D01*
X62369031Y-44259500D01*
X62235969Y-44259500D01*
X62235967Y-44259500D01*
X62105469Y-44285458D01*
X62105459Y-44285461D01*
X61982538Y-44336376D01*
X61982520Y-44336386D01*
X61871898Y-44410301D01*
X61871890Y-44410307D01*
X61777807Y-44504390D01*
X61777801Y-44504398D01*
X61703886Y-44615020D01*
X61703876Y-44615038D01*
X61652961Y-44737959D01*
X61652958Y-44737969D01*
X61627000Y-44868466D01*
X61627000Y-44868469D01*
X61627000Y-45001531D01*
X61627000Y-45001533D01*
X61626999Y-45001533D01*
X60753000Y-45001533D01*
X60753000Y-42001533D01*
X61626999Y-42001533D01*
X61652958Y-42132030D01*
X61652961Y-42132040D01*
X61703876Y-42254961D01*
X61703886Y-42254979D01*
X61777801Y-42365601D01*
X61777807Y-42365609D01*
X61871890Y-42459692D01*
X61871898Y-42459698D01*
X61982520Y-42533613D01*
X61982523Y-42533614D01*
X61982531Y-42533620D01*
X62105464Y-42584540D01*
X62105468Y-42584540D01*
X62105469Y-42584541D01*
X62235966Y-42610500D01*
X62235969Y-42610500D01*
X62369033Y-42610500D01*
X62456825Y-42593035D01*
X62499536Y-42584540D01*
X62622469Y-42533620D01*
X62733106Y-42459695D01*
X62827195Y-42365606D01*
X62901120Y-42254969D01*
X62952040Y-42132036D01*
X62978000Y-42001531D01*
X62978000Y-41868469D01*
X62978000Y-41868466D01*
X62952041Y-41737969D01*
X62952040Y-41737968D01*
X62952040Y-41737964D01*
X62901120Y-41615031D01*
X62827195Y-41504394D01*
X62827192Y-41504390D01*
X62734306Y-41411504D01*
X76432500Y-41411504D01*
X76432500Y-41660000D01*
X77132500Y-41660000D01*
X77132500Y-42160000D01*
X76432500Y-42160000D01*
X76432500Y-42408495D01*
X76470927Y-42601681D01*
X76470930Y-42601693D01*
X76546307Y-42783671D01*
X76546314Y-42783684D01*
X76655748Y-42947462D01*
X76655751Y-42947466D01*
X76795033Y-43086748D01*
X76795037Y-43086751D01*
X76958815Y-43196185D01*
X76958828Y-43196192D01*
X77140808Y-43271569D01*
X77182500Y-43279862D01*
X77182500Y-42476988D01*
X77192440Y-42494205D01*
X77248295Y-42550060D01*
X77316704Y-42589556D01*
X77393004Y-42610000D01*
X77471996Y-42610000D01*
X77548296Y-42589556D01*
X77616705Y-42550060D01*
X77672560Y-42494205D01*
X77682500Y-42476988D01*
X77682500Y-43279862D01*
X77724190Y-43271569D01*
X77724192Y-43271569D01*
X77906171Y-43196192D01*
X77906184Y-43196185D01*
X78069962Y-43086751D01*
X78069966Y-43086748D01*
X78209248Y-42947466D01*
X78209251Y-42947462D01*
X78318685Y-42783684D01*
X78318692Y-42783671D01*
X78394069Y-42601693D01*
X78394072Y-42601681D01*
X78432499Y-42408495D01*
X78432500Y-42408492D01*
X78432500Y-42160000D01*
X77732500Y-42160000D01*
X77732500Y-41660000D01*
X78432500Y-41660000D01*
X78432500Y-41411508D01*
X78432499Y-41411504D01*
X85072500Y-41411504D01*
X85072500Y-41660000D01*
X85772500Y-41660000D01*
X85772500Y-42160000D01*
X85072500Y-42160000D01*
X85072500Y-42408495D01*
X85110927Y-42601681D01*
X85110930Y-42601693D01*
X85186307Y-42783671D01*
X85186314Y-42783684D01*
X85295748Y-42947462D01*
X85295751Y-42947466D01*
X85435033Y-43086748D01*
X85435037Y-43086751D01*
X85598815Y-43196185D01*
X85598828Y-43196192D01*
X85780808Y-43271569D01*
X85822500Y-43279862D01*
X85822500Y-42476988D01*
X85832440Y-42494205D01*
X85888295Y-42550060D01*
X85956704Y-42589556D01*
X86033004Y-42610000D01*
X86111996Y-42610000D01*
X86188296Y-42589556D01*
X86256705Y-42550060D01*
X86312560Y-42494205D01*
X86322500Y-42476988D01*
X86322500Y-43279862D01*
X86364190Y-43271569D01*
X86364192Y-43271569D01*
X86546171Y-43196192D01*
X86546184Y-43196185D01*
X86709962Y-43086751D01*
X86709966Y-43086748D01*
X86849248Y-42947466D01*
X86849251Y-42947462D01*
X86958685Y-42783684D01*
X86958692Y-42783671D01*
X87034069Y-42601693D01*
X87034072Y-42601681D01*
X87072499Y-42408495D01*
X87072500Y-42408492D01*
X87072500Y-42160000D01*
X86372500Y-42160000D01*
X86372500Y-41660000D01*
X87072500Y-41660000D01*
X87072500Y-41411508D01*
X87072499Y-41411504D01*
X87034072Y-41218318D01*
X87034069Y-41218306D01*
X86958692Y-41036328D01*
X86958685Y-41036315D01*
X86849251Y-40872537D01*
X86849248Y-40872533D01*
X86709966Y-40733251D01*
X86709962Y-40733248D01*
X86546184Y-40623814D01*
X86546171Y-40623807D01*
X86364191Y-40548429D01*
X86364183Y-40548427D01*
X86322500Y-40540135D01*
X86322500Y-41343011D01*
X86312560Y-41325795D01*
X86256705Y-41269940D01*
X86188296Y-41230444D01*
X86111996Y-41210000D01*
X86033004Y-41210000D01*
X85956704Y-41230444D01*
X85888295Y-41269940D01*
X85832440Y-41325795D01*
X85822500Y-41343011D01*
X85822500Y-40540136D01*
X85822499Y-40540135D01*
X85780816Y-40548427D01*
X85780808Y-40548429D01*
X85598828Y-40623807D01*
X85598815Y-40623814D01*
X85435037Y-40733248D01*
X85435033Y-40733251D01*
X85295751Y-40872533D01*
X85295748Y-40872537D01*
X85186314Y-41036315D01*
X85186307Y-41036328D01*
X85110930Y-41218306D01*
X85110927Y-41218318D01*
X85072500Y-41411504D01*
X78432499Y-41411504D01*
X78394072Y-41218318D01*
X78394069Y-41218306D01*
X78318692Y-41036328D01*
X78318685Y-41036315D01*
X78209251Y-40872537D01*
X78209248Y-40872533D01*
X78069966Y-40733251D01*
X78069962Y-40733248D01*
X77906184Y-40623814D01*
X77906171Y-40623807D01*
X77724191Y-40548429D01*
X77724183Y-40548427D01*
X77682500Y-40540135D01*
X77682500Y-41343011D01*
X77672560Y-41325795D01*
X77616705Y-41269940D01*
X77548296Y-41230444D01*
X77471996Y-41210000D01*
X77393004Y-41210000D01*
X77316704Y-41230444D01*
X77248295Y-41269940D01*
X77192440Y-41325795D01*
X77182500Y-41343011D01*
X77182500Y-40540136D01*
X77182499Y-40540135D01*
X77140816Y-40548427D01*
X77140808Y-40548429D01*
X76958828Y-40623807D01*
X76958815Y-40623814D01*
X76795037Y-40733248D01*
X76795033Y-40733251D01*
X76655751Y-40872533D01*
X76655748Y-40872537D01*
X76546314Y-41036315D01*
X76546307Y-41036328D01*
X76470930Y-41218306D01*
X76470927Y-41218318D01*
X76432500Y-41411504D01*
X62734306Y-41411504D01*
X62733109Y-41410307D01*
X62733101Y-41410301D01*
X62622479Y-41336386D01*
X62622472Y-41336382D01*
X62622469Y-41336380D01*
X62622465Y-41336378D01*
X62622461Y-41336376D01*
X62499540Y-41285461D01*
X62499530Y-41285458D01*
X62369033Y-41259500D01*
X62369031Y-41259500D01*
X62235969Y-41259500D01*
X62235967Y-41259500D01*
X62105469Y-41285458D01*
X62105459Y-41285461D01*
X61982538Y-41336376D01*
X61982520Y-41336386D01*
X61871898Y-41410301D01*
X61871890Y-41410307D01*
X61777807Y-41504390D01*
X61777801Y-41504398D01*
X61703886Y-41615020D01*
X61703876Y-41615038D01*
X61652961Y-41737959D01*
X61652958Y-41737969D01*
X61627000Y-41868466D01*
X61627000Y-41868469D01*
X61627000Y-42001531D01*
X61627000Y-42001533D01*
X61626999Y-42001533D01*
X60753000Y-42001533D01*
X60753000Y-39234500D01*
X60772685Y-39167461D01*
X60825489Y-39121706D01*
X60877000Y-39110500D01*
X150128000Y-39110500D01*
X150195039Y-39130185D01*
G37*
%TD.AperFunction*%
%TD*%
M02*
