%TF.GenerationSoftware,KiCad,Pcbnew,10.0.6*%
%TF.CreationDate,2026-09-05T00:08:37-07:00*%
%TF.ProjectId,ESP_32_IEM_RIG_TX_VER_1.0,4553505f-3332-45f4-9945-4d5f5249475f,1.0.0*%
%TF.SameCoordinates,Original*%
%TF.FileFunction,Paste,Top*%
%TF.FilePolarity,Positive*%
%FSLAX46Y46*%
G04 Gerber Fmt 4.6, Leading zero omitted, Abs format (unit mm)*
G04 Created by KiCad (PCBNEW 10.0.6) date 2026-09-05 00:08:37*
%MOMM*%
%LPD*%
G01*
G04 APERTURE LIST*
G04 Aperture macros list*
%AMRoundRect*
0 Rectangle with rounded corners*
0 $1 Rounding radius*
0 $2 $3 $4 $5 $6 $7 $8 $9 X,Y pos of 4 corners*
0 Add a 4 corners polygon primitive as box body*
4,1,4,$2,$3,$4,$5,$6,$7,$8,$9,$2,$3,0*
0 Add four circle primitives for the rounded corners*
1,1,$1+$1,$2,$3*
1,1,$1+$1,$4,$5*
1,1,$1+$1,$6,$7*
1,1,$1+$1,$8,$9*
0 Add four rect primitives between the rounded corners*
20,1,$1+$1,$2,$3,$4,$5,0*
20,1,$1+$1,$4,$5,$6,$7,0*
20,1,$1+$1,$6,$7,$8,$9,0*
20,1,$1+$1,$8,$9,$2,$3,0*%
G04 Aperture macros list end*
%ADD10RoundRect,0.250000X-0.475000X0.337500X-0.475000X-0.337500X0.475000X-0.337500X0.475000X0.337500X0*%
%ADD11RoundRect,0.250000X-0.337500X-0.475000X0.337500X-0.475000X0.337500X0.475000X-0.337500X0.475000X0*%
%ADD12RoundRect,0.250000X0.475000X-0.337500X0.475000X0.337500X-0.475000X0.337500X-0.475000X-0.337500X0*%
%ADD13RoundRect,0.250000X-0.450000X0.350000X-0.450000X-0.350000X0.450000X-0.350000X0.450000X0.350000X0*%
%ADD14RoundRect,0.051250X-0.733750X-0.153750X0.733750X-0.153750X0.733750X0.153750X-0.733750X0.153750X0*%
%ADD15RoundRect,0.250000X0.337500X0.475000X-0.337500X0.475000X-0.337500X-0.475000X0.337500X-0.475000X0*%
%ADD16RoundRect,0.150000X-0.500000X0.150000X-0.500000X-0.150000X0.500000X-0.150000X0.500000X0.150000X0*%
%ADD17RoundRect,0.175000X-0.175000X0.350000X-0.175000X-0.350000X0.175000X-0.350000X0.175000X0.350000X0*%
%ADD18RoundRect,0.175000X0.325000X-0.175000X0.325000X0.175000X-0.325000X0.175000X-0.325000X-0.175000X0*%
%ADD19RoundRect,0.150000X0.150000X-0.200000X0.150000X0.200000X-0.150000X0.200000X-0.150000X-0.200000X0*%
%ADD20RoundRect,0.250000X0.450000X-0.350000X0.450000X0.350000X-0.450000X0.350000X-0.450000X-0.350000X0*%
%ADD21RoundRect,0.250000X-0.350000X-0.450000X0.350000X-0.450000X0.350000X0.450000X-0.350000X0.450000X0*%
%ADD22R,2.200000X2.800000*%
%ADD23R,2.800000X2.800000*%
%ADD24RoundRect,0.150000X-0.587500X-0.150000X0.587500X-0.150000X0.587500X0.150000X-0.587500X0.150000X0*%
%ADD25R,0.900000X1.500000*%
%ADD26R,1.500000X0.900000*%
%ADD27R,0.900000X0.900000*%
%ADD28RoundRect,0.150000X0.150000X0.425000X-0.150000X0.425000X-0.150000X-0.425000X0.150000X-0.425000X0*%
%ADD29RoundRect,0.075000X0.075000X0.500000X-0.075000X0.500000X-0.075000X-0.500000X0.075000X-0.500000X0*%
%ADD30O,1.000000X2.100000*%
%ADD31O,1.000000X1.800000*%
%ADD32RoundRect,0.250001X-0.944999X0.507499X-0.944999X-0.507499X0.944999X-0.507499X0.944999X0.507499X0*%
%ADD33R,0.950000X2.150000*%
%ADD34R,3.250000X2.150000*%
%ADD35RoundRect,0.247500X-0.247500X0.247500X-0.247500X-0.247500X0.247500X-0.247500X0.247500X0.247500X0*%
%ADD36RoundRect,0.075000X-0.075000X0.362500X-0.075000X-0.362500X0.075000X-0.362500X0.075000X0.362500X0*%
%ADD37RoundRect,0.075000X-0.362500X0.075000X-0.362500X-0.075000X0.362500X-0.075000X0.362500X0.075000X0*%
G04 APERTURE END LIST*
D10*
%TO.C,C20*%
X113500000Y-85500000D03*
X113500000Y-87575000D03*
%TD*%
D11*
%TO.C,C31*%
X90252500Y-75985000D03*
X92327500Y-75985000D03*
%TD*%
D12*
%TO.C,C12*%
X117500000Y-80787500D03*
X117500000Y-78712500D03*
%TD*%
D13*
%TO.C,R30*%
X92302500Y-78235000D03*
X92302500Y-80235000D03*
%TD*%
D14*
%TO.C,U1*%
X117667500Y-82600000D03*
X117667500Y-83250000D03*
X117667500Y-83900000D03*
X117667500Y-84550000D03*
X117667500Y-85200000D03*
X117667500Y-85850000D03*
X117667500Y-86500000D03*
X123407500Y-86500000D03*
X123407500Y-85850000D03*
X123407500Y-85200000D03*
X123407500Y-84550000D03*
X123407500Y-83900000D03*
X123407500Y-83250000D03*
X123407500Y-82600000D03*
%TD*%
D15*
%TO.C,C25*%
X78077500Y-81485000D03*
X76002500Y-81485000D03*
%TD*%
D16*
%TO.C,SW4*%
X64252500Y-41185000D03*
X64252500Y-44185000D03*
X64252500Y-45685000D03*
D17*
X63402500Y-39760000D03*
X61202500Y-39760000D03*
X63402500Y-47110000D03*
X61202500Y-47110000D03*
%TD*%
D18*
%TO.C,D1*%
X81002500Y-50635000D03*
D19*
X82702500Y-50635000D03*
X82702500Y-48635000D03*
X80802500Y-48635000D03*
%TD*%
D20*
%TO.C,R25*%
X75002500Y-88735000D03*
X75002500Y-86735000D03*
%TD*%
D15*
%TO.C,C26*%
X80827500Y-77297500D03*
X78752500Y-77297500D03*
%TD*%
D21*
%TO.C,R13*%
X125537500Y-80925000D03*
X127537500Y-80925000D03*
%TD*%
D12*
%TO.C,C19*%
X115537500Y-83750000D03*
X115537500Y-81675000D03*
%TD*%
D15*
%TO.C,C24*%
X78077500Y-83485000D03*
X76002500Y-83485000D03*
%TD*%
D21*
%TO.C,R8*%
X72502500Y-75985000D03*
X74502500Y-75985000D03*
%TD*%
D22*
%TO.C,J2*%
X142887500Y-88500000D03*
X144887500Y-81100000D03*
D23*
X135487500Y-81100000D03*
%TD*%
D24*
%TO.C,Q2*%
X88315000Y-84185000D03*
X88315000Y-86085000D03*
X90190000Y-85135000D03*
%TD*%
D13*
%TO.C,R27*%
X79502500Y-86735000D03*
X79502500Y-88735000D03*
%TD*%
D25*
%TO.C,U2*%
X92357500Y-56485000D03*
X91087500Y-56485000D03*
X89817500Y-56485000D03*
X88547500Y-56485000D03*
X87277500Y-56485000D03*
X86007500Y-56485000D03*
X84737500Y-56485000D03*
X83467500Y-56485000D03*
X82197500Y-56485000D03*
X80927500Y-56485000D03*
X79657500Y-56485000D03*
X78387500Y-56485000D03*
X77117500Y-56485000D03*
X75847500Y-56485000D03*
D26*
X74752500Y-59520000D03*
X74752500Y-60790000D03*
X74752500Y-62060000D03*
X74752500Y-63330000D03*
X74752500Y-64600000D03*
X74752500Y-65870000D03*
X74752500Y-67140000D03*
X74752500Y-68410000D03*
X74752500Y-69680000D03*
X74752500Y-70950000D03*
D25*
X75847500Y-73985000D03*
X77117500Y-73985000D03*
X78387500Y-73985000D03*
X79657500Y-73985000D03*
X80927500Y-73985000D03*
X82197500Y-73985000D03*
X83467500Y-73985000D03*
X84737500Y-73985000D03*
X86007500Y-73985000D03*
X87277500Y-73985000D03*
X88547500Y-73985000D03*
X89817500Y-73985000D03*
X91087500Y-73985000D03*
X92357500Y-73985000D03*
D27*
X86192500Y-62335000D03*
X84792500Y-62335000D03*
X83392500Y-62335000D03*
X86192500Y-63735000D03*
X84792500Y-63735000D03*
X83392500Y-63735000D03*
X86192500Y-65135000D03*
X84792500Y-65135000D03*
X83392500Y-65135000D03*
%TD*%
D20*
%TO.C,R23*%
X88252500Y-46985000D03*
X88252500Y-44985000D03*
%TD*%
D10*
%TO.C,C21*%
X115500000Y-85500000D03*
X115500000Y-87575000D03*
%TD*%
D11*
%TO.C,C14*%
X125400000Y-91750000D03*
X127475000Y-91750000D03*
%TD*%
D21*
%TO.C,R14*%
X125537500Y-82925000D03*
X127537500Y-82925000D03*
%TD*%
D28*
%TO.C,J6*%
X84952500Y-46665000D03*
X84152500Y-46665000D03*
D29*
X83002500Y-46665000D03*
X82002500Y-46665000D03*
X81502500Y-46665000D03*
X80502500Y-46665000D03*
D28*
X79352500Y-46665000D03*
X78552500Y-46665000D03*
X78552500Y-46665000D03*
X79352500Y-46665000D03*
D29*
X80002500Y-46665000D03*
X81002500Y-46665000D03*
X82502500Y-46665000D03*
X83502500Y-46665000D03*
D28*
X84152500Y-46665000D03*
X84952500Y-46665000D03*
D30*
X86072500Y-46090000D03*
D31*
X86072500Y-41910000D03*
D30*
X77432500Y-46090000D03*
D31*
X77432500Y-41910000D03*
%TD*%
D12*
%TO.C,C17*%
X119500000Y-80787500D03*
X119500000Y-78712500D03*
%TD*%
%TO.C,C18*%
X113500000Y-83750000D03*
X113500000Y-81675000D03*
%TD*%
D10*
%TO.C,C30*%
X64802500Y-65760000D03*
X64802500Y-67835000D03*
%TD*%
D20*
%TO.C,R24*%
X75252500Y-46985000D03*
X75252500Y-44985000D03*
%TD*%
D12*
%TO.C,C5*%
X89002500Y-54522500D03*
X89002500Y-52447500D03*
%TD*%
D32*
%TO.C,C23*%
X68302500Y-65957500D03*
X68302500Y-69212500D03*
%TD*%
D21*
%TO.C,R12*%
X125537500Y-89175000D03*
X127537500Y-89175000D03*
%TD*%
D33*
%TO.C,U4*%
X62502500Y-63485000D03*
X64802500Y-63485000D03*
X67102500Y-63485000D03*
D34*
X64802500Y-57685000D03*
%TD*%
D11*
%TO.C,C15*%
X129250000Y-80925000D03*
X131325000Y-80925000D03*
%TD*%
D15*
%TO.C,C27*%
X80827500Y-79287500D03*
X78752500Y-79287500D03*
%TD*%
D35*
%TO.C,U5*%
X82862500Y-82375000D03*
X81642500Y-82375000D03*
X82862500Y-83595000D03*
X81642500Y-83595000D03*
D36*
X83502500Y-81047500D03*
X83002500Y-81047500D03*
X82502500Y-81047500D03*
X82002500Y-81047500D03*
X81502500Y-81047500D03*
X81002500Y-81047500D03*
D37*
X80315000Y-81735000D03*
X80315000Y-82235000D03*
X80315000Y-82735000D03*
X80315000Y-83235000D03*
X80315000Y-83735000D03*
X80315000Y-84235000D03*
D36*
X81002500Y-84922500D03*
X81502500Y-84922500D03*
X82002500Y-84922500D03*
X82502500Y-84922500D03*
X83002500Y-84922500D03*
X83502500Y-84922500D03*
D37*
X84190000Y-84235000D03*
X84190000Y-83735000D03*
X84190000Y-83235000D03*
X84190000Y-82735000D03*
X84190000Y-82235000D03*
X84190000Y-81735000D03*
%TD*%
D20*
%TO.C,R7*%
X86252500Y-80485000D03*
X86252500Y-78485000D03*
%TD*%
D10*
%TO.C,C22*%
X62802500Y-65760000D03*
X62802500Y-67835000D03*
%TD*%
D12*
%TO.C,C11*%
X91002500Y-54485000D03*
X91002500Y-52410000D03*
%TD*%
D21*
%TO.C,R16*%
X125537500Y-85050000D03*
X127537500Y-85050000D03*
%TD*%
D24*
%TO.C,Q1*%
X88315000Y-78535000D03*
X88315000Y-80435000D03*
X90190000Y-79485000D03*
%TD*%
D13*
%TO.C,R26*%
X77502500Y-86735000D03*
X77502500Y-88735000D03*
%TD*%
D11*
%TO.C,C13*%
X129250000Y-89175000D03*
X131325000Y-89175000D03*
%TD*%
D13*
%TO.C,R11*%
X86252500Y-84235000D03*
X86252500Y-86235000D03*
%TD*%
D21*
%TO.C,R15*%
X125537500Y-87050000D03*
X127537500Y-87050000D03*
%TD*%
D11*
%TO.C,C16*%
X125600000Y-78350000D03*
X127675000Y-78350000D03*
%TD*%
M02*
